/* XPM */
static char *_9_Wolfenstein3DWalls1735817066[] = {
/* columns rows colors chars-per-pixel */
"128 128 40 1 ",
"  c black",
". c #070000",
"X c #0B0000",
"o c #1B0700",
"O c #00001F",
"+ c gray12",
"@ c #230B00",
"# c #00003F",
"$ c #232323",
"% c #2F2F2F",
"& c gray20",
"* c #373737",
"= c gray23",
"- c #000043",
"; c #00004F",
": c #00005B",
"> c #00005F",
", c #000067",
"< c #000073",
"1 c #00007F",
"2 c #434343",
"3 c #4B4B4B",
"4 c gray34",
"5 c #676767",
"6 c gray45",
"7 c gray50",
"8 c #00008B",
"9 c #00009B",
"0 c #00009F",
"q c #0000A7",
"w c #0000AB",
"e c #0000B3",
"r c #0000BF",
"t c #0000CB",
"y c #0000D7",
"u c #0000DF",
"i c #0000E3",
"p c #0000EF",
"a c blue",
"s c #0007FF",
/* pixels */
"#OO::<<88888888899119999999999988889811191111911::,,,,::;;O#-<<<<<9<<<<<<<<<<<<<<:<<<O#####<<<<<<<<<<<<<<<<<<<<<####<<<<<<<<<<##",
"#OO::<<8899988899811qqq999981111118891,,8111111<::,,,,::;;O#-<<<<<<<<<<<<<<<<<<<<1<<<O####<<<<<8888888888888<<<<<###<eeeq88<<<##",
"OOO888888qq99888q<8199198q81q981119<<<<,<811811<,,::;;::,;OO>10rrrrrrrrrr9rr08111111,O  OO>9999999qqqqqq99999988<#  qeyeqqqq8,  ",
"OOO88888988898188<<19<889e81q981<1<<8,,,<<1181<<1,:,;;::,;OO>0uaaurr1r199990881<11<,,O  OO>99999999999999qqerrq8<#  qyyyqqqq8,  ",
"OO-qq88qq99q8888<,,<1889qqq1eq811<<,;,,,,,<1<<11,,,;::,,<; O>0uaaur89<989988rr0<1,,,;#  OO>9eeqqeeq99e9eeetettrq<#  qeyeq9881,  ",
"OO-qq88q8898q8188,1,98989918qq811<<<,1<,,1,1811,,,,1::,,<; O>0ruueq998989<8r0,,091,,;-  OO>9eeqqee999reeeettrreq<#  qqeqq9981,  ",
"OO-9999q889888118,8<e8888q189919881<,<8:,8<111111<11::;;,; O>80eeeee9q18<<8,,,<8,,,,;-  OO>9qqeqqe99etrqqqttqeeq<#  9999qq98,;  ",
"OO-9999q8888911881,<e99818899<9<1<<,:,,:1,<<1,,<<111::;;,; O>80erree9<91881<,<,,,,,1;-  OO>9qqqeee9eterrq9ee9qq8<#  9999qq88,;  ",
"OO;99qqqq89r881q<881eq9<8198811111<18,1,8818<:1<,1111,1,;; O>109ree998<8<<1,,<,1;<>:;-  OO>9eeqeqeer9tqq9999eq91,#  118998<<,;  ",
"OO;99qqqq998999q1888q888198<81918<<<1:,:88889111<1,1,1,,;; O>181qeq991188<11,,,<<1>:;-  OO>9eeeqqreeqettqre898q1,#  118,88<<<;  ",
"OO,8899988811981188q918181<,<11<q:,:,1,;88q811,11111111;,; O;8989q91989<,1,,8<,1:,>;;-  OO>9eeqqreqertiirqq99888<#  8811<<:<<;  ",
"OO,8898981119911189e891811<9<818<,:;:,;889e811818818911;,; O>891118998<81<,,9:<<,>:;;-  OO>9eeeeqreqtiiteeq98989<#  88<118:<,;  ",
"OO,889888<119118<9qq8881<1<<<88<9,;-;,,89qqq1<8881<11,1<,; O-899199919<81<<,<1,1,>>1;-  OO>9qqeeqretetirr9qqe88<,#  8<<<11;<,;  ",
"OO,8<q981998989911998181<,<,8<<<<,:;::89199188qq98<11,<<,; O>8991999<8<<1<1<:,19,>>:;-  OO>9qeereeqqeqrre9q8q88<,#  ,,<<1<;;;;  ",
"OO,88qq88889199q988q18111,1<,<:,,<:,:,8988q18qrr9q1:,,::,; O>8q8111,<11<<<1,:;;,;;;:;-  OO>9qqeeere9reereq8qe988<#  ,::<<<::;;  ",
"OO,881<88889988qq8<1<1<1<<<,,,<<1,:,,89q8<188qqrq981,,::,; O>9e8101,,<<1<1,1,1:;,;;:;-  OO>9qe99req9tqqqqqq98q98<#  -,::;;::--  ",
"OO;11111181<88<rqq911:1,,,<::<,;,,;,;8qqq9189qqq988<<<,,<; O;qqq101,,111<,:,<:1;;;;:;-  O#:81999qq999q0q10998qq98#   --------   ",
"OO;11<1<888qq91qqqq11891,,11,<<,<;,1<9qqqq1189q981<<<<,,<; O;99180<,,<,;,,:,,<;:;;;:;-  O#:80999q8889qqqq1q98q88<#              ",
"OO-<<<8q18qqrqq91q988<1,,,9:1,:,,;;,118889q01<8881,,::,,,; O;8q18,<<<1::1,:,,;;,1>:;;-  O#:809009q99qq0eeq88199<<#  O;0qqqq1;O  ",
"OO-<<<<818qerrqeq99888<,<11,,,;:,:;;,81888990<88<<::<<,,;; O;,11,,1:,:<,,,;:,:;;,,:;;-  O#:809819r098q8e9qq8818<<#  ;0uuurrq<;  ",
"OO-<<<<18qqeeeqqqq8q981,,<<:::;;:,,<189988901,<8<,::<<,;;; O;<<,1<,<1,,:::;;:,,<1>::;-  O#:8011<<908qq8q9q9q999<<#  9uarr0qq1:  ",
"OO-<<<<189qqeqqq8q89111,,11::;;;;:;<:<8899111<<9,,,<,,,;;# O;<,,,1:,,,:::;;;;:;<::;;;-  O#:891<<<918q8eqq9q9eeq1<#  9uau00q11:  ",
"OOO<<11981qq8eq81991<,<,,<,;:,;;,;;:;<88911,<<88,,<<,;;;;O O;<11,,:<,:-;:,;;,;;:;1;:;#  O#:181,<1e88q8ee98989q8q:#  8uarq181::  ",
"OOO<<11891989918889q01<<<1:;:;;;,;:,;,,,,,,,,,,,,,,,,;;;#O O;>,,:::;;;-;:;;;,;:,;;;:;#  O#:18111188<qq8988811181:#  8uurq181::  ",
"O O::<<<9q899881888990<:,:<#:-#######;;;;;;;;;;;;;;;;;#OO  O#;##;;-#####:-###########O  O#:<11111111111111111111;#  8ut9q11,;:  ",
"O  ::<<<<89<<889988901,####OOOOOOOOOO                      OO#OO##OOOOOOOOOOOOOOOOOOOO  OO#>>>>>>>>>>>>>>>>>>>>>#O  8u9988,,;:  ",
"OOO;;::<<99<<<<889911;#                                                                  OO##----------------##OO   1r01<1::,:  ",
"OOOO;::<<<<9<<<88911>O                                     O                                               .        1011111:,:  ",
"OOOO#--;,,,,,,,,,,,,>O  +$$$$$$$$$$$$$$$$$$$$$$$$$$$$$$%=33=%$$$$$$$$$$$$$$$$$$$$$$$$%=33=%$$$$$$$$$$$$$$           -<<8ee8<;-  ",
"OOOOOO-;;;;;;;;;;;;--O  $================================33============================33===============%           O-,,::;;-O  ",
"OO                      $=222222222222222222222222222222233222222222222222222222222222333322222222222222%                       ",
"-------------------     $=333333333333333333333333333333333333333333333333333333333333333333333333333333%                       ",
"88888888888888999081:   $=333333333333333333333333333333333333333333333333333333333333333333333333333333%    -;,,<<,:,,,<<,:,,11",
"888888qruurr099888811#  $=3333======================================================================3333%   -:1000rreeeeerr00988",
"qqq999eyuiur098<<11<<-  $=3333$    .%%%$+.........%%$$$.........%%$$$.........%%$$$.......%%$$$..  $4333%   -100eruyrrrrrttrr999",
"9999qqetuutrq8<<<11<<-  $=3333$     *=%$$XXXXXXXXX*=%$$XXXXXXXXX*=%$$XXXXXXXXX*=%$$XXXXXXX*=%$$X   &4333%   -10rrrppaiiityuyrrqq",
"e9eeetetttre0981<,,:,-  $=3333$     =2*%$         =2*%$         =2*%$         =2*%$       =2*%$    &4333%   -9erruaaaaiytypuurqq",
"reeeettrere00011<,,:,-  $=3333%     =3=%$         =3=%$         =3=%$         =3=%$       =3=%$    &4333%   ,9erttpauuuytyuaurrq",
"trqqqttqqqqq0881<,,,,-  $=3333%     =3=%$         =3=%$         =3=%$         =3=%$       =3=%$    24333%   ,9erttupuuuuyuuturrr",
"errq9ee919888111<,,,,-  $=3333%     =3=%$         =3=%$         =3=%$         =3=%$       =3=%$    24333%   <9errrtuuuuuuuuuatrr",
"tqq9999e8e00901<>11,,-  $=3333%     =3=%$         =3=%$         =3=%$         =3=%$       =3=%$    24333%   <0errertyyyuuuuurtqq",
"ettqre89989801<,,11,<-  $=3333%     =3=%$         =3=%$         =3=%$         =3=%$       =3=%$    24333%   <qrerrrtyytsuttteeqq",
"tiirqq99er9181<:,:::<-  $=3333%     =3=%$         =3=%$         =3=%$         =3=%$       =3=%$    34333%   <e0errrtruyyyttuer99",
"iiteeq989980q1<,<:::<-  $=3333%     =3=%$         =3=%$         =3=%$         =3=%$       =3=%$    34333%   <eeerrrrtyyrttqqr009",
"tirr9qqe089011<::,,:<-  $=3333%     =3=%$         =3=%$         =3=%$         =3=%$       =3=%$    35333%   <q0errreettteererq09",
"qrre9q8q880119>,,1,:,-  $=3333%     =3=%$         =3=%$         =3=%$         =3=%$       =3=%$    35333%   <q0eerewerrrqearrq99",
"eereq8qe8099e1>:9,,;,-  $=3333%     =3=%$         =3=%$         =3=%$         =3=%$       =3=%$    35333% X <q0ereeeerreqqetrree",
"reeqqq988e00<<:::;;;<-  $=3333%     =3=%$         =3=%$         =3=%$         =3=%$       =3=%$    35333% + <qee0ereeer0eeetr0ee",
"tqee99989ee91<<,;;;;<-  $=3333%     =3=%$         =3=%$         =3=%$         =3=%$       =3=%$    35333% = <9er0rtrrrrreeet0rrr",
"rree9q989eq1<<>,;::;<-  $=3333%     =3=%$         =3=%$         =3=%$         =3=%$       =3=%$    35333% % <9eererrrtreertttrrr",
"r9eq988199919><:;;;;,-  $=3333%     =3=%$         =3=%$         =3=%$         =3=%$       =3=%$    35333% + <9rr0eeee0r0errrteqq",
"9999918888<1<>::;;;;<-  $=3333%     =3=%$         =3=%$         =3=%$         =3=%$       =3=%$    35333% + <9reyyer0teertr0yeqq",
"q889eeq9888<:>;;::;-<-  $=3333%     =3=%$         =3=%$         =3=%$         =3=%$       =3=%$    35333% . <9errrr00eqrr0t0te99",
"q9qerrte8191<>;:;;--<-  $=3333%     =3=%$         =3=%$         =3=%$         =3=%$       =3=%$    35333% . <9eryrtrerryttte0t99",
"e1qrqrer81<<1,:;;;::,;O $=3333%     =3=%$         =3=%$         =3=%$         =3=%$       =3=%$    35333% + <1rryuytrtrytytetqqq",
"9q9qqr9e<<11,,,;::,,<;  $=3333%     =3=%$         =3=%$         =3=%$         =3=%$       =3=%$    35333% = <1rrrrutttqqyytrtqqq",
"98e8q9q9811,,,,;::,,<;  $=3333%     =3=%$         =3=%$         =3=%$         =3=%$       =3=%$    35333% % <1ryrrttttrrytrrrt99",
"989881q<11111<<,::;;,;  $=3333%     =3=%$         =3=%$         =3=%$         =3=%$       =3=%$    35333% + <1qyyrrttrrrtreyrr99",
"e81819811,,<<1<<,:;;,;  $=3333%     =3=%$         =3=%$         =3=%$         =3=%$       =3=%$    35333% + <1qyt0rtreer0rrtrqqq",
"<<1<18<<<:1<,111<,,,;;  $=3333%     =3=%$         =3=%$         =3=%$         =3=%$       =3=%$    35333% . <1qyrt9rre9er0rytrqq",
"9111<1,19111<1,<,,,,;;  $=3333%     =3=%$         =3=%$         =3=%$         =3=%$       =3=%$    35333% . <1qyrtwere99errtrq99",
"11,1111111,11111<<<;,;  $=3333%     =3=%$         =3=%$         =3=%$         =3=%$       =3=%$    35333% . <1qttweeer98wewr9999",
"11818818118188189,<;,;  $=3333%     =3=%$         =3=%$         =3=%$         =3=%$       =3=%$    35333% . <10trweew8r8qww0qq98",
"1<8881<11<8881<11,<<,;  $=3333%     =3=%$         =3=%$         =3=%$         =3=%$       =3=%$    35333% . <1qtrwwqq088wwwr0988",
"0011<10088qq98<11,<<,;  $=3333%     =3=%$         =3=%$         =3=%$         =3=%$       =3=%$    35333% . <1qrrww9qr18qqqr9911",
"810088<88qrr9q1:,,::,;  $=3333444443333444443     =3=%$         =3=%$         =3=%$       =3=%$    35333% . <1qre0r9r8980q0q9911",
",810,,0,8qqrq981,,::,; O$=333333333333333333=     =3=%$         =3=%$         =3=%$       =3=%$    35333% . <1qre098q00q0r009811",
"<<11<,<<9qqq988<<<,,<; O$=333334333333333433=     =3=%$         =3=%$         =3=%$       =3=%$    35333% . ,1qe00880989q0908811",
",<888<8,89q981<<<<,,<; O$=333347433333334643=     =3=%$         =3=%$         =3=%$       =3=%$    35333% . ,,qe0098981118qq8888",
"<808<,,,<11811q,81::<; O$=3333=3=3333333=3=3=     =3=%$         =3=%$         =3=%$       =3=%$    35333% . :,qeq0918188<q998888",
"8<,8888,8<,8888,11::<; O$=3333=%=3333333=%=3=     =3=%$         =3=%$         =3=%$       =3=%$    35333% . :,qe09818888980<8811",
"81<1198<81<1198<;;<<,;  $=33333=333333333=33=     =3=%$         =3=%$         =3=%$       =3=%$    35333% . -,qe98<<9q18<88888<1",
"111q818<111q818<;;<<,;  $=333333333333333333=     =3=%$         =3=%$         =3=%$       =3=%$    35333% . -,qq99<109198111<<,1",
",<<qq1<;,<<qq1<;::,,,;  $=333333333333333333=     =3=%$         =3=%$         =3=%$       =3=%$    35333% . -,8q99911089<1<,,<11",
"1<8881,,1<8881,,::,,,;  $=333333333333333333=     =3=%$         =3=%$         =3=%$       =3=%$    35333% . -,8q981<8108q1<,1811",
"0<88<<::0<88<<::<<,,;;  $=33333=%%=333333333=     =3=%$         =3=%$         =3=%$       =3=%$    35333% . -<<q999<<801811,,<<1",
"1,<8<,::1,<8<,::<<,;;;  $=333334% 5333333433=     =3=%$         =3=%$         =3=%$       =3=%$    35333% .  ,<9q981118988111,<8",
"1<<9,,,<1<<9,,,<,,,;;#  $=333335% 6333334643=     =3=%$         =3=%$         =3=%$       =3=%$    35333% .  ::80qq111<899111<<9",
"<<88,,<<<<88,,<<,;;;;O  $=333335% 533333=3=3=     =3=%$         =3=%$         =3=%$       =3=%$    35333% .  -:88111,<<81110<<88",
",,,,,,,,,,,,,,,,,;;;#O  $=333334% 533333=%=3=     =3=%$         =3=%$         =3=%$       =3=%$    35333% .  --,,,,,,,,,,,,,,,,,",
"------------------#OO   $=333334%$4333333=33=     =3=%$         =3=%$         =3=%$       =3=%$    35333% .     ----------------",
"                        $=333334444333333333=     =3=%$         =3=%$         =3=%$       =3=%$    35333% .  O                  ",
"OOOOOOOOOOOOOO          $=333333333333333333=     =3=%$         =3=%$         =3=%$       =3=%$    35333% .  O#1riiiyrqqq88<#OOO",
"OOOOOOO:,8881811<<:     $=333333333333333333=     =3=%$         =3=%$         =3=%$       =3=%$    35333% .  O#riyeerr990r08>#OO",
"OOOO#89errtttteeqq<;#   $=333333333333333333=     =3=%$         =3=%$         =3=%$       =3=%$    35333% .  O,reeqq0q9900q8>;OO",
"OOO#8etyyyyyyytrq0<,;-  $=333334333333333433=     =3=%$         =3=%$         =3=%$       =3=%$    35333% .  O,8q1111111111<>#OO",
"OOO#9tyiipituute99<:##  $=333346433333334643=     =3=%$         =3=%$         =3=%$       =3=%$    35333% .  O#;88<<<<<<<<>>,#OO",
"OOO#9tiippiyyutrq8<:##  $=3333=3=3333333=3=3=     =3=%$         =3=%$         =3=%$       =3=%$    35333% .  OO#;;;;;;;;;;;##OOO",
"OOO#9tiipiytytre0<<:##  $=3333=%=3455433=%=3=     =3=%$         =3=%$         =3=%$       =3=%$    35333% . OOOOOOOOOOOOOOOOOOOO",
"OOO#9tpiipyttyte08<:##  $=3333===============     =3=%$         =3=%$         =3=%$       =3=%$    35333% . ;:8qqeeerreerq8<<OOO",
"OOO#etiiiyytutrw99<:##  $=3333$     $$$$$         =3=%$         =3=%$         =3=%$       =3=%$    35333% . <wtttrrreeqqqqq8<;OO",
"OOO#etipitrttuwq81:,##  $=3333%     %=%$$         =3=%$         =3=%$         =3=%$       =3=%$    35333% . 8tttruytrrqrqqqq8;OO",
"OOO#etyityyrttew81:;##  $=3333%     =3=%$         =3=%$         =3=%$         =3=%$       =3=%$    35333% . 8ttruutrerqeee991;  ",
"OOO#etytytrrutw08<::##  $=3333%     =3=%$         =3=%$         =3=%$         =3=%$       =3=%$    35333% . 8trreeqrqqrqee981;  ",
"OOO#etyyttqett0918<;:#  $=3333%     =3=%$         =3=%$         =3=%$         =3=%$       =3=%$    35333% . 8yre09990qeeq8181;  ",
"OOO#etyreyrtrtwq81:;:#  $=3333%     =3=%$         =3=%$         =3=%$         =3=%$       =3=%$    35333% . 8ye090889qeq88811;  ",
"OOO#etyetrterewq1<,,##  $=3333%     =3=%$         =3=%$         =3=%$         =3=%$       =3=%$    35333% . qye0988889881111<;  ",
"OOO#etrqetereqq911,:##  $=3333%     =3=%$         =3=%$         =3=%$         =3=%$       =3=%$    35333% . 0yeq989998<0<1<1<;  ",
"OOO#eteeqeqtwq9011,:##  $=3333%     =3=%$         =3=%$         =3=%$         =3=%$       =3=%$    35333%   0yeq99wqww<8<<1,:;  ",
"OOO#etqqetteeqw01<,:##  $=3333%     =3=%$         =3=%$         =3=%$         =3=%$       =3=%$    35333% + 8yeeeee08w8<8><<,;  ",
"OOO#et99qeeee9998<,:##  $=3333%     =3=%$         =3=%$         =3=%$         =3=%$       =3=%$    35333% + <yee9ew88991<1<,;;  ",
"OOO#etq9retrrtq0<,,-##  $=3333%     =3=%$         =3=%$         =3=%$         =3=%$       =3=%$    35333% + 9yeqqqe8011>18,:;;  ",
"OOO#eteqeeerrt991<,:##  $=3333%     =3=%$         =3=%$         =3=%$         =3=%$       =3=%$    35333% + 8yeqqrr9088<><::;;  ",
"OOO#eteqrrrrttw91<,:##  $=3333%     =3=%$         =3=%$         =3=%$         =3=%$       =3=%$    35333% . <yeqqw0981<<:,:;;;  ",
"OOO#eteqqtrrttw81<,-##  $=3333%     =3=%$         =3=%$         =3=%$         =3=%$       =3=%$    35333% . 0yeq9w9998<::>;-;;  ",
"OOO#ete9qrrrrr911<,:##  $=3333%     =3=%$         =3=%$         =3=%$         =3=%$       =3=%$    35333%   1yer0eeq8<<::;#-;;  ",
"OOO#etqqertrtr811,,-##  $=3333%     =3=%$         =3=%$         =3=%$         =3=%$       =3=%$    35333% + 1ye00rr988:::--;-;  ",
"OOO#eteqeeerrr8<<1,-##  $=3333%     =3=%$         =3=%$         =3=%$         =3=%$       =3=%$    35333% + 1yeerr91<<<:,;---;  ",
"OOO#etq9qtrere91,11-##  $=3333%     =3=%$         =3=%$         =3=%$         =3=%$       =3=%$    35333% + 1yeewr0911,:::;;-;  ",
"OOO#rt9qqeeeeew<<,,-##  $=3333%     =3=%$         =3=%$         =3=%$         =3=%$       =3=%$    35333% + 1yewwqr081,;;;;-;;  ",
"OOO#rtqqqqqeew88<1:-##  $=3333%     =3=%$         =3=%$         =3=%$         =3=%$       =3=%$    35333% . 1yewew90<<,;>;-,#;  ",
"OOO#rteeqqqq9098<<,-##  $*3333%     =3=%$         =3=%$         =3=%$         =3=%$       =3=%$    35333%@. 1yeqqew1<,,;:-;>-;  ",
"OOO#rtereeqqqe98,,:-##  $=3333%     =3=%$         =3=%$         =3=%$         =3=%$       =3=%$    35333%oX ,yerwew1,,,;;--#-;  ",
"OOO#ree9eeqq8q8<,,:-##  $=3333%     =3=%$         =3=%$         =3=%$         =3=%$       =3=%$    35333% X <yewr00<;>>;;#-:-#  ",
"OOO#reereq8919<,<,:###  $=3333%     =3=%$         =3=%$         =3=%$         =3=%$       =3=%$    35333% X <ye0ee8<>>>;;----;  ",
"OOO#reeq99q9188<<;--##  $=3333%     =3=%$         =3=%$         =3=%$         =3=%$       =3=%$    35333% X <yq00w00>>:>;--;;;  ",
"OOO#rq998909818<,;-###  $=3333%     =3=%$         =3=%$         =3=%$         =3=%$       =3=%$    35333% X <yq0w88>>::,;;>-;#  ",
"OOO#rq99880811,:,;:###  $=3333%     =3=%$         =3=%$         =3=%$         =3=%$       =3=%$    35333%   :tqe8811:>,,;>>-;;  ",
"OOO#qq9988q9911<:;:###  $=3333%     =3=%$         =3=%$         =3=%$         =3=%$       =3=%$    35333%   ,tqe801:>,,<>>>#;;  ",
"OOO#qq98889181<<:;-###  $=3333%     =3=%$         =3=%$         =3=%$         =3=%$       =3=%$    35333%   >988818><::>:#>-#;  ",
"OOO#999811911,,::;####  $=3333%     =3=%$         =3=%$         =3=%$         =3=%$       =3=%$    35333%   <98<<8<;;;:>;####;  ",
"OOO#999881811,:,::####  $=3333%     =3=%$         =3=%$         =3=%$         =3=%$       =3=%$    35333%   ,8881<,;:::>->-;#>  ",
"OOO#998<8<11<>,,-#####  $=3333%22233=3=%%%=3333333=3=%%%=3333333=3=%%%=3333333=3=%%%=33333=3=%%====35333%   ,8<,,8:;;;;>##-##>OO",
"OOO#998888118<>>######  $=333345555543=%=45555555543=%=45555555543=%=45555555543=%=455555543=%=444444333%   :<8<,,:;;;#######>OO",
"OOO#<<101<<>>><>######  $=333333333333333333333333333333333333333333333333333333333333333333333333333333%   ><<,:::;;;#######>OO",
"####<<<1<>><><<>>#####  $=333333333333333333333333333333333333333333333333333333333333333333333333333333%   >>>>:;;;##;######:OO",
"::::::::::::::::::::::  +%%%%%%%%%%%%%%%%%%%%%%%%%%%%%%%%%%%%%%%%%%%%%%%%%%%%%%%%%%%%%%%%%%%%%%%%%%%%%%%%   >,,,,;,,;;,;;;;,,:::",
"::::::::::::::::::::::  +++++++++++++++++++++++++++++++++++++++++++++++++++++++++++++++++++++++++++++++++   ::::::::::::::::::::"
};
