/* XPM */
static char *_2_Wolfenstein3DWalls1735817066[] = {
/* columns rows colors chars-per-pixel */
"128 128 32 1 ",
"  c gray12",
". c #2B230F",
"X c #3B2F17",
"o c #232323",
"O c #2F2F2F",
"+ c gray20",
"@ c #373737",
"# c gray23",
"$ c #43331B",
"% c #4B3B1B",
"& c #573F1F",
"* c #5F4323",
"= c #6F4B27",
"- c #774F2B",
"; c #434343",
": c #4B4B4B",
"> c gray34",
", c #5B5B5B",
"< c #676767",
"1 c gray45",
"2 c gray50",
"3 c #83532F",
"4 c #8B5B33",
"5 c #935F37",
"6 c #9F633B",
"7 c #A3673F",
"8 c #AB6B43",
"9 c #B77347",
"0 c gray56",
"q c #9B9B9B",
"w c gray67",
"e c #C3C3C3",
/* pixels */
"222:%%&****&&*&*&&&&&&**&*****%%************&%$$::::**&&%%%%%%%%%%%%%%%%%%%$$$::#OOOOOOOOOoo>>22:,<1<,>::::::::::::::::::<<22222",
"222:$%%****&&*&*&&&&&&**&*****%%*********&%%%%$$::::**&&%%%%%$$%%%%%%%%%%%%$%$X::#OOOOOOOOoo>>2:,<1<,>::::::::::::::::::::<<2222",
"221:$%%&****&*&*&&&&&&**&*****$$*******&%%$$$$::><**&&%%%%%%$$$$%%%%%%%%%%%$%%$$>:#OOOOOOOoo>>:,<1<,>::::::::::::::::::::::<<222",
"221>$%%&****&***&&&&*&**&*****$$*****&%%%$$$$::><***&&%%%%%$$$$$$%%%%%%%%%%$%%$$X>:#OOOOOOoo>>:,<<,>::::::::::::::::::::::::<<22",
"1111#$%%****&***&&&&*&**&****&$$&**&%%$$$$$::><2&&**%%%%%%&*$$$$$%%%%$%%%%%$%%$%$$>:#OOOOOoo>>:,<,>::::::::::::::::::::::::::<<2",
"<111:$%%&***&***&&&&*&**&****&$$&&%%%$$$$:::><2*&&**&%%%%%&*$$$$$%%%&.*%%%%$%%$$%$>>:#OOOOoo>>:,,>::::::::::::::::::::::::::::>>",
"><11>#$%%***&***&&&&*&**&**&%%$$%%%$$$$:::><22&&&&**&%%%%%&*%$$$%%$$%*&%%%%$%%$$&$X>>:#OOOoo>>:,>::::::::::::::::::::::::::::::>",
">><12:$%%&**&***&&&&****&*&%%%$$$$X$$$::><<<2*&&&&**&%%%%%*=%%$%%%$$%%%%%%%$%%$$%*X>>>:#OOoO>>:,>:::::::::::::::::::::::::::::::",
":>><1>#$%%**&***&&&&****&&%%$$XXXX$$::><1111&&%%%%**&%%%%%*-%%%%%%%%%%%%%%%$%%$$%=%$<<>:#OOO>>;>::::::::::::::::::::::::::::::::",
"::>><1:$%%&*****&*&&****&%%$$XXXX$#::><<111*&&%%%%**%%%%%%*=&%%%%%%%%%%%%%%$%%$$%%=&X<<>:##:><;;::::::::::::::::::::::::::::::::",
":::>><>#$%%*****&*&*****&%$XXXX$#::><<<1<<>&&&%%%%&*&%%%&%*=&%%%%%%%%$$%%%%$%%$$%%*-&$<<<>>><<>;:::::::::::::::::::::>::::::::::",
"::::>><:$%%&**********&%%$XXX$#:>><<<<1<<>$&&&%%%%&*&%%%%%*=&%%%%%%%$.X$%%%$%$$$%%$=-&X<<<<<<<>;;::::::::::::::::::::>:::;::::::",
":::::>:>#$%%&******&%%%%$XX$$#:>>>><<<<<>>$$%%%%%%&*&%%%%%*=&%&%%%%&...X%%%%%$X$%%$*--&X<<<<<<<:;;:::::::::::::::::::>:::;::::::",
":::::;;<:$$%%&***&%%%%$$XX$#::><>>>>><<>>>$$$%%%%%&*&%%%%%&&&%&%%%%&.XX.%%%%%$X$%%$%*=&X<<111<<>:;;:::::::::::::::::>>:::;::::::",
":::::;;:>#$$%%%%%%%%$$XXX$#:><<>><<<>>>>>>$$$$$%%%&*&%%%&%&&&%&&%%%&XX%*%%%%$XX$%%$%*&XX<<12211<>;;:::::::::::::::::>>:::;::::::",
":::::;#;<:$$$%%%%%%$XXX$#::><<>><111<>:>>>$$$XX$$%&*&&%%&%&*&%&&%%%%*==*%%%%$X$$%%$$*XXX<<120221>:;;:::::::::::::::>>:::;;::::::",
":::::;#;<>#$$$$$$$$XX$$#:><1<>><11<>><>:>>:XXXXX$$$&%&%%%%&*&%&%%%%%&**&%%%$XX$%%%$$%XX#<<120021<>:#;::::::::::::::>>:::;;::::::",
":::::;##<1:#$XXXXX$$$#::<<1<>:><<<>:;;:>::>:XXXXXXX$$%&%%%&*&%%%%%%%%%%%%%%XX$$%%%$$$XX#<<1120221<:;#;::::::::::::>>>:::;;::::::",
":::::;##<1>:#$XXXX$#::><12<<:><>><>;;;;;>>:>##XXXXXX$$%%%%&*&%%%X%%%%%%%%%$XX$$%%%$$XXX:<<<112221<>:;#;::>::::::::>>>:::;;::::::",
":::::;##<1<>:#$$##::><<12<<:>>>::<:;;;;;;:>:>:##XXXXX$$%%%%&&%%*%%%%%%%%%%XX$$%%%%$XXXX:<<<<<<<<<1>:;##;:>>::::::>>>:::;;;::::::",
":::::;##<11<<>::::><<1221<::>>:::<:;;;;;;;:::>>:##XXXX$$$%%&&%%%%%%%%$%%%%XX$$%%%%$XXX#><>>-44-=><<>;;##::>>::::>>>>:::;;:::::::",
":::::;##<111<<<<<<<<1221<::>>>;;:<:;;;;;;;;;::>>>:##XXXXX$%%%%%%%%%%%X%%%$XX$$%%%$$XXX#>>>4=****%><>:;##;:>>>>>>>>>>:::;;:::::::",
":::::;##<12211111112221<<::>>:;;:<;;;;;;;;;;;;##::>:#XXXXX$$%%%%%%%%%%%%$XX$$%%%%$XXX#:>>4=*****%%><>:;##::>>>>>>>>:::;;;:::::::",
":::::;##<12222222222211<:::::;;;:>;;;;;;;;;;;;##;::>:#XXXXXX$%%%%%%%%%%$X.X$$%%%%$X.X#>>-=*****%%&%>>:;##;:>>>>>>>>:::;;;:::::::",
":::::;##<1220000002211<>:::::;;;:>;;;;;;;;;;;;++#:::>:##XXXX$$%%%%%%%$$X..X$XX.X*$X.X#>>-=****%$%&%><>;;##::>>>>>>::::;;::::::::",
":::::;#;<1220000022111>:::::;;;;:>;;;;;;;;;;;;++#;:::>::##XXXXX$%%$$$XX..X$$X.X&$X.X#:>>-*****$%%*&%<>:;##::>>>>>>:::;;;::::::::",
"::::;;#;<12200002211<>::::::;;;;:>;;;;;;;;;;;;++#;;:::>>::#XXXXX$$XX....X$$$X&*$$X.X#>>-=****%$%&**%>>>;;#;::>>>>::::;;;::::::::",
"::::;;#:<12220222111<>:::::;;;;;:>;;;;;;;;;;;;++#;;;:::>>>:#XX.........X$$%%**$$$X.X:>=-*****$%%&**&$>>:;##:::>>::::;;;;::::::::",
"::::;##><12222221111>:::::;;;;;;:>;;;;;;;;;;;;++#;;;;:::><>:##XX.....X$$$$%%%$$$X.X#>:=*****%$%&****$:>>;;#;::::::::;;;:::::::::",
":::;;#:<<12222211111>:::::;;;;;;:>;;;;;;;;;;;;++;;;;;;:::<<>::##X...XX$$$$$$$$$$X.X#>:=*****$%%&****$$>>:;#;;::::::;;;;:::::::::",
"::;;#;><<1222211<<<<>;::::;;;;;;:>;;;;;;;;;;;;++#;;;;;;;;><<<>>:##XX..XX$$$$$$$XX.X::%%*****$%&*****$$>>>;;##;:::;;#;;;:::::::::",
":;;#;:<<112<<>>><<<<>;:::;;;;;;;:>;;;;;;;;;;;;++#;;;;;;;;;><1<<>::##X...XXX$$$XX.X:::$$%****$%&*****$$>>>:;#+#;;;;#+;;::::::::::",
";;#;:<<11<>&&&%%:><<>:++##;;;;;;:>;;;;;;;;;;;;++#;;;;;;;##+><<21<>:##XX...XXXXX..X:>:#$$%%%%$%&****%$$>><>;;O+#;;#+#;;::::::::::",
";#;:<<1<>:&&===%$:><>:+++##;;;;;::;;;;;;;;;;;;++#;;;;;;;#O+><<221<<>:##XXX......XX:>>::#$$$$$%%%%%%%$$>><>;;OO+++++#;;:::::::::;",
"#;:<<1<>:&**==**$$:><>:O++##;;;;::;;;;;;;;;;;;++#;;;;;;#OO#:<<22---:<>:##XXX...XX:<121<>:#$$$$$$$$$$$#>>1<>;#OO+++#;;:::::::::;#",
";:<<<>::&******%$$$:<<>:+++##;;;::;;;;;;;;;;;;++#;;;;;;OO+#:<<2-444-=>>:###XXXXX:>12221<<::##$$$$$$$#>>>1<>;#OO++#;;:::::::::;#;",
":<<<>::&****%%%%%$$$:><>;+++##;;::;;;;;;;;;;;;++#;;;;;#O+#:><<-44444-->>>>::::::><20000211<>::####::><1122<:#+++#;;::::::::;##;:",
"<<<>::&***%%%%%%%%$$$:<>;++++#;;::;;;;;;;;;;;;++#;;;;;#O+#:><-44---344--=>>>>::><1200q0211<<>>>>>>>><<1122<:##++#;:::::::;;##;:>",
"1<>::&***%%%%%%%%%%$$$:>>;+++##;::;;;;;;;;;;;;++#;;;;#++#:>>-34======-45---><<1222200q02221<>:::####:<22001>;#+++:::::::;###;:><",
"1>::&***%%%%%%%%%%%$$$$:>>;+++#;::;;;;;;;;;;;;++#;;;;#++::>>-4==*****-48543-=><<1220002222<>:>:#OOOO#:<2002<:##++#::::;;#OO;:><1",
">::&***%%%%%%%%%%%%%$$$$:>:;++##;:;;;;;;;;;;;;++#;;;#O+#:>>-33=******-896654---><<12222211>:>##OOOOOO#:<2211>:##++O;;;#OOO;:><22",
"::&***%%%%%%%%%%%%%%%$$$$:>:;++##:;;;;;;;;;;;;++#;;;#O+#:>>-4-=*****=484-=-454--=><1222211#:##OO+OOOOO#:<211<>:##OoOOOoOO;:><22<",
":&***%%%%%%%%%%%%%%%%%$$$$:>:;++##;;;;;;;;;;;;++##;;O+#:>>-33=****=-484==*=*=--94==><<11<<###O+++OOOOOO#:<<11<>:##OoooO;;:><22<>",
"&***%%%%%%%%%%%%%%%%%%$$$$#>>:#++##;;;;;;;;;;;++##;;O+#:>>-4-=**=-3484==*=*=*-59564==><<<<##OO+O+OOOOOOOO:><11<>::####;;:><22<>*",
"***%%%%%%%%%%%%%%%$$%&$$$$$#>:;+++##;;;;;;;;;;++####++:>>-33=*==-3454=*******-55-3364=><<<##OOOO+OO+OOOoO#:>111<>:::::::><22<>*&",
"**%%%%%%%%%%%%%%%%$$%&$$$$$#:>:##++##;;;;;;;;;+OO##++#:>>34-==--4453-=********--*==33=#><<##OOOO@OOOOOOooO#:<111<>>>>>>><22<>**&",
"*%%%%%%%%%%%%%%%%%$$%&$$$$$$#>>:#+++##;;;;;;;;+oO#O++#>>-34=-443334-=*************==-3&#><#@OOOO+++OO+OoooO#:<111<<<<<<122<>****",
"%%%%%%%%%%%$$$%%%%$$%&$$$$$$$#>::#+++#;;;;;;;;+ooOOO+:>>-44443===33-=****************=*$>>#@OOO++++OO+OOooOO#:<1221111122<>****&",
"%%%%%%%%%%$$$$$%%%%%%&$$%$$$$$:>::#++##;;;;;;;+oooO+#:>--4333=**--==**=******%$$%&****=$:>#@OOOO++OOO+OOooOOO#:<22222211<>**=*&%",
"%%%%%%%%%%$$$%%%%%%%%&$$%%$$$$#<>:#+++#;;;;;;;+oooo+#:>--3==****--=*********%$%%$%****=$:>#@OOOO++@OOOOOooOOOO#:2222221<>**=*&%%",
"%%%%%%%%%%$$$%&*%%%%%&$$%%$$$$$><>:@+++#;;;;;;+ooo++:>---==****=-==*********$%&&&******$#:#@OOOOOO+OOOOOooOOOOo#<22211<>**=*&%%%",
"%%%%%%%%%%%$%&**%%%%%&$$%&$$$$$#<<>#+++##;;;;;+ooo+#:>--==*****=-=**********%&&&*-***&*$#:#@OOOOO@OOOOOO oOOOOo#>2221<>****&%%%%",
"%%&&&&%%%%%$&*&%%%$$%&$$%&$$$$$$><<>#+++##;;;;+ooo+:>--==*****=--=**&$$%&***%&&-5=***&*$#:#@OOOOO+OOOOOo oOOOOoo:111<>****&%%%%%",
"%%&&&&%%%%%%%%%%%%$$%&$$%&$$$$$$:<<<:#+++##;;;+oo+#:>--==*****=-=*&&$$%=&***&*-4=****&&$#:#@OOOOOOOOOOOo oOOOooO:11<>****&%%%%%%",
"%%&&&&%%%%%%%%%%%%$$%&$$%&$$$$$$:>11>:#+++####+oo+#>--==*****==-=**&%%%=&*****=-*&***&&$#:#@OOOOOOOOOOoo  OooooO:<<>****&%%%%%&%",
"%%&&&&%%%%%%%%$%%%$$%&$$%&$$$$$X#>121>:#+++O##+o+#:>--==*****===****%&&==******-*&***&&$#:#@OOOOOOOOOOo   o ooO#><>****&%%%&*&&%",
"%%%%%%%%%%%%%%&%%%$$%&$$%%$$$$X##>1221>:#+++++oo+#>--==*****====******&=-*&&*****&***&&$#:#@OOOOOOOOOo     ooO#:<>****&%%%&***%%",
"%%%%%%%%%%%%%%%%%%$$%&$$%$$$$XX#:>1222<>:#++++++#:>--==*****====*******-3-&&**&*&&***&%$#:#+OOOOOOOOoo   oooO:><>**=*&%%%&&%%%%%",
"%%%%%%%%%%%%%%%%%%$$%%$$$$$$XX#:>100002<>:@@@@##:>--==*****=-==********34-****&&&&***&%$#:#+OOOOOOOoo   ooO#:><>**=*&%%%%%%$XX$&",
"%%%%%%%%%%%%%%%%%$$$%%$$$XXXX#:>120qq022<>::@@::>>--==*****=-==******==453&****&&&***&%$#:#+OOOOOoooooooO#:><<>**=*&%&%%%%$X..X&",
"%%%%%$%%%%%%%$%%$$X$$%$$XXXX#:>1200q002221<<>>>>>--==*****==-==******=-56-&**&**&&***&%$#:#+OOOoooooooO#><22<>**=*&%%&%&%%$X$$$&",
"%%%%$$$%%%$%%&%%$$XX$$$XXXX#:>1200000002221<<>>>>--==*****=--=********-63*&**&**&****&%$#:++OoooooooO#:<<22<>*&=*&%%%&%&%%$$&&&%",
"%%%%$%%%%%%%%%%$$XXXXXXXXX#:<,<,,,,,,<112221<<<>====******=--=*****&&&==**&&&&**&****&%$#:OOoooooOO#:>12002<*&=*&%%%&&&&%%%$&&%%",
"%%%%$%&*%%%%%%%$$XXXXXXX#::<<,,<<<<<,,,<<22211<>=--=*****==--=*****&&&***&&&&&**&***&&%$#:ooooooO#:><<22q02>*=*&%%%%&&&&%%%&&%%%",
"%%%%%&*%%%%%%%$$XXXXXXX#:<<,,1112211<<<<,,2221<<-33-*****==--=*********&&&&&&&******&%$$#:OooOO#><<22200q02**=*%%%%%&&*&%%%%%%%%",
"%%%%%%%%%%%%%$$XXXXXXX#:<<,11<<>>>>>>><<<>,2221<-33-*****=====*****&%%&***&&&&*****&%%$$#::OO#:<122000qq002***%%%%%%&**&%%%%%%%%",
"%%%%%%%%%%%%$$$XXXXXX#:<<,1<,:::::::::>>><>,2221$$%%=****====***&&%%&*=****&&****&&%%$X$::>><<2222000qqq022**&%%%%%%&*=*&&%%%%%%",
"%%%%%%%%%%%%$$XXXXXX#:<<,<,:::::::::::::>><>,222$XXX%==**=-==**&%%&*==********&&&%%$$XX$::>><<2222220000022*&&$%%%%%&=*&%%%%%%%%",
"%%%%%%%%%%%$$XXXXX#:>1<,<,:::::::::::::::>>>>,22>$X.X%====-==**%*===****&&&&%%%%$$$XX$%:>><<<<<4443<<200222%%%$%%%%%&**XX$%%%%%%",
"%%%%%%%%%%$$XXXX#>><1<,,,::::::::::::::::::>>>,2>>$..X*==--==*&*=*****&&&%%%$$$$$$$$$$::>><<<434554-3<22222>XX$$%%%%&&&X.&%%%%%%",
"%%%%%%%%$$$$XXX#><11<,,,::::::::::::::::::::>>:,,,>$.X%*=--=*&&*&&&&%%$$$$$$$$$$$$##:<<<<<43334533-3-<12221<:XXX$%%%&&%$&%%%%%%%",
"%%%%%%%$$$XXXX#><11<,,,:::::::::::::::::::::::>:,,>>$XX%=--=****%%$$$$XXX$$$$$::::>><<<43334543-====--112211<:XXX$%%%$%&$%%%%%%%",
"%%%%%%$$XXXXX#><11<,,,:::::::::::::::::::::::::>::,,>#$$%===%%$$$$XXXX$$$###:::>><<<<<466543-=-=--====<<1111<>:XXX$%%%%%$%%%%%%%",
"%%%%%$$XXXX##><<1<,,,:::::::;;:::::::::::::::::::::,>>#$%%%%$$$XXX$$$$####::>><<<<<445863-===--=--===*><11111<>:XXX$%%%%%%%%%%%%",
"%%%%$XXXXX#:><11<,>>:::::::;+++;::::::::::::::::::::,,>##$$$$$$$$$###::>><<<<<4333457853-=---=-==-===*><1111<<<>:XXXX$%%%%%%%%%%",
"%%%$XXXX##>><<1<>>>::::::::;++++;::::::::::::::::::::,>>:#$$$$$$#:::><<<11<433545444443===--==--====**><1111<<<<>:XXXXX$%%%%%%%%",
"%%$$XX##:><121<>>>::::::::::;+;::;:::::::::::::::::::::,>>:###:::<<<<222<43566433======---=---======&&><<11<<<<<<>>:XXXXXX$$%%%%",
"$$$X$#::><122<>>>::::::::::::;;:::::::::::::::::::::::::>>>>>>>><<112222356643=======--=-=---======*&&><<<<<>>><<<>>::XX..XXXXXX",
"XX$#::><1222<,>>:::::::::::::::,:::::::::::::::::::::::::<222222220002236644=====-----======--=-===*&#>><<>>:::>><<<>>::XX......",
"X$#:><<1222<,>>:::::::::::::::::::::::::::::::::::::::::::<0000000000223653==---------==&&&==--===*&&#>><>::####:>><<<<>::XX...X",
"##:><112222,>>::::::::::::::::::::::::::::::;;:::::::::::::<0000000022=354=--33333-==-=%$$%-=---=*&&#:>>>:@OOOOOO#:>><<<<>:::###",
"::><<22222<,>>:::::::::::::::::::::::::::::;++;:::::::::::::<000000011==53=-3333--===-=%$%=43=--=*&&#>>:#O+#####+OO#:><<<<<>>:::",
">><1222222::;;:::::::::::::::::::::::::::::;+;;::::::::::::::<0022111<**33=-------==-==*%353-=--=*&#:>:#O@@++++@#:OO##:><<<<<<>>",
"<11220022<:;;;::::::::::::::::::::::::::::::;:::::::::::::::;;<222111<**=3=-==----==-===34---=-=*&%#>:#O@@+++++++@:#OO#::>><<<<<",
"11220qq02<##;;;;::::::::::::::::::::::::::::::::::::;:::::::;;;<111<<<:&*--==-=--==-=-==-======*&&#::#O@@+++++++O++#:@OOO###>><<",
"<<20qqqq0<####;;;;::::::::::::::::::::::::::::::::::;:::::::;;;;<<<<<<>&**=-===-===--==---==-=*&&%::#O@@++++O++++++++@#@@#OO##:>",
"OO:10qqq01>#####;;;;:::::::::::::::::::::::::::::::;;::::::;;;;;:<<<<<>:&&*=-===-==--==-===-=*&&%#:#O@@++++O+O+OOO++OOOO@@OOOoOO",
"OOo:10qq01<>#######;;::::::::::::::::::::::::::::;;;:::::::;;;;;::<<<<>::&**--==-=-=-=-=--==*&&%##:O@+O++++OO++++OOOOOOOOOOOOoOO",
"OOoo<10qq2<>>:######;;;::::::::::::::::::::::::;;;;:::::::;;;;;:;;<<<<>::&&&*-===----======*&&%%###O@O+++++++++O+OOOoOO++OOOOoOO",
"OOoo><20q21<>>>:######;;;:::::::::::::::::::;;;;;;:::::::;;;;;::;;>>>>>>::&&**-===-=--===**&&%%###OOOO+O++OOO++++OOOoOO++OOOOoOO",
"OOoo:>200021<<>>>:######;;;;::::::::::::::;;;;;;;:::::::;;;;;:;;;;>>::;;:::&%&*===-=====*&&&%%##:#oOOO++++OO+++O+OOOoOO++OOOOoOO",
"OOoo:>22002211<<>>>:######;;;::::::::;;;;;;;;;;;:::::::;;;;;::;;;;>>:;##;:::&$%**=====**&&%$%##:>:oOOO++++OOO++O+OOOoOO++OOOOoOO",
"oooo><2222222211<<>>>:#####;;;;;;;;;;;;;;;;;;::::::::;;;;;;:::##::>>;#;;;#:::%$%*****&&&%$$%#:>1<>oOOO+++++O+++++OOooOO++OOOOOOO",
"oooO<<222222222211<<>>>:@###############;;::::::::;;;;;;;;::::##:>>;#::::;#::&$$%%**&&%%$%%#:>11<>ooOOO+++O+OO+OOOOooOOO+OOOOOOO",
"ooO:<12222222211<<<<<<>>>:###############;;;;;;;;;;;;;;;::::;;##:>:#:@@@#:;#::&$$$%%%%$$%#:><1211<OoOOOO++++OO+OOOo oOOOOOOOOOoo",
"oO:<1222222211<>======>>>>>:##OO##;;;;;;;;;;;;;;;;;;;;::::::;;#:::;#;+OOO#:;#::%$XXX$$%%#:><12221<#ooOOOOOOOOO+Ooo  oOOOOOOooooo",
"O:<122222211<>===========>>>>:#OOO##############;;;;::::::::###:>:#;++OOOO#;##::%$$$%%#:><1122221<:OoooOOOOOOOooo     oooooooooo",
":<12222111<>====-------=====>>>:OOOOOOOOOO######;;::::::::::###::;##++OOOOO@;##::%%%#::<1112222111<:Oooooooooo         ooooooooO",
"11222111<>====---=====----====>>>:OOOOO#;;;;::::::::::::::;;##:>:#++++OOOOOO@;##>:::>><111<<<<<111<<#Oooooooo  ooOOOOOOOOOOO#:>,",
"122211<>====--=========------===>>>:##OO##;;::::::::::::::;;##:>;#O+++OOOOOOOOO#>>>><11<<122211<<<<,:;@OOoooooOOO;>,,,,,,,,,,,,1",
"2211<>====--===*******===------===>>>:##O###;;;;::::::::;;###:>:##O+O+OOOOOOOOO#11221<<<1qw0002111<<,::;@++@@;;;>,11111111111122",
"211<>=======************====-3---===>>>:######;;::::::::;;###:>;#+O+O+OOOOOOOOo#1121<<<10wew00022211<,,::;;;:1222222222222222222",
"1<<>=====*****************===-33----==>>>:######;;;;;;;;;;##:>:#;+O+O+OOOOOOOo#>22<<<<120000022111111111<<,<<<111220000000000022",
"<>======*********&**********===-333--===>>>:#######;;;;;;;##>>;#;+O+O+OOOOOOo#><2>,<<<<<12022<<<<<<<<<<<<<<<<<<<<<1222220qqqq021",
">=====**********&*****&*******==--333--===>>>:#############:>>;#;+OOOOOOOOOo#><2>,<<<<<<<121<>>>>>>>>>>>>,,<<<<<<11<<111200qq021",
"====*********&**&**************===-3333--===>>>:###########:>:#;+++OOOOOOOo#><2>,<<,,,,,<<1<>>::::::::::>>>>>,<<1221<<>1120q002<",
"*************&**&****&*&*********===-33443--==>>>>:#######:>::#++++OOOOOOo#><1>,<<,>>::,<<<,:::::::::::::::::>>><12<<>#>1200021<",
"*************&**&****&&&*********==--44444333===>>>:#####:>>:#+O+++OOOOOo#><1>,<<,>>:::,<<,>:::::::::::::::::::>><1<>;#>1200021>",
"**&&*********&*&&****&**********--343333333---====:><<<<<<<<:#OO+++OOOOo#><1>,<<,>>:::>,<,::::::::::::::::::::::>><>:;#>120022<=",
"**&&*********&&&&****&*******===343-==========----==:><<<<<<##OOO++OOoo#>11>,<<,>>::::>,,>::::::::::::::::::::::>><>:;#>120221<=",
"*************&&&&****&******----3===****&*****====-===:<2221>#OOOOOoo#:<1>>,<<,>>::::>>,>::::::::#>::::::::::::::><>;##:12221<>=",
"*************&&&&**********=----==******&********======:<222<>:#ooo#::<1>,<<<,>>:::::>>>>:::::::::>::::::::::::::>>>;##:12221>==",
"****&&&*&****&&&&*********--====******&*&***********==&%%:<<1<>>>>>><11>,<1<,>::::::>>>>>:::::::::::::>>:::::::::>>:###><221<==*",
"****&&&*&****&&&&*&******=--==****&&&*&&&***&*********%%%%%:<1<<<<<<11>,<1<,>:::::::>>>>::::::::::::::>>:::::::::>>;###><221>==*",
"****&&&*&****&&&&*&*****=====**&*&**&*&&&**&&&*******&%%&===&%<<22111:,<1<,>::::::::>>>:::::::::::::::>>:::::::::>:;###><11<==**",
"****&&&*&****&&&&*******====*****&**&*&&&**&&&*******&%%&*==&%%<1221::<<<<,::::::::>>>>:::::::::::::::>>:::::::::>:;##:<<11>==**",
"*****&&*&****&&&&&*****====****&***&&*&&&***&&**&****%$%&***&%%%>122::<<<,>>:::::::>>>>:::::::::::::::::::>>::::::;;##:<<<<==***",
"*****&&*&****&&&*&*****===****&&***&&*&&&***&&**&&***%$%&***&%%%:<12::>,,,>>:::::::>>>::::::::::::::::::::>>::::::;###:<<<>==***",
"*****&&&&****&&&*&****===****&&&***&&*&&&***&&&*&&&**%$%&***&%%%:><1>::>,>>>::::::>>>>::::::::::::::::::::::::::::;###><<<==****",
"*****&&&&****&&&*****====****&&**&*&&&&*&******&&&&**%$%&***&%%%:><1<;::>>>>::::::>>>>::::::::::####:::::::::::::;;###><<>==****",
"*****&&&&****&&&*&***===*****&&**&*&&&%%%&&***&*&&&**%$%&***&%%$:><1<:;:>>>>::::::>>>::::::::::##:>>>::::::::::::;;###<<<===****",
"*****&&&&****&*&&&***===***&*&&**&*&%$%%**=-**&*&&&**%$%&***&%%$:><11:;;>>>>::::::>>>::::::::::#:>>>>>:::::::::::;####<<>===****",
"*****&&&&****&*&&***===****&*&&****%$%&*-====*&*&&&**%$%&***&%%$:><11>:;>>>>::::::>>>::::::::::::>>>>>:::::::::::;###:<<===*****",
"*****&&&&****&&&&***===****&*&&***%%&**-44==**&&&*&**%$%&***&%%$:><11<:;>>>>::::::>>>::::::::::::>>>>>:::::::::::;###:<>===*****",
"*****&&&&*****&*&***===******&&******=-3-=****&&&****%$%&***&%%$:><121>:>>>>::::::>>::::::::::::::>>>>::::::::::;####><===******",
"*****&&&&*****&&&***===****&*&&&***********&&********%$%&***&%%$:><121<:>>>>::::::>>::::::::::::::>:::::::::::::;####>>===******",
"********&***&*&&****==*******&*************&&********%$%&***&%%%:><121<:>>>>::::::>>::::::::::::::::::::::::::::;####<===*******",
"********&****&******==*********************&&********%$%&***&%%%:><121<:>>>>::::::>>::::::::::::::::::::::::::::;####<==********"
};
