/* XPM */
static char *_3_Wolfenstein3DWalls1735817067[] = {
/* columns rows colors chars-per-pixel */
"128 128 35 1 ",
"  c gray12",
". c #2B230F",
"X c #3B2F17",
"o c #232323",
"O c #2F2F2F",
"+ c gray20",
"@ c #373737",
"# c gray23",
"$ c #43331B",
"% c #4B3B1B",
"& c #573F1F",
"* c #434300",
"= c #5F5F00",
"- c #777700",
"; c #5F4323",
": c #6F4B27",
"> c #774F2B",
", c #434343",
"< c #4B4B4B",
"1 c gray34",
"2 c #5B5B5B",
"3 c #676767",
"4 c gray45",
"5 c gray50",
"6 c #83532F",
"7 c #8B5B33",
"8 c #878700",
"9 c #9F9F00",
"0 c #AFAF00",
"q c #C7C700",
"w c #E3E300",
"e c yellow",
"r c #FFFF57",
"t c gray56",
"y c #9B9B9B",
/* pixels */
"555<%%&;;;;&&;&;&&&&&&;;&;;;;;%%;;;;;;;;;;;;&%$$<<<<;;&&%%%%%%%%%%%%%%%%%%%$$$<<#OOOOOOOOOoo1155<234321<<<<<<<<<<<<<<<<<<3355555",
"555<$%%;;;;&&;&;&&&&&&;;&;;;;;%%;;;;;;;;;&%%%%$$<<<<;;&&%%%%%$$%%%%%%%%%%%%$%$X<<#OOOOOOOOoo115<234321<<<<<<<<<<<<<<<<<<<<335555",
"554<$%%&;;;;&;&;&&&&&&;;&;;;;;$$;;;;;;;&%%$$$$<<13;;&&%%%%%%$$$$%%%%%%%%%%%$%%$$1<#OOOOOOOoo11<234321<<<<<<<<<<<<<<<<<<<<<<33555",
"5541$%%&;;;;&;;;&&&&;&;;&;;;;;$$;;;;;&%%%$$$$<<13;;;&&%%%%%$$$$$$%%%%%%%%%%$%%$$X1<#OOOOOOoo11<23321<<<<<<<<<<<<<<<<<<<<<<<<3355",
"4444#$%%;;;;&;;;&&&&;&;;&;;;;&$$&;;&%%$$$$$<<135&&;;%%%%%%&;$$$$$%%%%$%%%%%$%%$%$$1<#OOOOOoo11<2321<<<<<<<<<<<<<<<<<<<<<<<<<<335",
"3444<$%%&;;;&;;;&&&&;&;;&;;;;&$$&&%%%$$$$<<<135;&&;;&%%%%%&;$$$$$%%%&.;%%%%$%%$$%$11<#OOOOoo11<221<<<<<<<<<<<<<<<<<<<<<<<<<<<<11",
"13441#$%%;;;&;;;&&&&;&;;&;;&%%$$%%%$$$$<<<1355&&&&;;&%%%%%&;%$$$%%$$%;&%%%%$%%$$&$X11<#OOOoo11<21<<<<<<<<<<<<<<<<<<<<<<<<<<<<<<1",
"11345<$%%&;;&;;;&&&&;;;;&;&%%%$$$$X$$$<<13335;&&&&;;&%%%%%;:%%$%%%$$%%%%%%%$%%$$%;X111<#OOoO11<21<<<<<<<<<<<<<<<<<<<<<<<<<<<<<<<",
"<11341#$%%;;&;;;&&&&;;;;&&%%$$XXXX$$<<134444&&%%%%;;&%%%%%;>%%%%%%%%%%%%%%%$%%$$%:%$331<#OOO11,1<<<<<<<<<<<<<<<<<<<<<<<<<<<<<<<<",
"<<1134<$%%&;;;;;&;&&;;;;&%%$$XXXX$#<<133444;&&%%%%;;%%%%%%;:&%%%%%%%%%%%%%%$%%$$%%:&X331<##<13,,<<<<<<<<<<<<<<<<<<<<<<<<<<<<<<<<",
"<<<1131#$%%;;;;;&;&;;;;;&%$XXXX$#<<13334331&&&%%%%&;&%%%&%;:&%%%%%%%%$$%%%%$%%$$%%;>&$333111331,<<<<<<<<<<<<<<<<<<<<<1<<<<<<<<<<",
"<<<<113<$%%&;;;;;;;;;;&%%$XXX$#<1133334331$&&&%%%%&;&%%%%%;:&%%%%%%%$.X$%%%$%$$$%%$:>&X33333331,,<<<<<<<<<<<<<<<<<<<<1<<<,<<<<<<",
"<<<<<1<1#$%%&;;;;;;&%%%%$XX$$#<11113333311$$%%%%%%--99qqqqqqqq009900qqqqqqqqqq--%%$;>>&X3333333<,,<<<<<<<<<<<<<<<<<<<1<<<,<<<<<<",
"<<<<<,,3<$$%%&;;;&%%%%$$XX$#<<131111133111$$$%%%%%--99qqqqqqqq009900qqqqqqqqqq--%%$%;:&X33444331<,,<<<<<<<<<<<<<<<<<11<<<,<<<<<<",
"<<<<<,,<1#$$%%%%%%%%$$XXX$#<13311333111111$$$--899--8800qqqq0099wwwwwwwwwwwwww009999;&XX334554431,,<<<<<<<<<<<<<<<<<11<<<,<<<<<<",
"<<<<<,#,3<$$$%%%%%%$XXX$#<<13311344431<111$$-08999--8800qqqq0099wwwwwwwwwwwwww009999;XXX3345t5541<,,<<<<<<<<<<<<<<<11<<<,,<<<<<<",
"<<<<<,#,31#$$$$$$$$XX$$#<13431134431131<11---900888-----000088qqqqqqqqqqqq--==--9998----3345tt5431<#,<<<<<<<<<<<<<<11<<<,,<<<<<<",
"<<<<<,##34<#$XXXXX$$$#<<33431<13331<,,<1<<--9800088-9---000088qqqqqqqqqqqq--=---998888--33445t5543<,#,<<<<<<<<<<<<111<<<,,<<<<<<",
"<<<<<,##341<#$XXXX$#<<134533<131131,,,---8099q990=80qw88--008800000000wweeqqw088-=90008898--4555431<,#,<<1<<<<<<<<111<<<,,<<<<<<",
"<<<<<,##3431<#$$##<<1334533<111<<3<,,,8-9899990988q9ww88--008800000000wweeqqww88--qq0008-8883333341<,##,<11<<<<<<111<<<,,,<<<<<<",
"<<<<<,##344331<<<<13345543<<11<<<3<,----8899qqq00wwwq00088--9999999999ee99qqqq0800qqqqq00888-=>:1331,,##<<11<<<<1111<<<,,<<<<<<<",
"<<<<<,##34443333333345543<<111,,<3<,-=-8q09-q00qqqw90q9988--9999999999ee99qqqq90w0qweeqq9088==;;%131<,##,<1111111111<<<,,<<<<<<<",
"<<<<<,##34554444444555433<<11<,,<3---=-9-990qwqwwwqq088999--8888888888==998888qqqqq9qqeq00q88--=%%131<,##<<11111111<<<,,,<<<<<<<",
"<<<<<,##3455555555555443<<<<<,,,<188=88090099wwqew00999999--8888888888==998-890qwq99qw8qqqq88-=-%&%11<,##,<11111111<<<,,,<<<<<<<",
"<<<<<,##3455tttttt554431<<<<<,,,-=-8809099wwwqqq999909qq**------------==qqqq-89990www0www00q8889-=%131,,##<<111111<<<<,,<<<<<<<<",
"<<<<<,#,3455ttttt554441<<<<<,,,,8=-00809000qqqqq998-90w0**------------==qqqq988qee0qweew9q9q9088==&%31<,##<<111111<<<,,,<<<<<<<<",
"<<<<,,#,3455tttt554431<<<<<<,,8088-8088qqwwwqe099--8098-**============99==-8090qeeqqweeewq9qq08-88==111,,#,<<1111<<<<,,,<<<<<<<<",
"<<<<,,#<34555t55544431<<<<<,,,00908-8099wqqqqq98-8988888**============99==-8qq0qqqq00qeewq999008089=$11<,##<<<11<<<<,,,,<<<<<<<<",
"<<<<,##13455555544441<<<<<,,-8900-8999890090q8-9889q8-=-**************9999==0908-=900qweewq09q089888==11,,#,<<<<<<<<,,,<<<<<<<<<",
"<<<,,#<33455555444441<<<<<,,-809888-99980q0909-99-**89*=**************9999=---889888009qqww099098908==11<,#,,<<<<<<,,,,<<<<<<<<<",
"<<,,#,133455554433331,<<<<=-8--8==99qq9998088888-8-==*==**************8888==*=---88-99000wqwqq0q--8---=11,,##,<<<,,#,,,<<<<<<<<<",
"<,,#,<334453311133331,<<<,8988=-8800qq99-898898-===*=*****************8888==-=-=--908089q9q0qq999-9---==1<,#+#,,,,#+,,<<<<<<<<<<",
",,#,<334431&&&%%<1331<++<099888-8-q00098989888-=**-*-*****oooooo**OOOO*****=*=*===--09-90qqwwwqqq989-=89-1,,O+#,,#+#,,<<<<<<<<<<",
",#,<33431<&&:::%$<131<++9980888-90q0q09q9-98-=-8*=***-**oooooooo**OOOO*****=8=**==-=-q8--q00qqqqq0-89=8981,,OO+++++#,,<<<<<<<<<,",
"#,<33431<&;;::;;$$<131<O888-889890qq99=899-==-=-******ooooooooo***=OOOOOO***====-*-==-8908990w900wqq==99881,#OO+++#,,<<<<<<<<<,#",
",<3331<<&;;;;;;%$$$<331<98--==9090qq98-8888=-===*=**oooooooooo*****=OOOOOOO$**==-==*-=899---qq0qq9008-99881,#OO++#,,<<<<<<<<<,#,",
"<3331<<&;;;;%%%%%$$$<1=9**88-9q890--qq9-898=--8-*-*oooooooooo*******=OOOOOOOOOO*****=-=-8--8qq0q909089000***#+++#,,<<<<<<<<,##,<",
"3331<<&;;;%%%%%%%%$$$<=9=--8-90009-8qq9-88-*=***=*oooooooooo*********=OOOOOOOOOO*-=*=-*--898080q=qq988000==*##++#,<<<<<<<,,##,<1",
"431<<&;;;%%%%%%%%%%$$$9988909q998-9089*==-=***=-ooooooooooo************OOO##OOOOOO==*----9889880wq090qww0==-,#+++<<<<<<<,###,<13",
"41<<&;;;%%%%%%%%%%%$$$99-=0w9889889809==--=**-=*oooooooooo**========***OOO##OOOOOO*==---889-9990ww90089q0*=-<##++#<<<<,,#OO,<134",
"1<<&;;;%%%%%%%%%%%%%%998-8q00890099qqq=-88-=*-Xoooooooooo=====----====OOOO####OOOOO$=---89990q8989w-8--989888-##++O,,,#OOO,<1355",
"<<&;;;%%%%%%%%%%%%%%$998990q8899889qww-88==-=*oooooooooo===---------=OOOO######OOOOO*=-=-888wqqq09w9889998088-<##OoOOOoOO,<13553",
"<&;;;%%%%%%%%%%%%%%$88889899q90088090q======Xoooooooooo8=---8-888--=OOOO##<<<<##OOOOO*==-88808909qwq9988-980081<##OoooO,,<135531",
"&;;;%%%%%%%%%%%%%%%$88008988988q980099-==--*oooooooooo=---88888888=OOOO#<11111<##OOOOO*=--8-9q899qqq08-=-9080831<<####,,<135531;",
";;;%%%%%%%%%%%%%%%$-888-9qqq90-80q898=99==**ooooooooo---888998989=OOOO#<111rr11<##OOOOO*=-889980q0qw99q88q-889431<<<<<<<135531;&",
";;%%%%%%%%%%%%%%%%$-88=-9qqq99899q888=89==oooooooooo-88888999999=OOOOO#111e00r11<#OOOOO*=-808899qqqq99q00q8888443111111135531;;&",
";%%%%%%%%%%%%%%%%%$8-98-9w9809--99qq==89--ooooooooo-88899999999=OOOOO#<11e0880e11<#OOOOO*=8088q90q0qwq990q--8888433333345531;;;;",
"%%%%%%%%%%%$$$%%%%88-9-89wq800--9909--89-ooooooooo-88999990009=OOOOO##11e099880w1<##OOOO*==88800999qwqq999=8989955444445531;;;;&",
"%%%%%%%%%%$$$$$%%%98-8-800q9808-9q90--==ooooooooo-88999900009=OOOOOO#<1w00009980q<<##OOOO*=-==999-0qww09888889905555554431;;:;&%",
"%%%%%%%%%%$$$%%%%%99--==00988088q099====oooooooo--8899000000e0=OOOO##<w0000000980q<##OOOO*=--=qq--9q0q99-8888989555555431;;:;&%%",
"%%%%%%%%%%$$$%&;%%9888====----9q9q88--=-oooooooo=-89000000000e0=OOO#1w000000000980q###OOOO*--8--88989999=--8988835554431;;:;&%%%",
"%%%%%%%%%%%$%&;;%8988888=-88-909qq-=-8-oooooooooo=-90000000000e0=OO#q000000000009809###OOO*-99-=99999999=88=88881555431;;;;&%%%%",
"%%&&&&%%%%%$&;&%%888-888==-8-9008=9988=oooooooOOoo=-00000000000e0==q00000000000099808##OOO*=9889-8-99909*=8--908<44431;;;;&%%%%%",
"%%&&&&%%%%%%%%%%%88899--88--=888-=9980=oooooooOOOoo=-00000000000e0q000000000000009989-##OO*=9088==-9-9q8==-=-908<4431;;;;&%%%%%%",
"%%&&&&%%%%%%%%%%%8888-----9qq8---88809ooooo-9OOO#Ooo=-00000000000q00000000000000009988-#OOOO9998--=9qqq98=-88890<331;;;;&%%%%%&%",
"%%&&&&%%%%%%%%$%%899=--==-wqw0=8080090oooo-9q9OO##Ooo=-0000000000000000000==00000009888=OOOO908908890q99---8-899131;;;;&%%%&;&&%",
"%%%%%%%%%%%%%%&%%%88=--=99qw88-=-=899-ooo-990qq####Ooo=-00000000000000000=oo=0000009988-=OOO=-998=--q09q89-===8831;;;;&%%%&;;;%%",
"%%%%%%%%%%%%%%%%%%88===-98ww888-==8--=oo-99000qq####Ooo=-000000000000000=#+oo=000009998-=*OO==--88=99qq0-8----881;;:;&%%%&&%%%%%",
"%%%%%%%%%%%%%%%%%-==-=qq9qq9--80qq-888--9900000qq####Ooo=-0000000000000=OOO+oo=00000988--=**-8880qw98988990q8--=;;:;&%%%%%%$XX$&",
"%%%%%%%%%%%%%%%%%---88q09qqq--9qqw--88--99000000qq####Ooo=-00000000000w=OOOO+oo=0000998--=*=-88-0wqq89880000-===;:;&%&%%%%$X..X&",
"%%%%%$%%%%%%%$%%$-=-8890wq0q-9q908==88Oo=00000000qe####Ooo9-00000000000w=OOO#+oo=000998--=OO88-=88q9qq-8989988--:;&%%&%&%%$X$$$&",
"%%%%$$$%%%$%%&%%$-==-9q0w988899q09=-98OOo=00000000qe####Ooq9000000000000w9OO##+oo=00998-=OOO8888-9qq-99--8899-88;&%%%&%&%%$$&&&%",
"%%%%$%%%%%%%%%%$$X-=*889w09q9898-===99OOOo=00000000qe####e000000000000009e0O###+oo=098-=OOOO08-===890q999898--==&%%%&&&&%%%$&&%%",
"%%%%$%&;%%%%%%%$$X--*-8900qq88998=-=89OOOOo=00000000qe##e00000000000000009e0O###+oo=9-=OOOOO908=8-80q9909-98899=%%%%&&&&%%%&&%%%",
"%%%%%&;%%%%%%%$$XX9-====888889qqw0-8--#OOOOo=00000000qee000000000-000000009e0O###+oo==####=8999-08q0q988988-8898%%%%&&;&%%%%%%%%",
"%%%%%%%%%%%%%$$XXX9--===-=0089w99q----=#OOOOo=00000000q000000000==-000000009e0O###+oO###<<=8888-89000q88-8988---%%%%&;;&%%%%%%%%",
"%%%%%%%%%%%%$$$XXX98---==8q0ww9980-=99-<#OOOOo=0000000000000000=oo=-000000009e0O######<<<18898=-q9-9000-89808-8-%%%%&;:;&&%%%%%%",
"%%%%%%%%%%%%$$XXXX888---8-98w09988==99-<<#OOOOo=00000000000000=oooo=-000000009e0O####<<<<18908=89988998-9-9800--%%%%&:;&%%%%%%%%",
"%%%%%%%%%%%$$XXXXX==---80989899-88===8==<<#OOOOo=000000000000=oooooo9-000000009w0O##<<<11-=-=--=98098888-809808=%%%%&;;XX$%%%%%%",
"%%%%%%%%%%$$XXXX#1==--88088998-89-==--==<<<#OOOOo=0000000000=oooOOooq800000000098O##<<<11--=-8--999q88-=--89088=%%%%&&&X.&%%%%%%",
"%%%%%%%%$$$$XXX#13@@=--8880ww988qw88--88=<<<#OOOOo=00000000=oooOOOOq80000000009=oOO#<<11---88---9qq999--889998=.$%%%&&%$&%%%%%%%",
"%%%%%%%$$$XXXX#134<@=8-8-80wq0--0w-8-888=<<<<#OOOOo=000000=oooOOOOq90000000009=ooO##<<11---8-888q0q889808-8880=.X$%%%$%&$%%%%%%%",
"%%%%%%$$XXXXX#13441@**=8-89900008-89qq==8<<<<<#OOOOo=0000=oooOOOOq90000000009=ooOO#<<<1-----0098080q888888==99=XXX$%%%%%$%%%%%%%",
"%%%%%$$XXXX##133432@**==8-89q099-889qq==88<<<<<#OOOOo=00=oooOOOOw90000000009=ooOO##<<11-98==098989qq80q8-8=909=<XXX$%%%%%%%%%%%%",
"%%%%$XXXXX#<1344321O***--8q000008-qq99==99-<<<<<#OOOOo==ooOOOOOw90000000009=ooOO##<<11--908=999q9q99q0q8=8-90-@1<XXXX$%%%%%%%%%%",
"%%%$XXXX##113343111@****=8qq999q88qq98-=888<<<<<<#OOOOoooOOOOOw90000000009=ooOO##<<111-=qq8=98q09q99qqq0==8-0-<31<XXXXX$%%%%%%%%",
"%%$$XX##<134543111<<*=8*=--99-9988898=*===88<<<<<<#OOOOOOOOOOw90000000009=ooOO##<<11--===8--**88--999888-*=8-=13311<XXXXXX$$%%%%",
"$$$X$#<<134553111<<<****=-990989998998====888<<<<<<#OOOOOOOOq90000000009=ooOO##<<11---9898*-8=-----89988-**=-=133311<<XX..XXXXXX",
"XX$#<<1345553211<<<<@**=*-89q09---88==------9<<<<<<<#OOOOOO090000000009=ooOO##<<11-888=88=-9888--898wq8-*===*@<1133311<<XX......",
"X$#<13345553211<<<<<<O-=*889wq0---99=-88--=-99<<<<<<<#OOOOO99000000009=ooOO##<<11---89-===--9899-889qq8==--=o@##<1133331<<XX...X",
"##<13445555211<<<<<<<O=*=88=9988=*008-890qwq8=-=<<<<<<#OOOOo=90000009=ooOO##<<<1--=8=-0880-80990-=88888=--=*oOOOO#<1133331<<<###",
"<<133555553211<<<<<<<@*=--==8888*=9098=80qwq8=-=-<<<<<<#OOOoo=900009=ooOO##<<<1---=88=9888--88qq88---=-8=-**@###+OO#<13333311<<<",
"1134555555<<,,<<<<<<<<O***88-888=889q90qqqqq9--==-0<<11<#OOOoo=9009=ooOO##<<--88=--889q90089ww88-8---=--=**o@++@#<OO##<133333311",
"34455tt553<<,,<<<<<<<<@O==99-88-=889qq089q9888888880<111<#OOOoo=99=ooOO##<--88-8----99q9q999wq88-=---=--*=oO+++++@<#OO#<<1133333",
"4455tyyt53##,,,,<<<<<<<@O=880898-89899889q8-qq0q8888=-0099OOOOoo==ooOO8800qqqq08--8-899-9988--99-8--899-*oO@++++O++#<@OOO###1133",
"335tyyyyt3####,,,,<<<<<<OO9=0089---88800898--9q0==----0099OOOOOo==oO--8800qqqq90==8-88-8q0---8998-9-889-oo@+O++++++++@#@@#OO##<1",
"OO<4tyyyt41#####,,,,<<<<@O*-=8988-889098899898qq908988-80qqqqqqq88qqqqqqqqqq888-qq90q89q898--088--9-89-=oO+O+O+OOO++OOOO@@OOOoOO",
"OOo<4tyyt431#######,,<<<<O*-==*8-=99808-99q099999988-8-80qqqqqqq88qqqqqqqqqq88-9wq8880989899-88-==--9-=*o@+OO++++OOOOOOOOOOOOoOO",
"OOoo34tyy5311<######,,,<<@O*=====--8099898q09q9999990w--0900qq88wwwwwwwwww8899998898808-898998======8=ooO++++++O+OOOoOO++OOOOoOO",
"OOoo135ty543111<######,,,<@O*==*-8*8qq888999qq9q99q90w--9900qq88wwwwwwwwww8899908-0q98---808qq-=--==-*oO@+OOO++++OOOoOO++OOOOoOO",
"OOoo<15ttt5433111<######,,#OO*-***8---8898898qqqqqq0qq88--0088qqqqqqqqqqqq8800ww999888880988-8-=88==ooo@++OO+++O+OOOoOO++OOOOoOO",
"OOoo<155tt554433111<######,@OO==*-=--=88898880w9qq99q088--0088qqqqqqqqqqqq88000099-9890-08-8-=88=-**ooO+++OOO++O+OOOoOO++OOOOoOO",
"oooo13555555554433111<######@OO***=8=88--q889888880q0099--008800000000000088qq90880q9898-8-8======oooO@++++O+++++OOooOO++OOOOOOO",
"oooO3355555555554433111<@###@@oo-**===-=8-80880889qq0q88--008800000000000088qq00--89898009==-8=8-*ooOOO+++O+OO+OOOOooOOO+OOOOOOO",
"ooO<345555555544333333111<###@@oo*-*-=-==-=-8=q98988---88-8899999999999999--888-80808-==-=-=8-8=@@OoOOOO++++OO+OOOo oOOOOOOOOOoo",
"oO<3455555554431::::::11111<##OOoo*-=***==-=-==8=8008888--8899999999999999--888809-q-=-==-8====*@@@ooOOOOOOOOO+Ooo  oOOOOOOooooo",
"O<345555554431:::::::::::1111<#OOooo**=*-*-=--===q8888=---8899999999999999====-===---*======**@@@<<OoooOOOOOOOooo     oooooooooo",
"<34555544431::::>>>>>>>:::::111<OOoooo==**--=*-8==-=8====-8899999999999999===*=--=====*-*=-=@@@@<13<Oooooooooo         ooooooooO",
"4455544431::::>>>:::::>>>>::::111<Ooooo******==*-=8=-=-**=8888888888888888=====***=-****-=@@@@@<1433#Oooooooo  ooOOOOOOOOOOO#<12",
"45554431::::>>:::::::::>>>>>>:::11<@oooo*-*==**=*8-*==***=8888888888888888====******=**=**@@@@<13332<,@OOoooooOOO,12222222222224",
"554431::::>>:::;;;;;;;:::>>>>>>:::1<<Ooooo**==-*==*==**=*=-88888888888888-==**==**=-**@@@<<<<<2444332<<,@++@@,,,1244444444444455",
"54431:::::::;;;;;;;;;;;;::::>6>>>:::<<<Ooooo=**=*=*===***=--888888888888--==**=*===***@@<<<2<3t55544322<<,,,<4555555555555555555",
"4331:::::;;;;;;;;;;;;;;;;;:::>66>>>>:&<<OOoooo****-*=-==*===------------====***==*@@@@@@<<<335544444444433233344455ttttttttttt55",
"31::::::;;;;;;;;;&;;;;;;;;;;:::>666>>::&<<OOoooo*******=*===================******@@@@@@<<355333333333333333333333455555tyyyyt54",
"1:::::;;;;;;;;;;&;;;;;&;;;;;;;::>>666>>:&&<<OOoooooooooo******************oooO@@O@@@@@<<115431111111111112233333344334445ttyyt54",
"::::;;;;;;;;;&;;&;;;;;;;;;;;;;;:::>6666>>:&&<<OOoooooooo=*****************ooO@@O@@@@<<<<334311<<<<<<<<<<111112334554331445tytt53",
";;;;;;;;;;;;;&;;&;;;;&;&;;;;;;;;;:::>66776>>&&<<<<OoooooooOOOOoooooooooooooO@@O@<<<<<<<23332<<<<<<<<<<<<<<<<<111345331#145ttt543",
";;;;;;;;;;;;;&;;&;;;;&&&;;;;;;;;;::>>77777666:&&<<<@@ooooOOOOoooooooooooooO@@<<<1<<<<<<23321<<<<<<<<<<<<<<<<<<<113431,#145ttt541",
";;&&;;;;;;;;;&;&&;;;;&;;;;;;;;;;>>676666666>>>::::<<1<<<<<@@Oooooooooooo@<<<<<11211<<<1232<<<<<<<<<<<<<<<<<<<<<<1131<,#145tt553:",
";;&&;;;;;;;;;&&&&;;;;&;;;;;;;:::676>::::::::::>>>>::<<1111<<@@OOOOOOOoo@<11<<33211<<<<1221<<<<<<<<<<<<<<<<<<<<<<1131<,#145t5543:",
";;;;;;;;;;;;;&&&&;;;;&;;;;;;>>>>6:::;;;;&;;;;;::::>:::<35521<@OOOOOoo@<1411233211<<<<1121<<<<<<<<#1<<<<<<<<<<<<<<131,##<4555431:",
";;;;;;;;;;;;;&&&&;;;;;;;;;;:>>>>::;;;;;;&;;;;;;;;::::::<355531<#ooo#<<3412333211<<<<<1111<<<<<<<<<1<<<<<<<<<<<<<<111,##<455541::",
";;;;&&&;&;;;;&&&&;;;;;;;;;>>::::;;;;;;&;&;;;;;;;;;;;::&%%<33431111113441234321<<<<<<11111<<<<<<<<<<<<<11<<<<<<<<<11<###135543::;",
";;;;&&&;&;;;;&&&&;&;;;;;;:>>::;;;;&&&;&&&;;;&;;;;;;;;;%%%%%<34333333441234321<<<<<<<1111<<<<<<<<<<<<<<11<<<<<<<<<11,###135541::;",
";;;;&&&;&;;;;&&&&;&;;;;;:::::;;&;&;;&;&&&;;&&&;;;;;;;&%%&:::&%3355444<234321<<<<<<<<111<<<<<<<<<<<<<<<11<<<<<<<<<1<,###13443::;;",
";;;;&&&;&;;;;&&&&;;;;;;;::::;;;;;&;;&;&&&;;&&&;;;;;;;&%%&;::&%%34554<<33332<<<<<<<<1111<<<<<<<<<<<<<<<11<<<<<<<<<1<,##<33441::;;",
";;;;;&&;&;;;;&&&&&;;;;;::::;;;;&;;;&&;&&&;;;&&;;&;;;;%$%&;;;&%%%1455<<333211<<<<<<<1111<<<<<<<<<<<<<<<<<<<11<<<<<<,,##<3333::;;;",
";;;;;&&;&;;;;&&&;&;;;;;:::;;;;&&;;;&&;&&&;;;&&;;&&;;;%$%&;;;&%%%<345<<122211<<<<<<<111<<<<<<<<<<<<<<<<<<<<11<<<<<<,###<3331::;;;",
";;;;;&&&&;;;;&&&;&;;;;:::;;;;&&&;;;&&;&&&;;;&&&;&&&;;%$%&;;;&%%%<1341<<12111<<<<<<1111<<<<<<<<<<<<<<<<<<<<<<<<<<<<,###1333::;;;;",
";;;;;&&&&;;;;&&&;;;;;::::;;;;&&;;&;&&&&;&;;;;;;&&&&;;%$%&;;;&%%%<1343,<<1111<<<<<<1111<<<<<<<<<<####<<<<<<<<<<<<<,,###1331::;;;;",
";;;;;&&&&;;;;&&&;&;;;:::;;;;;&&;;&;&&&%%%&&;;;&;&&&;;%$%&;;;&%%$<1343<,<1111<<<<<<111<<<<<<<<<<##<111<<<<<<<<<<<<,,###333:::;;;;",
";;;;;&&&&;;;;&;&&&;;;:::;;;&;&&;;&;&%$%%;;:>;;&;&&&;;%$%&;;;&%%$<1344<,,1111<<<<<<111<<<<<<<<<<#<11111<<<<<<<<<<<,####331:::;;;;",
";;;;;&&&&;;;;&;&&;;;:::;;;;&;&&;;;;%$%&;>::::;&;&&&;;%$%&;;;&%%$<13441<,1111<<<<<<111<<<<<<<<<<<<11111<<<<<<<<<<<,###<33:::;;;;;",
";;;;;&&&&;;;;&&&&;;;:::;;;;&;&&;;;%%&;;>77::;;&&&;&;;%$%&;;;&%%$<13443<,1111<<<<<<111<<<<<<<<<<<<11111<<<<<<<<<<<,###<31:::;;;;;",
";;;;;&&&&;;;;;&;&;;;:::;;;;;;&&;;;;;;:>6>:;;;;&&&;;;;%$%&;;;&%%$<134541<1111<<<<<<11<<<<<<<<<<<<<<1111<<<<<<<<<<,####13:::;;;;;;",
";;;;;&&&&;;;;;&&&;;;:::;;;;&;&&&;;;;;;;;;;;&&;;;;;;;;%$%&;;;&%%$<134543<1111<<<<<<11<<<<<<<<<<<<<<1<<<<<<<<<<<<<,####11:::;;;;;;",
";;;;;;;;&;;;&;&&;;;;::;;;;;;;&;;;;;;;;;;;;;&&;;;;;;;;%$%&;;;&%%%<134543<1111<<<<<<11<<<<<<<<<<<<<<<<<<<<<<<<<<<<,####3:::;;;;;;;",
";;;;;;;;&;;;;&;;;;;;::;;;;;;;;;;;;;;;;;;;;;&&;;;;;;;;%$%&;;;&%%%<134543<1111<<<<<<11<<<<<<<<<<<<<<<<<<<<<<<<<<<<,####3::;;;;;;;;"
};
