/* XPM */
static char *_5_Wolfenstein3DWalls1735817067[] = {
/* columns rows colors chars-per-pixel */
"128 128 48 1 ",
"  c black",
". c #232323",
"X c #2F2F2F",
"o c gray20",
"O c gray23",
"+ c #4B0000",
"@ c #630000",
"# c #6F0000",
"$ c #770000",
"% c #777700",
"& c #004343",
"* c #005B5B",
"= c #007373",
"- c #434343",
"; c #4B4B4B",
": c gray34",
"> c #5B5B5B",
", c #676767",
"< c gray45",
"1 c gray50",
"2 c #830000",
"3 c #8F0000",
"4 c #9B0000",
"5 c #A70000",
"6 c #B30000",
"7 c #BF0000",
"8 c #CB0000",
"9 c #D70000",
"0 c #E30000",
"q c red",
"w c #9F4F00",
"e c #B75700",
"r c #E76F00",
"t c #878700",
"y c #9F9F00",
"u c #AFAF00",
"i c #008787",
"p c #009F9F",
"a c #00B7B7",
"s c #00CFCF",
"d c #00E7E7",
"f c gray56",
"g c #9B9B9B",
"h c gray67",
"j c #B7B7B7",
"k c #C3C3C3",
"l c LightGray",
"z c #DFDFDF",
/* pixels */
";OOOOOOOOOOOOOOOOOOOOOOOOOOOOOOOOOOOOOOOOOOOOOOOOOOOOOOOOOOOOOOOOOOOOOOOOOOOOOOOOOOOOOOOOOOOOOOOOOOOOOOOOOOOOOOOOOOOOOOOOOOOOOXX",
"OOOOOOOOOOOOOOOOOOOOOOOOOOOOOOOOOOOOOOOOOOOOOOOOOOOOOOOOOOOOOOOOOOOOOOOOOOOOOOOOOOOOOOOOOOOOOOOOOOOOOOOOOOOOOOOOOOOOOOOOOOOOOOXX",
";;fffffffffffffgffggffggffggffgggfggggggggggggggggggggggffggfffgfffffffffffff1fff1ff1111111111111111<<<<<<<<<<<<<<<<<<<<<<<<<<XX",
";;ffffffffffffgffggffggffggffgggfggggggggggggggggggggggfffgfffgfffffffffffff1fff1ff1111111111111111<<<<<<<<<<<<<<<<<<<<<<<<<<<XX",
";;fffffffgfffgffggffggffggffgggggggggggggggggggggggfggfffgfffgfffffffffffff1fff1ff1111111111111111<<<1<<1gg1<<1gg1<<<<<<<<<<<<XX",
";;ffffffgfffgffggffgggfgggfgggggggggggggggggggggggffgfffgfffgfffffffffffff1fff1ff1111111111111111<<<1<<<ghhf<<ghhf<<<<<<<<<<<<XX",
"::fgfipffffgffggffgggfgggggggggggggggggggggggggggffgfffgfffffffffffff1fff1fff1ff1111111111111111<<<1<<<,fghg,,fghg,<<<<<,==,,,XX",
"::gf=aspffgffggffgggggggggggggggggggggggggggggggffgfffgfffffffffffff1fff1fff11f1111111111111111<<<1<<<,,1fhg,,1fhg,<<<<,*=i=,,XX",
"::f1*iaifgffggffgggggggggggggggggggggggggggfgggffgfffgfffffffffffff1fff1fff11f1111111111111111<<<1<<<1,,1fhg,,1fhg,<<<<:&*==,<XX",
"::f1<*=fgffggffgggggggggggggggggggggggggggffggffgfffgfffffffffffff1fff1fff11f1111111111111111<<<1<<<1<,,1fhg,,1fhg,<<<<:;&*:<,XX",
"::fg1<1gff:,,,,,,,,,,,,,,<<<<<<<<<<<<<<<<<<<<<<<<<fffffffffffffff1fff1ff11111111111111111111<<<1<<<1<oO-;;;;;;;;;;;-O<<,:::,,,XX",
"::gfffggff::::::::::::::::::,,,,,,,,,,,,,,,,,,,,,<ffffffffffffff1fff1ff11111111111111111111<<<1<<<1<,oO-;;;;;;;;;;;-O<<,,,<,,,XX",
"::ffggggf1:;fgggggggggggggghhhhhhhhhhhhhhhhhhhhh,<fffffffff1fff1fff1ff11111111111111111<11<<<1<<<1<<,oO-;;;;;;;;;;;-O<,,,<,,,<XX",
"::fgggggf1:;1fhhhhhjjjjjjjjjjjjjjjjjkkkkkkkkkkkh,<ffffffff1fff1ff111f11111111111111111<<1<<<1<<<1<<<,oO-------------O,,,<,,,<,XX",
"::gggggg11;;,<fffffffggggggggggggggggggggghhhhkh,<fffffff1fff1ff111f11111111111111111<<1<<<1<<<1<<<<,;;O:,,:OO:,,:::,,,<,,,<,,XX",
"::gggggg11;O,<ffffffffggggggggggggggggggggghhhkh,<ffffff1fff1ff111f11111111111111111<<1<<<1<<<1<<<<<,:;;,,<,;;,,<,:,,,<,,,<,,,XX",
"::gggggg11;O,<ffOOffOOffOOffOOggOOggOOggOOgghhkh,,fffff1ff11ff111f11111111111111111<<1<<<1<<<1<<<<<<,:;;,1g1,:,1g1,,,<,,,<,,,,XX",
"::gggggg1<;O,<ffOOffOOffOOffOOfgOOggOOggOOggghkh:,ffff1ff111f111f11111111111111111<<1<<<1<<<1<<<<<<<<<,;,1hf,:,1hf,,<,,,<,,,,,XX",
"::gggggg1<OO:<ff;Off;Off;Off;Off;Ogg;Ogg;Oggggkh:,fff1ffhhhhhhjjjjjjjkkkllzzzz111<<1<<<1<<<<<<<<<<<<<<,;,1hf,:,1hf,,,,,<,,,,,,XX",
"::gggggg1<OO:<ff;Off;Off;Off;Off;Ofg;Ogg;Oggggkh:,ff1ff1hhhhhhhjjjjjjjkkklzzzz11<<1<<<1<<<<<<<<<<<<<<<,;,1hf,:,1hf,,,,<,,,,,,,XX",
"::gggppg1<OO:<ff;Off;Off;Off;Off;Off;Ogg;Ogg,<jh:,11ff<,hh;,hhhhj1991jjkkk<fzz1<<1<<<1<<<<<<<<<<<<<<<<,;,1hf,:,1hf,,,<,,,==,,,XX",
"::gg=adp1<OO:<ff;;ff;;ff;;ff;;ff;;ff;;fg;;gg:,jg:,11f1<,hh,;hhhh16qq91jjkkf<zz<<1<<<1<<<<<<<<<<<<<<<<<,;,1hf,:,1hf:,<,,,*=i=,,XX",
"::gf*iap1<OX:<ff:;ff:;ff:;ff:;ff:;ff:;ff:;fgggjg:,1f11<:ghhhhhh16955q91jkkjjll<1<<<1<<<<<<<<<<<<<<<<<<,;,1hf,:,1hf:,,,,:&*==,,XX",
"::gf<*=g1<OX:<ff,:ff,:ff,:ff,:ff,:ff,:ff,:ffggjg:,f111<:gghhhh1695555q91jkkkkl1<<<1<<<<<<<<<<<<<<<<<<<,;,1hf,:,1hf:,,,,:;&*:,,XX",
"::ggfffg1<OX:<fffffffffffffffffffffffffffffffgjg:,1111<:gghhh169555555q91jkkkk<<<1<<<<<<<<<<<<<<<<<<<<,;,1hf,:,1gf:,,,,,:::,,,XX",
"::gggggg1<OX:<ffffffffffffffffffffffffffffffffhg::1111,:gggh16955555555q91jkkk<<1<<<<<<<<<<<<<<<<<<<<<,;,1hf,;,1g1:,,,,,,,,,,,XX",
"::gggggg<<XX:<<<<<<<<<<<<<<<<<<<<<<<<<<<<<<<<<fg::1111,:gggg67555555555599jjkk<<<<<<<<<<<<<<<<<<<<<<<<,;,1hf,;,1g1:,,,,,,,,,,,XX",
"::gggggg<<XX::::::::::::::::::::,,,,,,,,,,,,,,1f::1111,:ggg177555555555599jjjk<<<<<<<<<<<<<<<<<<<<<<<<,;,1hf,;,1g1:,,,,,,,,,,,XX",
"::gggggf<<XXXXXXXXXXXXXXXXOOOOOOOOOOOOO;;;;;;;::::1111,;fg1,@2222255222222jjjj<<<<<<<<<<<<<<<<<<<<<<<<,;,1hf,;,1g1:,,,,,,,,,,,XX",
"::ggggfg<<XXXXXXXXOOOOOOOOOOOOOO;;;;;;;;;;::::::::1111,;ff1,++++@2552+++@@jjjj<<<<<<<<<<<<<<<<<<<<<<<<,;,1gf:;,1g1:,,,,,,,,,,,XX",
"::ggffgg<<<<<<<<<<<<<<<<<<<<<<<<<<<<<<<<<<<<<<<1111111,;ff1,,,,,+2555@<<<ghhjj<<<<<<<<<<<<<<<<<<<<<<<<,;,1g1:;,1f1:,,,,,,,,,,,XX",
"::gfffgf<<<<<<<<<<<<<<<<<<<<<<<<<<<<<<<<<<<<<<11111111,;ff11111,+2556311fhhhhj<<<<<<<<<<<<<<<<<<<<<<<<,;,1g1:;,1f1:,,,,,,,,,,,XX",
"::fffgfffffffffffffffffffff1fff11f111f1111111111111111,;fffffg1,+25583ghhhhhhh<<<<<<<<<<<<<<<<<<<<<<<<:;,1g1:;,1f1:,,,,,,,,,,,XX",
"::ffgfffffffffffffffffffff1fff11f111f11111111111111111,;ffffff1,+23363ghhhhhhh<<<<<<<<<<<<<<<<<<<<<<<,:;,1g1:;,1f1:,,,,,,,,,,,XX",
"::ggfipffffffffffffff1fff1fff11f111f111111111111111111,;ff Off1,++++@3gghh;,hh<<<<<<<<<<<<<<<<<<<<<<,,:;,1g1:;,1f1:,,,,,,==,,,XX",
"::gf=aspffffffffffff1fff1fff11f111f1111111111111111111,;ffO ff1,,,,,,,gggg,;hh<<<<<<<<<<<<<<<<<<<<<,,,:;,1g1:;,1f1:,,,,,*=i=,,XX",
"::f1*iaifffffffffff1fff11ff11f111f11111111111111111111,;ffffff1111111ggggggghh<<<<<<<<<<<<<<<<<<<<,,,<:;,1f1:;,1f1:,,,,:&*==,,XX",
"::f1<*=1ffffff1fff1fff11f111f111f111111111111111111111,;fffffffffffffffgggghhh<<<<<<<<<<<<<<<<<<<,,,<,:;,1f1:;,1f1;,,,,:;&*:,,XX",
"::ff111ffffff1fff1fff11f111f11111111111111<,<111111111,;;;;;;;;;;;;;;;;;:::::,<<<<<<<<<<,::<<<<<,,,<,XoO-;;;;;;;;;;-O,,,:::,,,XX",
"::ffffffffffffff1fff11f111f11111111111111<:<f<11111111,:::::::::::::::::::::,<<<<<<<<<<,:<1:<<<,,,<,,XoO-;;;;;;;;;;-O,,,,,,,,,XX",
"::fffffffff1fff1ff111f111f111111111111111,;<<,11111111<<<1<<<1<<<1<<<<<<<<<<<<<<<<<<<<<,O:<:<<,,,<,,:XoO------------O,,,,,,,,,XX",
"::fffff1ff1fff1ff111f111f1111111111111111,,;:<1111111<<<1<<<1<<<1<<<<<<<<<<<<<<<<<<<<<<,:O:,<,,,<,,,:XoOOOOOOOOOOOOOO,,,,,,,,,XX",
"::ffff1ff1fff11f111f::::::,,,,,,,,,,,,,,11,,,1:-XXXXXXXXXXXXXXXXXXXXXXXXXXXXXXXXXXXXXXXX,,,<,,,<,,,<:;OO;::;OO;:::;;,,,,,,,,,,XX",
"::ffffff1fff11f111f1::::::::::::::::,,,,111111,:XXXXXXXXXXXXXXXXXXXXXXXXXXXXXXXXXXXXXXXX<<<,,,<,,,<,:;;O::<,OO::<,;:,,,,,,,,,,XX",
"::fffff1ff111f111f11;;ffffffffggggfffg,,1111111,--------------------------------------XX<<,,,<,,,<,,:;;;:,1<;;:,1,;,,,,,,,,,,,XX",
"::f1ff11f111f111f111;;ffffffgggggfffgf,,11111111:;;;;;;;;;;;;;;;;;;;;;;;;;;;;;;;;;;;;-XX<,,,<,,,<,,,,,:;:,1<;;:,1,;,,,,,,,,,,,XX",
"::1ff11f111f111f1111;;ffffggggggfffgff,,111111g1::::::::::::::::::::::::::::::::::::;-XX,,,<,,,<,,,<,,:;:,1<;;:,1,;,,,,,,,,,,,XX",
"::ff11f111f111f11111;;ff1<<<<<<<<<<<<f,,1111<1g1,:::::::::::::::::::::::::::::::::::;-XX,,<,,,<,,,<,,,:;:,1<;;:,1,;,,,,,,,,,,,XX",
"::f11ip11f111f111111;;fgyyy,,,,yyyt:<f,,111<11g1,:::::::::::::::::::::::::::::::::::;-XX,<,,,<,,,<,,,,:;:,1<;;:,1,;,,,,,,==,,<XX",
"::11=aspf111f1111111;;ghyy,,,,yyyt::<f,,11<111g1,:::::::::::::::::::::::::::::::::::;-XX<,,,<,,,<,,,,,:;:,1<;;:,1,;,,,,,*=i=<,XX",
"::11*iai111f11111111XXghy,,,,yyyt:::<f,,<<11<<g1,:::::::::::::::::::::::::::::::::::;-XX,,,<,,,<,,,,,,:;:,1<;;:,1,;,,,,:&*==,,XX",
"::11<*=111f111111111XXgh,,,,yyyt::::<f,,<<1<<<g1,:::::::::::::::::::::::::::::::::::;-XX,,<,,,<,,,,,,,O:<fgf,;:,1,;,,,,:;&*:,,XX",
"::1111111f1111111111OOgj<,,yyyt::::t<f,,<1<<<1g1,:::::::::::::::::::::::::::::::::::;-XX,<,,,<,,,,,,,:O;,111:;:,1,;,,,,,:::,,<XX",
"::111111f11111111111OOgj<,yyyt::::tt<f:,1<<<1<g1,:::::::::::::::::::::::::::::::::::;-XX<,,,<,,,;;;;,:O;:::::;:,1,;,,,,,<,,,<<XX",
"::11111f111111111111XXgj<yyyt::::ttt<f:,<<<1<<g1,:::::::::::::::::::::::::::::::::::;-XX,,,<:::;::::,:::,<<:;;:,1,;,,,,<,,,<<,XX",
"::1111f1111111111111XXgjyyyt::::ttt%<f:,<<1<<<g1,:::::::::::::::::::::::::::::::::::;-XX,,<:;;;O;;;;;;:,<1<,;;:,1,;,,,<,,,<<,<XX",
"::111f11111111111111;;fjuyt,:::ttt%;<f:,<1<<<1g1,:::::::::::::::::::::::::::::::::::;-XX,<:;;,,:OOOO<<<1f1<,O:,fgf,;,,,,,<<,<<XX",
"::11f111111111111111;;fjuu,,,,ttt%;;1f:,1<<<1<g1,:::::::::::::::::::::::::::::::::::;-XX<,;;:,1:OOOO11111<,:O;,111:;,,,,<<,<<<XX",
"::1f1111111111111111;;fjjjjjjjhhhhhhff::<<<1<<g1,:::::::::::::::::::::::::::::::::::;-XX::;;:::;OOOO,,,,,::;OO;::::;,,,<<,<<<,OO",
"::111111111111111111;;gfffffffffffffff::<<1<<<g1,:::::,,,,,:::::::::::::::::::,,,,,:;-XX::;;;:;OOOOO::::::;OO;,,,:;,,,<,,<<<,<OO",
"::111111111111111111;;ffffffffffffffff::<1<<<<g1,:::::jllz,:::::::::::::::::::kllz,:;-XX::;;;;OXOOOOOOOOOOOOO;<1<,;,,,,,<<<,<<OO",
"::111111111111111111;;ffffffffffffffff::1<<<<<g1,::::,fhhz,:::::::::::::::::::fhhz1:;-XX:::;;;;OOOOOOO;;;;;;:,11<,;,,,,,<<,<<<OO",
"::111ii1111111111111;;ffffffffff<O;<ff::<<<<<<g1,:;;1<1hhz111111111111111111<,1hhzf1;-XX:::;;,,:OOOO<<<<<<<<<1f1<,;,,,,<,==,<,OO",
"::11=pai111111111111;;ffffffffffO:,;f1::<<<<<<g1,:;;:,1hhz::::::::::::::::::;;1hhl<:;-XX::;;:,1:OOOO11111111111<,:;,,,<,*=i=,<OO",
"::1,*ipi111111111111;;fffffffff1.;:O11::<<<<<<g1,:OOX;1hhzXXXXXXXXXXXXXXXXXXXX1hhl:X;-XX::;;:::;OOOO,,,,,,,,,,,,:;:,,,,:&*==<<OO",
"::1,:*=1111111111111;;ffffffff1<:.O:11::<<<<<<g1,:OOXX1hhzOOOOOOOOOOOOOOOOOOOX1hhlXX;-XX::;;;:;OOOOO;;;;;;;;;;;;O;,,,,,:;&*,<<OO",
"::1<,,,1111111111<11;;ffffffff1<<<111f::<<<<<<g1,:;OXX1hhz,::::::::::::::::;OX1hhl--;-XX::;;;;OXOOOOOOOOOOOOOOOO;:,<,,,<:::<<,OO",
"::11111111111111<111;;ffffffff1<<111f1::<<<<<<g1,:;OXX1hhz1::::::::::::::::;OX1hhl--;-XX:::;;;;Ooooo;;;;;;;;;;;;::<<,,<,,,<<,<OO",
"::11111111111111111<;;fffffffff1111f11::<<<<<<gf<:;OXX1hhz11<<<,,,,,,,,,,,,;OX1hhl::;-XX,:::;;;;XXXX;;;;;;;;;;;::,,,,<,,,<<,<<OO",
"::1111111111111111<<;;ffffffffff11f111;:<<<<<<gf<:;OXX1hhzzzzzzzzzzzzzzzzzzlhhghhl::;-XX,,::::;;;;;:::::::::::::,,,,<,,,<<,<<<OO",
"::1111111<111<111<<1;;fffffffff11f1111;:<<<<<<gf<:;OXX1hhhhhhhhhhhhhhhhhhhhhhhhhhl::;-XX,,,,,,;;;;:,,,,,,,,,,,,<,,,<,,,<<,<<<,OO",
"::111111<111<111<<1<;;ffffffff11f11111;:<<<<<<gf<:;OXX1hhhhhhhhhhhhhhhhhhhhhhhhhhl::;-XX,,,,,,::::,,,,,,,,,,,,<<,,<,,,<<,<<<,<OO",
"::1111111111111<<1<<XXfffffff11f111111;:<<<<<<gf<:;OXXwwXXwwwwXXwwwwXXeeeeOOeeeeer::;-XX,,,,,,,,,,,,,,,,,,,,,,,,,,,,,<,,<<<,<<OO",
"::111111111111<<1<<<XXffffff11f1111111;:<<<<<<gf<:;OXXXXXXXXXXXXXXOO;OXXXXXXXXXX::::;-XX,,,,,,,,,,,,,,,,,,,,,,,,,,,,<,,,<<,<<<OO",
"::1111111<111<<1<<<1OOfffff11f11111111;:<<<<<<gf<:;OXXXXXXXXXXXXXXO:,:XXXXXXXXXO::::;-XX,,,,,,,,,,,,,,,,,,,<,,,<,,,<,,,<<,<<<<OO",
"::111111<111<<1<<<1<OOffff11f111111111;:<<<<<<gf<:;OOOOOOOOOOOOOXX:1h1OOOOOOOOO;::::;-XX,,,,,,,,,,,,,,,,,,<,,,<<,,<,,,<<,<<<<<OO",
"::111ii1111<<1<<<1<<XXfffffff111111111;;<<<<<<gf<:;;;;;;;;;;;;;OXX:1h1;;;;;;;;;:::::;-XX,,,,,,,,,,,,,,,,,,,,,,,,,<,,,<,,,==<<<OO",
"::1<=pai11<<1<<<1<<<XXffffff1111111111;;<<<<<<gf<:;;;;;;;;;;;;;OXX:1h1;;;;;;;;::::::;-XX,,,,,,,,,,,,,,,,,,,,,,,,<,,,<,,,*=i=<<OO",
"::1,*ipi1<<1<<<1<<<1;;fffff11f11111111;;<<<<<<gf<:::::::::::::;OXX:1h1::::::::::::::;-XX,,,,,,,,,,,,,,,,,,,<,,,<,,,<,,,,**==<<OO",
"::1,:*=<<<11<<1<<<1<;;ffff11f111111111;;<<<<<<gf<:::::::::::::;OXX:1h1::::::::::::::;-XX,,,,,,,,,,,,,,,,,,<,,,<,,,<,,,<,:**,<<OO",
"::11,,,1111<<1<<<1<<;;fff11f1111111111;;<<<<<<gf<:::::::::::::;OXX;;::::::::::::::::;-XX,,,,,,,,,,,,,,,,,,,,,,,,,<,,,<,<,,,<<<OO",
"::11111111<<1<<<1<<<;;ff11f11111111111;;<<<<<<gf<<<<<<,,,,,,::;OXXXXO;,,,,,,,,,,,,:::-XX,,,,,,,,,,,,,,,,,,,,,,,,<,,,<,,<<<<<<<OO",
"::1111111<<1<<<1<<<1;;;;;;;;;;;;;;;;;;;;<<<<<<gffffffffffff1111<,:::,11111<<<<<<<<<<,:;-,,,,,,,,,,,,,,,,,,,<,,,<,,,<,,<<<<<<<<OO",
"::111111<<1<<<1<<<1<;;;;;;;;;;;;;;;;;;;;<<<<<<ggggggggggggggffff1<<<1fffffff111111<<<,:;,,,,,,,,,,,,,,,,,,<<,,<,,,<,,,<<,<<<<<OO",
"::11111<<11<<1<<<1<<<<<<<<<<<<<<<<<<<<<<<<<,,<<<<<<<<<,,,<,,,<,,,<,,,,,,,,,,,,,,,,,,,,,,:::,,,,,,,,,,,,,,,,,,,,,,<,,,<<,<<<<<<OO",
"::1111<<11<<1<<<1<<<<<<<<<<<<<<<<<<<<<<<<<:<f,<<<<<<<,,,<,,,<,,,<,,,,,,,,,,,,,,,,,,,,,,:;,<:,,,,,,,,,,,,,,,,,,,,<,,,<<,<<<<<<<OO",
"::111<<11<<1<<<1<<<1<<<<<<<<<<<<<<<<<<<<<,O:<,<<<,<<,,,<,,,<,,,<,,,,,,,,,,,,,,,,,,,,,,,:O:,:,,,,,,,,,,,<,,,<,,,<,,,<,,<<<<<<<<OO",
"::11<<11<<1<<<1<<<1<<<<<<<<<<<<<<<<<<<<<<,:O:<<<,,<,,,<,,,<<,,<<<<<<<<<<<<<<<<<,,,,,,,,:;O;:,,,,,,,,,,<,,,<<,,<,,,<,,<<<,<<<<<OO",
"::1<<11<<1<<<1<<<<<<<<<<<<<<<<<<<<<<<<<<<<,,,<<<<<,,,<,,111111ffffffffffgggggg<,,,,,,,,,:::,,,,,,,,,,,,,,,,,,<,,,<,,<<<,<<<<<<OO",
"::<<11<<1<<<1<<<<<<<<<<<<<<<<<<<<<<<<<<<<<<<<<<<<,,,<,,,11111111fffffffffggggg<,,,,,,,,,,,,,,,,,,,,,,,,,,,,,<,,,<,,,<<,<<<<<<<OO",
"::<11ii<<<<1<<<1<<<<<<<<<<<<<<<<<<<<<<<<<,<<<,<<,,,<,,,:11-:11111fffffffff>,gg<,,,,,,,,,,,,,,,,,,,,,,,,<,,,<,,,<,,,<,,<<,==<<<OO",
"::11=pai<<1<<<1<<<<<<<<<<<<<<<<<<<<<<<<<,<<<,,<,,,<,,,::11:-1111566667ffff,>gg<,,,,,,,,,,,,,,,,,,,,,,,<<,,<,,,<,,,<,,<<,=ii=<<OO",
"::1,*ipi<<<<<<<<<<<<<<<<<<<<<<<<<<<<<<<<<<<<<<,,,<,,,<:;<111111,269906ffffffgg<,,,,,,,,,,,,,,,,,,,,,,,,,,,,,,<,,,<,,<<<,*=i=<1OO",
"::<,:*=<<<<<<<<<<<<<<<<<<<<<<<<<<<<<<<<<<<<<<,,,<,,,<,:;<<1111<>235696fffffffg<,,,,,,,,,,,,,,,,,,,,,,,,,,,,,<,,,<,,<<<<,:*=,1<OO",
"::<<,,,<<<<1<<<<<<<<<<<<<<<<<<<<<<<<<,<<<,<<,,,<,,,<,,:;<<1111<>2355961fffffff<,,,,,,,,,,,,,,,,,,,,<,,,<,,,<,,,<,,<<<,<<,,,<<<OO",
"::<<<<<<<<1<<<<<<<<<<<<<<<<<<<<<<<<<,<<<,,<,,,<,,,<,,,:;<<<111<>23559611ffffff<,,,,,,,,,,,,,,,,,,,<,,,<<,,<,,,<,,,<<,<<<<<<<<<OO",
"::<<<<<<<<<<<<<<<<<<<<<<<<<<<<<<<<<<<<<<<<,,,<,,,<,,,<:;<<<<77752355976666ffff<,,,,,,,,,,,,,,,,,,,,,,,,,,<,,,<,,,<<,<<<<<<<<<1OO",
"::<<<<<<<<<<<<<<<<<<<<<<<<<<<<<<<<<<<<<<<,,,<,,,<,,,<,:;<<<,60009656099996ffff<,,,,,,,,,,,,,,,,,,,,,,,,,<,,,<,,,<<,<<<<<<<<<1<OO",
"::<<<<<<<<<<<<<<<<<<<<<<<<<<<<<<<,<<<,<<<,,<,,,<,,,<,,:;<<,:34555556665543ffff<,,,,,,,,,,,,,,,,,,,,<,,,<,,,<,,,<,,<<<,<<<<<<<<OO",
"::<<<<<<<<<<<<<<<<<<<<<<<<<<<<<<,<<<,,<<,,<,,,<,,,<,,,:;<<>:#$5555555555$#11ff<,,,,,,,,,,,,,,,,,,,<,,,<,,,<,,,<,,<<<,<<<<<<<<<OO",
"::<<<<<<<<<<<<<<<<<<<<<<<<<<<<<<<<<<<<<,,<,,,<,,,<,,,<:O<<>:;#$55555555$#,111f<,,,,,,,,,,,,,,,,,,,,,,,,,,<,,,<,,<<<,<<<<<<<<<1OO",
"::<<<<<<<<<<<<<<<<<<<<<<<<<<<<<<<<<<<<,,<,,,<,,,<,,,<,:O<<,>:;#$555555$#:1111f<,,,,,,,,,,,,,,,,,,,,,,,,,<,,,<,,,<<,<<<<<<<<<1<OO",
";;<<<<<<<<<<<<<<<<<<<<<<<<<<<,<<<,<<<,,<,,,<,,,<,,,<,,:O<<<,>:;#$5555$#:<11111<,,,,,,,,,,,,,,,,<,,,<,,,<,,,<,,,<,,<<<,<<<<<<<<OO",
";;<<<<<<<<<<<<<<<<<<<<<<<<<<,<<<,,<<,,<,,,<,,,<,,,<,,,;O<<<<,>:;#$55$#:,111111<,,,,,,,,,,,,,,,<,,,<<,,<,,,<,,,<,,<<<,<<<<<<<<<OO",
";;<<<ii<<<<<<<<<<<<<<<<<<<<<<<<<<<<,,<,,,<,,,<,,,<,,,,;O<< O<,>:;#$$#:,<11-:11,,,,,,,,,,,,,,,,,,,,,,,<,,,<,,,<,,<<<,<<<<,==<<1OO",
";;<<=pai<<<<<<<<<<<<<<<<<<<<<<<<<<,,<,,,<,,,<,,,<,,,,,;O<<O <<,>:;##:><<<<:-11,,,,,,,,,,,,,,,,,,,,,,<,,,<,,,<,,<<<,<<<<,=ii=1<OO",
";;<,*ipi<<<<<<<<<<<<<<<<<,<<<,<<<,,<,,,<,,,<,,,<,,,<,,;O<<<<<<<,>:;;>,<<<<<<11,,,,,,,,,,,,,,,,,<,,,<,,,<,,,<,,<<,,<<<<<,*=i=<<OO",
";;<,:*=<<<<<<<<<<<<<<<<<,<<<,,<<,,<,,,<,,,<,,,<,,,<,,,;O<<<<<<<<,>>>,<<<<<<111,,,,,,,,,,,,,,,,<,,,<,,,<,,,<,,,<,,<<<<<<,:*=,<<OO",
";;<<,,,<<<<<<<<<<<<<<<<<<<<<<<<,,<,,,<,,,<,,,<,,,<,,,,;OOOOOOOOOOOOO;;;;;;;::,,,,,,,,,,,,,,,,,,,,,,,,<,,,<,,,<,,<<<<<<<<,,,<<1OO",
";;<<<<<<<<<<<<<<<<<<<<<<<<<<<<,,<<,,<,,,<,,,<,,,<,,,,,;;;;;;;;;;;;;:::::::::,,,,,,,,,,,,,,,,,,,,,,,,<,,,<,,,<,,<<<<<<<<<<<<<1<OO",
";;<<<<<<<<<<<<<<<<<<<,<<<,<<<,,<<,,<,,,<,,,<,,,<,,,<,,,<,,,,,,,,,,,,,,,,,,,,,,,,,,,,,,,,,,,,,,,<,,,<,,,<,,,<,,<<<,<<<<<<<<<1<<OO",
";;<<<<<<<<<<<<<<<<<<,<<<,,<<,,<<,,<,,,<,,,<,,,<,,,<,,,<,,,,,,,,,,,,,,,,,,,,,,,,,,,,,,,,,,,,,,,<,,,<,,,<,,,<,,<<<,<<<<<<<<<1<<1OO",
";;<<<<<<<<<<<<<<<<<<<<<<<<<,,<<,,<,,,<,,,<,,,<,,,,,,,,,,,,,,,,,,,,,,,,,,,,,,,,,,,,,,,,,,,,,,,,,,,,,,,<,,,<,,,<<,<<<<<<<<<1<<11OO",
";;<<<<<<<<<<<<<<<<<<<<<<<<,,<<,,<,,,<,,,<,,,<,,,,,,,,,,,,,,,,,,,,,,,,,,,,,,,,,,,,,,,,,,,,,,,,,,,,,,,<,,,<,,,<<,<<<<<<<<<1<<111OO",
";;<<<<<<<<<<<<<<<,<<<,<<<,,<<,,<,,,<,,,<,,,<,,,<,,,<,,,,,,,,,,,,,,,,,,,,,,,,,,,,,,,,,,,,,,,<,,,<,,,<,,,<,,,<,,<<<,<<<<<1<<1<11OO",
";;<<<<<<<<<<<<<<,<<<,,<<,,<<,,<,,,<,,,<,,,<,,,<,,,<,,,,,,,,,,,,,,,,,,,,,,,,,,,,,,,,,,,,,,,<,,,<<,,<,,,<,,,<,,<<<,<<<<<1<<1<<11OO",
";;<<<<<<<<<<<<<<<<<<<<<,<<<,,<,,,<,,,<,,,<,,,,,,,,,,,,,,,,,,,,,,,,,,,,,,,,,,,,,,,,,,,,,,,,,,,,,,,<,,,<,,,<,,<<<,<<<<<<<<1<<111OO",
";;<<<<<<<<<<<<<<<<<<<<<<<<,,<,,,<,,,<,,,<,,,,,,,,,,,,,,,,,,,,,,,,,,,,,,,,,,,,,,,,,,,,,,,,,,,,,,,<,,,<,,,<,,<<<,<<<<<<<<1<<1<11OO",
";;<<<ii<<<<<<,<<<,<<<,<<<,,<,,,<,,,<,,,<,,,<,,,<,,,,,,,,,,,,,,,,,,,,,,,,,,,,,,,,,,,,,,,,,,,<,,,<,,,<,,,<,,<<,,<<<,<<<<1<,==<11OO",
";;<<=ipi<<<<,<<<,<<<,,<<,,<,,,<,,,<,,,<,,,<,,,<,,,,,,,,,,,,,,,,,,,,,,,,,,,,,,,,,,,,,,,,,,,<,,,<,,,<,,,<,,,<,,<<<,<<<<<1,=ii=11OO",
";;<,*=ii<<<<<<<<<<<<<<<,,<,,,<,,,<,,,<,,,,,,,,,,,,,,,,,,,,,,,,,,,,,,,,,,,,,,,,,,,,,,,,,,,,,,,,,,,<,,,<,,,<,,<<<<<<<<<<<,*=i=11OO",
";;<,:*=<<<<<<<<<<<<<<<,,<,,,<,,,<,,,<,,,,,,,,,,,,,,,,,,,,,,,,,,,,,,,,,,,,,,,,,,,,,,,,,,,,,,,,,,,<,,,<,,,<,,<<<<<<<<<<<<,:*=,11OO",
";;<<,,,<<,<<<,<<<,<<<,,<<,,<,,,<,,,<,,,<,,,<,,,<,,,,,,,,,,,,,,,,,,,,,,,,,,,,,,,,,,,,,,,<,,,<,,,<,,,<,,,<,,<<<,<<<<<<<<1<,,,<11OO",
";;<<<<<<,<<<,<<<,,<<,,<<,,<,,,<,,,<,,,<,,,<,,,<,,,,,,,,,,,,,,,,,,,,,,,,,,,,,,,,,,,,,,,<,,,<,,,<,,,<,,,<,,<<<,<<<<<<<<11<<<<111OO",
";;<<<<<<<<<<<<<<<<<,,<<,,<,,,<,,,<,,,,,,,,,,,,,,,,,,,,,,,,,,,,,,,,,,,,,,,,,,,,,,,,,,,,,,,,,,,<,,,<,,,<,,,<<<<<<<<<<<111<<11111OO",
";;<<<<<<<<<<<<<<<<,,<<,,<,,,<,,,<,,,,,,,,,,,,,,,,,,,,,,,,,,,,,,,,,,,,,,,,,,,,,,,,,,,,,,,,,,,<,,,<,,,<,,,<<<<<<<<<<<<11<<111111OO",
"OOOOOOOOOOOOOOOOOOOOOOOOOOOOOOOOOOOOOOOOOOOOOOOOOOOOOOOOOOOOOOOOOOOOOOOOOOOOOOOOOOOOOOOOOOOOOOOOOOOOOOOOOOOOOOOOOOOOOOOOOOOOOOOO",
"OOOOOOOOOOOOOOOOOOOOOOOOOOOOOOOOOOOOOOOOOOOOOOOOOOOOOOOOOOOOOOOOOOOOOOOOOOOOOOOOOOOOOOOOOOOOOOOOOOOOOOOOOOOOOOOOOOOOOOOOOOOOOOOO"
};
