/* XPM */
static char *_6_Wolfenstein3DWalls1735817067[] = {
/* columns rows colors chars-per-pixel */
"128 128 29 1 ",
"  c #3F7300",
". c #377B00",
"X c #476700",
"o c #004343",
"O c #005B5B",
"+ c #006F6F",
"@ c #007373",
"# c #178F00",
"$ c #079B00",
"% c #278700",
"& c #07A700",
"* c #00AB00",
"= c #07B700",
"- c #007FCF",
"; c #008787",
": c #00B7B7",
"> c #008FE7",
", c #009FFF",
"< c #23ABFF",
"1 c #00CFCF",
"2 c #00E7E7",
"3 c #23FFFF",
"4 c #4BC3C3",
"5 c #43FFFF",
"6 c #57FFFF",
"7 c #5FFFFF",
"8 c #7FFFFB",
"9 c #9FFFFF",
"0 c #BBFFFF",
/* pixels */
"00000000000000000000000000000000000000000000000000000000000000000000000000000000000000000000000000000000000000000000000000000000",
"00000000000000000000000000000000000000000000000000000000000000000000000000000000000000000000000000000000000000000000000000000000",
"00000000000000000000000000000000000000000000000000000000000000000000000000000000000000000000000000000000000000000000000000000000",
"00000000000000000000000000000000000000000000000000000000000000000000000000000000000000000000000000000000000000000000000000000000",
"00000000000000000000000000000000000000000000000000000000000000000000000000000000000000000000000000000000000000000000000000000000",
"00000000000000000000000000000000000000000000000000000000000000000000000000000000000000000000000000000000000000000000000000000000",
"00000000000000000000000000000000000000000000000000000000000000000000000000000000000000000000000000000000000000000000000000000000",
"00000000000000000000000000000000000000000000000000000000000000000000000000000000000000000000000000000000000000000000000000000000",
"00000000000000000000000000000000000000000000000000000000000000000000000000000000000000000099999999000000000000000000000000000000",
"00000000000000000000000000000000000000000000000000000000000000000000000000000000000000000099999999000000000000000000000000000000",
"00000000009999999999999999000000000000000000000000000000000000000000000000000000000000009999999999999999999900000000000000999988",
"00000000009999999999999999000000000000000000000000000000000000000000000000000000000000009999999999999999999900000000000000999988",
"00000000999999888888999999999999000099990000000000000000000000000000000000000099999999000099888888889999999999000000000099999988",
"00000000999999888888999999999999000099990000000000000000000000000000000000000099999999000099888888889999999999000000000099999988",
"99999999999999888888888888889999999999999999999999999900000000999999999999999999999999999999888888999999999999999900000099009988",
"99999999999999888888888888889999999999999999999999999900000000999999999999999999999999999999888888999999999999999900000099009988",
"99999999999988888888888888999988888888999999999999999999999999999999999999999988888888999999888888888888999999999999999988889988",
"99999999999988888888888888999988888888999999999999999999999999999999999999999988888888999999888888888888999999999999999988889988",
"88999988888899999999999999999999888888888899999988889999999999999999999999999999999999999999999999998899999999999999998888888888",
"88999988888899999999999999999999888888888899999988889999999999999999999999999999999999999999999999998899999999999999998888888888",
"88888888889999999999999999999999888888888888888888888888888888888899888888888899999999999999999999999999999999999999999988888888",
"88888888889999999999999999999999888888888888888888888888888888888899888888888899999999999999999999999999999999999999999988888888",
"88888888888888889999999988889999999999998888888888888888888888888888888888888888888888889999999999999999999999889999888888888888",
"88888888888888889999999988889999999999998888888888888888888888888888888888888888888888889999999999999999999999889999888888888888",
"88888888888888888888888888888888888888888888888888888888888888888888888888888888888888888888888888888888888888888888888888888888",
"88888888888888888888888888888888888888888888888888888888888888888888888888888888888888888888888888888888888888888888888888888888",
"88888888888888888888888888888888888888888888888888888888888899999999888888888888888888888888888888888888888888888888888888888888",
"88888888888888888888888888888888888888888888888888888888888899999999888888888888888888888888888888888888888888888888888888888888",
"88888888888888888888888888888888888888888888888899999999999999888899998888888888888888888888888888888888888888888888888888888888",
"88888888888888888888888888888888888888888888888899999999999999888899998888888888888888888888888888888888888888888888888888888888",
"88888888888888888888888888888888888888888888888899999988888888888888888888888888888888889999999988888899998888888888888888888888",
"88888888888888888888888888888888888888888888888899999988888888888888888888888888888888889999999988888899998888888888888888888888",
"88888888888888888888888888888899999999999988888888888888888888888888888888888888888888889988888899999999888888888888888888888888",
"88888888888888888888888888888899999999999988888888888888888888888888888888888888888888889988888899999999888888888888888888888888",
"88888888888888888888888888888888888888888888888888888888888888888888888888888888888888888888889999888888888888888888888888888866",
"88888888888888888888888888888888888888888888888888888888888888888888888888888888888888888888889999888888888888888888888888888866",
"88888888888888888888888888888888888888888888888888888888888888888888888888888888888888888888888888888888888888888888888888888866",
"88888888888888888888888888888888888888888888888888888888888888888888888888888888888888888888888888888888888888888888888888888866",
"88888888888888888888888888888888888888888888888888888888888888888888888888888888888888888888888888888888888888888888888888888866",
"88888888888888888888888888888888888888888888888888888888888888888888888888888888888888888888888888888888888888888888888888888866",
"88888888888888888888888888888888888888888888888888888888888888888888888888888888888888888888888888888888888888888888888888888866",
"88888888888888888888888888888888888888888888888888888888888888888888888888888888888888888888888888888888888888888888888888888866",
"88888888888888888888888888888888888888888888888888888888888888888888888888888888888888888888888888888888888888888888888888888866",
"88888888888888888888888888888888888888888888888888888888888888888888888888888888888888888888888888888888888888888888888888888866",
"77777777777777777788888888887777777777888888888888888888778877778877778888888888888888888888888888888888887777777777777777887777",
"77777777777777777788888888887777777777888888888888888888778877778877778888888888888888888888888888888888887777777777777777887777",
"77777777777788888888887777777777777777777777777777777788887777777788887788888888888888888877777777778888888888888888888888887777",
"77777777777788888888887777777777777777777777777777777788887777777788887788888888888888888877777777778888888888888888888888887777",
"77777777777777777777777777777777777777777777777777777777777777777777777777777777777777777777777777777777777777777777777777777777",
"77777777777777777777777777777777777777777777777777777777777777777777777777777777777777777777777777777777777777777777777777777777",
"55555555555555555555555555555555555555555555555555555555555555555555555555555555555555555555555555555555555555555555555555555555",
"55555555555555555555555555555555555555555555555555555555555555555555555555555555555555555555555555555555555555555555555555555555",
"55555555555555555555555555555555555555555555555555555555555555555555555555555555555555555555555555555555555555555555555555555555",
"55555555555555555555555555555555555555555555555555555555555555555555555555555555555555555555555555555555555555555555555555555555",
"55555555555555555555555555555555555555555555555555555555555555555555555555555555555555555555555555555555555555555555555555555555",
"55555555555555555555555555555555555555555555555555555555555555555555555555555555555555555555555555555555555555555555555555555555",
"55555555555555555555555555555555555555555555555555555555555555555555555555555555555555555555555555555555555555555555555555555555",
"55555555555555555552222225555522222222255555555555555555552255555555555555555555555555555555555555555555555555555555555555555555",
"33335555333322222222222222222222222222222222553355555333333333333333333333223322223333322222222333222333333333333333333333333333",
"33332222333355555522222222222222222222222222222322223333333333333333333333333332233322222222222233322233233333333333333333333333",
"33333333333333333333333333333333333333333333333333333333333333333333333333333333333333333333333333333333333333333333333333333333",
"33333333333333333333333333333333333333333333333333333333333333333333333333333333333333333333333333333333333333333333333333333333",
"33332233332222333333332222222222222222222222332222222233222222222222222222222222222222223333332222222222222222223333333333333333",
"22222222222222222222222222222222222222222222222222222222222222222222222222222222222222222222222222222222222222222222222222222222",
"22222222222222222222222222222222222222222222222222222222222222222222222222222222222222222222222222222222222222222222222222222222",
"22222222222222222222222222222222222222222222222222222222222222222222222222222222222222222222222222222222222222222222222222222222",
"22222222111122222222222222222211112222111122112222222211111111111111221122222211221122222222221111111111111122222222222222111112",
"11111111111111111111111111111111111111111111111111111111111111111111111111111111111111221111111111111111111111111111111111111111",
"11111111111111111111111111111111111111111111111111111111111111111111111111111111111111111111111111111111111111111111111111111111",
"11111111111111111111111111111111111111111111111111111111111111111111111111111111111111111111111111111111111111111111111111111111",
"11114444444411111144444444444444441111111111111111111111111111111144444444444411111111444411444444444444114444441144441111111111",
"444444444444444444444444444444444444444444444444111111111144444444444444444444444444444444444444::::4444444444444444444444444111",
"::,,,,,,,,,,,,,,,,,,,,,,,,,,,,::,,::::::::::::,,,,,,,,,,::::::<<::::<<<<<<<<<<::::::::::::,,,,,,::::::::::::::::::<<<<<<::::::::",
",>,>,>,>,>,>,>,>,>,>,>,>,>,>,>,>,>,>,>,>,>,>,>,>,>,>,>,>,>,>,>,>,>,>,>,>,>,>,>,>,>,>,>,>,>,>,>,>,>,>,>,>,>,>,>,>,>,>,>,>::::::::",
">,>,>,>,>,>,>,>,>,>,>,>,>,>,>,>,>,>,>,>,>,>,>,>,>,>,>,>,>,>,>,>,>,>,>,>,>,>,>,>,>,>,>,>,>,>,>,>,>,>,>,>,>,>,>,>,>,>,>,>,>,>,>,>,",
"----;;;;;;;;------------;@;@@@@@@@@@@@;;----------------------------------------------------------------------------------------",
"@@@@@@;;@@@@@@@@@@--@@@@OOooOOOOooooOOOO@@@@--@@@@@@@@@@--@@@@@@@@@@@@@@@@@@@@@@@@--@@@@@@@@@@;;@@@@@@@@@@@@;;;;--;;;;;;;;--@@@@",
"OOOOO@@@@OOO@@OOOOO@OO@@+OOOOOO+OOOO++++@@OO@@OO@@OOOOOO@@OO@@OOooooOO@@OOOOooOO@@@@@@OOOOOOOO@@@@OOOOOOOO@@@@@;--;;@OOO@@@@@OOO",
"+O+O+O+O+O+O+O+O+O+O+O+O+O+O+O+O+O+O+O+O+O+O+O+O+O+O+O+O+O+O+O+O+O+O+O+O+O+O+O+O+O+O+O+O+O+O+O+O+O+O+O+O+O+O+O+O+O+O+O+O+O+O+O+O",
"O+O+O+O+O+O+O+O+O+O+O+O+O+O+O+O+O+O+O+O+O+O+O+O+O+O+O+O+O+O+O+O+O+O+O+O+O+O+O+O+O+O+O+O+O+O+O+O+O+O+O+O+O+O+O+O+O+O+O+O+O+O+O+O+",
"XXXXXXXXXXXXXXXXXXXXXXXXXXXXXXXXXXXXXXXXXXXXXXXXXXXXXXXXXXXXXXXXXXXXXXXXXXXXXXXXXXXXXXXXXXXXXXXXXXXXXXXXXXXXXXXXXXXXXXXXXXXXXXXX",
"XXXXXXXXXXXXXXXXXXXXXXXXXXXXXXXXXXXXXXXXXXXXXXXXXXXXXXXXXXXXXXXXXXXXXXXXXXXXXXXXXXXXXXXXXXXXXXXXXXXXXXXXXXXXXXXXXXXXXXXXXXXXXXXX",
"XXXXXXXXXXXXXXXXXXXXXXXXXXXXXXXXXXXXXXXXXXXXXXXXXXXXXXXXXXXXXXXXXXXXXXXXXXXXXXXXXXXXXXXXXXXXXXXXXXXXXXXXXXXXXXXXXXXXXXXXXXXXXXXX",
"X X X X X X X X X X X X X X X X X X X X X X X X X X X X X X X X X X X X X X X X X X X X X X X X X X X X X X X X X X X X X X X X ",
" X X X X X X X X X X X X X X X X X X X X X X X X X X X X X X X X X X X X X X X X X X X X X X X X X X X X X X X X X X X X X X X X",
"                                                                                                                                ",
". . . . . . . . . . . . . . . . . . . . . . . . . . . . . . . . . . . . . . . . . . . . . . . . . . . . . . . . . . . . . . . . ",
" . . . . . . . . . . . . . . . . . . . . . . . . . . . . . . . . . . . . . . . . . . . . . . . . . . . . . . . . . . . . . . . .",
"................................................................................................................................",
"................................................................................................................................",
"%.%.%.%.%.%.%.%.%.%.%.%.%.%.%.%.%.%.%.%.%.%.%.%.%.%.%.%.%.%.%.%.%.%.%.%.%.%.%.%.%.%.%.%.%.%.%.%.%.%.%.%.%.%.%.%.%.%.%.%.%.%.%.%.",
".%.%.%.%.%.%.%.%.%.%.%.%.%.%.%.%.%.%.%.%.%.%.%.%.%.%.%.%.%.%.%.%.%.%.%.%.%.%.%.%.%.%.%.%.%.%.%.%.%.%.%.%.%.%.%.%.%.%.%.%.%.%.%.%",
"%%%%%%%%%%%%%%%%%%%%%%%%%%%%%%%%%%%%%%%%%%%%%%%%%%%%%%%%%%%%%%%%%%%%%%%%%%%%%%%%%%%%%%%%%%%%%%%%%%%%%%%%%%%%%%%%%%%%%%%%%%%%%%%%",
"%%%%%%%%%%%%%%%%%%%%%%%%%%%%%%%%%%%%%%%%%%%%%%%%%%%%%%%%%%%%%%%%%%%%%%%%%%%%%%%%%%%%%%%%%%%%%%%%%%%%%%%%%%%%%%%%%%%%%%%%%%%%%%%%",
"%%%%%%%%%%%%%%%%%%%%%%%%%%%%%%%%%%%%%%%%%%%%%%%%%%%%%%%%%%%%%%%%%%%%%%%%%%%%%%%%%%%%%%%%%%%%%%%%%%%%%%%%%%%%%%%%%%%%%%%%%%%%%%%%",
"%#%#%#%#%#%#%#%#%#%#%#%#%#%#%#%#%#%#%#%#%#%#%#%#%#%#%#%#%#%#%#%#%#%#%#%#%#%#%#%#%#%#%#%#%#%#%#%#%#%#%#%#%#%#%#%#%#%#%#%#%#%#%#%#",
"#%#%#%#%#%#%#%#%#%#%#%#%#%#%#%#%#%#%#%#%#%#%#%#%#%#%#%#%#%#%#%#%#%#%#%#%#%#%#%#%#%#%#%#%#%#%#%#%#%#%#%#%#%#%#%#%#%#%#%#%#%#%#%#%",
"################################################################################################################################",
"################################################################################################################################",
"################################################################################################################################",
"################################################################################################################################",
"#$#$#$#$#$#$#$#$#$#$#$#$#$#$#$#$#$#$#$#$#$#$#$#$#$#$#$#$#$#$#$#$#$#$#$#$#$#$#$#$#$#$#$#$#$#$#$#$#$#$#$#$#$#$#$#$#$#$#$#$#$#$#$#$",
"$#$#$#$#$#$#$#$#$#$#$#$#$#$#$#$#$#$#$#$#$#$#$#$#$#$#$#$#$#$#$#$#$#$#$#$#$#$#$#$#$#$#$#$#$#$#$#$#$#$#$#$#$#$#$#$#$#$#$#$#$#$#$#$#",
"#$#$#$#$#$#$#$#$#$#$#$#$#$#$#$#$#$#$#$#$#$#$#$#$#$#$#$#$#$#$#$#$#$#$#$#$#$#$#$#$#$#$#$#$#$#$#$#$#$#$#$#$#$#$#$#$#$#$#$#$#$#$#$#$",
"$$$$$$$$$$$$$$$$$$$$$$$$$$$$$$$$$$$$$$$$$$$$$$$$$$$$$$$$$$$$$$$$$$$$$$$$$$$$$$$$$$$$$$$$$$$$$$$$$$$$$$$$$$$$$$$$$$$$$$$$$$$$$$$$",
"$$$$$$$$$$$$$$$$$$$$$$$$$$$$$$$$$$$$$$$$$$$$$$$$$$$$$$&&$$$$$$$$$$$$$$$$$$$$$$$$$$$$$$$$$$$$$$$$$$$$$$$$$$$$$$$$$$$$$$$$$$$$$$$$",
"$$$$$$$$$$$$$$$$$$$$$$$$$$$$$$$$$$$$$$$$$$$$$$$$$$$$$$$$$$$$$$$$$$$$$$$$$$$$$$$$$$$$$$$$$$$$$$$$$$$$$$$$$$$$$$$$$$$$$$$$$$$$$$$$",
"$$$$$$$$$$$$$$$$$$$$$$$$$$$$$$$$$$$$$$&&$$$$$$$$$$$$$$$$$$$$$$$$&&$$$$$$$$$$$$$$$$$$$$$$$$$$$$$$$$$$$$$$$$$$$$$$$$$$$$$$$$$$$$$$",
"$$$$$$$$$$$$$$$$$$$$$$$$$$$$$$$$$$$$$$$$$$$$$$$$$$$$$$$$$$$$$$$$$$$$$$$$$$$$$$$$$$$$$$$$$$$$$$$$$$$$$$$$$$$$$$$$$$$$$$$$$$$$$$$$",
"$$$$$$$$$$$$$$$$$$$$$$$$$$$$&$$$$$$$$$$$$$&&$$&&$$$$$$&&$$$$$$$$$$$$$$$$$$$$$$$$$$$$$$$$$$$$$$$$$$$$$$$$$$$$&$$$$$$$$$$$$$$$$$$$",
"$$$$$$$$$$$$$$$$$$$$$$$$$$&&$$$$$$$$$$$$$$$$$$$$$$$$$$$$$$$$$$$$$$$$$$$$$$$$$$$$$$$$$$$$$$$$$$$$$$$$$$$$$$$$$&&$$$$$$$$$$$$$$$$$",
"$$$$$$$$$$$$$$$$$$$$$$$$$$&&$$$$$$$$$$$$&&$$$$$$$$$$$$$$$$$$$$$$$$&&$$$$&&$$&$$$$$$$$$$$$$$$$$$$&$$$$$$$$$$$$$&&&$$$$&&$$$$$$$$$",
"$$$$$$$$$$$$$$$$$$$$$$$$$&$$$$$$$$$$$$$$$$$$$$$$$$$$$$$$$$$$$$$$$$$$$$$$$$$$&&$$$$$$$$$$$$$$$$&&$$$$$$$$$$$$$$$&&&$$$&&&$$$$$$$$",
"$$$$$$$$$$$$$$$$$$$$$$$$$$$$$$$$$$$$$$$$$$$$$$$$$$$$&&$$$$$$&$&&$$$$$$$$$$$$$&&$$$$$&$$$$$$$$&&&$$$$$$$$$$$$$$$$$&&$$$&&$$$$$$$$",
"$$$$$$$$$$$$$$$$$$$$$$$$$$$$$$$$$$$$&$$$$$$$$$$$$$$$$$$$$$$$&&$$&$$$$$$$$$$$$&=&$$$$$&&$$$$$&&&$$$$$$$$$$$$$$$$$$$$$$$&&$$$$$$$$",
"$$$$$$$$$&$$$$$$$$$$$$$$$&$$$$$&$$&$$&$$$$$$$&$$$$$$$$$$$$$$$&$$$&$$$$$$$$$$$$&=$$$$$&&&$$$$&&$$$$$$&$$$&$$$$$$$$&&&$$&&&$$$$$$$",
"$$$$$$$$$$&&$$$$$$&$$$$&$$&&&$$$&&$$$$$$&$$$&$$$$&$$$$$$$$$$$$&$$$&&&&&$$$$&$$$&&$&&$&=&$$$&$$$$$$&&&$$$$&$$$$$$&=&$$$$$&&&&$$$$",
"$$&$$&$$$$&&&$$$&&$$$&&$$$&&$$$$&&$$$$$$$&&$&&$$&$$$$$$$$$$$$&$&$&=&&&&&$$&&$$$$$&&&$$&&&$$$$$$$$&&&$$$$$&&$$$$&==$$$$$&&&&&&&$$",
"&&&&&&&&&&$&==&$&$&&&&=&$&==&&$&$$&&$&$&&&====&&$$$$$$$$$$$$$$&=&&&&$$&&&&$&&&&&&=&$$$&&&&$$&&$$&&&&$$$$$$&&$$$&&$$$&&&&==&&&&**",
"&&&&&&&&&&$$==&&&&&&&&==&===&&$$$$&&&&&&&&&&=&&&$$$$$$$$$$$$&$==&&&$$$$&&&&&&&&===&$$$&&&&$&&&&$&&&&&$$$$&&&&&$$$$$&&=&&==&&&&**",
"&&&&&&==&&$$$$$&&=&$$&&&===&==&&&&==&&&&&&$&&&&&&$$$$$$&$$$$$&$$$&$$$&&&&&&&&&===&&&&&&&&&&&==&&$$&&=&$$$&&&&&&=$$&&==&&**&&&&**",
"&&&&&===&&&$$$$&==&$&$&&==&$==&&&&===&&=&&$$$&&&&&&&$$&$$$$$&$$$&&$$&&&&&&&&&===&&&=&=&===&&==&&&$$$==&$$$&&&&==&&&&=&&&**&&&&**",
"==&&===&&&&&$$&&&&&&&&&&&&&=&&&=&&&===&&==&&&&&=$$&&&&&&&&&&$$&&==&&==&&&&=====&&&=&=&====&&&&=&==&&===&$$&&&===&&&=&&&&&&==&&**",
"==&===&&&&&&&$&&&&&&&$&=&&&&&&=&&&&&==&&==&=&&=&$$&&=&&&&=&&$$&====&===&======&&&&========&&&&&&===&====&&&&&===&&===&&&&&==&&**",
"======&&&&==&&&&&=&&&&&&==&&====&&============&&&&&===&&&&==&&======&====================&&&==&&&=========&&=====&==============",
"======&&&===&&&&=&&&&=&&======================&=&&=====&&===&=======&&==================&&&===&&&=========&=====================",
"============&&===============================================================================&==================================",
"============================================================================================&&=================================="
};
