/* XPM */
static char *_7_Wolfenstein3DWalls1735817067[] = {
/* columns rows colors chars-per-pixel */
"128 128 13 1 ",
"  c black",
". c gray12",
"X c #232323",
"o c #2F2F2F",
"O c gray20",
"+ c gray23",
"@ c #4B4B4B",
"# c gray34",
"$ c #5B5B5B",
"% c #676767",
"& c gray45",
"* c gray50",
"= c #C3C3C3",
/* pixels */
"        X+X               o     X       o  X+X           X                         X+X          +    o#o                 X      ",
"         X               o#o   X+X     o#o  X           X+X                         X          +*+    o                 X+X     ",
"               X          o     X       o     o#X     X  X           X      X               X   +            X           o#X    ",
"              X+X                         X   #=#    X+X            X+X    X+X        X    X+X              X+X          #=#    ",
"X              X      o#X    X           X+X  X#o     X              X      X        X+X  X X       +        X           Xo#X#X ",
"+X                    #=#   X+X           X                                           X  X+X       +*+           X      X #=#=# ",
"X                     X#o    X                                o#X                X        X         +           X+X    X+XX#o#o ",
"    o#X                                           o#X         #=#     +         X+X       X                   o  X      X       ",
"    #=#                    o                      #=#         X#o o#X+*+         X                   X       o#o                ",
"    X#o    X        X     o#o                     X#o             #=# +                             X+X       o                 ",
"    X     X+X      X+X     o           X                   X      X#o + o#X                          X   o#X   X                ",
"   X+X     X        X                 X+X                 X+X  +     +*+#=#                              #=#  X+X               ",
"    X                                  X     X             X  +*+     + X#o         X                  o#X#o+  X                ",
"                       X                    X+X                +   +               X+X                 #=# +*+           X    X ",
"                  o#X X+X                    X                   ++*+               X                 XX#o  +           X+X  X+X",
"                o#X=#  X             o#XX                          +   o                              XX                 X    X ",
"                #=##o                #=##                             o#o                 X           o      X        o#X       ",
"                X#o +                X#oo                              o                 X+X      o  o#o    X+X       #=#       ",
"               X+X +*+ X                           o           o         o   o      X     X      o#o  o      X       XX#o o#X   ",
"                X   + X+X                         o#o  o#X    o#o       o#o o#o    X+X            o o               X+X   #=#   ",
"      X                X                o          o   #=#     o    o    o o o      X             o@#o X X           X    X#o   ",
"     X+X                         o     o#oo#X          X#o         o#o    o#o                   oo#+o X+X+X        X            ",
"      X                         o#o     o #=#         o             o      o@o                 o#@o   X  X        X             ",
"                                 o        X#o        o#o      o            Xo                   oo   X+X         X+XX           ",
"                            o                o        o      o#o          X+X                         X        o#XX             ",
"  o#X                      o#o              o#o               o            X            o#X   X                #=#  X           ",
"  #=#                  +    o +      X       o                          X+              #=#  X+X              + #o X+X          ",
"X X#o                 +*+    +*+    X+X                                 XX              X#o#X +              +*+    X           ",
"+X                X    +      +      X                                X                 + #=#+*+              +   +          X  ",
"X                X+X                                         +       X+X               +*+X#o +         X        +*+        X+X ",
"                  X                                       + +*+X      X        +        +               X         +         X   ",
"            X                o                           +*+ + +X      X      +*+                      X+X      X+X        X+X  ",
"           X+X    +         o#o                           + #X X      X+X      +          +             X        X          X   ",
"         X  X    +*+         o            X                #=#         X                 +*+                              X+X   ",
"        X+X       o             o        X+X               X#o       X   X                +                                X    ",
"         X       o#o           o#o     X  X             X           X+X X+X                 X      X                            ",
"                  o  o          o     X+X              X+X      X    X   X          X      X+X    X+X                           ",
"                  X o#o                X                X      X+X                 X+X      X      X             X              ",
"               + X+X o             o#X   +                      X                   X                           X+X             ",
"              +*+ X             X  #=#  +*+                                  X  X    +                           X              ",
"        +      +               X+X X#o + +                                  X+XX+X  +*+                       +  X              ",
" X     +*+o#X     o#o           X     +*+                                  X X  X    +                       +*+                ",
"X+X     + #=#   +  o              X    +                    X             X+X     X        X                  +           o#X X ",
" X X      X#o  +*+               X+X o            o#X   X  X+X             X     X+X      X+X              X              #=#X+X",
"  X+X     X     +                 X o#o           #=#  X+X  X                 X   X        X              X+X             X#o X ",
"   X     X+X                         o            X#o   X       o#X          X+X    X                      X                    ",
"          X                               +          +          #=#     X     X  X X+X                            X             ",
"                                         +*+        +*+   X     X#o    X+X  X+X@X+X X                            X+X            ",
"                                          +          +   X+X       +    X    X   X            X                   X             ",
"             o          o                             o#X X       +*+        X+X             X+X         X                      ",
"            o#o        o#o                            #=# +        +          X               X         X+X                     ",
"             o          o                          X  X#o+*+                                             X                      ",
"         o#X           o#o                        X+X   X +                                                                   X ",
"         #=# +          o           X              X   X+X                                                     +        X    X+X",
"        + #o+*+                    X+X                  X   X                         X                       +*+ +    X+X    X ",
"       +*+   +                      X                    X X+X                       X+X      X                + +*+    X       ",
"        +                         o                     X+X X                         X      X+X                  +             ",
"                                 o#o            X        X X                                  X                                 ",
"                                  o            X+X        X+X                 X       X     +                                   ",
"                               X              X X          X                 X+X     X+X   +*+           X                      ",
"   o                X         X+X            X+X                              X       X     +           X+X     X               ",
"  o#o              X+X         X              X      X                                                   X     X+X              ",
"   o   o            X                               X+X              X                                          X               ",
"      o#o                                            X              X+X      X                                                  ",
"       o                                                             X      X+X                                                 ",
"     o#o                                                                X    X X                                                ",
"      o                                                                X+X    X+X                                      X        ",
"                                             X                          X      X                                      X+X       ",
"                                            X+X                                                                        X        ",
"                          X                  X                                           .                  X                   ",
"                         X+X                                                       .    ....               X+X                  ",
"                          X       .           .            .          . .      .   .   ...... .    .        X  .  .  .  .  .    ",
"   .. ..     .. .    .. . ...  . .. . .     .... .        ... .. .   .X...    ..  .X....X.XX..X.  .X..  .   ....... .X... .X..  ",
"  ..XXX..   ..X.X.  .......... ..X...... . ..X.X.. .   . .......... .XXXX..  .XX. XX....XXXX..X....X...... ...XX....XX....XX... ",
"..XXXXXXX...XXXXXX..XX.XXXX..XXXXXX.XX.X..X.XXXXXXXXXXXXXXXX...XXX..XXXXXXXXXXXXXXXXXXXXXXXXXXXXXXXXXXXXXXXXXXXXXXXXXXXXXXXXXXXX",
"XXXXXXXXXXXXXXXXXXXXXXXXXXXXXXXXXXXXXXXXXXXXXXXXXXXXXXXXXXXX..XXXXXXXXXXXXXXXXXXXXXXXXXXXXXXXXXXXXXXXXXXXXXXXXXXXXXXXXXXXXXXXXXX",
"oXoXXXoXXXXXoXXXooXoXXXXoXXXXXooXXXXooXXXXXoXoXXXXXXXXXXoXoXXXXXoXXoXXXXXXXXXXXXXXXXoXoXXXXXXXoXXXXXoXoXXXXXXoXXXXoXXXXoXXoXoXXX",
"ooooXXooXXXXooooXooooXXoooXoooXooXooooooXXooooXXooXXXoXXXXooXoXXooXooXXXXXXXXoXXXXXXoooooXXXoXooXXoXoooXXXXoooXXoXoooXoooXooooXX",
"oooXoooooXooooXoooooooooXoooXoooooooXooooXoooooXoooXoooXXoooooXooooooXoXooXXooooXoXooooXooXooooooXooooooXoooXXoooooooooXooooXooo",
"oooooooooooooooXoooooooooooooooooXooooooooooooooooooooooXoooooooooooooooooooooooooooooXooooooooooooooXooooooXoooooooooXooooooXoo",
"oooooooooooooooooooooooooooooooooooooooooooooooooooooooooooooooooooooooooooooooooooooooooooooooooooooooooooooooooooooooooooooooo",
"oooooooooooooooooooooooooooooooooooooooooooooooooooooooooooooooooooooooooooooooooooooooooooooooooooooooooooooooooooooooooooooooo",
"ooooooooooOoooooooooooOoooooooooooooOooooOooooooOoooOOoooooooooooooooooooooooooooooooooooooooooooooooooooooooooooooooooooooooooo",
"oooooooooooOoooooooooooOoooooooooooooOooOOooooooOOoooOoooooooooooooooooooooooooooooooooooooooooooooooooooooooooooooooooooooooooo",
"oooooooOooooooooOOOoooooOOOoooOoooooooOOOOooOoooOOooooOOOoooOOOooooooOoooOoooOoooOoooooOooooooOOooooooooooooooOoooOoooooOooooooo",
"ooooooOOoooooooooOOOoooooOOOoooOoooooooOOOooOOooOOoooooOOOoooOOOooooOOooOOooOoooOoooooOOooooooOoooooooooooooooOOoooOoooooOoooooo",
"OooooOOOooooOoooooOOOoooooooOoooooooOoooOOooooooOOooOoooOOooooOOoooOOOooOOoooooooOooooOOooOoooooooOooooooOoooooOOoooOOOoooOoOoOO",
"OOooOoOOooooOOoooooOOOooooooOOooooooOOoooOoooooooOooOOooOOoooooOooOOOoooOoooooooOOoooooOooOOooooooOOooooOoooooOOOoooOOOOoooOOOoO",
"OOOOooooOoooooOOOoooOOOOOoOooOooooooOOOoooOoooooooOOoOooOOOoooooooOOoooOoooOoooOOOOoooooooOOOOOoooOOOOOooooOOOOOoooooOooOoooOOOO",
"oOOOooooOOoooooOOOooOOOOoOOOOOoooooooOOOooOOooooooOOOOoooOOOooooooOOooOOooOoooOOOOOOoooooooOOOOOoooOOOoOooOoOOOooooooOoooOooOOOO",
"ooOOOOooooOOOoooOOOOoOOOOoooOOOoooooooooOOOOOOOoooOOOOOoooOOOOOOOOOOOOOOOOoooOOOooOOOOOOOoooOOOOooooOOOooooOOOoooOoooOoooooOOOOO",
"oooOOOOOoooOOOooOOOOOOOOOOooOOOOoooooooooOOOOOOOooOOOOOOooOOOOOOOOoOOOOOOOooOOOoooOOOOOOOOooOOOOoooooOOoooOOOoooOOooOOooooOOoOOO",
"OOOOOOOOOoooOOOOoOOOOOooOOooOOOOOOoOOOOOooOOOOOOOOoOOOOOOOoOOOOOooOOOOooOOooOOoooOOOOOOOooOOOOOOOOOoooOOoOOOoooooOOOoOOoOOooOOOO",
"OOOOOOOOOOooOOOOOOOOOOooOOoooOOOOOOoOOOoooOOOOOOOOOOoOOOOOOOOOoOooOOOoooOoooOOooOOOOOOOOooOOOOOOOOOOooOOOOOOooooOOOOOoOOOOooOOOO",
"OOOOOOOOOOOOOOOOOOOOOOOOoOOOoOOOOOOOOOoooOOOOOOOOOooOOOOOOOOooOoOOOOoooOOooOOoOOOOOOOOOOOOOOOOOOooOOOOOOOOOooOoOOOOOOOOOOoOOOOOO",
"OOOOOOOOOOOOOOOOOOOOOOOOOOOOOOOOOOOOOOooOOOOOOOOOOooOOOOOOOOooOOOOOOooOOoOOOOOOOOOOOOOOOOOOOOOOOooOOOOOOOOOOOoOOOOOOOOOOOOOOOOOO",
"OOOOOOOOOOOOOOOOOOOOOOOOOOOOOOOOOOOOOOOOOOOOOOOOOoOOOOOOOOOoOOOOOOOOOOOOOOOOOOOOOOOOOOOOOOOOOOOOOOOOOOOOOOOOOOOOOOOOOOOOOOOOOOOO",
"OOOOOOOOOOOOOOOOOOOOOOOOOOOOOOOOOOOOOOOOOOOOOOOOOOOOOOOOOOOOOOOOOOOOOOOOOOOOOOOOOOOOOOOOOOOOOOOOOOOOOOOOOOOOOOOOOOOOOOOOOOOOOOOO",
"OOOOOOOOOOOOOOOOOOOOOOOOOOOOOOOOOOOOOOOOOOOOOOOOOOOOOOOOOOOOOOOOOOOOOOOOOOOOOOOOOOOOOOOOOOOOOOOOOOOOOOOOOOOOOOOOOOOOOOOOOOOOOOOO",
"OOOOOOOOOOOOOOOOOOOOOOOOOOOOOOOOOOOOOOOOOOOOOOOOOOOOOOOOOOOOOOOOOOOOOOOOOOOOOOOOOOOOOOOOOOOOOOOOOOOOOOOOOOOOOOOOOOOOOOOOOOOOOOOO",
"OOOOOOOOOOOOOOOOOOOOOOOOOOOOOOOOOOOOOOOOOOOOOOOOOOOOOOOOOOOOOOOOOOOOOOOOOOOOOOOOOOOOOOOOOOOOOOOOOOOOOOOOOOOOOOOOOOOOOOOOOOOOOOOO",
"OOOOOOOOOOOOOOOOOOOOOOOOOOOOOOOOOOOOOOOOOOOOOOOOOOOOOOOOOOOOOOOOOOOOOOOOOOOOOOOOOOOOOOOOOOOOOOOOOOOOOOOOOOOOOOOOOOOOOOOOOOOOOOOO",
"OOOOOOOOOOOOOOOOOOOOOOOOOOOOOOOOOOOOOOOOOOOOOOOOOOOOOOOOOOOOOOOOOOOOOOOOOOOOOOOOOOOOOOOOOOOOOOOOOOOOOOOOOOOOOOOOOOOOOOOOOOOOOOOO",
"OOOOOOOOOOOOOOOOOOOOOOOOOOOOOOOOOOOOOOOOOOOOOOOOOOOOOOOOOOOOOOOOOOOOOOOOOOOOOOOOOOOOOOOOOOOOOOOOOOOOOOOOOOOOOOOOOOOOOOOOOOOOOOOO",
"OOOOOOOOOOOOOOOOOOOOOOOOOOOOOOOOOOOOOOOOOOOOOOOOOOOOOOOOOOOOOOOOOOOOOOOOOOOOOOOOOOOOOOOOOOOOOOOOOOOOOOOOOOOOOOOOOOOOOOOOOOOOOOOO",
"OOOOOOOOOOOOOOOOOOOOOOOOOOOOOOOOOOOOOOOOOOOOOOOOOOOOOOOOOOOOOOOOOOOOOOOOOOOOOOOOOOOOOOOOOOOOOOOOOOOOOOOOOOOOOOOOOOOOOOOOOOOOOOOO",
"OOOOOOOOOOOOOOOOOOOOOOOOOOOOOOOOOOOOOOOOOOOOOOOOOOOOOOOOOOOOOOOOOOOOOOOOOOOOOOOOOOOOOOOOOOOOOOOOOOOOOOOOOOOOOOOOOOOOOOOOOOOOOOOO",
"OOOOOOOOOOOOOOOOOOOOOOOOOOOOOOOOOOOOOOOOOOOOOOOOOOOOOOOOOOOOOOOOOOOOOOOOOOOOOOOOOOOOOOOOOOOOOOOOOOOOOOOOOOOOOOOOOOOOOOOOOOOOOOOO",
"OOOOOOOOOOOOOOOOOOOOOOOOOOOOOOOOOOOOOOOOOOOOOOOOOOOOOOOOOOOOOOOOOOOOOOOOOOOOOOOOOOOOOOOOOOOOOOOOOOOOOOOOOOOOOOOOOOOOOOOOOOOOOOOO",
"OOOOOOOOOOOOOOOOOOOOOOOOOOOOOOOOOOOOOOOOOOOOOOOOOOOOOOOOOOOOOOOOOOOOOOOOOOOOOOOOOOOOOOOOOOOOOOOOOOOOOOOOOOOOOOOOOOOOOOOOOOOOOOOO",
"+O+O+O+O+O+O+O+O+O+O+O+O+O+O+O+O+O+O+O+O+O+O+O+O+O+O+O+O+O+O+O+O+O+O+O+O+O+O+O+O+O+O+O+O+O+O+O+O+O+O+O+O+O+O+O+O+O+O+O+O+O+O+O+O",
"O+O+O+O+O+O+O+O+O+O+O+O+O+O+O+O+O+O+O+O+O+O+O+O+O+O+O+O+O+O+O+O+O+O+O+O+O+O+O+O+O+O+O+O+O+O+O+O+O+O+O+O+O+O+O+O+O+O+O+O+O+O+O+O+",
"++++++++++++++++++++++++++++++++++++++++++++++++++++++++++++++++++++++++++++++++++++++++++++++++++++++++++++++++++++++++++++++++",
"++++++++++++++++++++++++++++++++++++++++++++++++++++++++++++++++++++++++++++++++++++++++++++++++++++++++++++++++++++++++++++++++",
"+@+@+@+@+@+@+@+@+@+@+@+@+@+@+@+@+@+@+@+@+@+@+@+@+@+@+@+@+@+@+@+@+@+@+@+@+@+@+@+@+@+@+@+@+@+@+@+@+@+@+@+@+@+@+@+@+@+@+@+@+@+@+@+@",
"@+@+@+@+@+@+@+@+@+@+@+@+@+@+@+@+@+@+@+@+@+@+@+@+@+@+@+@+@+@+@+@+@+@+@+@+@+@+@+@+@+@+@+@+@+@+@+@+@+@+@+@+@+@+@+@+@+@+@+@+@+@+@+@+",
"@@@@@@@@@@@@@@@@@@@@@@@@@@@@@@@@@@@@@@@@@@@@@@@@@@@@@@@@@@@@@@@@@@@@@@@@@@@@@@@@@@@@@@@@@@@@@@@@@@@@@@@@@@@@@@@@@@@@@@@@@@@@@@@@",
"@@@@@@@@@@@@@@@@@@@@@@@@@@@@@@@@@@@@@@@@@@@@@@@@@@@@@@@@@@@@@@@@@@@@@@@@@@@@@@@@@@@@@@@@@@@@@@@@@@@@@@@@@@@@@@@@@@@@@@@@@@@@@@@@",
"@$@$@$@$@$@$@$@$@$@$@$@$@$@$@$@$@$@$@$@$@$@$@$@$@$@$@$@$@$@$@$@$@$@$@$@$@$@$@$@$@$@$@$@$@$@$@$@$@$@$@$@$@$@$@$@$@$@$@$@$@$@$@$@$",
"$@$@$@$@$@$@$@$@$@$@$@$@$@$@$@$@$@$@$@$@$@$@$@$@$@$@$@$@$@$@$@$@$@$@$@$@$@$@$@$@$@$@$@$@$@$@$@$@$@$@$@$@$@$@$@$@$@$@$@$@$@$@$@$@",
"$$$$$$$$$$$$$$$$$$$$$$$$$$$$$$$$$$$$$$$$$$$$$$$$$$$$$$$$$$$$$$$$$$$$$$$$$$$$$$$$$$$$$$$$$$$$$$$$$$$$$$$$$$$$$$$$$$$$$$$$$$$$$$$$",
"%$%$%$%$%$%$%$%$%$%$%$%$%$%$%$%$%$%$%$%$%$%$%$%$%$%$%$%$%$%$%$%$%$%$%$%$%$%$%$%$%$%$%$%$%$%$%$%$%$%$%$%$%$%$%$%$%$%$%$%$%$%$%$%$",
"%%%%%%%%%%%%%%%%%%%%%%%%%%%%%%%%%%%%%%%%%%%%%%%%%%%%%%%%%%%%%%%%%%%%%%%%%%%%%%%%%%%%%%%%%%%%%%%%%%%%%%%%%%%%%%%%%%%%%%%%%%%%%%%%",
"%%%%%%%%%%%%%%%%%%%%%%%%%%%%%%%%%%%%%%%%%%%%%%%%%%%%%%%%%%%%%%%%%%%%%%%%%%%%%%%%%%%%%%%%%%%%%%%%%%%%%%%%%%%%%%%%%%%%%%%%%%%%%%%%",
"%&%&%&%&%&%&%&%&%&%&%&%&%&%&%&%&%&%&%&%&%&%&%&%&%&%&%&%&%&%&%&%&%&%&%&%&%&%&%&%&%&%&%&%&%&%&%&%&%&%&%&%&%&%&%&%&%&%&%&%&%&%&%&%&",
"&%&%&%&%&%&%&%&%&%&%&%&%&%&%&%&%&%&%&%&%&%&%&%&%&%&%&%&%&%&%&%&%&%&%&%&%&%&%&%&%&%&%&%&%&%&%&%&%&%&%&%&%&%&%&%&%&%&%&%&%&%&%&%&%",
"&&&&&&&&&&&&&&&&&&&&&&&&&&&&&&&&&&&&&&&&&&&&&&&&&&&&&&&&&&&&&&&&&&&&&&&&&&&&&&&&&&&&&&&&&&&&&&&&&&&&&&&&&&&&&&&&&&&&&&&&&&&&&&&&",
"&&&&&&&&&&&&&&&&&&&&&&&&&&&&&&&&&&&&&&&&&&&&&&&&&&&&&&&&&&&&&&&&&&&&&&&&&&&&&&&&&&&&&&&&&&&&&&&&&&&&&&&&&&&&&&&&&&&&&&&&&&&&&&&&"
};
