/* XPM */
static char *_8_Wolfenstein3DWalls1735817068[] = {
/* columns rows colors chars-per-pixel */
"128 128 21 1 ",
"  c black",
". c #004343",
"X c #005B5B",
"o c #006F6F",
"O c #007373",
"+ c #007777",
"@ c #007B7B",
"# c #007F7F",
"$ c #008787",
"% c #008F8F",
"& c #009B9B",
"* c #009F9F",
"= c #00A7A7",
"- c #00B7B7",
"; c #23B3B3",
": c #23B7B7",
"> c #4BC3C3",
", c #77CBCB",
"< c #9FDFDF",
"1 c #BBEBEB",
"2 c #DBF7F7",
/* pixels */
" ++@+++++@+@+@+++++++++++++++++++@+++@+++++++++@+@+@@@+++@+@+@+@+++@+++@+@@@@+++++@++++@+@@@@+++++@++++++@+++@++++++++++@+@+@@-.",
" +++++++++++++++++++++++++++++++++++++++++++++++++++++++++++++++++++++++++++++++++@+++++++++++++++@+++++++++++++++++++++++++++-.",
" +@@@@@@@@@@@@@+@+@@@@@@@@@@@@@@@@@@+@@@@@@@@@@@@@@@@@@@@@@@+@@@@@@@@@@@@@@@@+++++++@+@@@@@@@+++++++@+@@@@@@+@@@@@@@@@@@@@@@@@-.",
" ++++++++++++++@+++++++++++++++++++++++++++++++++++++++++++++++++++++++++++++@@+@@++@@+++++++@@+@@++@@++++++++++++++++++++++++-.",
" +@@@@OO%%%%@@+@@@@@@@@@+@@@@@@+@@@@@@@@@+@@@@@@+@@@@@@+@@@@@@@@@+@@@@@@+@@@@@@+@@@@@@@@+@@@@@@+@@@@@@@@@@@@@@@@@+@@@OO%%%%@@@-.",
" ++@+XX#%===%@@++@+@+@@++@@++@@@+@+@@@+@@@+@+@#@+@#@+@@@+@@@#@@@@@@@@@#@@@#@@@@@@@@@@@@@@@#@@@@@@@@@@@@@@@+@@@+@@@++XX#%===%@+-.",
" +@@@..o%><>O@@@@@@@@@@@@@@@@@@@@@@@@@@@@@@@@@###@#@#@#@#@#@#@#@@@#@#@#######@@##@##@##@#####@@##@##@##@##@@@@@@@@@o..o%><>O@#-.",
" +@@@..X#&-&o@#@@@@@@@@@#@@@@@@#@@@@@@@@@#@@@@@@#@@@@@@#@@@@@@@@@#@@@@@@#@@@@##@@########@#@@##@@########@#@@@@@@#@X..X#&-&o@@-.",
" +###...X##OX#@#@##############################################################@##@@#@@##@#####@##@@#@@##@#########X...X##OX##-.",
" +@@@X.....Xo@@#@@@@@@@@@@@@@@@@@@@@#@@@@@@@@@@@@@@@@@@@@@@@#@@@@@@@@@@@@##@@@@@@@@@#@@@@@@@@@@@@@@@#@@@@@@@@@@@@@@XX.....Xo@@-.",
" +###XX...Xo####@###@@##@##@@##@#########@###################################@@#@@#@@@#@@#@@##@#@@#@@@#@@#@@#####@#oXX...Xo###-.",
" +#@#OXXXXo####@@@@@@@@@@@@@@@@@#@###@#@#@#@###################################################################@#@##OXXXXo####-.",
" +#####%#O#%#%#######################%###%###%###%#%###%###%#%#%%%###%#%%%#%%#######%######%##%#####%######%##%##%####%#O#%#%#-.",
" +#############%################################################################%###%##%%##%##%#####%##%%##%##%###############-.",
" +%##%%%%%#%%%#####%%%%%#%%%%%%%%%%%%%%%%%%%%%%%#%%%%%%%%%%%%%%%%%%%%%%%#%%%%%%%%%%%%%%%%%%%%%%%%%%%%%%%%%%%%%%%%%%%%%%%%#%%%%-.",
" +#%%%##%%#%%#%#$#++++#++##+++++##+++++##+++++#++##+++++##+++++##+++++#++##+++##++##+##+###+##++#%#%#%%#%%%#%%##%%##%##%%#%%##-.",
" +###%%%%%%%%%%##OO............................................................................................XO%%%%%%%%%%%%%-.",
" +%%%%%%%%&%%%%#O&XXXXXXXXXXXXXXXXXXXXXXXXXXXXXXXXXXXXXXXXXXXXXXXXXXXXXXXXXXXXXXXXXXXXXXXXXXXXXXXXXXXXXXXXXXXXXXX%%%%%%%%&%%%%-.",
" +%%%%&&&%&%&%%%;*&$$$$$$$$$$$$$$$$$$$$$$$$$$$$$$$$$$$$$$$$$$$$$$$$$$$$$$$$$$$$$$$$$$$$$$$$$$$$$$$$$$$$$$$$$$$+X.&&&%&&&%&%&%%-.",
" +&%%&&%&%%%%%&&,:*&%%%%%%%%%&%%%%%%&%%%%%%&%%%%%%%%%&%%%%%%&%%%%%%&%%%%%%%%%%%&&&&&%&&&&&&%&&&&&&&&&%&&&&&%&&$X.&&&&&%&%%%%%%-.",
" +%%&&OO%%%%&&&%,>*&&&&&&&&&&&&&&&&&&&&&&&&&&&&&&&&&&&&&&&&&&&&&&&&&&&&&&&&&&%&&%%&&%&&%%&&%&&%%&%%&&%&&%&&%&&$X.%%%&OO#%%%&&&-.",
" +%&&XX#%===%%&%,>*%%%%%&%%%%%%%%%%%%%%%%%%%%%%%&%%%%%%%%%%%%%%%%%%%%%%%&&%%%%%%%%%%%%%%%%%%%%%&&%&&&%%%&%%%%%$X.%&&oX#%===%%%-.",
" +&&%..o%><>O&%&,>*%&&%&&&%&&%&&&%&&&&&%&&&%&&&&&&&&&&&&&&&&&&&&&&&&&&&&&&&&&&%%&&%%&%%&&%%&%%&%&&&%%=&%&&%&%%$X.&&O..o%><>O&&-.",
" +&&%..X#&-&o&%&,>*%%%%%%%%%%%%%&&&%&%&%%%&%&&&&&&&&&&&&&&&&&&&&&&&&&&&&&&&&&&&&&&&&&&&&&&&&&&&&&&&&&=&&&&&&&&$X.&$O..X#&-&o&&-.",
" +&&&...X##OX&&&,>*&&&&&&&&&&&&&&=&&&=&&&&&&&&&=&=&===&&&=&=&=&=&&&=&&&=&====&&&&&=&&&=&&=&&&&&&=&&&&&&=&&=&&&$X.&$O...X##OX&=-.",
" +&=&X.....XO&&&,>=&&&&&&&&&&&&&&&&&&&&&&&&&&&&&&&&&&&&&&&&&&&&&&&&&&&&&&&&&&&&&&&=&&&=&&=&&==&&=&&==&&=&&=&&=$X.&&$X.....XO&&-.",
" +&&&OX...XO==&&,>==================&=======================&=================================================%X.==$OX...XO===-.",
" +=&&$OOOO$=&&&=,>=&==&&=&&==&&=&&==&==&&=&&==&&=&&==&&=&&==&==&&=&&==&&=&&====&==&&==&=====&===&=========&&==%X.==*$OOOO$=&&=-.",
" +=&&*$$$*====&=,>=============================================================&================&============;&X.===*$$$*=====-.",
" +==============,>==&==&&==&&===&=&===&===&=&=;=&=;=&===&===;=========;===;===================================&X.=============-.",
" +===;;=;;;=;;==,>============================;;;=;=;=;=;=;=;=;===;=;=;;;;;;;==;;=;;=;;=;;;=;;=;;;=;;=;;;=;;=;&X.;==;;=;;;=;;=-.",
" +;=;=========;=,>======;======;=========;======;======;=========;======;=====================================%X.=============-.",
" +;==;=;;=;;===;,>==;;==;==;;==;==;;=;;==;==;;==;==;;==;==;;=;;==;==;;==;==;;;;=;;==;==;;=;;==;;=;;==;;=;;==;=%X.=;;;=;;=;;==;-.",
" +;;;;;;;===;;=;,>;=================================================================;===========;;;==;;===;;;;&X.;;;;;;;===;;;-.",
" +===;;:=:;;;==;,>;;==;;=;;==;;=;;;;;;;;;=;;;;;;;;;;;;;;;;;;;;;;;;;;;;;;;;;;;==;==;===;==;==;;=;;=;::==:;;;=;;&X.:;;;;:=:;;;=;-.",
" +=;;;;;;:;;;;;=,,;=============;=;;;=;=;=;=;;;;;;;;;;;;;;;;;;;;;;;;;;;;;;;;;;;;;;;;;;;;;;;;;;;;;;;;;;;:;;;;;;&X.:;;;;;;:;;;;;-.",
" +;;;:&O%%%%;;;;,,:;;;;;;;;;;;;:;;;:;:;:::;;;:;:;:;:;;::;;::;::::::;::;:::;:::;;;;;;:;;;;;;:;;:;;;:;;:;;;;;;:;&X.;;;:&O%%%&;;:-.",
" +::;&X#%==@%:;:,,>;;;;;;;;;;;;;;;;;;;;;;;;;;;;;;;;;;;;;;;;;;;;;;;;;;;;;;;;;;:;;::;;:;;::;;:;;:;:::;;::;::::::&X.:::&X#%==@%::-.",
" +;;;..o%><>O>;:,<>:::::;::::::::::::::::::::::::::::::::::::::::::::::::::::::::::::::::::::::::>:::>>>::>>::*X.::&..o%><>O>:-.",
" +;::..X#&-&o::;,<>:;;::;::;;:;;:>:;:;:>:;:>:::>:>:::>:::>::>::>>::>::>>:>>::::::::::::::::::::::::>>::>:::::>;X.>>%..X#&-&o::-.",
" +:::...X##OX>::,<>::::::::::::>:::>:>:>>>:>:>:::>>>:>:>::>>>>>>>>>>>>>>>>>>>:>>>>>>:>>>>>>:>>>>>>>>>:>>>>>>:>;X.>>%...X##OX>:-.",
" +>>>X.....X$>>:,<>::>::>::>:::>::>:::>::>:::>::>::>:::>::>:::>::>:::>::>::>:>>:>>:>>>:>>:>>>:>>>>>:>>>:>>>>>>;X.>>%X.....X$>>-.",
" +>::%X...X#,,:><1,>>>>>>>>>>>>>>>>>>>>>>>>>>>>>>>>>>>>>>>>>>>>>>>>>>>>>>>>>>>>:>>:>>>:>>:>>>:>>>,>:>,>:>>>>>>;X.>>=%X...X#,,,-.",
" +>>>=%%%%&>>>>><1,>:::::::::>::>>>:>:>:::>>>>>>>>>>>,>>>>>>,>>>>>>,>>>>>>>>>>>>>>>>>>>>>>>>>>>>>>>>>>>>>>>>>>;X.>>>=%%%%&>>>>-.",
" +>>>>===>,,>,>><1,>>>>>>>>>>>>>>,>>>>>>>>>>>>>,>,>>>,>>>,>>,>>,,>>,>>,,>,,>>>,,>>,,>,,>>,,>,,>>,>>,,>,,>>,,>,>X.,,,>===>,,>,,-.",
" +>,,>>>,,>>,,,><1,>>>>>>>>>>>>>>>>>>>>>>>>>>>>>>>>>>>>>>>>>>>>>>>>>>>>>>>>>>>>>>>>>>>>>>>>>>>>>,>>>>>>>>>>>,,>X.,,,>>>,,>>,,,-.",
" +>>><,,,,,,<,>><1,>,,>,,,>,,>,,>>,,>,,>>,,>,,,,,,,,,>,,,>,,,,,,,,,,,,,,,,,,,,>>,,>>,>>,,>>,>>,>>>,>>,>>,,>,,>>X.>>><,,,,,,<,,-.",
" +,,>>,>>>,>>>>,11,>>>>>>>>>>>>>>>>>>>>>>>>>,>,,,>,>,>,>,,,,,,,,,,,,,,,,,,,,,,,,,,,,,,,,,,,,,,,,,,,,,,,,,,,,,,>X.,,,<,,,,,,<,,-.",
" +<<,,,<<,,<,,<<11<,,,,,,,,,,,,,,,,,,,,,,,,,,,,<,<,<<<,,,<,<,<,<,,<<,,<<,<<<<<<<<<<<<<<<<<<<<<<<<<<<<<<<<<<<<<<X.<<<<<<<<<<<<<-.",
" +<<<<<<<<<,<<<<11<<,,<<,<<,,<<,<<,<<<,<<,<<,,<<,<<,,<<,<<,<<<,<<,<<,,<<,<<,,,,<,,<,,,<,,<,,<<,,<,,<<,,<,,<,<<<X.<<<,,<<<<,<<<-.",
" +<,,1<<11<111,,21<<<<<<<<<<<<<<<<<<,<<<<<<<<<<<<<<<<<<<<<<<<<<<<<<<<<<<<<<<<<<<<<<<<<<<<<<<<<<<<<<<<<<<<<<<<1<X.1111<<11<1111-.",
" +<<<1<<<<<11<<<21<,<<,,<,,<<,,<,,<<,<<,,<,,<1<,<,<1<,<1<,11<11<<1<<<1<<1<<11<<<<<<<<<<<<<<<<<<<<<<<<<<<<<<<<<<X.<<<1<<<<<11<<-.",
" +<<<1;O%%%%11<12<<<<<<<<<<<<<<<<<<<<<<<<<<<<<<1<1<111<1<111<111<111<<1111111<<<1<1111111<111111<111111<11111<<X.1111;O%%%%111-.",
" +11<&X#%====1112211<<1<<<1<<1<<<1<<1<<1<<<1<<1<<<1<<1<<<1<<1<<1<<<1<<1<<<1<<<1<<<11<11<111<11<111<11<111<1111<X.111%X#%====11-.",
" +<<<..o%><>O2<<2211111111111111111111111111111111111111111111111111111111111<111<11<11<111<11<111<11<111<1112,X.211..o%><>O22-.",
" +111..X#&-&o111221<<<<<1<<<<<<1<<<<<<<<<1<<111<1<1<<<111<1111111211111121111111<11111112222222221222111211111<X.11>..X#&-&o11-.",
" +111...X##OX1112211111111111221221111121112121111111111111212111211121121122111111111112222222222211221222122,X.12;...X##OX11-.",
" +122X.....X&1212211111111122222221212111211121111111111111111111111111111111111111111111111111111111111111111<X.1<=X.....X&11-.",
" +111&X...X%11112221122122112221221222122122112212211221221222122122112212211221221221121211221111122112111111<X.1<:&X...X%111-.",
" +111>&%&&;><<1222211111111111111111111111111111111111111111111111111111111111111111111<121111111111111211<<11<X.1<,>&%&&;><<<-.",
" +111,::::>1111122221<111<11122222211122212121<111<111211121<111111<11<111<11<111111<1111111111111111111111111<X.11<,::::>1111-.",
" +1111<<<<<<1<1122211<111<11111111111111111111<111<11111<111<11<<11<11<111<11<11<<11<1<<1<<1<<1<<<1<<1<<<1<<1<,X.<<<1<<<<<<1<<-.",
" +1<<111<<<<<<<<2211111<111111111111111111111111<11111111111111111111111<111111111111<<11111111<<11<<111<111<<,X.<<<111<<<<<<<-.",
" +111,<<<<<,,<<12<1<<1<<<1<<<<<<11<<1<<<1<<<<<1<<<1<<<<<1<<<<<<<<<<<<<<<<<<<<<<<<<<<<<<<<11<11<<<<<11<<1<<1<<1<X.111,<<<<<,,<<-.",
" +<<<,<<<<<<<<<<21111<<1<<<1<111111<1111111<11<<1<<<1<1<<<1<<<<<<<<<<<<<<<<<<<<<<<<<<<<<<<<<<<<<<<<<<<<<<<<<<<<X.<<<,<<<<<<<<<-.",
" +<<<<<,<<,<<,<<211<<,<<<,<,<,<<<<<<<<<<<<<<<<,<<<,<,<,<,<<<,,<,,<,,,<,,<,,<,,,<,,<,,,<,<,<<<,<<,<<,,<<,<<,<<<<X.,<<<<,<<,<<,,-.",
" +<,,<<,,,,,,,,,21<<<<<<<<<<<<<<<<<<<<<<<<<<<<<<<<<<<<<<<<<<<<<<<<<<<<<<<<<<<<<<<<<<<<<<<,<<<,<,,<<,,<<,,<,<,,>X.,,,<<,,,<<,,,-.",
" +<<<>,,>>,>>>,,21<,,,,,,,,,,,,,,,,,<,,,,,,,,,,,,,,,,,,,,,,,,,,,,,,,,,,,,,,,,,,,,,,,,,,,,,,,,,,,,,,,,,,,,,,,,>>X.>>>>,,>>,>>>>-.",
" +,<<>%O%%%%>,,,11<,,<,>,<,>,>,,<<,,<,,,<,,,,,<,>,<,>,>,<,>,,>>,,>>,>>,,>,,>>,>>,,>>,>>,,,,,,,,,,,,,,,,,,,,,,,>X.,,,>%O%%%%>,,-.",
" +,,,$X#%===%>,,11<,,>,>,>>>,>,,,,,,,,,,,,,,,,>,>,>>>,>>>,,,>>>>>>>>>>>>>>>>>>>>>>>>>>>>>>>>>>>>>>>>>>>>>>>>>>;X.>>>#X#%===%>>-.",
" +>>>..o%><>O>>>11,,,>,,,>,,>,,,>>,,>,,>>,,>,,>,,,>,,>,,>>,,>,,>>,,>,,>,,,>,,>,,>>,,>,,>,>>,>>,,>>,>>,>>,,>>>>;X.>>>..o%><>O>>-.",
" +,,,..X#&-&o:>,11,>>>>>>>>>>>>>>>>>>>>>>>>>>>>>>>>>>>>>>>>>>>>>>>>>>>>>>>>>>>>>>>>>>>>>>>>,>>>>>>,>>,>>>>>>>>;X.>>*..X#&-&o:>-.",
" +>>>...X##OX>>>11,,,,>>>,,,>,,>,,>,,,>,,>,,,,,>>>,,,>,>,>>>>>:>>>,>>>,>:>>>>>>:>>:>>>:>>>>>>>>>>>>>>>>>>>>>>>;X.>>*...X##OX>>-.",
" +>>,X.....X#:>>11,>>>>>>>>>>>>>>>>>>>>>>>>>>>>>>>>>>>>>>>>>>>:>>>>>:>>>:>>::>>:>>:>>>:>:>:::>::>::>>::>::>:::;X.>:*X.....X#::-.",
" +:>>*X...X#>:>:1<,>>>>>>>>>>>>>>>>>:>>>>>>>>>>>>>>>>>>>>>>>:>>>>>>>>>>>>>>>>>>>>>>>:>>>>>>>>>>>>>>>>>>>>>>::>*X.>>**X...X#;::-.",
" +>>>*$$OO$>::>>1<,>>::>:::>:::>::>>:>>::>::>>::>:::>:::::>:::>:::::>:::>:::::::::::::::>::>::>>:>>::>>:>>::::*X.:::*$$OO$;:::-.",
" +>:::***:::::::<<,>>>:>:>>>:>>>>>>>>>>>>>>>>>>:>:>>>:>:>:::>:::>:>:::>:>:::::::::::::::::::::::::::::::::::::&X.::::***::::::-.",
" +>:>;;;;;;;;;::<<>:::::::::::::::::::::::::::::::::::::::::::;:;:;:;:::;;:;;:;;;:;;:;;:;;;;;;;;;;;;;;;;;;;;;;&X.;;;;;;;;;;;;;-.",
" +;:>;;;:::;:;:;<,>;;:;;;:;;:;;;;:;;:;;:;;;:;;:;;;:;;:;;;:;;:;;:;;;:;;:;;;:;;:;;;:;;:;;::::;::;:::;::;:::;:;;:&X.:::;;;:::;:;;-.",
" +;::;;;;;;;;;::<,>;;;;:;;;;;;;:;;;;;;;;;:;;;;;;:;;;;;;;;;;;;;;;;;;;;;;;:;;;;;;;;;;;;;;;;;;;;;;;;;;;;;;;;;;;;;&X.;;;;;;;;;;;;;-.",
" +;;;;;;;;;;;;;;,,>::;;:;;;:;;;:;;::;::;;:;;::;;:;;;:;;;;;:;=;:;=;=;:;=;:==;;==;==;;==;=;;;;;;;;;;;;;;;;;;;;;;&X.;;;;;;;;;;;;;-.",
" +:;;=========;;,>:;;;;;;;;;;;;;;;;;;;;;;;;;;;;;;;;;;;;;;;;;=;===;===;;;======================================%X.=============-.",
" +===;;==;==;;==,>;==;;=;;==;;;=;;=;;;=;;=;;==;;=;;==;;=;;=;;;=;;=;;==;;=;;==;;=;;==;;=;=;==;;==;==;;==;==;;==&X.===;;==;==;;=-.",
" +=;;====;====;;,>;======================================================================;======;======;======&X.=======;=====-.",
" +===&#O%%%%;;==,>;;;=;;;=;;=;;;;;;;=;;;;;;=;;=;;;=;;=;;;;;;=;;;;;;=;;=;;;=;;=;;;=;;=;;;;;;;;;;=;;;===;===;;;=&X.;;;=OO%%%%;;;-.",
" +;;=oX#%===%&=;,>;=;=;=;=;===;;===;=;===;===;=;=;=;===;================================;==;==;===;========&;=&X.=;;oX#%===%&;-.",
" +===..o%><>O===,>;===;=;===;=;;;;;;=;;;===;===;=;===;===;=====================&==============================%X.===..o%><>O==-.",
" +===..X#&-&o===,>;=======&========================&===&===&=&===&===&=====&&==&===&=&&=&==&==&&=&&==&&=&&====$X.&&$..X#&-&o==-.",
" +=&&...X##OX==&,>=========================================================================&===============&==$X.==$...X##OX==-.",
" +===X.....XX===,>*&=&&=&&=&&&&=&&=&&&=&&=&&&=&&=&&=&&&=&&=&&&=&&=&&&=&&=&&==&&=&&=&&&&&&&&&&&&&&&&&&&&&&&&&&&$X.&&$X.....X@=&-.",
" +=&&OX...XX&=&&,>*&=&&=&&=&&&&=&&=&&&=&&=&&&=&&=&&=&&&=&&=&&&=&&=&&&=&&=&&&&&&=&&=&&&&&=&===&&&&=&&&==&&&===&$X.=&$OX...Xo&=&-.",
" +===$OOOO$&&&&=,>*&&&&&&&&&&&&&&&&&=&&&&&&&&&&&&&&&&&&&&&&&&&&&&&&&&&&&&&&&&&&&&&&&&&&&&&&&&&&&&&&&&&&&&&&&&&$X.&&&$OOOO$&&&&-.",
" +&&&&$$$$&&=&&&,>*&&=&&&=&&&&&&=&&&=&&&=&&&&&=&&&=&&&&&=&&&&&%&&&%&%&=&%%&%%&%%&&%%&%%&&&&&&&&&&&&&&&&&&&&&&&$X.&&&&$$$$&&=&&-.",
" +&&=%%%&&&&&&&&,>*&&&&&&&&&&&&&&&&&&&&&&&&&&&&&&&&&&&&&&&&&%&&&%%%&&&%&%%%%%%%%%%%%%%%%%%%&%%%%%%%%%%%%%%%&%%$X.%%%%%%&&&&&&&-.",
" +%%%&&&%&&&%&%%,>*&&%&&&%&&%&&&%%&&%&&%%&&%&&%&&&%&&%&&%%&&%&&%%&&%&&%%&&%&&%&&%%&&%&&%&&&&&&&&&&&&&&&%&&&&&&$X.&&&&&&%&&&%&&-.",
" +&&&%&&%&&&%&%&,>*&&%&&&%&&%&&&&&&&%&&&&&&%&&%&&&%&&%&&&&&&%&&&&&&%&&&&&&%&&%&&&&&&%&&%%%%&%%%%%%&%%&&%%%%&%%$X.%&&%&&%&&&%&&-.",
" +&%%&&&&&%&&&%%,>*&&&&%&&&&&&&%&&%&&&%&&%&&&&&&%&&&&&&%&&%&&&%&&%&&&%&&%&&&&&&%&&%&&&%%&&&&&&&&&%&&&&%%&&&&&&$X.%&&&&&&&%&&&&-.",
" +&&&&%%%&%&%%&&,>*%%%&%&%%%&%&%&&%&%&%&%%%&%%%&%&%%%&%%%&%%%%%%%%%%%%%%%%%%%%%%%%%%%%%%%&%%%&%%&%%%%%%%%&%%%&$X.%%%&%%%&%&%%%-.",
" +&%%%%&&&%&&&%%,>&%&&&%&&&%%%&&&&%&%&%%%&%%%&&&%&&&%%%&&&%%%%%%%%%#%%%%%%%%%%%%%%%%#%%%%%%%%%%%%%%%#%%%%%%%%%$X.&%%%%&&&%&&&%-.",
" +%%%%%%%#%%%%%%,>&%%%#%%%%%%%%%%%%%%%%%%%%%%%%#%%%%%%%%%%%%%%%#%%%#%%%#%#%%%#%%##%%#%%#%##%##%%##%%#%%#%##%###X.%%%%%%%#%%%%%-.",
" +%%%%OO%%%%%%##,>&%%%%%%%%%%%%%%%%%%%%%%%%%%%%%%%%%%%%%%%%%%%%%%%%%%%%%%%%%%%%%%%%%%%%%%%%%%%%%%%%%%%%%%%%%%%#X.%%%%OO%%%%%%%-.",
" +%%#oX#%===%#%%,>&##%###%##%###%%##%##%###%##%###%##%###%##%##%%##%##%###%##%###%##%##%#########%##%##%######+X.###XX#%===%##-.",
" +###..o%><>O#%#,>&##%###%##%#######%##%###%##%###%##%###%##%######%##%###%##%###%##%##%%%%#%%###%##%##%%%%#%#+X.###..o%><>O##-.",
" +##o..X#&-&o#%%,>&####%#######%##%#############%#############%###############################################+X.###..X#&-&o##-.",
" +##o...X##OX###,>&%###%###%###%##%###%#####%###%###%#####%#@#%#@#@###@##@@##@@#@@##@@#@#####@@#@@##@@#@#######X.###...X##OX#%-.",
" +###X.....XX###,>&###########################################@@@#@@@###@@@@@@@@@@@@@@@@@@@@@@@@@@@@@@@@@@####+X.###X.....XX##-.",
" +##@OX...XX#@@@,>&@@##@##@@###@##@##@@##@##@@##@##@@##@##@@##@##@##@@##@##@@##@##@@##@####@@##@##@@##@###@##@+X.@##OX...XX#@@-.",
" +##@#OOXXO#####,>&####@#######@##@######@######@######@######@##@######@######@######@@@######@######@@##@###+X.@###OOXXO####-.",
" +###@#OO###@##@,>&##@###@##@#######@##@###@##@###@##@###@##@######@##@###@##@###@##@#####@##@###@##@#######@#+X.###@#OO###@##-.",
" +@@@@@#O#@#@###,>&@#@#@#@#@@@##@@@#@#@@@#@@@#@#@#@#@@@##@@@@@@@@@@@@@@@@@@@@@@@@@@@@@@@@@@@@@@@@@@@@@##@@@#@#@X.#@@@@#O#@#@#@-.",
" +####@@@#@#@@@@,,&$$$$$$$$$$$$$$$$$$$$$$$$$$$$$$$$$$$$$$$$$$$$$$$$$$$$$$$$$$$$$$$$$$$$$$$$$$$$$$$$$$$$$$$$$$$#XX@@@#@@@#@#@@@-.",
" +@@@@@@@@@@@+@@%><,::****************************************************************************************$Xo@@@@@@@@@@@+@-.",
" ++++++++++++++++%=-,,----------------------------------------------------------------------------------------$o++++++++++++++-.",
" +++@+@@++@++@@@++@@++@@+@@@+++@++@+++@++@++@@++@++@@++@++@+++@++@+++@++@++@@++@+++++@++@++@@++@++@@+++@++@+++@++@+++@@++@++@@-.",
" +++@+++++@++++++++++++++++@+++@++@+++@++@++++++@++++++@++@+++@++@+++@++@++++++@+@+++@++@++++++@+++@+++@++@+++@++@+++++++@++++-.",
" +++++++@+++@+++@+@+@@+++@@++@++++++@+++++++++@+++@++++++++++++++++++++++++++++++++++++++++++++++@@++@++++++@++++++++++@+++@++-.",
" +@+++OO%%%%@+++@+@++++++++++@++@+++@+++@+++++@+++@+++++@+++++o+++o+o+@+oo+oo+o+++o+o+@+oo+oo+o++++++@++@+++@+++@++++Oo%%%%@++-.",
" ++++XX#%===%+++++++++++++++++++++++++++++++++++++++++++++++++++++++++++++++++++++++++++++++++++++++++++++++++++++++oX#%===%++-.",
" +oo+..o%><>O+++ooo++o+oo++++o++oo++o++oo++o++oo+oo++o++oo++o++oo++o++oo++o++++oo++o++oo++o++o+oo++++o++oo++o++oo+++..o%><>O++-.",
" ++++..X#&-&o++++++++o+++++++o++++++o++++++o+++++++++o++++++o++++++o++++++o+o++++++o++++++o++o+++++++o++++++o++++++X..X#&-&o++-.",
" ++++...X##OX++++++++++o+oo++++++++++++++++++++++++++++++++++++++++++++++++++++++++++++++++++++o+oo++++++++++++++++X...X##OX++-.",
" ++++X.....XX++++++++++++++++++++++++++++++++++++++++++++++++++++++++++++++++++++++++++++++++++++++++++++++++++++++XX.....XX++-.",
" +oooXX...XXooooooooo+ooooooo+oooooo+oooooo+ooooooooo+oooooo+oooooo+oooooooo+oooooo+ooooooooo+ooooooo+oooooo+oooooooXX...XXooo-.",
" +++++XXXXX++++++++++++++++++++++++++++++++++++++++++++++++++++++++++++++++++++++++++++++++++++++++++++++++++++++++++XXXXX++++-.",
" +oooooo++++++oo+++++++++++ooooooooo+++oo++ooo+++++++++++++++++++++++++++++++++++++++++++++ooooooooooooooooo+++oo+++ooo+++++++-.",
" ++++++++++++@+++++@@++@+++++++++++++@+++@+++++++++@@++@+++++@@++@@++++@+++++@@++@@++++++++@+++++++++++++++++@+++@++++++++++@@-.",
" +++++++++++++++++++++++++++++++++++++++++++++++++++++++++++++++++++++++++++++++++++++++++++++++++++++++++++++++++++++++++++++-.",
" @@@+@@@@@+@@@@@@@@@@@@+@@+@@@@+@@+@@@+@@+@@@@@@+@@@@@@+@@+@@@+@@+@@@@@+@@+@@@+@@+@@@@@@+@@@@@@+@@+@@@@+@@+@@@+@@+@@@@@@@+@@@@-."
};
