/* XPM */
static char *_9_Wolfenstein3DWalls1735817068[] = {
/* columns rows colors chars-per-pixel */
"128 128 37 1 ",
"  c black",
". c #1B0700",
"X c gray12",
"o c #2B1700",
"O c #372300",
"+ c #2F2F2F",
"@ c gray23",
"# c #573F1F",
"$ c #6B6B00",
"% c #004343",
"& c #005B5B",
"* c #006F6F",
"= c #007373",
"- c #007777",
"; c #007B7B",
": c #007F7F",
"> c #5B5B5B",
", c #AB5700",
"< c #BBBB00",
"1 c #F3B323",
"2 c #C7C700",
"3 c #D7D700",
"4 c #E3E300",
"5 c #008787",
"6 c #008F8F",
"7 c #009B9B",
"8 c #009F9F",
"9 c #00A7A7",
"0 c #00ABAB",
"q c #00B7B7",
"w c #23B3B3",
"e c #23B7B7",
"r c #4BC3C3",
"t c #77CBCB",
"y c #9FDFDF",
"u c #BBEBEB",
"i c #DBF7F7",
/* pixels */
" --;-----;-;-;-------------------;---;---------;-;-;;;---;-;-;-;---;---;-;;;;-----;----;-;;;;-----;------;---;----------;-;-;;q%",
" ---------------------------------------------------------------------------------;---------------;---------------------------q%",
" -;;;;;;;;;;;;;-;-;;;;;;;;;;;;;;;;;;-;;;;;;;;;;;;;;;;;;;;;;;-;;;;;;;;;;;;;;;;-------;-;;;;;;;-------;-;;;;;;-;;;;;;;;;;;;;;;;;q%",
" --------------;-------------------------------------------------------------;;-;;--;;-------;;-;;--;;------------------------q%",
" -;;;;==6666;;-;;;;;;;;;-;;;;;;-;;;;;;;;;-;;;;;;-;;;;;;-;;;;;;;;;-;;;;;;-;;;;;;-;;;;;;;;-;;;;;;-;;;;;;;;;;;;;;;;;-;;;==6666;;;q%",
" --;-&&:69996;;--;-;-;;--;;--;;;-;-;;;-;;;-;-;:;-;:;-;;;-;;;:;;;;;;;;;:;;;:;;;;;;;;;;;;;;;:;;;;;;;;;;;;;;;-;;;-;;;--&&:69996;-q%",
" -;;;%%*6ryr=;;;;;;;;;;;;;;;;;;;;;;;;;;;;;;;;;:::;:;:;:;:;:;:;:;;;:;:;:::::::;;::;::;::;:::::;;::;::;::;::;;;;;;;;;*%%*6ryr=;:q%",
" -;;;%%&:7q7*;:;;;;;;;;;:;;;;;;:;;;;;;;;;:;;;;;;:;;;;;;:;;;;;;;;;:;;;;;;:;;;;::;;::::::::;:;;::;;::::::::;:;;;;;;:;&%%&:7q7*;;q%",
" -:::%%%&::=&:;:;::::::::::::::::::::::::::::::::::::::::::::::::::::::::::::::;::;;:;;::;:::::;::;;:;;::;:::::::::&%%%&::=&::q%",
" -;;;&%%%%%&*;;:;;;;;;;;;;;;;;;;;;;;:;;;;;;;;;;;;;;;;;;;;;;;:;;;;;;;;;;;;::;;;;;;;;;:;;;;;;;;;;;;;;;:;;;;;;;;;;;;;;&&%%%%%&*;;q%",
" -:::&&%%%&*::::;:::;;::;::;;::;:::::::::;:::::::::::::::::::::::::::::::::::;;:;;:;;;:;;:;;::;:;;:;;;:;;:;;:::::;:*&&%%%&*:::q%",
" -:;:=&&&&*::::;;;;;;;;;;;;;;;;;:;:::;:;:;:;:::::::::::::::::::::::::::::::::::::::::::::::::::::::::::::::::::;:;::=&&&&*::::q%",
" -:::::6:=:6:6:::::::::::::::::::::::6:::6:::6:::6:6:::6:::6:6:666:::6:666:66:::::::6::::::6::6:::::6::::::6::6::6::::6:=:6:6:q%",
" -:::::::::::::6::::::::::::::::::::::::::::::::::::::::::::::::::::::::::::::::6:::6::66::6::6:::::6::66::6::6:::::::::::::::q%",
" -6::66666:666:::::66666:66666666666666666666666:66666666666666666666666:666666666666666666666666666666666666666666666666:6666q%",
" -:666::66:66:6:5:----:--::-----::-----::-----:--::-----::-----::-----:--::---::--::-::-:::-::--:6:6:66:666:66::66::6::66:66::q%",
" -:::6666666666::==%%%%%%%%%%%%%%%%%%%%%%%%%%%%%%%%%%%%%%%%%%%%%%%%%%%%%%%%%%%%%%%%%%%%%%%%%%%%%%%%%%%%%%%%%%%%&=6666666666666q%",
" -6666666676666:=7&&&&&&&&&&&&&&&&&&&&&&&&&&&&&&&&&&&&&&&&&&&&&&&&&&&&&&&&&&&&&&&&&&&&&&&&&&&&&&&&&&&&&&&&&&&&&&&6666666676666q%",
" -66667776767666w875555555555555555555555555555555555555555555555555555555555555555555555555555555555555555555-&%7776777676766q%",
" -76677676666677te876666666667666666766666676666666667666666766666676666666666677777677777767777777776777776775&%7777767666666q%",
" -6677==66667776tr877777777777777777777777777777777777777777777777777777777776776677677667767766766776776776775&%6667==6666777q%",
" -677&&:69996676tr866666766666666666666666666666766666666666666666666666776666666666666666666667767776667666665&%677*&:6999666q%",
" -776%%*6ryr=767tr867767776776777677777677767777777777777777777777777777777777667766766776676676777669767767665&%77=%%*6ryr=77q%",
" -776%%&:7q7*767tr866666666666667776767666767777777777777777777777777777777777777777777777777777777779777777775&%75=%%&:7q7*77q%",
" -777%%%&::=&777tr877777777777777977797777777779797999777979797977797779799997777797779779777777977777797797775&%75=%%%&::=&79q%",
" -797&%%%%%&=777tr977777777777777777777777777777777777777777777777777777777777777797779779779977977997797797795&%775&%%%%%&=77q%",
" -777=&%%%&=9977tr999999999999999999799999999999999999999999799999999999999999999999999999999999999999999999996&%995=&%%%&=999q%",
" -9775====597779tr97997797790*                                                                    =099999977996&%9985====59779q%",
" -97785558999979tr9999999999*                                                                      =999999999w7&%9998555899999q%",
" -99999999999999tr9979977997   ,1111111111111111111111111111111111111111111111111111111111111111,   99999999997&%9999999999999q%",
" -999ww9www9ww99tr9999999999  ,1332<<<<<<<<<<<<<<<<<<<<<<<<<<<<<<<<<<<<<<<<<<<<<<<<<<<<<<<<<<2331,  59www9ww9w7&%w99ww9www9ww9q%",
" -w9w999999999w9tr999999w999  141,                                                            ,141  59999999996&%9999999999999q%",
" -w99w9ww9ww999wtr99ww99w99w  14,                                                              ,41  5ww9ww99w96&%9www9ww9ww99wq%",
" -wwwwwww999ww9wtrw999999999  13                                                                31  5ww999wwww7&%wwwwwww999wwwq%",
" -999wwe9ewww99wtrww99ww9ww9  12    +@                                                     +@   21  599ewww9ww7&%ewwwwe9ewww9wq%",
" -9wwwwwwewwwww9ttw999999999  12   oXXo                                                   oXXo  21  5wwewwwwww7&%ewwwwwwewwwwwq%",
" -wwwe7=6666wwwwttewwwwwwwww  12   .Oo.                                                   .Oo.  21  5ewwwwwwew7&%wwwe7=6667wweq%",
" -eew7&:699;6ewettrwwwwwwwww  12                                                                21  =eeweeeeee7&%eee7&:699;6eeq%",
" -www%%*6ryr=rwetyreeeeeweee  12                    $$$$$$    $$$$$$$$$$$$$$$$                  21  =rrreerree8&%ee7%%*6ryr=req%",
" -wee%%&:7q7*eewtyrewweeweew  12                    $$$$$$    $$$$$$$$$$$$$$$$                  21  =eereeeeerw&%rr6%%&:7q7*eeq%",
" -eee%%%&::=&reetyreeeeeeeee  12                    $$$$$$    $$$$$$$$$$$$$$$$                  21  =errrrrrerw&%rr6%%%&::=&req%",
" -rrr&%%%%%&5rretyreereereer  12                    $$$$$$    $$$$$$$$$$$$$$$$                  21  =rrerrrrrrw&%rr6&%%%%%&5rrq%",
" -ree6&%%%&:tteryutrrrrrrrrr  12                    $$$$$$    $$$$$$$$$$$$$$$$                  21  =trerrrrrrw&%rr96&%%%&:tttq%",
" -rrr966667rrrrryutreeeeeeee  12                    $$$$$$    $$$$$$                            21  =rrrrrrrrrw&%rrr966667rrrrq%",
" -rrrr999rttrtrryutrrrrrrrrr  12                    $$$$$$    $$$$$$                            21  =rttrrttrtr&%tttr999rttrttq%",
" -rttrrrttrrtttryutrrrrrrrrr  12                    $$$$$$    $$$$$$                            21  =rrrrrrrttr&%tttrrrttrrtttq%",
" -rrryttttttytrryutrttrtttrt  12                    $$$$$$    $$$$$$                            21  =trrttrttrr&%rrryttttttyttq%",
" -ttrrtrrrtrrrrtuutrrrrrrrrr  12                    $$$$$$$$$$$$$$$$$$$$$$$$$$                  21  =tttttttttr&%tttyttttttyttq%",
" -yytttyyttyttyyuuyttttttttt  12                    $$$$$$$$$$$$$$$$$$$$$$$$$$                  21  =yyyyyyyyyy&%yyyyyyyyyyyyyq%",
" -yyyyyyyyytyyyyuuyyttyytyyt  12                    $$$$$$$$$$$$$$$$$$$$$$$$$$                  21  =ttyttytyyy&%yyyttyyyytyyyq%",
" -yttuyyuuyuuuttiuyyyyyyyyyy  12                    $$$$$$$$$$$$$$$$$$$$$$$$$$                  21  =yyyyyyyyuy&%uuuuyyuuyuuuuq%",
" -yyyuyyyyyuuyyyiuytyyttytty  12                    $$$$$$$$$$$$$$$$$$$$$$$$$$                  21  =yyyyyyyyyy&%yyyuyyyyyuuyyq%",
" -yyyuw=6666uuyuiyyyyyyyyyyy  12                              $$$$$$    $$$$$$                  21  =uuyuuuuuyy&%uuuuw=6666uuuq%",
" -uuy7&:69999uuuiiuuyyuyyyuy  12                              $$$$$$    $$$$$$                  21  =yuuuyuuuuy&%uuu6&:69999uuq%",
" -yyy%%*6ryr=iyyiiuuuuuuuuuu  12                              $$$$$$    $$$$$$                  21  =yuuuyuuuit&%iuu%%*6ryr=iiq%",
" -uuu%%&:7q7*uuuiiuyyyyyuyyy  12                              $$$$$$    $$$$$$                  21  =uuuiuuuuuy&%uur%%&:7q7*uuq%",
" -uuu%%%&::=&uuuiiuuuuuuuuuu  12                    $$$$$$$$$$$$$$$$    $$$$$$                  21  =iiuiiiuiit&%uiw%%%&::=&uuq%",
" -uii&%%%%%&7uiuiiuuuuuuuuui  12                    $$$$$$$$$$$$$$$$    $$$$$$                  21  =uuuuuuuuuy&%uy9&%%%%%&7uuq%",
" -uuu7&%%%&6uuuuiiiuuiiuiiuu  12                    $$$$$$$$$$$$$$$$    $$$$$$                  21  =uuiuuuuuuy&%uye7&%%%&6uuuq%",
" -uuur7677wryyuiiiiuuuuuuuuu  12                    $$$$$$$$$$$$$$$$    $$$$$$                  21  =uuiuuyyuuy&%uytr7677wryyyq%",
" -uuuteeeeruuuuuiiiiuyuuuyuu  12                    $$$$$$$$$$$$$$$$    $$$$$$                  21  =uuuuuuuuuy&%uuyteeeeruuuuq%",
" -uuuuyyyyyyuyuuiiiuuyuuuyuu  12                                                                21  =uyyyuyyuyt&%yyyuyyyyyyuyyq%",
" -uyyuuuyyyyyyyyiiuuuuuyuuuu  12                                                                21  =uuuyuuuyyt&%yyyuuuyyyyyyyq%",
" -uuutyyyyyttyyuiyuyyuyyyuyy  12                                                                21  =yyuyyuyyuy&%uuutyyyyyttyyq%",
" -yyytyyyyyyyyyyiuuuuyyuyyyu  12                                                                21  =yyyyyyyyyy&%yyytyyyyyyyyyq%",
" -yyyyytyytyytyyiuuyytyyytyt  12                                                                21  =yytyytyyyy&%tyyyytyytyyttq%",
" -yttyytttttttttiuyyyyyyyyyy  12                                                                21  =yyttytyttr&%tttyytttyytttq%",
" -yyyrttrrtrrrttiuyttttttttt  12                                                                21  =ttttttttrr&%rrrrttrrtrrrrq%",
" -tyyr6=6666rtttuuyttytrtytr  12                                                                21  =tttttttttr&%tttr6=6666rttq%",
" -ttt5&:69996rttuuyttrtrtrrr  12              > >>>## >>  @>#> @>@#@  >>>@>@ >>@ @>@            21  =rrrrrrrrrw&%rrr:&:69996rrq%",
" -rrr%%*6ryr=rrruutttrtttrtt  12                                                                21  =trrttrrrrw&%rrr%%*6ryr=rrq%",
" -ttt%%&:7q7*ertuutrrrrrrrrr  12              >> >>##@>> >>  >@>>@ @ @>##>@ >>@#> #@            21  =trrrrrrrrw&%rr8%%&:7q7*erq%",
" -rrr%%%&::=&rrruuttttrrrttt  12                                                                21  =rrrrrrrrrw&%rr8%%%&::=&rrq%",
" -rrt&%%%%%&:erruutrrrrrrrrr  12              >#>>>>@#>@  >> > >>@ >> >>#>@>  ># >#@            21  =eereereeew&%re8&%%%%%&:eeq%",
" -err8&%%%&:rereuytrrrrrrrrr  12                                                                21  =rrrrrreer8&%rr88&%%%&:weeq%",
" -rrr855==5reerruytrreereeer  12              >>>>@ > >>  >#> ># >>>@@ >> >> >#> >#@            21  =rrerreeee8&%eee855==5weeeq%",
" -reee888eeeeeeeyytrrrererrr  12                                                                21  =eeeeeeeee7&%eeee888eeeeeeq%",
" -rerwwwwwwwwweeyyreeeeeeeee  12              >> >>  >>> >@  > >>@ > >@  >>#>>>>@ >>            21  =wwwwwwwww7&%wwwwwwwwwwwwwq%",
" -werwwweeewewewytrwwewwweww  12                                                                21  =weeewewwe7&%eeewwweeewewwq%",
" -weewwwwwwwwweeytrwwwwewwww  12              ##>>>>@ >###>@ >#>>@ @  >>#>>@  >@ @>>            21  =wwwwwwwww7&%wwwwwwwwwwwwwq%",
" -wwwwwwwwwwwwwwttreewwewwwe  12                                                                21  =wwwwwwwww7&%wwwwwwwwwwwwwq%",
" -eww999999999wwtrewwwwwwwww  12              >>>>>#>  >##> >#> #>>>># >  >  @>>>> >            21  =9999999996&%9999999999999q%",
" -999ww99w99ww99trw99ww9ww99  12    +@                                                     +@   21  =99w99ww997&%999ww99w99ww9q%",
" -9ww9999w9999wwtrw999999999  12   oXXo                                                   oXXo  21  =99w9999997&%9999999w99999q%",
" -9997:=6666ww99trwww9www9ww  12   .Oo.                                                   .Oo.  21  =9w999www97&%www9==6666wwwq%",
" -ww9*&:6999679wtrw9w9w9w9w9  12                                                                21  =9999997w97&%9ww*&:699967wq%",
" -999%%*6ryr=999trw999w9w999  12                                                                21  =9999999996&%999%%*6ryr=99q%",
" -999%%&:7q7*999trw999999979  14,                                                              ,41  =7797799995&%775%%&:7q7*99q%",
" -977%%%&::=&997tr9999999999  141,                                                            ,131  =9999997995&%995%%%&::=&99q%",
" -999&%%%%%&&999tr8797797797  ,144222222222222222222222222222222222222222222222222222222222223441,  =7777777775&%775&%%%%%&;97q%",
" -977=&%%%&&7977tr8797797797   ,1111111111111111111111111111111111111111111111111111111111111111,   =9977799975&%975=&%%%&*797q%",
" -9995====577779tr8777777777&                                                                      %=7777777775&%7775====57777q%",
" -77775555779777tr8779777977:&                                                                    %=57777777775&%7777555577977q%",
" -77966677777777tr877777777777=&&&&&&&&&&&&&&&&&&&&&&&&&&&&&&&&&&&&&&&&&&&&&&&&&&&&&&&&&&&&&&&&&&==666666667665&%6666667777777q%",
" -66677767776766tr877677767767755555555555555555555555555555555555555555555555555555555555555555577777767777775&%7777776777677q%",
" -77767767776767tr877677767767777777677777767767776776777777677777767777776776777777677666676666667667766667665&%6776776777677q%",
" -76677777677766tr877776777777767767776776777777677777767767776776777677677777767767776677777777767777667777775&%6777777767777q%",
" -77776667676677tr866676766676767767676766676667676667666766666666666666666666666666666667666766766666666766675&%6667666767666q%",
" -76666777677766tr7677767776667777676766676667776777666777666666666:6666666666666666:666666666666666:6666666665&%7666677767776q%",
" -6666666:666666tr7666:666666666666666666666666:666666666666666:666:666:6:666:66::66:66:6::6::66::66:66:6::6:::&%6666666:66666q%",
" -6666==666666::tr76666666666666666666666666666666666666666666666666666666666666666666666666666666666666666666:&%6666==6666666q%",
" -66:*&:69996:66tr7::6:::6::6:::66::6::6:::6::6:::6::6:::6::6::66::6::6:::6::6:::6::6::6:::::::::6::6::6::::::-&%:::&&:69996::q%",
" -:::%%*6ryr=:6:tr7::6:::6::6:::::::6::6:::6::6:::6::6:::6::6::::::6::6:::6::6:::6::6::6666:66:::6::6::6666:6:-&%:::%%*6ryr=::q%",
" -::*%%&:7q7*:66tr7::::6:::::::6::6:::::::::::::6:::::::::::::6:::::::::::::::::::::::::::::::::::::::::::::::-&%:::%%&:7q7*::q%",
" -::*%%%&::=&:::tr76:::6:::6:::6::6:::6:::::6:::6:::6:::::6:;:6:;:;:::;::;;::;;:;;::;;:;:::::;;:;;::;;:;:::::::&%:::%%%&::=&:6q%",
" -:::&%%%%%&&:::tr7:::::::::::::::::::::::::::::::::::::::::::;;;:;;;:::;;;;;;;;;;;;;;;;;;;;;;;;;;;;;;;;;;::::-&%:::&%%%%%&&::q%",
" -::;=&%%%&&:;;;tr7;;::;::;;:::;::;::;;::;::;;::;::;;::;::;;::;::;::;;::;::;;::;::;;::;::::;;::;::;;::;:::;::;-&%;::=&%%%&&:;;q%",
" -::;:==&&=:::::tr7::::;:::::::;::;::::::;::::::;::::::;::::::;::;::::::;::::::;::::::;;;::::::;::::::;;::;:::-&%;:::==&&=::::q%",
" -:::;:==:::;::;tr7::;:::;::;:::::::;::;:::;::;:::;::;:::;::;::::::;::;:::;::;:::;::;:::::;::;:::;::;:::::::;:-&%:::;:==:::;::q%",
" -;;;;;:=:;:;:::tr7;:;:;:;:;;;::;;;:;:;;;:;;;:;:;:;:;;;::;;;;;;;;;;;;;;;;;;;;;;;;;;;;;;;;;;;;;;;;;;;;;::;;;:;:;&%:;;;;:=:;:;:;q%",
" -::::;;;:;:;;;;tt75555555555555555555555555555555555555555555555555555555555555555555555555555555555555555555:&&;;;:;;;:;:;;;q%",
" -;;;;;;;;;;;-;;6rytee88888888888888888888888888888888888888888888888888888888888888888888888888888888888888885&*;;;;;;;;;;;-;q%",
" ----------------69qttqqqqqqqqqqqqqqqqqqqqqqqqqqqqqqqqqqqqqqqqqqqqqqqqqqqqqqqqqqqqqqqqqqqqqqqqqqqqqqqqqqqqqqqq5*--------------q%",
" ---;-;;--;--;;;--;;--;;-;;;---;--;---;--;--;;--;--;;--;--;---;--;---;--;--;;--;-----;--;--;;--;--;;---;--;---;--;---;;--;--;;q%",
" ---;-----;----------------;---;--;---;--;------;------;--;---;--;---;--;------;-;---;--;------;---;---;--;---;--;-------;----q%",
" -------;---;---;-;-;;---;;--;------;---------;---;----------------------------------------------;;--;------;----------;---;--q%",
" -;---==6666;---;-;----------;--;---;---;-----;---;-----;-----*---*-*-;-**-**-*---*-*-;-**-**-*------;--;---;---;----==6666;--q%",
" ----&&:69996-------------------------------------------------------------------------------------------------------&&:69996--q%",
" -**-%%*6ryr=---***--*-**----*--**--*--**--*--**-**--*--**--*--**--*--**--*----**--*--**--*--*-**----*--**--*--**---%%*6ryr=--q%",
" ----%%&:7q7*--------*-------*------*------*---------*------*------*------*-*------*------*--*-------*------*------&%%&:7q7*--q%",
" ----%%%&::=&----------*-**--------------------------------------------------------------------*-**----------------&%%%&::=&--q%",
" ----&%%%%%&&------------------------------------------------------------------------------------------------------&&%%%%%&&--q%",
" -***&&%%%&&*********-*******-******-******-*********-******-******-********-******-*********-*******-******-*******&&%%%&&***q%",
" -----&&&&&----------------------------------------------------------------------------------------------------------&&&&&----q%",
" -******------**-----------*********---**--***---------------------------------------------*****************---**---***-------q%",
" ------------;-----;;--;-------------;---;---------;;--;-----;;--;;----;-----;;--;;--------;-----------------;---;----------;;q%",
" -----------------------------------------------------------------------------------------------------------------------------q%",
" ;;;-;;;;;-;;;;;;;;;;;;-;;-;;;;-;;-;;;-;;-;;;;;;-;;;;;;-;;-;;;-;;-;;;;;-;;-;;;-;;-;;;;;;-;;;;;;-;;-;;;;-;;-;;;-;;-;;;;;;;-;;;;q%"
};
