/* XPM */
static char *_3_Wolfenstein3DWalls1735817069[] = {
/* columns rows colors chars-per-pixel */
"128 128 28 1 ",
"  c #00001F",
". c #00003F",
"X c #000043",
"o c #00004F",
"O c #00005B",
"+ c #00005F",
"@ c #000067",
"# c #000073",
"$ c #00007F",
"% c #00008B",
"& c #00009B",
"* c #00009F",
"= c #0000A7",
"- c #0000AB",
"; c #0000B3",
": c #0000BF",
"> c #0000CB",
", c #0000D7",
"< c #0000DF",
"1 c #0000E3",
"2 c #0000EF",
"3 c blue",
"4 c #0007FF",
"5 c #2327FF",
"6 c #4343FF",
"7 c #5F63FF",
"8 c #7F83FF",
"9 c #9F9FFF",
/* pixels */
":;;;;;-;;:;;;;;;::::;::;:;:;;;:;;::::;::;:;:;;;:;:;;;::::;::;-;;;;;;;;;;;:;;;;;;::::;::;:;:;;;:;;::::;::;:;:;;;:;:;;;::::;::;-&%",
";;;;;:<2<<<<<<,,<:,<,<,<<,<,<<,,<,,<,,,<,,,<,<:,,<,,,<,,,<,,,;--;;;;;:<2<<<<<<,,<:,<,<,<<,<,<<,,<,,<,,,<,,,<,<:,,<,,,<,,,<,,,;-&",
"-----<2:,:::--;-:--:;:;::;:-::;;:;;:---:;;-:-:-;;:;-;:;-;:--;:;------<2:,:::--;-:--:;:;::;:-::;;:;;:---:;;-:-:-;;:;-;:;-;:--;:;-",
"%&&-;<:;:::;-;--;::-;--;-:;:;---;-:-;;-::::;--:-;-::-:;:-;;;;-:-%&&-;<:;:::;-;--;::-;--;-:;:;---;-:-;;-::::;--:-;-::-:;:-;;;;-:-",
"$%&-:,-:;;-:;;:;;--:;;::-;;----:;--;-;-:;;;--;-;;-;-;;;-:--;--:-$%&-:,-:;;-:;;:;;--:;;::-;;----:;--;-;-:;;;--;-;;-;-;;;-:--;--:-",
"#$%&;::--;:-;-;-;;;;:----;--;:;-&;:-:-;:-;--;;;-;;---:-&:-;-;;:&#$%&;::--;:-;-;-;;;;:----;--;:;-&;:-:-;:-;--;;;-;;---:-&:-;-;;:&",
"#$%&;<;;;-;:&-;;:;;;:--;&-;;-:--;-::;;:;:-:;;----:--;-;-:;-;;;:&#$%&;<;;;-;:&-;;:;;;:--;&-;;-:--;-::;;:;:-:;;----:--;-;-:;-;;;:&",
"#$%&;,;;--;:;------;;-:-:---;::--:-;-;;;--;---;-;---;;-;;;&;-;:-#$%&;,;;--;:;------;;-:-:---;::--:-;-;;;--;---;-;---;;-;;;&;-;:-",
"#$%&;:;;;&;-;;&;-&;-;&;-&-;;;-&;-;;-;&;-;;--;-;-;-;-:;-;&;--;&:-#$%&;:;;;&;-;;&;-&;-;&;-&-;;;-&;-;;-;&;-;;--;-;-;-;-:;-;&;--;&:-",
"#$%&;:;&-;&-&--&;---&-;&---&---;&-;:--&;&-;;-;-;-;----;;----&-:&#$%&;:;&-;&-&--&;---&-;&---&---;&-;:--&;&-;;-;-;-;----;;----&-:&",
"#$%&;:--;&-&--&-;&--;;;-;-&;-&&&;&--;--;-;-&--:-;--:-;---;;--&:&#$%&;:--;&-&--&-;&--;;;-;-&;-&&&;&--;--;-;-&--:-;--:-;---;;--&:&",
"#$%&;---&---&-;&-&;&-&--;---&&--&-&-;&;-;-;--&;:-;--:;-:&:--;&:&#$%&;---&---&-;&-&;&-&--;---&&--&-&-;&;-;-;--&;:-;--:;-:&:--;&:&",
"#$%&;-;&-&&--&;%&-&--;----;;%-&&&-;-&--&-;;-&-;-:;-:-&:-;-&-&&:&#$%&;-;&-&&--&;%&-&--;----;;%-&&&-;-&--&-;;-&-;-:;-:-&:-;-&-&&:&",
"#$%&;---&--%&-%-%&-&--&:%-;&-%&-&-&&&-&--&;;---;&-;&-:-&-&-&;-:%#$%&;---&--%&-%-%&-&--&:%-;&-%&-&-&&&-&--&;;---;&-;&-:-&-&-&;-:%",
"#$%&;;;;&&;--&&;&&&&%----&-&%-&%&&-&%--;--&-&-;&-&-&&-&-&-&&&-:&#$%&;;;;&&;--&&;&&&&%----&-&%-&%&&-&%--;--&-&-;&-&-&&-&-&-&&&-:&",
"#$%&;:--%---&%%&-%--&-%:&&-&&-&&&-&&-%-&-&-&-;&-&;&-&--&-&-%%&:-#$%&;:--%---&%%&-%--&-%:&&-&&-&&&-&&-%-&-&-&-;&-&;&-&--&-&-%%&:-",
"#$%&;-&%--%&%&&--&%%&&&&&&-;&--%&&&&&-%&-&&-&&;&-%-%&&&-%-%&--:&#$%&;-&%--%&%&&--&%%&&&&&&-;&--%&&&&&-%&-&&-&&;&-%-%&&&-%-%&--:&",
"#$%&;---&%-%&%--&&&%&--%%&-%&;-&%-&;-&-%&-&&&&&%%&&-%&-&-&&&-%:%#$%&;---&%-%&%--&&&%&--%%&-%&;-&%-&;-&-%&-&&&&&%%&&-%&-&-&&&-%:%",
"#$%&;-&%%-%%&%%&-&%;-%--&&%&%-%-&%-&%-%%&&%%&%%&&%&&&&-&&%%&&--%#$%&;-&%%-%%&%%&-&%;-%--&&%&%-%-&%-&%-%%&&%%&%%&&%&&&&-&&%%&&--%",
"#$%&;-&%&%&&-&%&%%&&%%%-%%&%-&-%&-%-%%%&%%-%%&-%%%%-&%&%&%&%%--%#$%&;-&%&%&&-&%&%%&&%%%-%%&%-&-%&-%-%%%&%%-%%&-%%%%-&%&%&%&%%--%",
"#$%&;--&&&&%-&&%&%%%&&%&&%&-&%&%&-%%&%&&-&&&-%-%&&%%&%&%&%&&%%;%#$%&;--&&&&%-&&%&%%%&&%&&%&-&%&%&-%%&%&&-&&&-%-%&&%%&%&%&%&&%%;%",
"#$%&;:&&%&&-&%&%%&&%%%-%%&%-&-%&-%-%%%&%%-%%&-%%%%-&%&%&%&%%&&-%#$%&;:&&%&&-&%&%%&&%%%-%%&%-&-%&-%-%%%&%%-%%&-%%%%-&%&%&%&%%&&-%",
"#$%&;--$&%$%%%%&%&&&-%&%%%%&%%&%&&%&&%%&&%%%%&&%%%%&&%&&-&%%%&;%#$%&;--$&%$%%%%&%&&&-%&%%%%&%%&%&&%&&%%&&%%%%&&%%%%&&%&&-&%%%&;%",
"#$%&;:%%%$%%$$%%$$%%&%&$%%%%%&%&%%&%%%&%&%&&%&%&&&%%%%-%&%%%&%-%#$%&;:%%%$%%$$%%$$%%&%&$%%%%%&%&%%&%%%&%&%&&%&%&&&%%%%-%&%%%&%-%",
"#$%&;:&&%%$$%%$&$&$$&%$&$&%%$%&%$%%%&%&&%%%&&%%%%&&%&%&-%%%%%%&%#$%&;:&&%%$$%%$&$&$$&%$&$&%%$%&%$%%%&%&&%%%&&%%%%&&%&%&-%%%%%%&%",
"#$%&-;%&&$$%$$&$%$$%$$%$%%$%%$%$&$%$%%%&$%%%$%%$$%&%%&%%%&%$%%&%#$%&-;%&&$$%$$&$%$$%$$%$%%$%%$%$&$%$%%%&$%%%$%%$$%&%%&%%%&%$%%&%",
"#$%&--&$$%$%$$%$%$$$$$$%$$%$$%$%$$%$%$%$##$$%$#%$##%$#$%$%$%%%$%#$%&--&$$%$%$$%$%$$$$$$%$$%$$%$%$$%$%$%$##$$%$#%$##%$#$%$%$%%%$%",
"#$%&&-%$#$############################@@####@##@@##@##########$##$%&&-%$$##############################@@####@##@@##@#######$#$#",
"#$%&&&$#@@@@@@@########################################@@@@@@@@@#$%&&&$#@@@@@@@########################################@@@@@@@@@",
"$%%&&%$##@@@@@@@@@@@@@@@@@@@@@@@@@@@@@@@@@@@@@@@@@@@@@@@@@@@@@@@$%%&&%$##@@@@@@@@@@@@@@@@@@@@@@@@@@@@@@@@@@@@@@@@@@@@@@@@@@@@@@@",
"%%&&&%%$######################################################$$%%&&&%%$########################################################",
"%%%%&&&%&%%%%%&&&&%%&%%%&%&%$$$###$$%%%%%&&&&&%&&%%&&&&%&&%%%%%%&&&&&&&%&&%%%%%&&&&&%%%&&&%%$$$###$$%%%%&&%%&&&%&&%&%%&&%&&&&%%%",
"::::::,,,,::::,,,,,,11111111111111111111222222221111222222222111,,,,1111222222222111111111111122222222211111,,,,,,,,::::,,,,::::",
";&-&--&-;&--;;;-;-&;-&&&;&--;--;-;-&--:-;--:-;--;;;-;-&;-&&&;&--;--;-;-&--:-;--:-;--&-;&--;;;-;-&;-&&&;&--;--;-;-&--:-;--:-;--;-",
"&---&-;&-&;&-&--;---&&--&-&-;&;-;-;--&;:-;--:;-:-&--;---&&--&-&-;&;-;-;--&;:-;--:;-:;&-&;&-&--;---&&--&-&-;&;-;-;--&;:-;--:;-:--",
"-&&--&;%&-&--;----;;%-&&&-;-&--&-;;-&-;-:;-:-&:--;----;;%-&&&-;-&--&-;;-&-;-:;-:-&:-;%&-&--;----;;%-&&&-;-&--&-;;-&-;-:;-:-&:---",
"&--%&-%-%&-&--&:%-;&-%&-&-&&&-&--&;;---;&-;&-:-&--&:%-;&-%&-&-&&&-&--&;;---;&-;&-:-&%-%&-&--&:%-;&-%&-&-&&&-&--&;;---;&-;&-:-&;-",
"&&;--&&;&&&&%----&-&%-&%&&-&%--;--&-&-;&-&-&&-&-%----&-&%-&%&&-&%--;--&-&-;&-&-&&-&-&;&&&&%----&-&%-&%&&-&%--;--&-&-;&-&-&&-&---",
"%---&%%&-%--&-%:&&-&&-&&&-&&-%-&-&-&-;&-&;&-&--&&-%:&&-&&-&&&-&&-%-&-&-&-;&-&;&-&--&%&-%--&-%:&&-&&-&&&-&&-%-&-&-&-;&-&;&-&--&--",
"--%&%&&--&%%&&&&&&-;&--%&&&&&-%&-&&-&&;&-%-%&&&-&&&&&&-;&--%&&&&&-%&-&&-&&;&-%-%&&&-&--&%%&&&&&&-;&--%&&&&&-%&-&&-&&;&-%-%&&&-:-",
"&%-%&%--&&&%&--%%&-%&;-&%-&;-&-%&-&&&&&%%&&-%&-&&--%%&-%&;-&%-&;-&-%&-&&&&&%%&&-%&-&--&&&%&--%%&-%&;-&%-&;-&-%&-&&&&&%%&&-%&-&--",
"oooooooooooooooooooooooooooooooooooooooooooooooooooooooooooooooooooooooooooooooooooooooooooooooooooooooooooooooooooooooooooooooo",
"oooooooooooooooooooooooooooooooooooooooooooooooooooooooooooooooooooooooooooooooooooooooooooooooooooooooooooooooooooooooooooooooo",
"OOOOOOOOOOOOOOOOOOOOOOOOOOOOOOOOOOOOOOOOOOOOOOOOOOOOOOOOOOOOOOOOOOOOOOOOOOOOOOOOOOOOOOOOOOOOOOOOOOOOOOOOOOOOOOOOOOOOOOOOOOOOOOOO",
"O$$$$$$$$$$$$$$$$$$$$$$$$$$$$$$$$$$$$$$$$$$$$$$$$$$$$$$$$$$$$$$$$$$$$$$$$$$$$$$$$$$$$$$$$$$$$$$$$$$$$$$$$$$$$$$$$$$$$$$$$$$$$$$$",
"$$$$$$$$$$$$$$$$$$$$$$$$$$$$$$$$$$$$$$$$$$$$$$$$$$$$$$$$$$$$$$$$$$$$$$$$$$$$$$$$$$$$$$$$$$$$$$$$$$$$$$$$$$$$$$$$$$$$$$$$$$$$$$$$",
"$$$$$$$$$$$$$$$$$$$$$$$$$$$$$$$$$$$$$$$$$$$$$$$$$$$$$$$$$$%&============&%$$$$$$$$$$$$$$$$$$$$$$$$$$$$$$$$$$$$$$$$$$$$$$$$$$$$$$",
"$$$$$$$$$$$$$$$$$$$$$$$$$$$$$$$$$$$$$$$$$$$$$$$$$$$$$$$$$=:><2267777622<>:=$$$$$$$$$$$$$$$$$$$$$$$$$$$$$$$$$$$$$$$$$$$$$$$$$$$$$",
"$$$$$$$$$$$$$$$$$$$$$$$$$$$$$$$$$$$$$$$$$$$$$$$$$$$$$$$$==:><2689999862<>:==$$$$$$$$$$$$$$$$$$$$$$$$$$$$$$$$$$$$$$$$$$$$$$$$$$$$",
"$$$$$$$$$$$$$$$$$$$$$$$$$$$$$$$$$$$$$$$$$$$$$$$$$$$$$$%&==:<226788887622<:==&$$$$$$$$$$$$$$$$$$$$$$$$$$$$$$$$$$$$$$$$$$$$$$$$$$$",
"$$$$$$$$$$$$$$$$$$$$$$$$$$$$$$$$$$$$$$$$$$$$$$$$$$$$$%&&==:<235677776532<:==&%%$$$$$$$$$$$$$$$$$$$$$$$$$$$$$$$$$$$$$$$$$$$$$$$$$",
"$$$$$$$$$$$$$$$$$$$$$$$$$$$$$$$$$$$$$$$$$$$$$$$$$$$$%&&&==:<333566665333<:==&&%$$$$$$$$$$$$$$$$$$$$$$$$$$$$$$$$$$$$$$$$$$$$$$$$$",
"$$$$$$$$$$$$$$$$$$$$$$$$$$$$$$$$$$$$$$$$$$$$$$$$$$$$%&&&==:33333555533333<==&&&$$$$$$$$$$$$$$$$$$$$$$$$$$$$$$$$$$$$$$$$$$$$$$$$$",
"$$$$$$$$$$$$$$$$$$$$$$$$$$$$$$$$$$$$$$$$$$$$$$$$$$$$%=&&*:<33333333333333<:*&&=%$$$$$$$$$$$$$$$$$$$$$$$$$$$$$$$$$$$$$$$$$$$$$$$$",
"$$$$$$$$$$$$$$$$$$$$$$$$$$$$$$$$$$$$$$$$$$$$$$$$$$$$%=&=:<3333333333333333<:=&=%$$$$$$$$$$$$$$$$$$$$$$$$$$$$$$$$$$$$$$$$$$$$$$$$",
"$$$$$$$$$$$$$#7654$$$#7765544444222#$$$$$$$$$$$$$$$$%&&=:<3333333333333333<:=&&%$$$$$$$$$$$$$$$$7654#$$#7765544444222#$$$$$$$$$$",
"$$$$$$$$$$$$$#6;;-#$$#6;;;;;;;:;;::#$$$$$$$$$$$$$$$$%%&&:<3333333333333333<:&&%%$$$$$$$$$$$$$$$$6;;-#$$#6;;;;;;;:;;::#$$$$$$$$$$",
"$$$$$$$$$$$$$#5;-:#$$#5;;;;;;-;;;;:#$$$$$$$$$$$$$$$+%%%$:<4333333333333334<:$%%%+$$$$$$$$$$$$$$$5;-:#$$#5;;;;;;-;;;;:#$$$$$$$$$$",
"$$$$$$$$$$$$$#4;;-#$$#5::;&&&=&&&&&#$$$$$$$$$$$$$$$++$$#:<2333333333333332<:#$$++$$$$$$$$$$$$$$$4;;-#$$#5::;&&&=&&&&&#$$$$$$$$$$",
"$$$$$$$$$$$$$#4;;-#$$#5;;;&oooooooo#$$$$$$$$$$$$$$$+++#@>522222443344222225>@#+++$$$$$$$$$$$$$$$4;;-#$$#5;;;&oooooooo#$$$$$$$$$$",
"$$$$$$$$$$$$$#4;;-#$$#5;;-&OOOOOOOO#$$$$$$$$$$$$$$$+@@;>5551111<2222<1111555>;@@+$$$$$$$$$$$$$$$4;;-#$$#5;;-&OOOOOOOO$$$$$$$$$$$",
"$$$$$$$$$$$$$#4;;-#$$#4;-;=$$$$$$$$$$$$$$$$$$$$$$$$.@;25;&##*::::,,::::*##&;52;@.$$$$$$$$$$$$$$$4;;-#$$$4;-;=#$$$$$$$$$$$$$$$$$$",
"$$$$$$$$$$$$$#4;-:56652:;::2244442>#$$$$$$$$$$$$$$$.$>2*    .@@%%%%%%@@.    *2>$.$$$$$$$$$$$$$$$4;-:56652:;::2244442>#$$$$$$$$$$",
"$$$$$$$$$$$$$#3;;-;:;::;;;;;;;;;;;-#$$$$$$$$$$$$$$$.&12+       @$%%$@       +21&.$$$$$$$$$$$$$$$3;;-;:;::;;;;;;;;;;;-#$$$$$$$$$$",
"$$$$$$$$$$$$$#3;:::;;::;;;;;;-;-;::#$$$$$$$$$$$$$$$.&1*+       .#;;#.       +*1&.$$$$$$$$$$$$$$$3;:::;;::;;;;;;-;-;::#$$$$$$$$$$",
"$$$$$$$$$$$$$#>&=&=&&&=;-;%%$#$&-:-#$$$$$$$$$$$$$$$.%1*++      .#>>#.      ++*1%.$$$$$$$$$$$$$$$>&=&=&&&=;-;%%$#$&-:-#$$$$$$$$$$",
"$$$$$$$$$$$$$#oooooooo&-;;&oooO,;::#$$$$$$$$$$$$$$$.%1*++.....+$>44>$+.....++*1%.$$$$$$$$$$$$$$$oooooooo&-;;&oooO,;::#$$$$$$$$$$",
"$$$$$$$$$$$$$#OOOOOOOO&-;;&OOOO3;::#$$$$$$$$$$$$$$.&;5;*++++@$*;%oo%;*$@++++*;5;&.$$$$$$$$$$$$$$OOOOOOOO&-;;&OOOO3;::#$$$$$$$$$$",
"$$$$$$$$$$$$$$$$$$$$$#&;;;&#$$#4:;-#$$$$$$$$$$$$$$.#=451111>*%%%=oo=%%%*>111154=#.$$$$$$$$$$$$$$$$$$$$$#&;;;&#$$#4:;-#$$$$$$$$$$",
"$$$$$$$$$$$$$#16765441&;::&#$$#5;;-#$$$$$$$$$$$$$$.%&>=;>>>=*%%%@  @%%%*=>>>;=>&%.$$$$$$$$$$$$$$16765441&;::&#$$#5;;-#$$$$$$$$$$",
"$$$$$$$$$$$$$#:;;;;:;;;;;;&#$$#5;;;#$$$$$$$$$$$$$$.@%>====&%#%%@X  X@%%#%&====>%@.$$$$$$$$$$$$$$:;;;;:;;;;;;&#$$#5;;;#$$$$$$$$$$",
"$$$$$$$$$$$$$#::;;:;;;;;;;&#$$#4:;-#$$$$$$$$$$$$$$..@>==%%#@@;:XX  XX:;@@#%%==>@..$$$$$$$$$$$$$$::;;:;;;;;;;&#$$#4:;-#$$$$$$$$$$",
"$$$$$$$$$$$$$#=&&&&&&&%&%&%#$$#2::;#$$$$$$$$$$$$$$+......@@@%;:Xo  oX:;%@@@......+$$$$$$$$$$$$$$=&&&&&&&%&%&%#$$#2::;#$$$$$$$$$$",
"$$$$$$$$$$$$$#ooooooooooooo#$$#oooo#$$$$$$$$$$$$$$$+......@&%;:=X  X=:;%&@......+$$$$$$$$$$$$$$$ooooooooooooo#$$#oooo#$$$$$$$$$$",
"$$$$$$$$$$$$$#OOOOOOOOOOOOO#$$#OOOO#$$$$$$$$$$$$$$$$+.....$&%;:>;11;>:;%&$.....+$$$$$$$$$$$$$$$$OOOOOOOOOOOOO#$$#OOOO#$$$$$$$$$$",
"$$$$$$$$$$$$$$$$$$$$$$$$$$$$$$$$$$$$$$$$$$$$$$$$$$$$$+....$;:;><3333<>;:;$....+$$$$$$$$$$$$$$$$$$$$$$$$$$$$$$$$$$$$$$$$$$$$$$$$$",
"$$$$$$$$$$$$$$$$$$$$$$$$$$$$$$$$$$$$$$$$$$$$$$$$$$$$$$+...$+;;;,1331,;;;+....+$$$$$$$$$$$$$$$$$$$$$$$$$$$$$$$$$$$$$$$$$$$$$$$$$$",
"$$$$$$$$$$$$$$$$$$$$$$$$$$$$$$$$$$$$$$$$$$$$$$$$$$$$$$+...+.#$$.;$$;.$$#.....+$$$$$$$$$$$$$$$$$$$$$$$$$$$$$$$$$$$$$$$$$$$$$$$$$$",
"$$$$$$$$$$$$$$$$$$$$$$$$$$$$$$$$$$$$$$$$$$$$$$$$$$$$$$+......................+$$$$$$$$$$$$$$$$$$$$$$$$$$$$$$$$$$$$$$$$$$$$$$$$$$",
"$$$$$$$$$$$$$$$$$$$$$$$$$$$$$$$$$$$$$$$$$$$$$$$$$$$$$$$@....................@$$$$$$$$$$$$$$$$$$$$$$$$$$$$$$$$$$$$$$$$$$$$$$$$$$$",
"$$$$$$$$$$$$$$$$$$$$$$$$$$$$$$$$$$$$$$$$$$$$$$$$$$$$$$$$$$$@+..........+@$$$$$$$$$$$$$$$$$$$$$$$$$$$$$$$$$$$$$$$$$$$$$$$$$$$$$$$",
"$$$$$$$$$$$$$$$$$$$$$$$$$$$$$$$$$$$$$$$$$$$$$$$$$$$$$$$$$$$$$$$$$$$$$$$$$$$$$$$$$$$$$$$$$$$$$$$$$$$$$$$$$$$$$$$$$$$$$$$$$$$$$$$$",
"$$$$$$$$$$$$$$$$$$$$$$$$$$$$$$$$$$$$$$$$$$$$$$$$$$$$$$$$$$$$$$$$$$$$$$$$$$$$$$$$$$$$$$$$$$$$$$$$$$$$$$$$$$$$$$$$$$$$$$$$$$$$$$$$",
"$$$$$$$$$$$$$$$$$$$$$$$$$$$$$$$$$$$$$$$$$$$$$$$$$$$$$$$$$$$$$$$$$$$$$$$$$$$$$$$$$$$$$$$$$$$$$$$$$$$$$$$$$$$$$$$$$$$$$$$$$$$$$$$$",
"$$$$$$$$$$$$$$$$$$$$$$$$$$$$$$$$$$$$$$$$$$$$$$$$$$$$$$$$$$$$$$$$$$$$$$$$$$$$$$$$$$$$$$$$$$$$$$$$$$$$$$$$$$$$$$$$$$$$$$$$$$$$$$$$",
"::::::,,,,::::,,,,,,11111111111111111111222222221111222222222111,,,,1111222222222111111111111122222222211111,,,,,,,,::::,,,,::::",
";&-&--&-;&--;;;-;-&;-&&&;&--;--;-;-&--:-;--:-;--;;;-;-&;-&&&;&--;--;-;-&--:-;--:-;--&-;&--;;;-;-&;-&&&;&--;--;-;-&--:-;--:-;--;-",
"&---&-;&-&;&-&--;---&&--&-&-;&;-;-;--&;:-;--:;-:-&--;---&&--&-&-;&;-;-;--&;:-;--:;-:;&-&;&-&--;---&&--&-&-;&;-;-;--&;:-;--:;-:--",
"-&&--&;%&-&--;----;;%-&&&-;-&--&-;;-&-;-:;-:-&:--;----;;%-&&&-;-&--&-;;-&-;-:;-:-&:-;%&-&--;----;;%-&&&-;-&--&-;;-&-;-:;-:-&:---",
"&--%&-%-%&-&--&:%-;&-%&-&-&&&-&--&;;---;&-;&-:-&--&:%-;&-%&-&-&&&-&--&;;---;&-;&-:-&%-%&-&--&:%-;&-%&-&-&&&-&--&;;---;&-;&-:-&;-",
"&&;--&&;&&&&%----&-&%-&%&&-&%--;--&-&-;&-&-&&-&-%----&-&%-&%&&-&%--;--&-&-;&-&-&&-&-&;&&&&%----&-&%-&%&&-&%--;--&-&-;&-&-&&-&---",
"%---&%%&-%--&-%:&&-&&-&&&-&&-%-&-&-&-;&-&;&-&--&&-%:&&-&&-&&&-&&-%-&-&-&-;&-&;&-&--&%&-%--&-%:&&-&&-&&&-&&-%-&-&-&-;&-&;&-&--&--",
"--%&%&&--&%%&&&&&&-;&--%&&&&&-%&-&&-&&;&-%-%&&&-&&&&&&-;&--%&&&&&-%&-&&-&&;&-%-%&&&-&--&%%&&&&&&-;&--%&&&&&-%&-&&-&&;&-%-%&&&-:-",
"&%-%&%--&&&%&--%%&-%&;-&%-&;-&-%&-&&&&&%%&&-%&-&&--%%&-%&;-&%-&;-&-%&-&&&&&%%&&-%&-&--&&&%&--%%&-%&;-&%-&;-&-%&-&&&&&%%&&-%&-&--",
"OOOOOOOOOOOOOOOOOOOOOOOOOOOOOOOOOOOOOOOOOOOOOOOOOOOOOOOOOOOOOOOOOOOOOOOOOOOOOOOOOOOOOOOOOOOOOOOOOOOOOOOOOOOOOOOOOOOOOOOOOOOOOOOO",
"%%&&&&&&%&&&&%%%%%&&%%&&&$$$@@@@@@@$%%&&&&%%%&&%&&&&&%%&&&&&&%%%%&&&&&&&&%%&&&&%%%%%%&&&&$$$@@@@@@@$%%&&&&%%%%&&&&&&%%%&&&&%%%%%",
":::;::;;;:;;;;;:;;;:::;;;;;-&%%$$$%&-;;;;::;;;:;;;:;;;;;:;;;:;;::::;::;:;:;;;:;:;;;::::;::;-&%%$$$%&-;;;;::;;;:;;;:;;;;;;:::;;;;",
",<,,,<,,,<,<:,,<,,,<,,,<,,,;-&&%%&&-;,,,,,,,,,,,,,,,,,,,<,<<,,<,,<,,,<,,,<,<:,,<,,,<,,,<,,,;-&&%%&&-;:,,,,,,,,,,,,,,,,,,:,,,,,,,",
";:---:;;-:-:-;;:;-;:;-;:--;:;-&%%&-:<2<,,,<<,,,,,,,,,,,,,:::::::::::::::::::::::::::::::::;:;-&%%&-:<2<,<<22<<<,,<,<,<<,<,<<,,<,",
":-;;-::::;--:-;-::-:;:-;;;;-:-&&&-;<2:,:::,::::--:;:;::;::;;;;:;:;;;;::::;--:-;-::-:;:-;;;;-:-&&&-;<2,,:::,::::--:;:;::;:-::;;:;",
"-;-;-:;;;--;-;;-;-;;;-:--;--:-&%&-:<:;:;-;-:::;::-;--;-:;----:;--;-;-:;;;--;-;;-;-;;;-:--;--:-&%&-:<,::;-;-:::;::-;--;-:;:;---;-",
":-:-;:-;--;;;-;;---:-&:-;-;;:&&%%&;,-:;;-:;;:;;--:;;::-;--;:;-&;:-:-;:-;--;;;-;;---:-&:-;-;;:&&%%&;,::;;-:;;:;;--:;;::-;;----:;-",
"::;;:;:-:;;----:--;-;-:;-;;;:&%$%&;::--;:-;-;-;;;;:----;;;-:--;-::;;:;:-:;;----:--;-;-:;-;;;:&%$%&;::--;:-;-;-;;;;:----;--;:;-&;",
"-;-;;;--;---;-;---;;-;;;&;-;:-%$%&:<;;;-;:&-;;:;;;:--;&---;::--:-;-;;;--;---;-;---;;-;;;&;-;:-%$%&:<;;;-;:&-;;:;;;:--;&-;;-:--;-",
";-;&;-;;--;-;-;-;-:;-;&;--;&:-%$%&:,;;--;:;------;;-:-:-;;;-&;-;;-;&;-;;--;-;-;-;-:;-;&;--;&:-%$%&:,;;--;:;------;;-:-:---;::--:",
";:--&;&-;;-;-;-;----;;----&-:&%$%&;:;;;&;-;;&;-&;-;&;-&--&---;&-;:--&;&-;;-;-;-;----;;----&-:&%$%&;:;;;&;-;;&;-&;-;&;-&-;;;-&;-;",
"--;--;-;-&--:-;--:-;---;;--&:&%$%&;:;&-;&-&--&;---&-;&--&;-&&&;&--;--;-;-&--:-;--:-;---;;--&:&%$%&;:;&-;&-&--&;---&-;&---&---;&-",
"&-;&;-;-;--&;:-;--:;-:&:--;&:&%$%&::--;&-&--&-;&--;;;-;---&&--&-&-;&;-;-;--&;:-;--:;-:&:--;&:&%$%&::--;&-&--&-;&--;;;-;-&;-&&&;&",
";-&--&-;;-&-;-:;-:-&:-;-&-&&:&%$%&;---&---&-;&-&;&-&--;-;;%-&&&-;-&--&-;;-&-;-:;-:-&:-;-&-&&:&%$%&;---&---&-;&-&;&-&--;---&&--&-",
"&&&-&--&;;---;&-;&-:-&-&-&;-:%%$%&:-;&-&&--&;%&-&--;----;&-%&-&-&&&-&--&;;---;&-;&-:-&-&-&;-:%%$%&:-;&-&&--&;%&-&--;----;;%-&&&-",
"-&%--;--&-&-;&-&-&&-&-&-&&&-:&%$%&;---&--%&-%-%&-&--&:%--&%-&%&&-&%--;--&-&-;&-&-&&-&-&-&&&-:&%$%&;---&--%&-%-%&-&--&:%-;&-%&-&-",
"&&-%-&-&-&-;&-&;&-&--&-&-%%&:-$$%&:;;;&&;--&&;&&&&%----&-&&-&&&-&&-%-&-&-&-;&-&;&-&--&-&-%%&:-$$%&:;;;&&;--&&;&&&&%----&-&%-&%&&",
"&&&-%&-&&-&&;&-%-%&&&-%-%&--:&$$%&;:--%---&%%&-%--&-%:&&-;&--%&&&&&-%&-&&-&&;&-%-%&&&-%-%&--:&$$%&;:--%---&%%&-%--&-%:&&-&&-&&&-",
"&;-&-%&-&&&&&%%&&-%&-&-&&&-%:%$$%&:-&%--%&%&&--&%%&&&&&&-%&;-&%-&;-&-%&-&&&&&%%&&-%&-&-&&&-%:%$$%&:-&%--%&%&&--&%%&&&&&&-;&--%&&",
"-&%-%%&&%%&%%&&%&&&&-&&%%&&--%$$%&:---&%-%&%--&&&%&--%%&%&%-%-&%-&%-%%&&%%&%%&&%&&&&-&&%%&&--%$$%&:---&%-%&%--&&&%&--%%&-%&;-&%-",
"%-%%%&%%-%%&-%%%%-&%&%&%&%%--%$$%&;-&%%-%%&%%&-&%;-%--&&&%-&-%&-%-%%%&%%-%%&-%%%%-&%&%&%&%%--%$$%&;-&%%-%%&%%&-&%;-%--&&%&%-%-&%",
"%%&%&&-&&&-%-%&&%%&%&%&%&&%%;%#$%&;--&&&&%-&&%&%%%&&%&&%&-&%&%&-%%&%&&-&&&-%-%&&%%&%&%&%&&%%;%#$%&;--&&&&%-&&%&%%%&&%&&%&-&%&%&-",
"-%%%&%%-%%&-%%%%-&%&%&%&%%&&-%$$%&;:&&%&&-&%&%%&&%%%-%%&%-&-%&-%-%%%&%%-%%&-%%%%-&%&%&%&%%&&-%$$%&;:&&%&&-&%&%%&&%%%-%%&%-&-%&-%",
"%&&%%&&%%%%&&%%%%&&%&&-&%%%&;%#$%&;--$&%$%%%%&%&&&-%&%%%%&%%&%&&%&&%%&&%%%%&&%%%%&&%&&-&%%%&;%#$%&;--$&%$%%%%&%&&&-%&%%%%&%%&%&&",
"&%%%&%&%&&%&%&&&%%%%-%&%%%&%-%$$%&;:%%%$%%$$%%$$%%&%&$%%%%%&%&%%&%%%&%&%&&%&%&&&%%%%-%&%%%&%-%$$%&;:%%%$%%$$%%$$%%&%&$%%%%%&%&%%",
"%%&%&&%%%&&%%%%&&%&%&-%%%%%%&%$$%&;:&&%%$$%%$&$&$$&%$&$&%%$%&%$%%%&%&&%%%&&%%%%&&%&%&-%%%%%%&%$$%&;:&&%%$$%%$&$&$$&%$&$&%%$%&%$%",
"%$%%%&$%%%$%%$$%&%%&%%%&%$%%&%$$%&-;%&&$$%$$&$%$$%$$%$%%$%%$%$&$%$%%%&$%%%$%%$$%&%%&%%%&%$%%&%$$%&-;%&&$$%$$&$%$$%$$%$%%$%%$%$&$",
"%$%$%$##$$%$#%$##%$#$%$%$%%%$%#$%&--&$$%$%$$%$%$$$$$$%$$%$$%$%$$%$%$%$##$$%$#%$##%$#$%$%$%%%$%#$%&--&$$%$%$$%$%$$$$$$%$$%$$%$%$$",
"#####@@####@##@@##@#######$#$##$%&&-%$#$##############################@@####@##@@##@######$$$##$%&&-%$##@@##$##$#$######$##$####",
"#####################@@@@@@@@@#$%&&&$#@@@@@@@########################################@@@@@@@@@#$%&&&$#@@@@@@@###################",
"O@@@@@@@@@@@@@@@@@@@@@@@@@@@##$$%&&%$#@@@@@@@@@@@@@@@@@@@@@@@@@@@@@@@@@@@@@@@@@@@@@@@@@@@@@@@#$$%&&%$#@@@@@@@@@@@@@@@@@@@@@@@@@@",
"############################$$$$%&&%%$######################################################$$$$%&&%%$##########################",
"-%%%%%%%%%%%%%%%%%%%%%%%%%%%%%%%%%%%%%%%%%%%%%%%%%%%%%%%%%%%%%%%%%%%%%%%%%%%%%%%%%%%%%%%%%%%%%%%%%%%%%%%%%%%%%%%%%%%%%%%%%%%%%%%"
};
