/* XPM */
static char *_4_Wolfenstein3DWalls1735817069[] = {
/* columns rows colors chars-per-pixel */
"128 128 12 1 ",
"  c #2F2F2F",
". c gray20",
"X c #373737",
"o c gray23",
"O c #434343",
"+ c #4B4B4B",
"@ c gray34",
"# c #5B5B5B",
"$ c #676767",
"% c gray45",
"& c gray50",
"* c gray56",
/* pixels */
"$$@@OOO+++OOOoooooooOO@@@$$%%$$@@+oO+@%%%%@@+++@###$###++++++@$$$$@@@$&&%%&%$#@+O+++++@@#$$$$#$$$$#@+@@#$$$$%%$$$$%&%%$$@@@@@@$$",
"%%$++++@@@@@@@+OOoOO+@@$%%%%$%$##@++@%&&%$#@@@##$###$##$+++++$%%%%$@@$%%#$%$@@+OO++OO+@@#$$$###$@@@++@@#$%%&&&%$$$%%%%$%$$@@@$%%",
"&&$+@@@@$$$$$$@+@+++o+@%$&&%%$####@@@%&&@@#++##$#$$$$$$$##@@$%&&&&$@@$###$#@+OO+@++OO+@###$@@@@#@++++@#$%%&**%%%%%$$%%%$%$%@@%&&",
"%$@O@@%%%%%$$$$$$@@@+@$%%&&&*&$@##O@@%%%@#@++$$%$%%%$%@$$$@@$%&%%$@@@@@@@@@+O+@@@@+++@@##@#@+OO@@++O@#$$%&&*%$$&&%$$%$$##%$@@%&%",
"$@+O@%%%%%%%%$@$$@+@@@%%$%@@&O+@++o@+@$$#@++#$@$%%%%%$#@@$#@@%%&$@+@@@++OOOO+@@#$$$$$$#@@@+++OO++OOo@$$$%%&&$%%*&%%%$$#@@##$@%%&",
"@+Oo$%&&$$%$%$$@@@++@+%&%$#$@+@+Ooo@@+@++++$%%$%%&&$$$$#+@$#@$%$@+O@#@@+++++@#$$%$%$%$$$#@@@+++++Oo@#$%%$%&%%$%&&%%%%#@@++@#@$%$",
"Oooo$%&&$$$%$%$$@+OO@@$%$$&$$$+Ooo+@@@@@+##%%$%$%&&%$#$$$@@#+O@@Ooo@@#@@@@@@#$$%$&&%$%@@$#@@@@@@@@@@#%&&$%%%$%%%$%&%$#@@+++@@O@@",
"oo@$$%%%$%%%$$%$+Ooo+@+O##$@$&+oo+@@+@++@##$$$%#$%%$#%%#+$$@+OOooo@###@#@@@#$%$$&**&%#++@$#@##$$$#@@$%&&$$%$%$$$$&*&$$$#@+++@OOo",
"@@$$$%%%%&&%$%%$+OooO@+oO+@++@Ooo@@@@@++@##$%%$%%$%&&%#@$@@@@+@@@@$$$##@##@$$$%%&**&&##+@##@#$%&%$+@$$%%$###$#@@$%&%#@#$##++++@@",
"@$%%%%$%%&&&%$$$@+OOo@@+OooOO+oo+@%%$#@@@#$#$$%##$$&&%%$$@@O+O++@$%$#@+@###$$%%&%$&*&%##%##@#$&*&#+@$$$$$#@@#@++@#$$@+@#%%+++O++",
"$$%%&&&%%$&&%@@@@@@+o++@@+ooooo+@%%&%$#@+$#@+%$$@#$%%$$$+O@@OOO@$%&&@+@O@@$$##$%$%%&%$%%%$##@#%&%@+@$$$$#@@+@@++++#$@@#$%%$++OO@",
"$$%%&&&&%$%%%%%$@++Oo@++@@@@@@$%%&&&&$#@@#$%@%$%%$#$%$+@++@O+oo@$$%$#@+O@#$%#+$$%$#$$%%&%$##@+#++@+@#$$$#@++@#@+@@#$$##$$$@++oo@",
"@$$%%&&&%$$$$%%%$Oooo@@$%%%%%&%&&&&&&$$@@#+@#$$%$$$$$@@+#@++Ooo@@$$$$OOO@#$&&%$###@#$###$$$#+@@+o++@@#$$#@O+@$$#+O@%@@++@@@++oo@",
"@+$$$$&&%%%$$$$%$OooO@@%&%&&&&&%&*&%&%$#@#@+@@####+++@@@@OO++Oo@@+$$@++O#$%*&%$@@##$#@@@@@#@+@++++@@@@++@OO+#$$#++@$$++++@++OOo@",
"+@++$$$%$%%$@@$$$@O++@%&%**&&&%&%&&&%%$#@+#@+++@+##oo++O+OO++OO++@+O++O+#$%&&$#@+@$%@@+++@+@+@@@@@@@@@++@oo@@$$@@@#%$+++@+++OOO+",
"@@@@+++$$%%@@++++O@@@$%%&*%%&&%%%%&%&%$#@+@@+O+@@#@++@+++++OOoo@@@+OOOO+#$$%$$#@@#$$@++O++@@@@@@#$$#@+O+OooO+++@++@+@+OO+++Oooo@",
"@++@@++@OO@@++@++@#$%%%&&&%&&&&&$%%$$$%$++++++++O+OoooOoOOOoOoO@@++++++@#$$####$$$$$#@+XO++++@@$&&$$@+OOoooOOO+OO+@++OOOO+OoooO@",
"@@@@+@+Ooo++++OOO@#$%%&&*&&&%%&%%$$%%$#@+@+OOO+@@OoOOooOoOOOoo+@@+@@@@@@#$#@@@@@#$#@@@++OXXO+@#$%%$$+@OOOOOOOOOOO@++OOooooooOo+@",
"$%%$#@@oooOO@@Ooo#$$%%%&&&&%%%%&%$#@$#@@+@@ooO+@+OoOOoooooooo+@$$%%$$$@+@##@++++@#@+++@++XXO@##$$$#++o@++OoooooOO+++oooooooo++@$",
"%%%%&$@+oooO++Ooo#$$%&%&%&%&%$$%%$@#%@+@+O@+OOO+OOoooOoO++++@@$%%%%$$$$@++@+OOO+@@@+++++OOO+$$$$#@@#+o@@@++OoooOOO+oooOOO++@@@$%",
"&&%$$&$@@+oO+OOO@#$%%%&%%%%%%$$%%$$%%@@@oO+@+OoOoOoOooO+++@@@@$&&&%%%%%$++@OXXO+++@@@++OOO+@$%%$@@@+o+@++@+++oooOOoooo+@@@@@@@$&",
"%&&$$@+$@@@OOOO@@@#%%&%&%$$%%%%$$###@+@+oo+@@+OoooOoOO+++@@@@$&%%&&%&&%$@@@OXXOOO+++++OOO+@$$%&$$#+oo++OO++@@+ooooooo+@@#$$$$$&%",
"$%&%%$@+@+@@@@@@+@#%%%&%$$#$%%$#+@@@++OO O@+@@++Ooooo++++@@@$&%$$%&%&&%+O@+++@+++OOOOO++@@#$$%%@@+ooO@+OO++@@@+ooooO@@@#$$%&&&%$",
"$&&&%@+++@@@$$@+@@@$%%%%$#@##$$@@+o$+oO+O+@@@+@@@+ooO@+o@#$$&&%$$&&%$%@@O+++O++@@+OO++@++++#$$@+@OoO+@@+++@@##@+++++@@#$$$&*&&%$",
"%&%%&+OO+@+$%%%$++@@$%%$$$##@##+$@++oOO+@@@##$$#@@@@@+oo+#$%&%&%%&%%$$@@oO@+++@$$$$%$$@++@++#@@@+oO+@####@@@##$&%$@+O@$$%%&&&%&%",
"&&%$%+Ooo@++%$$@$++@$$@$##$$##@@O+oOOO++@@$$%%%$$$#@+@++@$%&&&%&&&%$@+++o+@@@$$%%&&$$%$@@++OO++OoO+@#$$$$##@@@$%%@@+O@$%&&&%%&%&",
"&&&&%@Ooo++%%%%@%@+@@$$$@##@$$#+oOOOO+@+$%%%%%##$$#$@@@+@$%&%&&&&&&@+OO+O+@@$$%$&**&%$$%@@@Ooooo++#$$$$$$$$$#@@$+@@+O#$%&*%$%&&&",
"&%&&%$+OO+$$%%++++OO@@##@@@++$#+oOO+@@@$%%%$%$%%%%%#$#@@@#$%$%&&&%&@+OooO+@$$%&*&**&%%$$$@+@++++@#@@$%%%$$%%$$@@OOOO@$$$%%$$$%&&",
"%$%%+OooO++@$$+O+ooO@@+@@@@++#@oOO+@@@#$&&&%%%%%%#%@##@@+@$%&$$%%$%@+OoX.@$$%$&&@@&%$$%$$@@+++@@#$@@$%&%%%&%$$$$@OO@#$%$$$#@@$$%",
"+@$$+Ooo@@+$++@++oo@@@@+@+@@@+@OO+@@@@$&&&&&%%%&%%$#@##@@@#$%$$@+@$$@+OXO$$$##%%@@%$%##$#++++@#$$$%$$$$&&&%&%#$$$@@@#$$$#@#@@$$@",
"OO+@@+OO@@++++@++OO@++@@+++++OOoO+@@@#%&&&&&&%&%%$$#%$@#+@@#$%$+OO+@@+Oo@$$%%#$$##$$#@@#+O@+O#$%$%$$#%%&*&%&%$$$$$@@#$$@@++@#+++",
"ooO++O++@@@+OO+O++@@++@@@+++OoOO+@@@#$&&&&&&%&%%%%$%$@@+O+@@$$@+ooO++OO+$$%*&%$#@@#$@++OOo@++$$$$%$%%%@@%%&%$##%%$$@@##@+++#+O@+",
"ooOOO+@@+@@@OOO@@@@+@@@+@@@@+O+++@@#$%&&%$%%$%%%$##$@@@+OO+@@@++ooOOOO+@$$%&&%$@++@@@+Ooo+@@#$$%%%%$%%@@$$%%$#$%%$$@@@#@@O@+OoO+",
"@@@@@@@+@@+@@@@@@#$####@@@+@$$@@+#$%$%%%$#%#$$%&%#++##++OO+@@@@@@@+++@@@##$%%$#+Oo+@#@+o+@@#$$%&&%&%&%%&%#$$$#$%%#$++@@+++OOO@@@",
"%%$@@@$$++@+@@####$##$####@$@++@+$%&%$%%%%&%##$%#@++##+O+O+@@$%%%%$$##@@+@#@@$#+++@#$#@o+@#$$%%&&$%&&&&&%$#@+@$$#$#++@@@@++++$%%",
"&&%%$@$$+o+@##$%%%#%%&&$$##$+o+@#$%%@##$%&&%#@#$@#@++OOOOO+@$%&&&&%$$##@++@++@$#@@#%%$++@#$$$$%%$$&&**&%&%#++@##$#@#+@@++@@@@%&&",
"&&%$$$@@++@@#$&&%#$%&**&&$##+@@@##$#@@@#%%#$%#$#@@@++++O+O+$%&&&&&%$$$##@OOO+@$@@#$$#@+@#$$%%%@$$$%&**%&%%$+++$$####++@++$$$$&&&",
"%&%##@@@@@+@#%&**&#$&*&%&%$$##@+@##@@+$$#$$$%$$@++@+O++oOO@$&&&%%&%$%&$#@OoO@#@++@@@+o$#$$%%%%%#@@%%&&&%%%$%$%$%+@##++@$%&%$$&&%",
"%&$#@++@@@@#$%&**&%%&&&&&$%$$##@@###@$%$##%%%#@+O+@+OOOOO@$%&%&%%&$#%%##++OO+@@OO+Oooo@$$%&&%$%#@@$%&&%$#$%&%$%$+++@@+@$%%%#$%&%",
"&%$$@O+@+@@#%%%&&$&&%$&%$%$%$%%#++@##@@@####@@@++#@+O+oo+@$%%&%&&%$##@@#++++OOOooOooO+#$$%*&%++#$$%$$%%$#$%&%%#++o++@+@$$$$@$&%&",
"%$#@#@+@@@@$%%$&&%&&%%%%%&%$$%$#@OO@#@+##@##@@+@@@@+OOoO@@$%%%%%%$#$@++@++@++OOooooO+@$$%$%%@++$$##$####$#$%$@@#++OOO+@####@$%%%",
"##++@++@+@#%%%$%%%%$$%$%$%%#$$#$@O++@O+#@#@@#+@@+++++++o+@@%%$$$##+$@OOO+++++++OOOO+@#$%$%$%$%$$#@#++#@@@#$$$++##+Ooo+@@++@@@$$$",
"OO++Oo+@@@$$$%&&%#$##$&&&$##$%$$@+++++OO@#@@#++++O+@o@@+@+@@++%@OO+$#OXXOO@++@+++++@@$$$%#####$$##$++@++@##@+++##@Ooo+@@+++@@+%@",
"OOO+Oo@@@###$$&&%$&##&&&$%%$$$##@@@$%$+O+++O++OOOO@+@@#$$%$$#@++OOO+++X.OO@@$%$@@@@+@$$##@@@@##%$%%#$$++@@@@++O+OOOOO@++@+@$$@++",
"++++++@+@##$%$%&&%&&&#%&%%$##+++O@$%&&+OOO++OO+OO+@@@#$%&&&%$#@++++++OOOO+@$%*&$$$@@@$$#@@+++@#$%&&%$%@++O+O+O+@OooO+@++@@&&$#@+",
"@@@+++@+@$##$$$&&%$$%%$$%%$#@+++O@$%&@+O++O+OOOO+@@#$$%%%&&%%$#@@@@@@@+++@@$%&%$%&$@$###@+OO+@#$%&*&%$@+OOOOO@@@OooO+@$$$&**&$#@",
"$$#@@@@@@##@##$%%#@@$%##$++$#@+Oo@@#@++@OO+OOO+@@@#$&&&%%%&%%%%%$$####@@@@@$$@@@&&$+$@@#++Oo+@$$%%%%%@@+OoooO@OOoOo+@$$%%&&*&%%%",
"%%%%$$#@@#$#$$%%$+++#$#$#++%+OoXo@@++++@+OOOO+@@@#$%*****&&*&&&&%%%$%$#@@@@$$++@$%$O@@@@++++@#@$$$$$$@##ooooO+Ooooo+$$$%%$&&%&&&",
"@$%%%%$@@###$%%%$+++#$%%%##+#OoO+++@@@@@+@@@@@@@#$%&***&%%&&&&&$@$%%%%$#@@@@@++@$@@O@$++@++@###@#@#@@+##OoooOOOoooO@$$&&&$$$%&&$",
"@$%$$$$$@@##$$%##@@$#$$$%#+++oO@#@$%+@@+++$$$#+@$%%&****%%&&%%$@@$%%%%%$##@O+@@$$@+O@@++@@@@##+++@++OOO+OooooOooO++$%%&**&%%%%$@",
"$%##@@###@@+#$%##@++++@@$$@+Oo+#$$$%%$@@+#%%%$@#$&&%****&&**&%%%$%#$$&%%$#@+O+@@@@O+@@++++@@@@OOO+@+Ooo++OOoooooO@$%$%&**&%%$%%%",
"%%#@@%$@@+@@++$$#@++@@+++#+o+O+@$$%&&%#@#$%$$#@$%**&&&*****&&&&%%%##$%%%%$#@+OOOOOO+@+++OOO+++OooO+++ooOOOOOoooO+@$$%%&&&&$$%&&%",
"&%#@@@##@++@O++#+++@@@++++O+O+@@$$&%%&$@$%%$##@%&**&****%%%&%&**&%##$%&&%%%#@@+OOO++@+++OooO+OOooO++@+oooOooooO++@%%$$%%%@@#$&**",
"$$###%$$#@+@@OO+OoO+++++O+@++@#$$%&%&$@+#$%$#@@%%%*&***&%%%&%&*$$$#$$%&&$%%###@++++++@+++ooooOOOOOOO+OoooooO++++@$%$$$$&&@+#$&*$",
"$%%$%%%$@+++@+@OoXoOOOOoX+@++@$%&%%&%#+O@###@@#%$$%&&**&&%%&%%&$$%%$%%%%$$$$$##+OO+@@@++++ooooooooooOoooOO++OO+@#%&&$$%&&$@@$%&$",
"%%$$%%%$@OO+@@@@+OXXXXXXo+++++$&&%%$#+OO@@+@@@#%$$$&&&&&&&&%%%%%%%$$%%%$$%$##$#@OO@####@@@+OooooooooooOO+@@+OO+#$%&&%$%%%$##$%%%",
"%%$$$$$#@OO+O@o+@+++Xoo+@+o+@+@$$@@@@+OO+@@+@#$$@##$%%%&&*&%$##$%%$#$#$$%%%#@++@@@##$$$$#@@@+OooooooO++@@@O@++@#$%%%$%$$$$%%%##$",
"&$@@###@@+++O@+++@+@@@@@@@+@@@++++++OOO+@@+o+#$$##$%%$%%&&%$#@&&&$$$#$#$%%#@+++@@##$$%$%$$$#@@++OOOO+@#####@@@@#$$$$%$##$$%&%%&&",
"&&%@@#@#@@++o+@+@@$$%%%&&&%$$@@@@+OOOO+@@@@+@#$$#$&&%$$%%%&&%@&&&&%#$##$$%#++OO+##$$%$*&%$%$%#@@+OoO@##$$%$%#@@@##$%$#@@$%%%$$$&",
"&&%%$$##@@++O+@@$$$%&&&&&&&&&%$$@@@@@@@@$$$$@@#$#@$&%$#%$$&&%#$&&&%$#@@##$#+OOo+#$%&$%&&%++%$%##@+O+##%$%$%$$$@@#@#$$@+@$%%$##$&",
"%%%%$@##@@++O@$$$%&&&%%&&&%&&&&$@+@@@@$$%&&$$@@@$#@$$#@%$$####$%%%%$#@@#$$#@Ooo+#$&*%$%%$++##$$$#@@##$$%&&%%++$@@+@##OO+$%$#@#$%",
"%%$$+++@+++OO@$$%&&&&%%%%&&%%%&$$@@+@$$$%&&+++@@###@@@@#$#@@@@#$%%$$@+++##@+O++@#$%&$#$%%##@+@#$$@@#$$%&**%$++$$@++++O.+#$$#@@#$",
"@@$#+++++++O+$$%%$$&%&%$@@$%%$$$$$@@@$&&$$@+@##@@@@##@@@@@+++@%#@@$$@+OO@+OO+++##%$#@@$%$#@@++#$#O##$%$&**%$%%$$@++OO+++@###@@%#",
"+@@@++++++OO@$%%$$$%&%&$@@$$&%$$$+@$$@&$+@@$$$$###$%%$##@@+++@@@+@@$+Ooo@+Oo@@@#$$$#@@#$%#@++@#$#O#$$$$$%%$$$$$$@$+OOOO++++++@@@",
"$$@@@+@@+++++#$$%$%$%%%%#$$$$#$$$$#@+@@#$$$%%%$$$$%&%%$$#@@@@@$$$$@@OOO+++OOO@@##$#$$#@@$$$%%$$@@+@$$@%%%%@#$$#@###$###++++++@$$",
"%%$@++@@+++++@$$%%$$$%$@#$$$###$@@@++@@#$%%&&&%$$$%%%%$%$$#@@$%%%%$++++@@@@@@@@####$%#@$%%%%$%$##@++@%&&%$#@@@##$###$##$+++++$%%",
"&&$@+++++@++++$$%%$%%$$$##$@@@@#@++++@#$%%&**%%%%%$$%%%$%$%#@%&&&&$+@@@@$$$$$$@+@###$#$%$&&%%$####@@@%&&@@#++##$#$$$$$$$##@@$%&&",
"%$@@++++++++O+@$$%$%%$@#$@#@+OO@@++O@#$$%&&*%$$&&%$$%$$##%$#@%&%%$@O@@%%%%%$$$$$$@@@##$%%&&&*&$@##O@@%%%@#@++$$%$%%%$%@$$$@@$%&%",
"$@+@@@++++OO+@@#$$$$$$#@$@+++OO++OOo@$$$%%&&$%%*&%%%$$#@@##$@%%&$@+O@%%%%%%%%$@$$@+@@@%%$%@@&O+@++o@+@$$#@++#$@$%%%%%$#@@$#@@%%&",
"@+O@#@@+++++@#$$%$%$%$$$#@@@+++++Oo@#$%%$%&%%$%&&%%%%#@@++@#@$%$@+Oo$%&&$$%$%$$@@@++@+%&%$#$@+@+Ooo@@+@++++$%%$%%&&$$$$#+@$#@$%$",
"Ooo@@#@@@@@@#$$%$&&%$%@@$#@@@@@@@@@@#%&&$%%%$%%%$%&%$#@@+++@@O@@Oooo$%&&$$$%$%$$@+OO@@$%$$&$$$+Ooo+@@@@@+##%%$%$%&&%$#$$$@@#+O@@",
"oo@###@#@@@#$%$$&**&%#++@$#@##$$$#@@$%&&$$%$%$$$$&*&$$$#@+++@OOooo@$$%%%$%%%$$%$+Ooo+@+O##$@$&+oo+@@+@++@##$$$%#$%%$#%%#+$$@+OOo",
"@@$$$##@##@$$$%%&**&&##+@##@#$%&%$+@$$%%$###$#@@$%&%#@#$##++++@@@@$$$%%%%&&%$%%$+OooO@+oO+@++@Ooo@@@@@++@##$%%$%%$%&&%#@$@@@@+@@",
"@$%$#@+@###$$%%&%$&*&%##%##@#$&*&#+@$$$$$#@@#@++@#$$@+@#%%#++O++@$%%%%$%%&&&%$$$@+OOo@@+OooOO+oo+@%%$#@@@#$#$$%##$$&&%%$$@@O+O++",
"$%&&@+@O@@$$##$%$%%&%$%%%$##@#%&%@+@$$$$#@@+@@++++#$@@#$%%$++OO@$$%%&&&%%$&&%@@@@@@+o++@@+ooooo+@%%&%$#@+$#@+%$$@#$%%$$$+O@@OOO@",
"$$%$#@+O@#$%#+$$%$#$$%%&%$##@+#++@+@#$$$#@++@#@+@@#$$##$$$@++oo@$$%%&&&&%$%%%%%$@++Oo@++@@@@@@$%%&&&&$#@@#$%@%$%%$#$%$+@++@O+oo@",
"@$$$$OOO@#$&&%$###@#$###$$$#+@@+o++@@#$$#@O+@$$#+O@%@@++@@@++oo@@$$%%&&&%$$$$%%%$Oooo@@$%%%%%&%&&&&&&$$@@#+@#$$%$$$$$@@+#@++Ooo@",
"@+$$@++O#$%*&%$@@##$#@@@@@#@+@++++@@@@++@OO+#$$#++@$$++++@++OOo@@+$$$$&&%%%$$$$%$OooO@@%&%&&&&&%&*&%&%$#@#@+@@####+++@@@@OO++Oo@",
"+@+O++O+#$%&&$#@+@$%@@+++@+@+@@@@@@@@@++@oo@@$$@@@#%$+++@+++OOO++@++$$$%$%%$@@$$$@O++@%&%**&&&%&%&&&%%$#@+#@+++@+##oo++O+OO++OO+",
"@@+OOOO+#$$%$$#@@#$$@++O++@@@@@@#$$#@+O+OooO+++@++@+@+OO+++Oooo@@@@@+++$$%%@@++++O@@@$%%&*%%&&%%%%&%&%$#@+@@+O+@@#@++@+++++OOoo@",
"@++++++@#$$####$$$$$#@+XO++++@@$&&$$@+OOoooOOO+OO+@++OOOO+OoooO@@++@@++@OO@@++@++@#$%%%&&&%&&&&&$%%$$$%$++++++++O+OoooOoOOOoOoO@",
"@+@@@@@@#$#@@@@@#$#@@@++OXXO+@#$%%$$+@OOOOOOOOOOO@++OOooooooOo+@@@@@+@+Ooo++++OOO@#$%%&&*&&&%%&%%$$%%$#@+@+OOO+@@OoOOooOoOOOoo+@",
"$%%$$$@+@##@++++@#@+++@++XXO@##$$$#++o@++OoooooOO+++oooooooo++@$$%%$#@@oooOO@@Ooo#$$%%%&&&&%%%%&%$#@$#@@+@@ooO+@+OoOOoooooooo+@$",
"%%%$$$$@++@+OOO+@@@+++++OOO+$$$$#@@#+o@@@++OoooOOO+oooOOO++@@@$%%%%%&$@+oooO++Ooo#$$%&%&%&%&%$$%%$@#%@+@+O@+OOO+OOoooOoO++++@@$%",
"&&%%%%%$++@OXXO+++@@@++OOO+@$%%$@@@+o+@++@+++oooOOoooo+@@@@@@@$&&&%$$&$@@+oO+OOO@#$%%%&%%%%%%$$%%$$%%@@@oO+@+OoOoOoOooO+++@@@@$&",
"%&&%&&%$@@@OXXOOO+++++OOO+@$$%&$$#+oo++OO++@@+ooooooo+@@#$$$$$&%%&&$$@+$@@@OOOO@@@#%%&%&%$$%%%%$$###@+@+oo+@@+OoooOoOO+++@@@@$&%",
"$%&%&&%+O@+++@+++OOOOO++@@#$$%%@@+ooO@+OO++@@@+ooooO@@@#$$%&&&%$$%&%%$@+@+@@@@@@+@#%%%&%$$#$%%$#+@@@++OO O@+@@++Ooooo++++@@@$&%$",
"$&&%$%@@O+++O++@@+OO++@++++#$$@+@OoO+@@+++@@##@+++++@@#$$$&*&&%$$&&&%@+++@@@$$@+@@@$%%%%$#@##$$@@+o$+oO+O+@@@+@@@+ooO@+o@#$$&&%$",
"%&%%$$@@oO@+++@$$$$%$$@++@++#@@@+oO+@####@@@##$&%$@+O@$$%%&&&%&%%&%%&+OO+@+$%%%$++@@$%%$$$##@##+$@++oOO+@@@##$$#@@@@@+oo+#$%&%&%",
"&&%$@+++o+@@@$$%%&&$$%$@@++OO++OoO+@#$$$$##@@@$%%@@+O@$%&&&%%&%&&&%$%+Ooo@++%$$@$++@$$@$##$$##@@O+oOOO++@@$$%%%$$$#@+@++@$%&&&%&",
"&&&@+OO+O+@@$$%$&**&%$$%@@@Ooooo++#$$$$$$$$$#@@$+@@+O#$%&*%$%&&&&&&&%@Ooo++%%%%@%@+@@$$$@##@$$#+oOOOO+@+$%%%%%##$$#$@@@+@$%&%&&&",
"&%&@+OooO+@$$%&*&**&%%$$$@+@++++@#@@$%%%$$%%$$@@OOOO@$$$%%$$$%&&&%&&%$+OO+$$%%++++OO@@##@@@++$#+oOO+@@@$%%%$%$%%%%%#$#@@@#$%$%&&",
"%$%@+OoX.@$$%$&&@@&%$$%$$@@+++@@#$@@$%&%%%&%$$$$@OO@#$%$$$#@@$$%%$%%+OooO++@$$+O+ooO@@+@@@@++#@oOO+@@@#$&&&%%%%%%#%@##@@+@$%&$$%",
"+@$$@+OXO$$$##%%@@%$%##$#++++@#$$$%$$$$&&&%&%#$$$@@@#$$$#@#@@$$@+@$$+Ooo@@+$++@++oo@@@@+@+@@@+@OO+@@@@$&&&&&%%%&%%$#@##@@@#$%$$@",
"OO+@@+Oo@$$%%#$$##$$#@@#+O@+O#$%$%$$#%%&*&%&%$$$$$@@#$$@@++@#+++OO+@@+OO@@++++@++OO@++@@+++++OOoO+@@@#%&&&&&&%&%%$$#%$@#+@@#$%$+",
"ooO++OO+$$%*&%$#@@#$@++OOo@++$$$$%$%%%@@%%&%$##%%$$@@##@+++#+O@+ooO++O++@@@+OO+O++@@++@@@+++OoOO+@@@#$&&&&&&%&%%%%$%$@@+O+@@$$@+",
"ooOOOO+@$$%&&%$@++@@@+Ooo+@@#$$%%%%$%%@@$$%%$#$%%$$@@@#@@O@+OoO+ooOOO+@@+@@@OOO@@@@+@@@+@@@@+O+++@@#$%&&%$%%$%%%$##$@@@+OO+@@@++",
"@@+++@@@##$%%$#+Oo+@#@+o+@@#$$%&&%&%&%%&%#$$$#$%%#$++@@+++OOO@@@@@@@@@@+@@+@@@@@@#$####@@@+@$$@@+#$%$%%%$#%#$$%&%#++##++OO+@@@@@",
"%%$$##@@+@#@@$#+++@#$#@o+@#$$%%&&$%&&&&&%$#@+@$$#$#++@@@@++++$%%%%$@@@$$++@+@@####$##$####@$@++@+$%&%$%%%%&%##$%#@++##+O+O+@@$%%",
"&&%$$##@++@++@$#@@#%%$++@#$$$$%%$$&&**&%&%#++@##$#@#+@@++@@@@%&&&&%%$@$$+o+@##$%%%#%%&&$$##$+o+@#$%%@##$%&&%#@#$@#@++OOOOO+@$%&&",
"&&%$$$##@OOO+@$@@#$$#@+@#$$%%%@$$$%&**%&%%$+++$$####++@++$$$$&&&&&%$$$@@++@@#$&&%#$%&**&&$##+@@@##$#@@@#%%#$%#$#@@@++++O+O+$%&&&",
"%&%$%&$#@OoO@#@++@@@+o$#$$%%%%%#@@%%&&&%%%$%$%$%+@##++@$%&%$$&&%%&%##@@@@@+@#%&**&#$&*&%&%$$##@+@##@@+$$#$$$%$$@++@+O++oOO@$&&&%",
"%&$#%%##++OO+@@OO+Oooo@$$%&&%$%#@@$%&&%$#$%&%$%$+++@@+@$%%%#$%&%%&$#@++@@@@#$%&**&%%&&&&&$%$$##@@###@$%$##%%%#@+O+@+OOOOO@$%&%&%",
"&%$##@@#++++OOOooOooO+#$$%*&%++#$$%$$%%$#$%&%%#++o++@+@$$$$@$&%&&%$$@O+@+@@#%%%&&$&&%$&%$%$%$%%#++@##@@@####@@@++#@+O+oo+@$%%&%&",
"%$#$@++@++@++OOooooO+@$$%$%%@++$$##$####$#$%$@@#++OOO+@####@$%%%%$#@#@+@@@@$%%$&&%&&%%%%%&%$$%$#@OO@#@+##@##@@+@@@@+OOoO@@$%%%%%",
"##+$@OOO+++++++OOOO+@#$%$%$%$%$$#@#++#@@@#$$$++##+Ooo+@@++@@@$$$##++@++@+@#%%%$%%%%$$%$%$%%#$$#$@O++@O+#@#@@#+@@+++++++o+@@%%$$$",
"OO+$#OXXOO@++@+++++@@$$$%#####$$##$++@++@##@+++##@Ooo+@@+++@@+%@OO++Oo+@@@$$$%&&%#$##$&&&$##$%$$@+++++OO@#@@#++++O+@o@@+@+@@++%@",
"OOO+++X.OO@@$%$@@@@+@$$##@@@@##%$%%#$$++@@@@++O+OOOOO@++@+@$$@++OOO+Oo@@@###$$&&%$&##&&&$%%$$$##@@@$%$+O+++O++OOOO@+@@#$$%$$#@++",
"+++++OOOO+@$%*&$$$@@@$$#@@+++@#$%&&%$%@++O+O+O+@OooO+@++@@&&$#@+++++++@+@##$%$%&&%&&&#%&%%$##+++O@$%&&+OOO++OO+OO+@@@#$%&&&%$#@+",
"@@@@@@+++@@$%&%$%&$@$###@+OO+@#$%&*&%$@+OOOOO@@@OooO+@$$$&**&$#@@@@+++@+@$##$$$&&%$$%%$$%%$#@+++O@$%&@+O++O+OOOO+@@#$$%%%&&%%$#@",
"$$####@@@@@$$@@@&&$+$@@#++Oo+@$$%%%%%@@+OoooO@OOoOo+@$$%%&&*&%%%$$#@@@@@@##@##$%%#@@$%##$++$#@+Oo@@#@++@OO+OOO+@@@#$&&&%%%&%%%%%",
"%%%$%$#@@@@$$++@$%$O@@@@++++@#@$$$$$$@##ooooO+Ooooo+$$$%%$&&%&&&%%%%$$#@@#$#$$%%$+++#$#$#++%+OoXo@@++++@+OOOO+@@@#$%*****&&*&&&&",
"@$%%%%$#@@@@@++@$@@O@$++@++@###@#@#@@+##OoooOOOoooO@$$&&&$$$%&&$@$%%%%$@@###$%%%$+++#$%%%##+#OoO+++@@@@@+@@@@@@@#$%&***&%%&&&&&$",
"@$%%%%%$##@O+@@$$@+O@@++@@@@##+++@++OOO+OooooOooO++$%%&**&%%%%$@@$%$$$$$@@##$$%##@@$#$$$%#+++oO@#@$%+@@+++$$$#+@$%%&****%%&&%%$@",
"$%#$$&%%$#@+O+@@@@O+@@++++@@@@OOO+@+Ooo++OOoooooO@$%$%&**&%%$%%%$%##@@###@@+#$%##@++++@@$$@+Oo+#$$$%%$@@+#%%%$@#$&&%****&&**&%%%",
"%%##$%%%%$#@+OOOOOO+@+++OOO+++OooO+++ooOOOOOoooO+@$$%%&&&&$$%&&%%%#@@%$@@+@@++$$#@++@@+++#+o+O+@$$%&&%#@#$%$$#@$%**&&&*****&&&&%",
"&%##$%&&%%%#@@+OOO++@+++OooO+OOooO++@+oooOooooO++@%%$$%%%@@#$&**&%#@@@##@++@O++#+++@@@++++O+O+@@$$&%%&$@$%%$##@%&**&****%%%&%&**",
"$$#$$%&&$%%###@++++++@+++ooooOOOOOOO+OoooooO++++@$%$$$$&&@+#$&*$$$###%$$#@+@@OO+OoO+++++O+@++@#$$%&%&$@+#$%$#@@%%%*&***&%%%&%&*$",
"$%%$%%%%$$$$$##+OO+@@@++++ooooooooooOoooOO++OO+@#%&&$$%&&$@@$%&$$%%$%%%$@+++@+@OoXoOOOOoX+@++@$%&%%&%#+O@###@@#%$$%&&**&&%%&%%&$",
"%%$$%%%$$%$##$#@OO@####@@@+OooooooooooOO+@@+OO+#$%&&%$%%%$##$%%%%%$$%%%$@OO+@@@@+OXXXXXXo+++++$&&%%$#+OO@@+@@@#%$$$&&&&&&&&%%%%%",
"%%$#$#$$%%%#@++@@@##$$$$#@@@+OooooooO++@@@O@++@#$%%%$%$$$$%%%##$%%$$$$$#@OO+O@o+@+++Xoo+@+o+@+@$$@@@@+OO+@@+@#$$@##$%%%&&*&%$##$",
"&$$$#$#$%%#@+++@@##$$%$%$$$#@@++OOOO+@#####@@@@#$$$$%$##$$%&%%&&&$@@###@@+++O@+++@+@@@@@@@+@@@++++++OOO+@@+o+#$$##$%%$%%&&%$#@&&",
"&&%#$##$$%#++OO+##$$%$*&%$%$%#@@+OoO@##$$%$%#@@@##$%$#@@$%%%$$$&&&%@@#@#@@++o+@+@@$$%%%&&&%$$@@@@+OOOO+@@@@+@#$$#$&&%$$%%%&&%@&&",
"&&%$#@@##$#+OOo+#$%&$%&&%++%$%##@+O+##%$%$%$$$@@#@#$$@+@$%%$##$&&&%%$$##@@++O+@+$$$%&&&&&&&&&%$$@@@@@@@@$$$$@@#$#@$&%$#%$$&&%#$&",
"%%%$#@@#$$#@Ooo+#$&*%$%%$++##$$$#@@##$$%&&%%++$@@+@##OO+$%$#@#$%%%%%$@##@@++O@$$$%&&&%%&&&%&&&&$@+@@@@$$%&&$$@@@$#@$$#@%$$####$%",
"%%$$@+++##@+O++@#$%&##$%%##@+@#$$@@#$$%&**%$++$$@++++O.+#$$#@@#$%%$$+++@+++OO@$$%&&&&%%%%&&%%%&$$@@+@$$$%&&+++@@###@@@@#$#@@@@#$",
"@@$$@+OO@+OO+++##%$#@@$%$#@@++#$#O##$%$&**%$%%$$@++OO+++@###@@%#@@$#+++++++O+$$%%$$&%&%$@@$%%$$$$$@@@$&&$$@++oo+@@@@@@@@@@+++@%#",
"+@@$+Ooo@+Oo@@@#$$$#@@#$%#@++@#$#O#$$$$$%%$$$$$$@$+OOOO++++++@@@+@@@++++++OO@$%%$$$$&$&$@@$$&%$$$+@$$@&$+@@++oo+@@@@#$##@@+++@@@"
};
