/* XPM */
static char *_5_Wolfenstein3DWalls1735817069[] = {
/* columns rows colors chars-per-pixel */
"128 128 35 1 ",
"  c #2B230F",
". c #3B2F17",
"X c #2F2F2F",
"o c gray20",
"O c #373737",
"+ c gray23",
"@ c #430000",
"# c #4B0000",
"$ c #570000",
"% c #630000",
"& c #6F0000",
"* c #770000",
"= c #43331B",
"- c #4B3B1B",
"; c #573F1F",
": c #5F4323",
"> c #6F4B27",
", c #774F2B",
"< c #434343",
"1 c #4B4B4B",
"2 c gray34",
"3 c #5B5B5B",
"4 c #676767",
"5 c gray45",
"6 c gray50",
"7 c #830000",
"8 c #8F0000",
"9 c #9B0000",
"0 c #A70000",
"q c #83532F",
"w c #8B5B33",
"e c #935F37",
"r c #9F633B",
"t c #BF7B4B",
"y c gray56",
/* pixels */
"4422<<<111<<<+++++++<<222445544221+<12555522111233343331111112444422246655654321<11111223444434444321223444455444456554422222244",
"554111122222221<<+<<12245555454332112566543222334333433411111455554224553454221<<11<<1223444333422211223455666544455554544222455",
"66412222444444212111+12546655433332225662231133434444444332245666642243334321<<1211<<1233342222321111234556yy5555544555454522566",
"542<225555544444422212455666y64233<22555232114454555452444224565542222222221<1222211122332321<<2211<2344566y54466544544335422565",
"421<2555555554244212225545226<1211+2124432113424555554322432255642122211<<<<12234444443222111<<11<<+24445566455y6555443223342556",
"21<+4566445454422211215654342121<++2212111145545566444431243245421<232211111234454545444322211111<+23455456554566555532211232454",
"<+++45664445454421<<22454464441<++122222133554545665434442231<22<++2232222223445466545224322222222223566455545554565432211122<22",
"++244555455544541<++121<3342461++1221211233444534554355314421<<+++233323222345446yy6531124323344432245664454544446y6444321112<<+",
"22444555566545541<++<21+<12112<++222221123345545545665324222212222444332332444556yy663312332345654124455433343224565323433111122",
"245555455666544421<<+221<++<<1++125543222343445334466554422<1<112454321233344556546y65335332346y63124444432232112344212355111<11",
"44556665546652222221+11221+++++12556543214321544234554441<22<<<24566212<22443345455654555433235652124444322122111134223455411<<2",
"4455666654555554211<+21122222245566664322345254554345412112<1++24454321<23453144543445565433213112123444321123212234433444211++2",
"24455666544445554<+++224555556566666644223123445444442213211<++224444<<<234665433323433344431221+112234432<124431<25221122211++2",
"21444466555444454<++<225656666656y65654323212233331112222<<11<+22144211<345y65422334322222321211112222112<<13443112441111211<<+2",
"121144454554224442<112565yy666565666554321321112133++11<1<<11<<1121<11<1345664321245221112121222222222112++22442223541112111<<<1",
"22221114455221111<2224556y5566555565654321221<1223211211111<<++2221<<<<1344544322344211<11222222344321<1<++<1112112121<<111<+++2",
"21122112<<22112112345556665666664554445411111111<1<+++<+<<<+<+<221111112344333344444321O<1111224664421<<+++<<<1<<1211<<<<1<+++<2",
"2222121<++1111<<<2345566y666556554455432121<<<122<+<<++<+<<<++12212222223432222234322211<OO<1234554412<<<<<<<<<<<211<<++++++<+12",
"4554322+++<<22<++34455566665555654324322122++<121<+<<++++++++1244554442123321111232111211OO<233444311+211<+++++<<111++++++++1124",
"55556421+++<11<++344565656565445542352121<21<<<1<<+++<+<11112245555444421121<<<122211111<<<1444432231+22211<+++<<<1+++<<<1122245",
"6654464221+<1<<<234555655555544554455222+<121<+<+<+<++<11122224666555554112<OO<11122211<<<1245542221+12112111+++<<++++1222222246",
"56644214222<<<<2223556565445555443332121++1221<+++<+<<111222246556656654222<OO<<<11111<<<1244564431++11<<11221+++++++12234444465",
"45655421212222221235556544345543122211<<X<212211<++++1111222465445656651<21112111<<<<<112234455221++<21<<112221++++<222344566654",
"4666521112224421222455554323344221+41+<1<122212221++<21+2344665446654522<111<11221<<1121111344212<+<12211122332111112234446y6654",
"565561<<1214555411224554443323314211+<<122233443222221++1345656556554422+<21112444454421121132221+<12333322233465421<24455666565",
"665451<++21154424112442433443322<1+<<<1122445554443212112456665666542111+122244556644542211<<11<+<123444433222455221<24566655656",
"666652<++11555525212244423324431+<<<<1214555553344342221245656r>66621<<1<12244>w6yy65445222<++++11344444444432241221<3456y545666",
"6566541<<144551111<<223322211431+<<1222455545455555343222345457>65621<++<124450t6yy65544421211112322455544554422<<<<244455444566",
"54551<++<112441<1++<22122221132+<<12223466655555535233221245644554521<+Oo24454w6226544544221112234224565556544442<<2345444322445",
"12441<++221411211++222212122212<<1222246666655565543233222345442124421<O<4443355225453343111123444544446665653444222344432322442",
"<<1221<<221111211<<2112211111<<+<1222356666665655443542312234541<<1221<+24455344334432231<21<34545443556y65654444422344221123111",
"++<11<112221<<1<112211222111<+<<122234666666565555454221<1224421++<11<<1445y65432234211<<+21144445455522556543355442233211131<21",
"++<<<1221222<<<22221222122221<11122345665455455543342221<<122211++<<<<;:4456w>42112221<++12234455554552244554345544222322<21<+<1",
"22222221221222222343333222124422134545554353445653113311<<122222221112;7:3459>31<+12321+1223445665656556534443455341122111<<<222",
"5542224411212233334334333324211214565455556533453211331<=7122455554433=%7799>4311123432+1234455664566666543212443431122221111455",
"665542441+1233455535566443341+12345523345665323423211<<<77124566665443%%779>124322355411234444554466yy65653112334323122112222566",
"665444221122346653456yy6643312223343222355345343::21111<1-1456666654>=##*7:<124223443212344555244456yy56554111443333112114444666",
"565332222212356yy6346y65654433212332214434445442:721<11+<<2466655654>:##%*+<232112221+434455555322556665554545451233112456544665",
"564321122223456yy6556666645443322333245433555321<121<<=7<245656556q:7:= $$<<122<<1<+++244566545322456654345654541112212455534565",
"65442<121223555664665465454545531123322238:322:9:321<17=124556566577#7-=@@11<<<++<++<13445y6511344544554345655311+11212444424656",
"543232122224554665665555565445432<<232133:77;;98*;21<<+<224557:qq:##.=--@@211<<++++<124454552114433433334345422311<<<12333324555",
"331121121235554555544545455344342<112<1323:7888**%--111+12255:%%%%##.<<<$@11111<<<<1234545454544323113222344411331<++12211222444",
"<<11<+12224445665343346664334544211111<<232:*7*%%%%-;221212211%%=..=.<OO%$2112111112244453333344334112112332111332<++12211122152",
"<<<1<+222333446654633666455444332224541<111<%*%%%%%%223445443:%%<..-11Oo*%224542222124433222233545534:11222211<1<<<<<21121244211",
"11111121233454566566635655433111<245661<<<11%%==%%%977456665:%**;1111<<-*&245yw744222443221112345665>:211<1<1<12<++<121122664321",
"22211121243344466544554455432111<245621<11<1%%==%9997755566,%%**-;;222--7*:456w,5642433321<<123456y6>721<<<<<222<++<124446yy6432",
"4432222223323345532245334114321<+2232112<<1<7=12777777,,55,:7%**77******7*:442226641422311<+124455555221<+++<2<<+<+12445566y6555",
"55554432234344554111343431151<+O+22111121<<<=-227777799,q:9997**77**++**77-:4112454<22221111232444444233++++<1<++++1444554665666",
"24555542233345554111345553313<+<111222--1222-;227-==990999999977**$$55q;**7-2112422<24112112333232;72133<+++<<<+++<2446664445664",
"24544444223344533224344453111+<2324512=-1144;>12-:7:900990009987**$$555q:*771224421<2211-2223311127-<<<1<++++<++<114556yy6555542",
"4533223332213453321111224421<+13444554221355>:2;:q-:999000000987**$$4655w::1<12222<122117:22q:<<<121<++11<<+++++<245456yy6554555",
"553225422122114432112211131+1<12445665323454;-2;:q,:;99000009977**$$,5555q321<<<<<<12111--<1:7<++<111++<<<<<+++<1244556666445665",
"653222332112<1131112221111<1<122446556=:457;-7;-:q,>;99999999877**$$:5ww55;7779999777711<+77:.<+-.1121+++<++++<112554455522346yy",
"4433354432122<<1<+<11111<1211234456564:.34;777-=:>,,:;9988998777**$$-,00,;777799997777111+..7.<<7.<<1<+++++<111124544446621346y4",
"455455542111212<+O+<<<<+O12112456556531<233;7777-:,,>;787789999999999999777777777712221111+..+++++++<+++<<11<<123566445664224564",
"554455542<<122221<OOOOOO+1111146655431<<22127=-=7:>>>;=778999999999999999977777777233332221<++++++++++<<1221<<134566545554334555",
"554444432<<1<2+12111O++121+12124422221<<12=7=;>-*7>>::8999999987997899999977**-;7733444432221<++++++<11222<211234555454444555334",
"642233322111<21112122222221222111111<<<122==134>&*::899999988778998778899977*&;27734454544432211<<<<1233333222234444543344565566",
"665223232211+12122445556665442;=21<<<<1222212344&***777888******7897779997;%&%<1774454y6545453221<+<2334454532223345432245554446",
"665544332211<12244456666666665w7222222224444223,&&&%&&&*********7777=;777&3;%$+1775645665115453321<13354545444223234421245543346",
"555542332211<244456665566656666421222244566442-977&&%%&&%%%%%%%%$$$$;2$$&$32$$+1776y545541133444322334456655114221233<<145432345",
"55441112111<<24456666555566555644221244456w11199777&&%%%%%%%%%%%$$$$21$$$;21$$12775643455332123442234456yy54114421111<o134432234",
"22431111111<14455446565422455444442224664;-7;37797,-*%%%%%%%%%%%$$$$21$$;1<<$%1377432245432211343<334546yy545544211<<11123332253",
"1222111111<<24554445656422446544412442641;77;979774,**%%%%%%&*&%$$$.1<$$21<+$72377432234532112343<34444455444444241<<<<111111222",
"44222122111113445454555534444344443212;7444;9977**56%%$$%%%&*7=*77$.<<&&11<<;:23773443224445544221244255552344323334333111111244",
"55421122111112445544454234443334222112;w455;9977**55%%$$%*&*77:=77$=11&&22222223773453245555454332112566543222334333433411111455",
"6642111112111144554554443342222321;7123455w==;;,**44&$$$%*7*77,-77=12277q4444421$$3343454665543333222566223113343444444433224566",
"542211111111<1244545542342321<<2217;23445r,==;46**447& $$**777,:772<2289;q54444:$$2233455666y64233<22555232114454555452444224565",
"4212221111<<12234444443242111<<11<<+24445q;-;,5y**5w7&= #%*777ww,,1<25997;5554:*$$122255w>226<1211+21244321134245555543224322556",
"21<232211111234454545444322211111<+234554q=-;w5w9*5,77-.##%7775421<+4q9977545:**$.112156>7342121<++22121111455455664444312432454",
"<++22322222234454665452243222222222235664q*=;55w09w>77--@@#%%%22<+;74q998*q54:$$.-<<22454464441<++122222133554545665434442231<22",
"++233323222345446yy6531124323344432245664w**;44409w>77-3@@##%%<+++7w4>9997:q4:$$.<++121<3342461++1221211233444534554355314421<<+",
"22444332332444556yy6633123323456541244,w4>%%:322*9w,77-4@@##$$2222444:9999;9q:$$-<++<21+<12112<++2222211233455455456653242222122",
"2454321233344556546y65335332346y6312447:4;%%:211**4w77-3@@##$$112455q:999999q:.$21<<+221<++<<1++125543222343445334466554422<1<11",
"4566212<224433454556545554332356521244:q3;%%:211**34.&3;####@.<2>755q:89999>52=.2221+11221+++++12556543214321544234554441<22<<<2",
"4454321<234531445434455654332131121234q43;%%;321**34=&3$####@=+27e55q>8998>555;=211<+21122222245566664322345254554345412112<1++2",
"24444<<<234665433323433344431221+11223443;$$;443$$>52$=$%%$$@++224455q99>q4445w:4<+++224555556566666644223123445444442213211<++2",
"2144211<345y65422334322222321211112222112;$$-44>$$:44$$=%%$$@<+221444477q>>>>>4w4<++<225656666656y65654323212233331112222<<11<+2",
"121<11<1345664321245221112121222222222112+$$=44:##-5-$=1*$%%.<<1121144**7*77**:442<112565yy666565666554321321112133++11<1<<11<<1",
"221<<<<1344544322344211<11222222344321<1<+$$$11-##=1$$<=$$%%=++2222211$*&&****%%1<2224556y5566555565654321221<1223211211111<<++2",
"21111112344333344444321O<1111224664421<<++$$$=1=##=$=<=$$$$$++<2211221$*=%%%%%%##2345556665666664554445411111111<1<+++<+<<<+<+<2",
"212222223432222234322211<OO<1234554412<<<<$$$$==##-=<.$$$$$$<+12222212$$+=####==<2345566y666556554455432121<<<122<+<<++<+<<<++12",
"4554442123321111232111211OO<233444311+211-%%.$$=@@11.$$.+.##1124455432&$=+<=##=++34455566665555654324322122++<121<+<<++++++++124",
"555444421121<<<122211111<<<1444432231+2221-%+.$$@$$$$$.<<1##2245555564-&$-+===<++344565656565445542352121<21<<<1<<+++<+<11112245",
"66555554112<OO<11122211<<<1245542221+121121-$+.$$$$+.$1222##22466654464-77+<1<<<234555655555544554455222+<121<+<+<+<++<111222246",
"56656654222<OO<<<11111<<<1244564431++11<<11--$+$$$$$+$.23>##446556644214222<<<<2223556565445555443332121++1221<+++<+<<1112222465",
"45656651<21112111<<<<<112234455221++<21<<1122-$$$%$%%%%%**77:,544565542121222222;;35556544345543122211<<X<212211<++++11112224654",
"46654522<111<11221<<1121111344212<+<12211122332-%%%%%%%**7777:::46665211122244217;2455554323344221+41+<1<122212221++<21+23446654",
"56554422+<21112444454421121132221+<123333222334;**..&*7777777777%;5561<<1214555411224554443323314211+<<122233443222221++13456565",
"66542111+122244556644542211<<11<+<123444433222>.**21<:*777777777**:451<++21154424112442433443322<1+<<<11224455544432121124566656",
"66621<<1<12244546yy65445222<++++11344444444432;77721<34:>>>:777777*;52<++11555525212244423324431+<<<<121455555334434222124565666",
"65621<++<124456y6yy65544421211112322455544554:7777<<24445544:;7777*%;41<<144551111<<223322211431+<<12224555454555553432223454566",
"54521<+Oo24454662265445442211122342245655565q%,:**<23454443224;7777*%-++<112441<1++<22122221132+<<122234666555555352332212456445",
"124421<O<44433552254533431111234445444466656:%4w**223444323224;=7777*%-+221411211++222212122212<<1222246666655565543233222345442",
"<<1221<+24455344334432231<21<34545443556y656%%44*$22344221123111-$$$==77221111211<<2112211111<<+<1222356666665655443542312234541",
"++<11<<1445y65432234211<<+21144445455522556q%%35*$42233211131<2;=$$;1<772221<<1<112211222111<+<<122234666666565555454221<1224421",
"++<<<<1244566542112221<++12234455554552244;%**45*$4222322<2;=$$$$$$$$;221222<<<22221222122221<11122345665455455543342221<<122211",
"2211122233455431<+12321+122344566565655653;%**45*$41122111;$$;22222;$$;1221222222343333222124422134545554353445653113311<<122222",
"55443322123224311123432+1234455664566666543;==44$-31122221$=14555542224411212233334334333324211214565455556533453211331<1<122455",
"665443321121124322355411234444554466yy656531;;33-,231221$=222566665542441+1233455535566443341+12345523345665323423211<<<<<124566",
"665444332<<<124223443212344555244456yy5655411144,333112114444666665444221122346653456yy66433122233432223553453432221111<1<145666",
"565456432<+<232112221+434455555322556665554545451233112456544665565332222212356yy6346y656544332123322144344454421121<11+<<246665",
"5643553311<<122<<1<+++244566545322456654345654541112212455534565564321122223456yy6556666645443322333245433555321<121<<<<<2456565",
"654332231111<<<++<++<13445y6511344544554345655311+1121244442465665442<1212235556646654654545455311233222333322211321<1++12455656",
"5434211211211<<++++<124454552114433433334345422311<<<12333324555543232122224554665665555565445432<<23213323322122221<<+<22455555",
"33142<<<1111111<<<<1234545454544323113222344411331<++12211222444331121121235554555544545455344342<112<13232231221111111+12255444",
"<<143<OO<<2112111112244453333344334112112332111332<++12211122152<<11<+12224445665343346664334544211111<<232231111<12+22121221152",
"<<<111Oo<<224542222124433222233545534411222211<1<<<<<21121244211<<<1<+222333446654633666455444332224541<111<11<<<<21223445443211",
"11111<<<<1245y644422244322111234566545211<1<1<12<++<12112266432111111121233454566566635655433111<245661<<<11<<1<<122234566654321",
"22222211122456545642433321<<123456y65421<<<<<222<++<124446yy643222211121243344466544554455432111<245621<11<1<<<<1223445556655432",
"44333322222442226641422311<+124455555221<+++<2<<+<+12445566y65554432222223323345532245334114321<+2232112<<1<<<122234666555655555",
"5554543222244112454<22221111232444444233++++<1<++++144455466566655554432234344554111343431151<+O+22111121<<<<1222345yyyyy66y6666",
"2455554322222112422<24112112333232322133<+++<<<+++<244666444566424555542233345554111345553313<+<11122222122222223456yyy655666664",
"24555554332<1224421<2211222233111211<<<1<++++<++<114556yy655554224544444223344533224344453111+<232451221114443124556yyyy55665542",
"453446554321<12222<12211112222<<<121<++11<<+++++<245456yy65545554533223332213453321111224421<+1344455422135554234665yyyy66yy6555",
"5533455554321<<<<<<12111<<<111<++<111++<<<<<+++<1244556666445665553225422122114432112211131+1<1244566532345443245yy666yyyyy66665",
"653345665553221<<<112111<++<1<<++<1121+++<++++<112554455522346yy653222332112<1131112221111<1<12244655642455433256yy6yyyy555656yy",
"4434456645533321111112111++++<<<<<<<1<+++++<111124544446621346y44433354432122<<1<+<11111<1211234456564213454322555y6yyy6555656y4",
"4554555544444331<<12221111++++++++++<+++<<11<<123566445664224564455455542111212<+O+<<<<+O12112456556531<2333223544566yy665565564",
"5544555445433432<<233332221<++++++++++<<1221<<134566545554334555554455542<<122221<OOOOOO+1111146655431<<221222354446666666655555",
"55434344555321122233444432221<++++++<11222<211234555454444555334554444432<<1<2+12111O++121+12124422221<<12212344233455566y654334",
"64443434553211122334454544432211<<<<1233333222234444543344565566642233322111<21112122222221222111111<<<1221+13443345545566543266",
"6653433445311<<1334454y6545453221<+<2334454532223345432245554446665223232211+121224455566654422221<<<<12222123443466544555665266",
"665432233431<<+1345645665115453321<13354545444223234421245543346665544332211<121444566666666654422222222444422343246543544665346",
"555432234432<++1346y545541133444322334456655114221233<<145432345555542332211<244456665566656666421222244566442224324432544333345",
"554421113321<112345633455332123442234456yy54114421111<o13443223455441112111<<244566665555665556442212444566111223332222343222234",
"224421<<21<<111335432245432211343<334546yy545544211<<1112333225322431111111<144554465654224554444422246644211++12222222222111253",
"12241<++21<+222344432234532112343<34444455444444241<<<<1111112221222111111<<245544446464224465444124426412211++12222343322111222"
};
