/* XPM */
static char *_6_Wolfenstein3DWalls1735817069[] = {
/* columns rows colors chars-per-pixel */
"128 128 25 1 ",
"  c #2B230F",
". c #3B2F17",
"X c #43331B",
"o c #4B3B1B",
"O c #573F1F",
"+ c #5F4323",
"@ c #6F4B27",
"# c #774F2B",
"$ c #83532F",
"% c #875333",
"& c #8B5B33",
"* c #935F37",
"= c #9F633B",
"- c #A3673F",
"; c #AB6B43",
": c #B77347",
"> c #BF7B4B",
", c #CB7F4F",
"< c #D38353",
"1 c #DF8B57",
"2 c #EB8F5B",
"3 c #F3975F",
"4 c #FF9F63",
"5 c #FFA773",
"6 c #FFB383",
/* pixels */
">>>>>>>>>>>>>>>>>>>>;;@@@@@@@@##@O++OOOOOO+$===&$$$$$$$$$$$$O*;;;;::,,,,,,,,,,,,,,::=*;1,,,,,,,,,,,,,,,,::$<<>>>>>>>>>>>>>>>>>>>",
">>>>>>>>>>>>>>>>>>>:;&@@@@@@@@####$@++OOOO++-==&$$$$$$$$$$$#+*;;;;::,,,,,,,,,,,,,>:=*;1,,,,,,,,,,,,,,,,,::$<>>>>>>>>>>>>>>>>>>>>",
">>>>>>>>>>>>>>>>>>;;@@@@@$$@$@@@####$$++OO+@-=:&$$$$$$$$$$$+@;;;;;:>==::,,,,,,,,>:=*;1,,,,,,,,,,,,,,,,>:&$;<>>>>>>>>>>>>>>>>>>>>",
">>>>>>>>>>>>>>>>::*@@@@@$$$$$&$@####$$$$@++@--:,$$$$$$$$$$$O&;;;;;,=&&=:,,,,,,,>::*;1,,,,,,,,,,,,,,,,>:*$+<>>>>>>>>>>>>>>>>>>>>>",
">>>>>>>>>>>>>:;;*@@@@@@@$$$$$$&&$###$$$$%%@@---:>$$$$$$$$$#+*;;;:<-&###@::,,,,>::=#1,,,,,,>>>>>>,,,,>>&$+;<>>>>>::>>>>>>>>>>>>>>",
">>>>>>>>>>>>>:;@@@@@@@@$$$$$$$&&&&$#$$$$%%*%----;;$$$$$$$$+@;;;;>=&#####+:,,,>::=#>1,,,,,,>>>>>>,,,>:*$+#<>>>>>>::>>>>>>>>>>>>>>",
">>>>>>>>>>>:;;@@@@@@@@$$$$$$&&&&**&&$$$$%%&&-----**$$$$$$*+$-;:>-&$######+=::::&#;1,,,,,>>>>,,,,,,>>&$+o;<>>>>>>>>>>>>>>>>::::>>",
">>>>>>>>>>::;@@@@@@@@$$$$$&&&&&&*****$$$%%&&------**$$$$**O=;>:=&#$###$##$+#=:$@;1,,,,,,>>>>,,,,,,:*$oo$<>>>>>>>>>>>>>>>>>::::>>",
">>>>>>>>::;*@@@@@@@@$$$$&&&&****=====*&$$&**-------**$$$*#=:::&&$$$#######@.+$@;1,,,>>,,>>,,,,,,>>&@.X+;,>>>>>>>>>>>>>::>>>>>>>>",
">>>>>>>:;;*@@@@@@$$$$$$&&&&&****=======*&&**-------***$*#=:::=&&$&$$#$###$@+.o;1,,,,>>,,>>,,,,,,:*@X .&<:>>>>>>>>>>>>>::>>>>>>>>",
">>>>>>:;;*@@@@@$$$$$$&&&&&**========;;;:=**#------;;***$=::-**&*$&$&####$##@O#1,,,>,>>>>,,>>,,>:&@X  +;::>>>::::::>>>>>>>>::>>>>",
">>>>>:;;*@@@@$$$$$&&&&&&****====;;;;;;::**#&------;;*===::-***&*&$&$$$####$@#1,,,,>,>>>>,,>>,,:*@X   #--:::>::::::>>>>>>>>::>>>>",
">>>:;;=#@@@$$$$$&&&&&**=--;;;;::::::>>>*#$&-----;;;;*=;::-**&&&&&$$&$&$$$&##<<>>>>>:,,::,,,,>:&@X++Oo+*=:;;:;>>>::>>::>>::>>>>>>",
"::;;;=##@$$$$$&&&&*=====;;::::::::>>>*++&*------;;;*=;>:-****&*&&&$$$$$$$$#1<<>,:::>:>::,,,>>*@+&&&@@o#*=;;;;;;>::>>::>>::>>>>>>",
";;**=#@@$$$$&&&**=;;;;;::::::::>>,>*++&==---;;;;:-*;>:--****&&&*&&&&$&$$$#>1<,::>:::>>>>,,>:*@@&*-*&#@o#*=;;;::;::::::>>>>::>>>>",
"==*=##@$$$$*&&**=;;:::::::::>>,,,*+@&*=-----;;;;-*:>::-******&&&&&&&$$&&##>1<:::::::::>:,>:*@$&*--*$##@o#*=;:;;;;:::::>>>>::>>>;",
"**&@@@$$$****=;;;::::::::>>>::>*+@@*=---;;;;::::;>>:-*****&****&**&&&*&&##*:1:::::::>:>>>:*@$&*--=*$###@o#**-;;;;:>>::>>::>>>>:;",
"*&@@@$$$***=;;:::::::>>>,,>>:*+@$&==---;;;:::::;>>:-******&***&&**&***&##&&*>,::;:::>:,>:*@$&*---=&$####+o#*-==>;:>;:>>>::>>>>;;",
"&@##&&&=;;::>>>>>>>>>>>>>>>*+@$&------;;::::>:>>::-**********&*&*&**&&$#&=-&*>>:;;;:::::*$&&-;;;=*&$#$###+o#***=;>;:>:::>>::::;*",
"@@#$&=;;;:>,,,,,,,,,>>>>:*+@$&*=----;;::::>>;<>:--**********&&***&**&$##==-&@*:>:;;;;;:*$*&-;::;=&$##$$##@+o$***==;;==::>>::;;**",
"&&==;;;:::>,,,,,,,,,,::*++@$*=----;;::::>>>;<>:-*****************&**$#$&==**$+*:>:;;;:*$**--::::-&$#$####@+o@$**=====;::;;;;**#@",
"$&==:::::>>,,,,,,,:--+XXX@$&*=--;;:::::>>;:<>:-**********&******&&*$#+$&==**&@+*>>:;:*$**--:::::-&$$$##&$@+o@$$$*=*=;>;;;;**##@#",
"#&;:>>:::>>,>>::-*+XXXXXX@$&*=;;:::::>>:=><<:-********&&**********$#+@&;==**&$@+*:::*$**;;:::::>*&&&$$$#$@+ o@$$$$*;==;;;*$#+#$#",
"$$&>>>:::>--**$++++++++++@$&*=;;::>>>>:*><2>-*********&&*********$@+o#-:==**&$@X+***$*--;:::::>>*&&&$$$$$@+  o@#$$**===*$#++$&=$",
"$$$&>>;-&&#OXX@$$$$$$$&=;&@$*=;;:>>>:=$:<2>-****************&***$@+o$&:>==***&$X.O@$*-;;:::::>>>-&$$&&&&$@+  .oO#@$$**$#O+$===;$",
"$$$$&-&&#OXXXX@*******=::;&@$=;;::>:=$:<1>-*****************&&**$@o+&=:,==***&$XO$***--;::::>>>,--$$&&&&$@+ o@@@+@$$##+XX$==;;>-",
"-&$$$$$$$$+OOO@&;;;;;;;>,--&@$--;;;;*:<1,;************&*******&&#+o$=:<1;;==*&$+@*=**=-;:::>>><<::-&&&&&$@+X#;*# o##+XX+$=;;;:><",
">-*&$$$$$$$#@@@$=;;;;;:>,---&O@*--;*:<13<;************&&******&&#o+&=:12;;==*&$+#=-**==;::>>>,2,>>:-&&&&$@+@;>,*o  X.o+@*;;;;>><",
">>::-&$$$$$$##@$&=;;;;>,>----&O@$*=:<144>:************&&*****&&$@o&=:><1:;==*&$+#-=**=;::>>><21>>>>:-&&&$@++*>-*o.XXO+@&=;;;:,>>",
">>>>:--&$$$$$$@#$&==;:,1>-----$X+$;<1364<:;***********&&****&&$$+@==:>,<>;==**$+#=**=-;:>>,,1<,>>>>>:-&&$@+O#**O.XoO+@$*;;;;:<>>",
">>>>>>>:-&$$$$@@#&===>,1>-----$X+=<<32124>;***************&&&$$@O$;;>>>,2>==**$+#**=-;>>,<1<,,,,>>>>::-&$@++OOO.XoO+@#*=;;;:,<>>",
">>>>>>>>::-&$$@@@&==-,11>-----$X$;<1,,<<<1>;**************&&$$@o@=;:>>>,<2>=**$+#*=-;:><11,,,,,,,>>>::--$@++++.XoO+@#&*;;;;:<,>>",
">>>>>>>>>>>>;&@$&==;>1::1>----$X=<1>,,,,,,1:;************&&$$@o+*;:>>>>>,<<;==$+#=-;>><1<,,,,,,,,,>>::;;=@#$##.oO+@#$*=;;;:,<>>>",
">>>>>>>>>>>>>;@&**=>,;-*:,>---$+;1>>,,,,,,<1>;**********&&$$@o+#;;:>>>>>,<<<==+#$-;:><<,,,,,,,,,,,,>::;;&@$*$#oO+@#$&*;;;;:<>>>>",
">>>>>>>>>>>>>;&&=-::;=*-*:,:--$*,,>>>::><<<<1:;*********&$#@o+#*;;:>>>>>>>,,=$+$-;>><<,,,,,>>>>>,,,,::=&@$**&#O+@#$&*-;;;:,1>>::",
">>>>>>>>>>>>;&@=-::>-=**-*:,>-$-:::::>:><><<<1>;*******&$$@O+#*=;;:>>>>>>>,;$#$=;:><<,,,,,>>>>>>>,,>:=&@#&**&#+@#$&*-;;;:>1<>>::",
">>>>>>>>>>>;&@=-:>>:=-==*-*:,:::;::>:>:>>>,,<<1:;*****&$#@O+@$*;;;:>>>>>>>:#$=-;>><<,,,>>>>>>>>>>,::=&O#&***&#@#$&*--;;;>1<>::>>",
">>>>>>>>>>;&@=:>>:;;==-=**&$::,;=-::::>>>>,><<<1;;***&$$OX+@#**;;;>>>>>>>;#$==;:><<,,,>>>>>:>>>>,>:=&O+$&***&##$&*=-;;;,,,>>::>>",
"::::>>>>>;&@=:>:;;;;;==***$&:<>&=-;::::>>:,,><<<1:;*&$#OX+@#&*=;::>>>>>>;#*;;:>><<,,>>>>::>:>>>>>:=&X+#$&=**&#$&*==-;;:1,>>>::::",
"::::>>>>;&@->:;;;;;;;;=**$#:<>**&:-;:::::::,<<<<<<;;$$O o+@#&*=;::>>>>>;#*;;::<<<,>>>>>>::::>>,>:=& +#$$&-**&#&*==--;;>,>>>>::::",
"::::>>>;&@-;;;;;;;;;;;;=$#:,>;***&:-;::::>>>><,,<<;;#O .O+#$&*=;::>>>:;O#-::<<<<>>>:::::::::::::=&X #$&&*-**&#&*==-;;:,,>>>:::>>",
"::::>>;&@*=;;;;>>=;;;;;;=:,<;=****$;-;:::>::>>,,<>;#+ .oO+#$&*=;::>>:*O+$-:<<<,>::::::;;::::::::&O#X$$&*-;=*&#&**===;><,>>::::>>",
"::>>>;&@$&*=;>>;***;;;;;:,<>=******#;-;:>::>>>><>;#OX .oO+#$&*=;::>:&O.$-:<<,>>>::;;;;;;;,:::,:&###o*;;;;;==&#&****=;,>>::::::::",
"::>>;&@$$$&*>;******;;;;:<<>=******$#:=;::>>>><>;#ooOo.oO+#$&*=;:::&X..*-:<<>:::;;::;;;;;;:,:,=@***#;>,11<;=&#&****;:<>::::;:;::",
";;;;&@$$$&>>;*****&#;;::,<>;*******$$+:==;::><>;$OOOOOO.O+#$&*=;;-&#=*@$*;:::;;;:---;;;=:::::=@@>>*@;>>,,<>;&#&****;><::::;;;;;;",
";;;&@$$&>>;******&#+;;:,<<>=*******$#@o:-=><<>;$+@@@@@@Oo+#$&*=;&#@=;*@+$*::;;;:;-::-;=;:::>=$$@>>*O;>,,,,<;&#****;><>:::;;;;;;;",
";;&@$$&;--******&$@+**:<<:=********$#@+o->>;*$###########+#$&**#@O=,<*@+O$=;;----:---:;;;;:=@$&=@Oo.o;>,,,<>&#****;,,>::;;:-;;;;",
";&@$$;>-********$@+O*:><<:*********&#@+X o##$*&&$#######$$##&*#@O=,1<*@@+o$*;;-:;;--;;;;;;=+$&==$#O.O#;>,,,>&#***-:<,:;--;;-;;;;",
"&@=;>1*=*******$#+O&:><<;**********&#@+XX#>>;;=**&$$$$$$&**+$#$O=,112*@@@+X$=;;---:--;;;=&O$*=;=&$#O$$#;>,,>&#**-;>>::;;--;-----",
"@=>>11=*******&#@O&-><<:;**********&#@OX#:,<1>;==*&&&&&&****++ =>,125*@@@#+X$=;-===-;;;=&O$*=;;=&&$#$**#;>,>&#$*-:>>:;;;-------*",
";>>1,>:******&##O#;><<>;**********&&#@@#><<,14>;====*******$  X:>,243<*@@@$+ $=*======-&@$*=;;**&&*$*;;*$;>>&#+$:::;;-;;------*$",
">>1,>>>:*****$@+#*>,<1;=**********&&#@$=><>:>14>;=======**$#X.o:,13<>><*@@#$+ ****====&@$*==;=**&&*@=;;;*$;;&#$+==;;-;;;-----*$-",
">1,>>>>>:***&$@#*:,,1>;***********&&$@;><>:::>11:;======*$#O.oO:,1>>>>>,*@@$$O ******&$$*=;:;=&&&&$+-:::;.o$&#:>**==----;;--*#->",
"1,>>>>>>>:*&$##*:>,11:=***********&&@$;<>::::::>,:;====**#XoO@#:<>>>>>>>,*@@$$ o****&$$*=;:>;=&&&&@X::::;o+*&;>;;&==----;--*#->1",
">>>>>>>>>;&###&-:,<1>;************&$@=<>:::::::::>;==;**#XOO$$#>>>>>>>>>>:*@#$  o*&&$&*=;:>:==***$o.::::;+$*;>;;=*$&==----*$->1<",
">>>>>>>>>;####-;>,12:=************&@$;>:::::::::::,;;;*#.XO$***;>>>>::>>::;*@$ .o+@&&*=;:>:;==***@X.::::;**;>;;=**#$&=---*$->1<>",
">>::>>>>:=###&::,,2<;***********&&$@->:::::::::::::,;*$.XO#=;;&-::::::::::;=&#.+@#&&*-;><:;=****$+.X,,::;*;>;;==&&$@@&*=*$->1<>>",
">>::>>>:=*##&=:,,12:************&&@$;::::::::::::::;*$XXO@=;;;&#-:::;;;;:;;&$o+@&&*=-;><,:;=****#ooo,,::*;>;;==*&&$$+$&*$->1<>>>",
">>::>>>;&$#&=:,,<2>-**********&&&$@=>:>>:::::::::::=#XXo+&;;;-*$#-;;;;;;;;&++@$*;;::>>,,:;==***$+.++OO$*;>;;==&&&&$$$O$@=:1<>>::",
">>::>>:-&##=:>,<1,;***********&&&@$>>>>>::::::::::=$OXo@=;;:>-*&$#-------&++@&*;;:::><<>;;=****$oO@#$**;,;===*&&&&&$$$@$:><>>>::",
"::::>>;*##&;>,<1,:=***********&&$@->>:>>:::::::::=$Xo+&=;;:>=***=$#*---*@@@#==;;:>>><1<:;=****$+.+#$*;;,;==****&&&&$$$$&;:>>>>>>",
"::::>:=$#$;>,<1>;;-=**********&&@$>>>>>>>:::::::=$oo@&=;;:>;=***=-$@**#@++#*=;;:>><134<;;=****#oO#$*;,1>;==*****&&$$##&&;::>>>>>",
":::::;*#&->,<1>>:;;-=*******&&&$@=>>,,>>>:>>:::=$oO$*=;;:,;=*****=;$o..+@$==;;:>><2563>;=****$+.#$*;,13<;;==**&&$#@@@+$;:::;::::",
"::::;*#**:><1>>>>:;;-=******&&$@$,>,,,>>:>>>::=$o+$&=;;:,;==******-;$.O@$*==;:>><14641:-*****#oO$*;;11,1>;==**$#@+++o@$;:::;::::",
"::::=*&*-:<<>>>>>>:;;-=*****&&$@-<,,,,>>:>>::=$o+$*=;;:,:-=********;&O+#&*==;:><1354<<>*****$+o$*;;1,,>,<>;;*#@++++Xo@$&;;;;::>>",
":::;=*&=:><>>>>>>>>:;;-=****&$@$<<,,,,,,>>::=$o+$&=;;:<,;-==*******=@o@#**==;:>1343<,<>*&&&&#+@*;;,>>>>>><>;#++++OX@O@$$;;;:::>>",
">>:;*&&-:<>>>>>>>>>>:;;-=*&&&$@=,<<,,,,>>>>=$o+$*=;;:<1:=====*******+O#$**==;><11<,,,,<**&&$#@*;;,>>>>>>>>-#++OOXXOOXO@@&;;::>::",
">>;*&&*;><>>>>>>>>>>>:;;-=*&$@$:,11<,<,,>>=$o+#&=;;:<1,-======****&$o@$$**=;:,1<,,,,,,<;**$#@*;;,>>>>>>>>;#++Oo.XO@#$$@+@&;;:>::",
">>;*&&=><>>>>>>>>>>>>>:;;-=*$@=:,11<<<>>>=$o+#*=;;:<11,-=======***&@O#$&**;:,<<,,,,,,,,:*$$#*;;,>>>>>>>>;*++O. XO#@@=*$@+@&;::::",
">:*&&=>><>>>>>>>>>>>>>>:;;=$@$=:,111<,>>=$++#&=;;:,,,12:========**$o+#$&*-:,<<,,,,,,,,,:*$$$*;>>>>>>>>>>-#+O. XO+@@$=&$$@+@*::::",
">;*&=:><>>>>>>>>>>>>>>>>:;$+@$=:,111<<>=$O+#*=;;:,>>>:<2;=======*&#o##&*=;><<,,,,,,,,,>-&$$*;:>>>>>>>>>:$+O. XOO@@@=*&&&$@+&;::>",
":;&&::<>>>>>>>>>>>>>>>>::#+@#&=:,11<<>=$O+@*-;;><>>>>:::<;======*$o+#&*=-:><,,,,>,>,,,:-&$**;:>>>>>>>>>-#+. XOO+@@$=&&&&&$+&;::>",
";;;;><>>>>>>>>>>>>>>>>:;#++#$*=:,11,>&+O+@*;::>1,,,>::;;:,;=====&+O@$*=-;:>,,,>>,,>,,>;*$#*=;:>>>>>>>>:$+o XOO+@@#&=&&&&&$+&;::>",
";;;><>>>>>>>>>>>>>>>>:;#O+@$&*=:,<,>#+++@*;;:11<,,,>::;;-:>;===*$oO$&=-;:>>,>,,,,>>,,:-*$$*=;:>>>>>>>>-#+.XOO+@@@$=*&&&&&$+$;;:>",
"&&><>>>>>>>>>>>>>>>>:;#oO+#&**=:,,>#&##+*;;:<<,,,,>>::;;---:;==&+O+$--;::>>>>>,,>,,,>-*&#$*=;:>>>>>>>:#+oXOO+@@@$&=&&&&&&$+$;;;;",
"&&<>>>>>>>>>>>>>>>>:;#Xo++$&**=:,>#*$$&#;;:,>,,,,,>>:::;----:;&+O+@&--;::>>,>,,>,>>,:-&$#$*=;:>>>>>>:&+OXOO+@@#$&=*&&&&&&#+#-;;*",
"$@>>>>>>>>>>>>>>>>:;#XXo+@$&**=;:#;*$$#&;;:>>,:::,:>:;;-;---;;+oO+@&--;::>>>>>>,>,>,-*&@#$*=;:>>>>>>-+OXOO+@#$&&*=&&&&&&&@+#--=&",
"@@->>>>>>>>>>>>>>:;#XXoO+@$&**==#-;*$$##;:>::::,::::>:;;;;--;@. X+@$--;::>>,>,,>>,>:-*$@#$*=;:>>>>>-#+XO@@#$&&&&=*&&&&&&&@+#===&",
"@@+->>>>>>>>>>>>:;#.XXoO+#$&&&*#---&$$##;::;::::::;:;::;;--;*ooo.X@$*=;::>>>>>>>,>,;**+@#$*=;:>>>>:&+X@@#$&&&&&*;&&&&&&&$@+#*=*$",
"@@+o->>>>>>>>>>:;# .XoO+@#$&&&#-:--&$$##=;=;;-:;;::;:::;--;*O++++oXO$&=;:>>>:>:>>>,-*#+@#$*=;:>>>:-@@@#$&&*****;=&&&&&&&#++#**&@",
"#@@+o->>>>>>>>;&@  .XoO+@#$$$#-::-*&$$##&==-;;;;:;;;;;;;--*+@@@@@@@oX##&=;:::::::>>*@.+##$*=;:>>>-#+#&&*==;;-:::=&&&&&&$@o+#**&@",
"##@@+o->>>>>>;=#O  .XoO+@#$$#-:::-&&$####&==;;;;;;::;:;-;*@@########oXO#&=;;:::>>,-$.X $$$*=;:>>:#+#&&*=-;:::,,,=&&&&&&$+o+#&&$@",
"$##@@+o->>::;==-+  .XoO+@#$#-::>:-&&&#$##+&;=-;;;;;;;:;;*$$$$$$$$$$$#@oX#*=;::>,;#++ooX $$*=;:>:&#$*==;::>>>121,=*&&&&&#oo+#&&@@",
"$$$@#@+o->:=====-+ .XoO+@##-::>>:=&&$$####+==-;;-;;;:;;-$$$$$$$$$$$$#$@+X@&;:,:;*;*&@+oo $*=-:;&#&*;;;::>>>1221:;=&&&&&#.oo#&&@@",
"$$###@@@=:====***-+.XoO+@#-:::>>:*&$$#$###@O*=;---;;;;==&$$&&$$$&$$$$$$$.XooO@&:,<;;&$@+O **==&#&=;;:::>>><111<>;=*&&&&@..o+##@@",
"#$$$$#@=:=*=*==***-+XoO+@=:::>>>-*&$$$#$###+O*==;;;;;=:-$*$$$$$$$$$$$$&$.o+@$=::<1>;=&$@@++*=#&&=;;:::>>><11<<>>:==&&&#+...+##@@",
"$$$$$$=:=*===*==**=-+oO+&=::>>::&&$&$$##$##@+X*=;:;;=>=*$$$$$*$$$$$$&$$$.+$&-:,,11<>;=&$@@#@O$&=;;:::>>><11<<>>>:;=*$$@o..o#@@@@",
"$$$&*=:==*====****==-+O*==::>>>=&$$$$$######@+X*;;;=>:=*&&&&$$&&$&&&&$&$+$&-:>,121><:;=&$@$$@;=;;::::>>><1<<>>>>:;==$$@..o@#@@@@",
"$$&&=:==*=*===******=-+=:::>>>,*&$$&#$$$#$##@+oX*;=>:-**&&$$$&$&&&&&&&*$#&-:,,12<<,,<:;;&$@$#;;;:::>>>><1<<>>>>>>:==*$@.o@@@$$@@",
"$$&=:======***=*=***==**:::>>,:&&$&$#$$$$###@+oXX=<:-***&&&&&&&&$$&&&&*$$-:>,,1,<,,,>>:;=&$@#;;::::>>><1<<>>>>>>>:==**oO@#@O$$@@",
"&&=:==*=**===*==*******:::>>:<=&&&$$$#$$$$#$@+oX=1>--***&&&&&&&&&&****&#&::>,1<<,,,>::>:;;&&#;::::>>>,<<>>>>>>>>>:==*&O+@Oo++@#&",
"&=:===========**==***&:::>>>>:&&$$$$$$$$$##$@+X>1,:-****&&*&&&&*&&****&#*::>1<<,,,>>>:>>:;=&&;::::>>,<<,>>>>>>>>::==*$++OoOO@@&&",
"=:====*==-=*====*=====::>>>>,=&&$$&&$$$$$$$#+O>3,:-******&&&$&&&&&&&&&&#=::1<<,,,>>>>>>>,:;;&;:::>>><<,>>>>>>>>>:;***@+OoOO+#&*;",
":=====-*==*===**====&::>>>><:&&&$$&$&$$$$$#@O>11:--*******&&&&&$&&&$&&&#=:>1<,,,>>>>>>>>>>:;&;:::>>,<,>>>>>>>>>>:;**$+OoOO+#&=;;",
"========-=***-*=*====:>>,,,:=&&&&&$&$$$$$#@X>13<:-***********&&*&&$&**$#::1<,,,>>>>>>>>>>>>:=;::>>,,,>>>>>>>>>>::;&$@ooOO+#&=:::",
"=========*===*&*===&:>>>,,:=&&&$$$$&$$$$##X*<34<:-**************&&$&**#&:><,,,>>>:>>>>>>>>>>=;::>,,,>>>>>>>>>>::;=&$oo+++##=:::=",
"======***======*====>>>>,:-&&&$&$&&$$$##$X&><13<:==*******&&**&&&&****#*:<,,,>>>>>>>::>>>>:-$;>>,,,>>>>>>>>>>>::;*$@o+++#&=:::==",
"===-==**==*===**==&:>>>><:&&&&$$$$$&$$#$+#->1<<2>;==******&&**&&&&****#=:,,,>>>>>>>>::>>>>*#=;>>,>>>>>>>>>>>>>:;**#++++#&&:::===",
"===-=======*======>>>>><:-&&&&&&$&$$##&+o->1,,,,<>;==***********&&&&&&#;,,,>>>:>>::>>>>>>*+&;:>,>>>:>>>>>>>>>::;*$++@##&&:,,====",
"======--=****====->>>><1-&&&&&$$$&###&+o#:<1,>>>:<;;==**********&&&&&$$;,>>>>>>>:>>>>>>>*+&;:>,,>>:>>:>>>>>>>:;=*#+@##&&:>,;====",
"=-=------==*-====:>>><11&&&&&&$&$##$$+o+-<1<>>>>>:>;;==*************$$$=>:>:>>>>:>>>>>>=#&;:>,,>>>:>:>::>>>>::;*#+@##&=:,,;=====",
"==-====-=-======::>><<11=&&&&&$$####+oo#;1<,>>>>>>:>;;==************$#&=>>>>>>>>>>>>>>=$*;:>,,,:>>>>>>::>>>>:;=&+@##&=;>,,>;====",
"==---==*=======:>>><,,,<>=&&&$$$@@$+oo+*>1,>>>>>>>>:>:;==***********$@&=::>:>>:>>>>>:-$*;:>>,,>:>:;::>>>>>>::;*#+@$$=;>,,,>>;===",
"==----==-=====::>><,,,>>:>=&&$##@@+ooo&;11,>>>>>>>>>>,:;==**********$@&=;:>>:>>>>>>:-@*;:>>>,>>>:>>::>>:>>>:;=&+@#$&=:>,,>>>>;==",
"--==--==--===:>>><,>>>::::;=&$$$@++oX+->1<>>>>>>>>>>>>,:;==*******&&$+$*;::>>>>>:>:=@&;:>>,,:::::::>>:::>>:;=*#+@#$&;:,,,>::>>;=",
"--==--==--==::>><>>>>:::::;;*=&$+++oo$>1<>>>>>>>>>>>>>>>;;==******&&$+$&-;>:>:>>>>=O&*:>>>,::::::>::>>>:>>:;=&+@##&&:,,,>>::>>>;",
";===--=====;>>><>>::>:::::;=&=&@++oX$=,1<>>>>>>>>>>>>>>,:=;;=*****$$@+#&=;:>:>:>>-o@*->>>,:::>:>>:>>>>>>::;;*#+@$&==>,,>>>>>>>::",
">;==--====;:>><>>;;::>::::;=&*@+++o+&;1<,>>>>>>>>>>>>>>>,;=;:=****$$@+#&*-;>>>>>;o@&-:>>,>::>>;:>:::::>>::;-&+@$$*=:,,>>:>>>>>::",
">>;=--====::><>>:-:::;::::=&&$+++oX#->1<>>>>>>>>>>>>>>>>>,;=;:=***$$@+@&&*;:>:>;o@*=:>:>:::;:;:>:>::::>>:;=*#+@$&=;>,,>>>>>:>>::",
">>:---==*::><>>>:::;::::::=&$@+++o+&>><>>>>>>>>>>>>>>>>>>>,;=;:=**$$++@$&&=;::;o@&=-:::::::;;::::>>;::>::;*#+@$$*=:,,>>>>::>>>::",
">>;==***::><>:::::::;::::;=&#+++oX#=><,>>>>>>>>,>>,>>>>,>>>,;=;:&&#@o+@$&&*=;;o$*=-;;:;;;:;;:::>;>:;:>::;=*+@$$&==>,>>:>>>>>>>::",
">>;****;:><>::;:::::-::::;=&@+++o+&-<<>>>>>>>>>>>>>>>>>>>>>>,;=;;&#@o+@$&&**=O$&=-;;;;;;;;;:::;:>::::>:;;*#+@$$*=;,,>>>::>:>>>::",
">>-***&:><>::;;:;;:;:::;:;=&@++oX#-:,,>>>>>>>>>>>>>>>>,>>>>>,,;=;&@oo+@$&&&&@$&=-;-;;;;;;;;;;::;:::::::;=*+@$$*=;>,>>:>:::>>:>::",
">;**&$:><>::;::;;::::;:::;&$@++o+=;:,>>>>>:>>>>>><>>>>,>>>>>>,,;&@ooo+@$&&&@$*=-;;-;;-==;;:;;;;;;;;:::;=*#+@$&=;:,>>::::>>>>:>::",
">-*&$-><>:::;:::;;::;::;;;&#@+oo#->,>>:>>:>>::>>>>>,,>>>>>,>,>;&+.ooo+@$$$@$$&==;-----;;;;;;;::;;;;:::;=*+@$&=;:,,:::>>:>>:>>>>>",
">*&$#><>::::;:-;::-:-;;;;;&@++o#*;,,>>:>:>>>>>>>,>>>>>>>,>>,>;&+  .ooO+$$O##&==*=*---;;--=;;;;;;;;;;:;==#+$&-;::,::::>:>,:>>>>>>",
"-*$#><>:::::::-;:;:;::;;-=&@+++&-:>>:::::>>>,>:,>>,>>>>,>>,>;&+    .oooOO@&&==***=----*=--==:;;;;;;;:;=*+@&=;::,:::>::::::>:::>>",
"-&#-<>:::-::::;;;:-;:::;;=&++o$-:::>::>:>>>:>,>>,>>>><>>>,>;&+      .oX +@&&***=====--*==;==;;;--;::;=*#+$&-::,::>::>>>>:>:>::>>",
"*$->:;::;:;;:;;--:-;-;::-=$++o*;>>:::>>:::>>>>>::><>>>,>,>-&+        .   +=***-=**=**=====-=----;-;;;=*+@$=::,::::::>:::::>>>>>>",
"&$>:;;::::;::::;;:-;;:::-=@+o#=;>:::>>>::>,>,>>>>>>>>>>,>-&+.             @=**----*=***-*=-;=----;;;==&@$=;:,::::::>>>:>>:>>>>>;",
"$::-;;--;;;;::;;-;;;:-;;-&@+#*;:::::::>:>:>:,:>,>>:,,,,:-&+XX             +@-*****--**=====-=-*=--===*#$=;:,::::::::>:::>>:>:::-",
"#:--;;--;;;;::-;;:;;--;;-&++&-:::::>::>::::>:>>>:>:,>>:=&#++X             +O@-****--**=*=;--;-==--==*&$=;;,::::::::::::::::::::*",
"##$*--------;;--;-:;--;;-$+#*;;::::::>::::,>:,>,:,>>;=&#+#@@.            +++O@********====----*=;-==*$==:>:::::::::::::::>::::-#",
"###$&&------;;;---;;--;;&@#*=;;;::::>:::::>>:,<>::>;=#++##@O.           ++++OO@********=-=--=-===;==&$=;>::::::::::::::>::::::-#",
"#####$*-----;;----;;;;==$#*;;;;;;;::::>:>>,:>:>,:,;=@++###+X           +++++++@@*******;=**=--**==**$$;:::::::::>>::::>>>>:::-##",
"#######$&&--;;----;;;;=*#*;;;;;;;;;;::::>>:<:,>,:;=#++####O.          ++++++++@@@***************==*&$=;:::::::::>>::::>>>>:::*##",
"#########$*---------;;=&*;;;;;;;;;;;;;;>>:>>,><:;=@++#&&#+X          +++++@@@@@@@@*****************$;;::::::::::::::::::::::-###",
"###########$&&------;;&&-------------;;;::,>><>;=#++@&&&#O.         ++++++@@@@@@&@@****************$;;::::::::::::::::::::::-###"
};
