/* XPM */
static char *_7_Wolfenstein3DWalls1735817070[] = {
/* columns rows colors chars-per-pixel */
"128 128 48 1 ",
"  c #2B0000",
". c #370000",
"X c #2B230F",
"o c #3B2F17",
"O c #430000",
"+ c #4B0000",
"@ c #570000",
"# c #630000",
"$ c #6F0000",
"% c #770000",
"& c #43331B",
"* c #4B3B1B",
"= c #573F1F",
"- c #5F4323",
"; c #6F4B27",
": c #774F2B",
"> c #830000",
", c #8F0000",
"< c #9B0000",
"1 c #9F0000",
"2 c #A70000",
"3 c #B30000",
"4 c #BF0000",
"5 c #CB0000",
"6 c #D70000",
"7 c #E30000",
"8 c #EF0000",
"9 c #9F4F00",
"0 c #AB5700",
"q c #B75700",
"w c #83532F",
"e c #875333",
"r c #8B5B33",
"t c #935F37",
"y c #9F633B",
"u c #A3673F",
"i c #AB6B43",
"p c #B77347",
"a c #BF7B4B",
"s c #C3774B",
"d c #CB7F4F",
"f c #D38353",
"g c #DF8B57",
"h c #EB8F5B",
"j c #F3975F",
"k c #FF9F63",
"l c #FFA773",
"z c #FFB383",
/* pixels */
"aaaaaaaaaaaaaaaaaaaaii;;;;;;;;::;=--======-wyyyrwwwwwwwwwwww=tiiiippddddddddddddddppytigddddddddddddddddppwffaaaaaaaaaaaaaaaaaaa",
"aaaaaaaaaaaaaaaaaaapir;;;;;;;;::::w;--====--uyyrwwwwwwwwwww:-tiiiippdddddddddddddapytigdddddddddddddddddppwfaaaaaaaaaaaaaaaaaaaa",
"aaaaaaaaaaaaaaaaaaii;;;;;ww;w;;;::::ww--==-;uyprwwwwwwwwwww-;iiiiipayyppddddddddapytigddddddddddddddddaprwifaaaaaaaaaaaaaaaaaaaa",
"aaaaaaaaaaaaaaaappt;;;;;wwwwwrw;::::wwww;--;uupdwwwwwwwwwww=riiiiidyrrypdddddddapptigddddddddddddddddaptw-faaaaaaaaaaaaaaaaaaaaa",
"aaaaaaaaaaaaapiit;;;;;;;wwwwwwrrw:::wwwwee;;uuupawwwwwwwww:-tiiipfur:::;ppddddappy:gddddddaaaaaaddddaarw-ifaaaaappaaaaaaaaaaaaaa",
"aaaaaaaaaaaaapi;;;;;;;;wwwwwwwrrrrw:wwwweeteuuuuiiwwwwwwww-;iiiiayr:::::-pdddappy:agddddddaaaaaadddaptw-:faaaaaappaaaaaaaaaaaaaa",
"aaaaaaaaaaapii;;;;;;;;wwwwwwrrrrttrrwwwweerruuuuuttwwwwwwt-wuipaurw::::::-yppppr:igdddddaaaaddddddaarw-*ifaaaaaaaaaaaaaaaappppaa",
"aaaaaaaaaappi;;;;;;;;wwwwwrrrrrrtttttwwweerruuuuuuttwwwwtt=yiapyr:w:::w::w-:ypw;igddddddaaaaddddddptw**wfaaaaaaaaaaaaaaaaappppaa",
"aaaaaaaappit;;;;;;;;wwwwrrrrttttyyyyytrwwrttuuuuuuuttwwwt:yppprrwww:::::::;o-w;igdddaaddaaddddddaar;o&-idaaaaaaaaaaaaappaaaaaaaa",
"aaaaaaapiit;;;;;;wwwwwwrrrrrttttyyyyyyytrrttuuuuuuutttwt:ypppyrrwrww:w:::w;-o*igddddaaddaaddddddpt;&Xorfpaaaaaaaaaaaaappaaaaaaaa",
"aaaaaapiit;;;;;wwwwwwrrrrrttyyyyyyyyiiipytt:uuuuuuiitttwypputtrtwrwr::::w::;=:gdddadaaaaddaaddapr;&XX-ippaaappppppaaaaaaaappaaaa",
"aaaaapiit;;;;wwwwwrrrrrrttttyyyyiiiiiipptt:ruuuuuuiityyypputttrtrwrwww::::w;:gddddadaaaaddaaddpt;&XXX:uupppappppppaaaaaaaappaaaa",
"aaapiiy:;;;wwwwwrrrrrttyuuiiiippppppaaat:wruuuuuiiiityipputtrrrrrwwrwrwwwr::ffaaaaapddppddddapr;&--=*-typiipiaaappaappaappaaaaaa",
"ppiiiy::;wwwwwrrrrtyyyyyiippppppppaaat--rtuuuuuuiiityiaputtttrtrrrwwwwwwww:gffadpppapappdddaat;-rrr;;*:tyiiiiiiappaappaappaaaaaa",
"iitty:;;wwwwrrrttyiiiiippppppppaadat--ryyuuuiiiiputiapuuttttrrrtrrrrwrwww:agfdppapppaaaaddapt;;rtutr:;*:tyiiippippppppaaaappaaaa",
"yyty::;wwwwtrrttyiipppppppppaadddt-;rtyuuuuuiiiiutpapputtttttrrrrrrrwwrr::agfpppppppppapdapt;wrtuutw::;*:tyipiiiipppppaaaappaaai",
"ttr;;;wwwttttyiiippppppppaaappat-;;tyuuuiiiippppiaaputttttrttttrttrrrtrr::tpgpppppppapaaapt;wrtuuytw:::;*:ttuiiiipaappaappaaaapi",
"tr;;;wwwtttyiipppppppaaaddaapt-;wryyuuuiiipppppiaaputtttttrtttrrttrtttr::rrtadppipppapdapt;wrtuuuyrw::::-*:tuyyaipaipaaappaaaaii",
"r;::rrryiippaaaaaaaaaaaaaaat-;wruuuuuuiippppapaapputtttttttttrtrtrttrrw:ryurtaapiiippppptwrruiiiytrw:w:::-*:tttyiaipapppaappppit",
";;:wryiiipadddddddddaaaapt-;wrtyuuuuiippppaaifapuuttttttttttrrtttrttrw::yyur;tpapiiiiiptwtruippiyrw::ww::;-*wtttyyiiyyppaappiitt",
"rryyiiipppaddddddddddppt--;wtyuuuuiippppaaaifaputttttttttttttttttrttw:wryyttw-tpapiiiptwttuuppppurw:w::::;-*;wttyyyyyippiiiitt:;",
"wryypppppaadddddddpuu-&&&;wrtyuuiipppppaaipfaputtttttttttrttttttrrtw:-wryyttr;-taapiptwttuupppppurwww::rw;-*;wwwtytyiaiiiitt::;:",
":ripaapppaadaapput-&&&&&&;wrtyiipppppaapyaffputtttttttrrttttttttttw:-;riyyttrw;-tppptwttiipppppatrrrwww:w;-X*;wwwwtiyyiiitw:-:w:",
"wwraaapppauuttw----------;wrtyiippaaaaptafhautttttttttrrtttttttttw;-*:upyyttrw;&-tttwtuuipppppaatrrrwwwww;-XX*;:wwttyyytw:--wryw",
"wwwraaiurr:=&&;wwwwwwwryir;wtyiipaaapywpfhauttttttttttttttttrtttw;-*$rpayytttrw&o=;wtuiipppppaaaurwwrrrrw;-XXo*=:;wwttw:=-wyyyiw",
"wwwwrurr:=&&&&;tttttttyppir;wyiippapywpfgautttttttttttttttttrrttw;*-9ypdy4tttr-&=>tttuuiypppaaaduuwwrrrrw;-X*;;;-;ww::-&&wyyiiau",
"urwwwwwwww-===;riiiiiiiaduur;wuuiiiitpfgdittttttttttttrttttt:trr:-*<ypfgi9yytr>#;,%tty9ipppaaaffppurrrrrw;-&:it:X*::-&&-wyiiipaf",
"autrwwwwwww:;;;wyiiiiipaduuur=;tuuitpfgjfittttttttttttrrttttttrr:*-<63gh4iy4t,-$-><we,yippaaadhdaapurrrrw;-;iadt*XX&o*-;tiiiiaaf",
"aappurwwwwww::;wryiiiiadauuuur=;wtypfgkkapttttttttttttrrtttttrrw;+,<9r4g9iyy,-w$$-3-<w9:yyaafhgaaaapurrrw;--taut*o&&=-;ryiiipdaa",
"aaaapuurwwwwww;:wryyipdgauuuuuw&-wifgjzkfpitttttttttttrrttttr:ww-<>23r6fa44y,t-$%<332<>,yaddgfdaaaaapurrw;-=:tt=o&*=-;wtiiiipfaa",
"aaaaaaapurwwww;;:ryyyadgauuuuuw&-yffjhghkaitttttttttttttttr:rww;=>><6466ray<,>>%%24432,=sfgfddddaaaappurw;--===o&*=-;:tyiiipdfaa",
"aaaaaaaappurww;;;ryyudggauuuuuw&wifgddfffgaittttttttttttttrrww;*;#2;<645-r42%%%%>2662<<qggdd5ddddaaappuuw;----o&*=-;:rtiiiipfdaa",
"aaaaaaaaaaaair;wryyiagppgauuuuw&yfgaddddddgpittttttttttttrrww*#-t>59;864562%w-&$>464,,<46d5d9dddddaappiiy;:w::o*=-;:wtyiiipdfaaa",
"aaaaaaaaaaaaai;rttyadiutpdauuuw-igaaddddddfgaitttttttttt:rww*##:>><57874552%99%%,44<,,<45dqdqddddddappiir;wtw:*=-;:wrtiiiipfaaaa",
"aaaaaaaaaaaaairryuppiytutpdpuuwtddaaappaffffgpitttttttttrw:;@->>>9<2587562<%%<%,142,>,<9514a4a4addddppyr;wttr:=-;:wrtuiiipdgaapp",
"aaaaaaaaaaaair;yuppauyttutpdauwupppppapafafffgaitttttttrww;=-@t><2<:566564422%,<22,%>2<5593a9a9aaddapyr;:rttr:-;:wrtuiiipagfaapp",
"aaaaaaaaaaair;yupaapyuyytutpdpppippapapaaaddffgpitttttr::;#-;@,<><366665432<%<<232,%93<9443aq49aadppyr=:rtttr:;:wrtuuiiiagfappaa",
"aaaaaaaaaair;ypaapiiyyuyttrwppdiyuppppaaaadafffgiitttrww=&->:@><<>><45653<,,<224442,<3<,333pq4qa5apyr=-wrtttr::wrtyuiiidddaappaa",
"ppppaaaaair;ypapiiiiiyytttwrpfaryuippppaapddafffgpitrww=&-;$,,9>39$,3553<,,<2346654223<q<,,pq44a9pyr&-:wryttr:wrtyyuiipgdaaapppp",
"ppppaaaair;uapiiiiiiiiyttw:pfattrpuipppppppdffffffiiww=X*-;@@,<9>$,4443,,,223468754222<,<9,344qaqyrX-:wwruttr:rtyyuuiiadaaaapppp",
"ppppaaair;uiiiiiiiiiiiiyw:pdaitttrpuippppaaaafddffii:=Xo@-%@r%>1,,,442,%%<2456776432,,#9<,,3>33pyr&X:wrrtuttr:rtyyuiipddaaapppaa",
"ppppaair;tyiiiiaayiiiiiiypdfiyttttwiuipppappaaddfai:-Xo*=#$@>,%<2<<<,%$$>2457865432,>%><,3=393ppr=:&wwrtuiytr:rttyyyiafdaappppaa",
"ppaaair;wrtyiaaitttiiiiipdfaytttttt:iuipappaaaafai:=&Xo*=-%>>,%<<>,>%##%,356654432<,%%,%,3p3p5pr::$*tiiiiiyyr:rttttyidaapppppppp",
"ppaair;wwwrtaittttttiiiipffayttttttw:pyippaaaafai:**=*o*=-$>$>%>>>>%#@#><345444332<,>>,,9,353,y;t<>>iadggfiyr:rttttipfappppipipp",
"iiiir;wwwraaitttttr:iippdfaitttttttww-pyyippafaiw======o=#$>$$1>>>>$###%,222233322<,,,%,9,3,9,;;aat$iaaddfair:rttttiafppppiiiiii",
"iiir;wwraaittttttr:-iipdffaytttttttw:;*puyaffaiw-;;;;;;=+@@@$,<,$%$#$#@#%,>><222222<<3%,33,,yww;aat@iaddddfir:ttttiafapppiiiiiii",
"iir;wwriuuttttttrw;-ttpffpyttttttttw:;-*uaaitw:::::::::::@**,**>%$#$$#@+#$%#<2<<222,,2>=929,,wry;=*o*iadddfar:ttttiddappiipuiiii",
"ir;wwiauttttttttw;-=tpaffptttttttttr:;-&X*::wtrrw:::::::ww:*,9$$%%%%$##+O@$#<,>>,2<,,,<222:,>ryyw:=o=:iadddar:tttupfdpiuuiiuiiii",
"r;yiagtytttttttw:-=rpaffittttttttttr:;-&&:aaiiyttrwwwwwwrtt->$$=,,,,>%$#++#%,,##><<,,,,,<,=,tyiyrw:=ww:iaddar:ttuiaappiiuuiuuuuu",
";yaaggytttttttr:;=ruaffpittttttttttr:;=&:pdfgaiyytrrrrrrtttt&@@><2343<,%####%>,%%,,>>>,9>.#>yiiyrrw:wtt:iadar:wtupaapiiiuuuuuuut",
"iaagdapttttttr::=:iaffaittttttttttrr:;;:affdgkaiyyyytttttttwXXo>2466332>%%$##%,,%,,%$$,$.#,9iittrrtwtiitwiaar:-wpppiiuiiuuuuuutw",
"aagdaaaptttttw;-:tadfgiyttttttttttrr:;wyafapagkaiyyyyyyyttw:&o@%4665322,%%%#@#%,>,>%=@,.>9>yiyttrrt;yiiitwiir:w-yyiiuiiiuuuuutwu",
"agdaaaaaptttrw;:tpddgaitttttttttttrrw;iafapppaggpiyyyyyytw:=oo$924542<<<,%$$#@@$>,%%@+@##y9piyrrrrw-upppio*wr:pattyyuuuuiiuut:ua",
"gdaaaaaaaptrw::tpadggpytttttttttttrr;wifappppppadpiyyyytt:&&&o%p9222,><>>,%$%#O+%>%#++#%#ypaiyrrrr;&ppppi*-triaiiryyuuuuiuut:uag",
"aaaaaaaaair:::rupdfgaittttttttttttrw;yfapppppppppaiyyitt:&&=wwwaa>2,,$4$>2>%%$O.#$#++#>%9uppyytttw*oppppi-wtiaiiytwryyuuuutwuagf",
"aaaaaaaaai::::uiadghpyttttttttttttr;wiapppppppppppdiiit:o&=wtttia9<9,939$2<>%$O.O@+O#>,#udpiyyttt;&oppppittiaiiytt:wryuuutwuagfa",
"aappaaaapy:::rppddhfitttttttttttrrw;uapppppppppppppditwo&=:yiirupp<p>922939>>#O...+#%,%udpiyttttw-o&ddppitiaiiyyrrw;;rtytwuagfaa",
"aappaaapyt::rypddghpttttttttttttrr;wippppppppppppppitw&&=;yiiirwup<p>92>92>%$+.O@#$>,%wddpiytttt:***ddpptiaiiyytrrww-wrtwuagfaaa",
"aappaaairw:rypddfhauttttttttttrrrw;yapaapppppppppppy:&&*-riiiutw:u9i39<<9<%#+O+#%>>#raddpiyytttw-o--==wtiaiiyyrrrrwww=w;ypgfaapp",
"aappaapur::ypadfgditttttttttttrrr;waaaaappppppppppyw=&*;yiipautrw:9u>21>,>#OO@$>>>00affaiiyttttw*=;:wttidiyyytrrrrrwww;wpafaaapp",
"ppppaait::riadfgdpytttttttttttrrw;uaapaapppppppppyw&*-ryiipaytttyw:t>>1w;#@+#%>,>0aafgfpiyttttw-o-:wtiidiyyttttrrrrwwwwripaaaaaa",
"ppppapyw:wiadfgaiiuyttttttttttrr;waaaaaaapppppppyw**;ryiipaiytttyuw;>t$;-@#$%>,1,rfgjkfiiytttt:*=:wtidgaiyytttttrrww::rrippaaaaa",
"pppppit:ruadfgaapiiuytttttttrrrw;yaaddaaapaapppyw*=wtyiipdiytttttyiw* ++@#$%>,233:hlzjaiyttttw-o:wtidgjfiiyyttrrw:;;;-wipppipppp",
"ppppit:ttpafgaaaapiiuyttttttrrw;wdadddaapaaappyw*-wryiipdiyyttttttuiwo.+#$%>,24445kzkgputtttt:*=wtiiggdgaiyyttw:;---*;wipppipppp",
"ppppytrtupffaaaaaapiiuytttttrrw;ufddddaapaappyw*-wtyiipdpuyttttttttir=O@#%>,234567phgfatttttw-*wtiigddadfaiit:;----&*;wriiiippaa",
"pppiytrypafaaaaaaaapiiuyttttrw;wffddddddaappyw*-wryiipfdiuyyttttttty;**@#%,1223486ufdfatrrrr:-;tiidaaaaaafai:----=&;=;wwiiipppaa",
"aapitrrupfaaaaaaaaaapiiuytrrrw;ydffddddaaaayw*-wtyiipfgpyyyyyttttttt-=:*#>,,22-345udddfttrrw:;tiidaaaaaaaau:--==&&==&=;;riippapp",
"aaitrrtiafaaaaaaaaaaapiiuytrw;wpdggfdfddaayw*-:ryiipfgduyyyyyyttttrw*;ww=%*<2yg--4udddfittw:;tiidaaaaaaaai:--=*o&=;:ww;-;riipapp",
"aaitrryafaaaaaaaaaaaaapiiuytw;ypdggfffaaayw*-:tyiipfggduyyyyyyytttr;=:wrt>i<yffd:3uddddptww:tiidaaaaaaaait--=oX&=:;;ytw;-;ripppp",
"aptrryaafaaaaaaaaaaaaaapiiyw;wypdgggfdaayw--:ryiipdddghpyyyyyyyyttw*-:wry,p<ufdd05iddddptwwwtiaaaaaaaaaau:-=oX&=-;;wyrww;-;tpppp",
"aitrypafaaaaaaaaaaaaaaaapiw-;wypdgggffayw=-:tyiipdaaapfhiyyyyyyytr:*::rty=a9iddd03idddaurwwtipaaaaaaaaapw-=oX&==;;;ytrrrw;-rippa",
"pirrppfaaaaaaaaaaaaaaaapp:-;:rypdggffayw=-;tuiiafaaaapppfiyyyyyytw*-:rtyu:aqpddd0ypdddpurwttipaaaaaaaaau:-oX&==-;;wyrrrrrw-rippa",
"iiiiafaaaaaaaaaaaaaaaapi:--:wtypdggdar-=-;tippagdddappiipdiyyyyyr-=;wtyui:aqpdaa03pddaitw:tyipaaaaaaaapw-*X&==-;;:ryrrrrrw-rippa",
"iiiafaaaaaaaaaaaaaaaapi:=-;wrtypdfda:---;tiipggfdddappiiupaiyyytw*=wryuipraqaddd00pddputwwtyipaaaaaaaau:-o&==-;;;wytrrrrrw-wiipa",
"rrafaaaaaaaaaaaaaaaapi:*=-:rttypdda:r::-tiipffddddaappiiuuupiyyr-=-wuuipprapaadd0qddautr:wtyipaaaaaaap:-*&==-;;;wryrrrrrrw-wiiii",
"rrfaaaaaaaaaaaaaaaapi:&*--wrttypda:twwr:iipdadddddaapppiuuuupir-=-;ruuippiaaadda0padpurw:wtyipaaaaaapr-=&==-;;:wrytrrrrrr:-:uiit",
"w;aaaaaaaaaaaaaaaapi:&&*-;wrttyip:itww:riipaadpppdpapiiuiuuuii-*=-;ruuippiaaaaadapadutr;:wtyipaaaaaau-=&==-;:wrrtyrrrrrrr;-:uuyr",
";;uaaaaaaaaaaaaaapi:&&*=-;wrttyy:uitww::ipappppdppppapiiiiuui;oX&-;wuuippaadaddaapaputw;:wtyipaaaaau:-&=;;:wrrrrytrrrrrrr;-:yyyr",
";;-uaaaaaaaaaaaapi:o&&*=-:wrrrt:uuurww::ippippppppipippiiuuit***o&;wtyippaaaaaaadyditt-;:wtyipaaaapr-&;;:wrrrrrtirrrrrrrw;-:tytw",
";;-*uaaaaaaaaaapi:Xo&*=-;:wrrr:upuurww::yiyiiupiippipppiuuit=----*&=wryipaaapapaaadut:-;:wtyipaaapu;;;:wrrtttttiyrrrrrrr:--:ttr;",
":;;-*uaaaaaaaair;XXo&*=-;:www:upputrww::ryyuiiiipiiiiiiiuut-;;;;;;;*&::ryipppppppaat;o-::wtyipaaau:-:rrtyyiiupppyrrrrrrw;*-:ttr;",
"::;;-*uaaaaaaiy:=XXo&*=-;:ww:upppurrw::::ryyiiiiiippipiuit;;::::::::*&=:ryiipppaaduwo&Xwwwtyipaap:-:rrtyuipppdddyrrrrrrw-*-:rrw;",
"w::;;-*uaappiyyu-XXo&*=-;:w:uppapurrr:w::-riyuiiiiiiipiitwwwwwwwwwww:;*&:tyippadi:--**&Xwwtyipapr:wtyyippaaaghgdytrrrrr:**-:rr;;",
"www;:;-*uapyyyyyu-Xo&*=-;::uppaapyrrww::::-yyuiiuiiipiiuwwwwwwwwwwww:w;-&;ripdpititr;-**Xwtyupir:rtiiippaaaghhgpiyrrrrr:o**:rr;;",
"ww:::;;;ypyyyytttu-o&*=-;:upppaaptrww:w:::;=tyiuuuiiiiyyrwwrrwwwrwwwwwwwo&**=;rpdfiirw;-=Xttyyr:ryiipppaaafgggfaiytrrrr;oo*-::;;",
":wwww:;ypytytyytttu-&*=-;ypppaaautrwww:w:::-=tyyiiiiiypuwtwwwwwwwwwwwwrwo*-;wyppfgaiyrw;;--ty:rryiipppaaafggffaapyyrrr:-ooo-::;;",
"wwwwwwypytyyytyyttyu-*=-ryppaapprrwrww::w::;-&tyipiiyaytwwwwwtwwwwwwrwwwo-wrupddggfaiyrw;;:;=wryiipppaaafggffaaapiytww;*oo*:;;;;",
"wwwrtypyytyyyyttttyyu-=tyyppaaayrwwwww::::::;-&tiiiyapytrrrrwwrrwrrrrwrw-wrupadghgafpiyrw;ww;iyiippppaaafgffaaaapiyyww;oo*;:;;;;",
"wwrrypyytytyyyttttttyu-ypppaaadtrwwr:www:w::;-*&tiyaputtrrwwwrwrrrrrrrtw:rupddghffddfpiirw;w:iiipppaaaafgffaaaaaapyytw;o*;;;ww;;",
"wwrypyyyyyytttytytttyyttpppaadprrwrw:wwww:::;-*&&yfputttrrrrrrrrwwrrrrtwwupaddgdfdddaapiyrw;:iippppaaafgffaaaaaaapyytt*=;:;=ww;;",
"rrypyytyttyyytyytttttttpppaapfyrrrwww:wwww:w;-*&ygauutttrrrrrrrrrrttttr:rppadgffdddappapiirr:ippppaaadffaaaaaaaaapyytr=-;=*--;:r",
"rypyyyyyyyyyyyttyytttrpppaaaaprrwwwwwwwww::w;-&agdputtttrrtrrrrtrrttttr:tppagffdddaaapaapiyrrippppaadffdaaaaaaaappyytw--=*==;;rr",
"ypyyyytyyuytyyyytyyyyyppaaaadyrrwwrrwwwwwww:-=ajdputtttttrrrwrrrrrrrrrr:yppgffdddaaaaaaadpiiripppaaaffdaaaaaaaaapittt;-=*==-:rti",
"pyyyyyutyytyyyttyyyyrppaaaafprrrwwrwrwwwww:;=aggpuutttttttrrrrrwrrrwrrr:ypagfdddaaaaaaaaaapiripppaadfdaaaaaaaaaapittw-=*==-:ryii",
"yyyyyyyyuytttutytyyyypaadddpyrrrrrwrwwwww:;&agjfputttttttttttrrtrrwrttw:ppgfdddaaaaaaaaaaaapyippaadddaaaaaaaaaappirw;**==-:ryppp",
"yyyyyyyyytyyytrtyyyrpaaaddpyrrrwwwwrwwww::&tfjkfputtttttttttttttrrwrtt:rpafdddaaapaaaaaaaaaayippadddaaaaaaaaaappiyrw**---::ypppy",
"yyyyyytttyyyyyytyyyyaaaadpurrrwrwrrwww::w&rafgjfpyytttttttrrttrrrrtttt:tpfdddaaaaaaappaaaapuwiaadddaaaaaaaaaaappitw;*---:rypppyy",
"yyyuyyttyytyyyttyyrpaaaafprrrrwwwwwrww:w-:uagffhaiyyttttttrrttrrrrtttt:ypdddaaaaaaaappaaaat:yiaadaaaaaaaaaaaaapitt:----:rrpppyyy",
"yyyuyyyyyyytyyyyyyaaaaafpurrrrrrwrww::r-*uagddddfaiyytttttttttttrrrrrr:idddaaapaappaaaaaat-ripadaaapaaaaaaaaappitw--;::rrpddyyyy",
"yyyyyyuuyttttyyyyuaaaafgurrrrrwwwr:::r-*:pfgdaaapfiiyyttttttttttrrrrrwwidaaaaaaapaaaaaaat-ripaddaapaapaaaaaaapiyt:-;::rrpadiyyyy",
"yuyuuuuuuyytuyyyypaaafggrrrrrrwrw::ww-*-ufgfaaaaapaiiyytttttttttttttwwwyapapaaaapaaaaaay:ripaddaaapapappaaaappit:-;::rypddiyyyyy",
"yyuyyyyuyuyyyyyyppaaffggyrrrrrww::::-**:igfdaaaaaapaiiyyttttttttttttw:ryaaaaaaaaaaaaaaywtipadddpaaaaaappaaaapiyr-;::ryiaddaiyyyy",
"yyuuuyytyyyyyyypaaafdddfayrrrwww;;w-**-tagdaaaaaaaapapiyytttttttttttw;ryppapaapaaaaapuwtipaaddapapippaaaaaappit:-;wwyiadddaaiyyy",
"yyuuuuyyuyyyyyppaafdddaapayrrw::;;-***riggdaaaaaaaaaadpiyyttttttttttw;ryipaapaaaaaapu;tipaaadaaapaappaapaaapiyr-;:wrypaddaaaaiyy",
"uuyyuuyyuuyyypaaafdaaappppiyrwww;--*&-uagfaaaaaaaaaaaadpiyytttttttrrw-wtippaaaaapapy;ripaaddpppppppaapppaapiyt:-;:wripdddappaaiy",
"uuyyuuyyuuyyppaafaaaapppppiityrw---**wagfaaaaaaaaaaaaaaaiiyyttttttrrw-wruiapapaaaay=rtpaaadppppppappaaapaapiyr-;::rrpdddaappaaai",
"iyyyuuyyyyyiaaafaappapppppiyryr;--*&wydgfaaaaaaaaaaaaaadpyiiytttttww;-:ryipapapaau*;tuaaadpppapaapaaaaaappiit:-;wryyaddaaaaaaapp",
"aiyyuuyyyyipaafaaiippappppiyrt;---*-rigfdaaaaaaaaaaaaaaadiyipyttttww;-:rtuiaaaaai*;rupaadappaaipapppppaappiur-;wwtypddaapaaaaapp",
"aaiyuuyyyyppafaapupppippppyrrw---*&:uagfaaaaaaaaaaaaaaaaadiyipytttww;-;rrtipapai*;typapapppipipapappppaapiyt:-;wryiaddaaaaapaapp",
"aapuuuyytppafaaapppippppppyrw;---*-raafaaaaaaaaaaaaaaaaaaadiyipyttww--;wrryippi*;ryupppppppiippppaaippappit:-;wwtypddaaaappaaapp",
"aaiyytttppafapppppppippppiyr:---*&:yafdaaaaaaaadaadaaaadaaadiyiprr:;*-;wrrtyii*wtyuiipiiipiipppaiapipappiyt-;wwryyadaapaaaaaaapp",
"aaittttipafappipppppuppppiyr;---*-ruffaaaaaaaaaaaaaaaaaaaaaadiyiir:;*-;wrrtty=wryuiiiiiiiiipppipappppapiit:-;wwtyiddaaappapaaapp",
"aautttrpafappiipiipipppipiyr;--*&:upddaaaaaaaaaaaaaaaadaaaaaddiyir;**-;wrrrr;wryuiuiiiiiiiiiippipppppppiyt-;wwtyiadaapapppaapapp",
"aittrwpafappippiippppipppirw;--*-yipdaaaaapaaaaaafaaaadaaaaaaddir;***-;wrrr;wtyuiiuiiuyyiipiiiiiiiipppiyt:-;wryipdaappppaaaapapp",
"autrwuafapppipppiippippiiir:;-**:uadaapaapaappaaaaaddaaaaadadair-o***-;www;wwryyiuuuuuiiiiiiippiiiipppiyt-;wryipddpppaapaapaaaaa",
"atrw:afappppipuippupuiiiiir;--*:tiddaapapaaaaaaadaaaaaaadaadair-XXo**=-ww=::ryytytuuuiiuuyiiiiiiiiiipiyy:-wruippdppppapadpaaaaaa",
"utw:afapppppppuipipippiiuyr;---rupaapppppaaadapdaadaaaadaadair-XXXXo***==;rryytttyuuuutyuuyypiiiiiiipiyt-;ryippdpppappppppapppaa",
"ur:ufapppuppppiiipuipppiiyr--*wupppappapaaapadaadaaaafaaadair-XXXXXXo*&X-;rrtttyyyyyuutyyiyyiiiuuippiyt:-wruppdppappaaaapapappaa",
"twuapippipiipiiuupuiuippuyw--*tiaapppaapppaaaaappafaaadadaur-XXXXXXXXoXXX-ytttuyttyttyyyyyuyuuuuiuiiiyt-;wyppdppppppapppppaaaaaa",
"rwapiippppippppiipuiipppuy;-*:yiapppaaappadadaaaaaaaaaadaur-oXXXXXXXXXXXXX;yttuuuutytttutyuiyuuuuiiiyyr;wyipdppppppaaapaapaaaaai",
"wppuiiuuiiiippiiuiiipuiiur;-:tipppppppapapapdpadaapddddpur-&&XXXXXXXXXXXXX-;utttttuuttyyyyyuyutyuuyyyt:wyipdppppppppapppaapapppu",
":puuiiuuiiiippuiipiiuuiiur--rupppppappappppapaaapapdaapyr:--&XXXXXXXXXXXXX-=;uttttuuttytyiuuiuyyuuyytrwyiidppppppppppppppppppppt",
"::wtuuuuuuuuiiuuiupiuuiiuw-:tiippppppappppdapdadpdaaiyr:-:;;oXXXXXXXXXXXX---=;ttttttttyyyyuuuutyiuyytwyypapppppppppppppppappppu:",
":::wrruuuuuuiiiuuuiiuuiir;:tyiiippppapppppaapdfappaiy:--::;=oXXXXXXXXXXX----==;ttttttttyuyuuyuyyyiyyrwyiappppppppppppppappppppu:",
":::::wtuuuuuiiuuuuiiiiyyw:tiiiiiiippppapaadpapadpdiy;--:::-&XXXXXXXXXXX-------;;tttttttiyttyuuttyyttwwipppppppppaappppaaaapppu::",
":::::::wrruuiiuuuuiiiiyt:tiiiiiiiiiippppaapfpdadpiy:--::::=oXXXXXXXXXX--------;;;tttttttttttttttyytrwyipppppppppaappppaaaapppt::",
":::::::::wtuuuuuuuuuiiyrtiiiiiiiiiiiiiiaapaadafpiy;--:rr:-&XXXXXXXXXX-----;;;;;;;;tttttttttttttttttwiippppppppppppppppppppppu:::",
":::::::::::wrruuuuuuiirruuuuuuuuuuuuuiiippdaafaiy:--;rrr:=oXXXXXXXXX------;;;;;;r;;ttttttttttttttttwiippppppppppppppppppppppu:::"
};
