/* XPM */
static char *_9_Wolfenstein3DWalls1735817070[] = {
/* columns rows colors chars-per-pixel */
"128 128 24 1 ",
"  c #2B230F",
". c #3B2F17",
"X c #43331B",
"o c #4B3B1B",
"O c #573F1F",
"+ c #5F4323",
"@ c #6F4B27",
"# c #774F2B",
"$ c #83532F",
"% c #875333",
"& c #8B5B33",
"* c #935F37",
"= c #9F633B",
"- c #A3673F",
"; c #AB6B43",
": c #B77347",
"> c #BF7B4B",
", c #C3774B",
"< c #CB7F4F",
"1 c #D38353",
"2 c #DF8B57",
"3 c #EB8F5B",
"4 c #EBA377",
"5 c #FFA773",
/* pixels */
"$&-:&-;;:;=;:=;:=:::;&*;*--;:*;;*;*:;::;;;::;;=;*--*=;=*-*-:;==:$ -::=:;;;=;;;-=;:;>;<;;;&&;;;*;*&-;&=&:&;==*&;-**:-;;*::<<=<<%+",
"#331::;111:;;:-:::::-:::::;;;;::;:>>:;>:::::::::::>:::>:>:;>:::&$ ;532<<<<<<<<<<<:><<<>><112>><>>:>>::>:<:<::<><>>>><>>>>:<>>:%+",
"#3*&%=$-$&%%*%=$&&=&$&**$$*%%;**&$%$;*==&-;=:-*;&&==-;;;-:=;==**# :3;====;=:;;;;;;;;%%==%<=;-=**=*:&=$$*=*&&*;*-&;*$;*;%-=;$-$@+",
"*1*=$*#**$**%$%=$%$$;*=&*-&$-$&$$&&$&=&=$-**:;-*&:=;;==::&=;&==*$ <2=<==::::;;=:====&==*=*<=%===&&&==**$*-***-**==*:*==;$===$=++",
"*<=*=%*#*$$$%$$%%-$*=**=$$*@=*%=$&**%=;=&-*;;:-;::>:-:;;;===**=*#.*<=;$=&===-*===*-*::;;*-&:;=&===-;*-=*==;;;;=*;:=<**:::&;*=$#+",
"*<:=-*#*&&**&%$=%-=;&*&==$$&-$-**#$%*-==*-;;:;::::;:;:-:*:=:=<=$+.*<;&;=*&&==*====**--;:;*=*&;=&**%=-:=*:==;::;:<:><:;*<<>>===$@",
"&<=*#%*%&*%%==$=&%$=;$-*-***%#=&=%$*;-:=:*-;=;==-:>;;;->>:<<>>=*#.=<&&**$==;;=&===;=;*-;;-%==**=;=--:-;:>:::--:<>=-:=;-::-;=-=$+",
"=<*=%*#*&*=--;**&;$$=%-*=$-*#-*&==**&;=:-;;:;:;*->-:;*=-:*:;*=&&@X=<===&&***-:&=;:-=**;*;=;*;&:**;**;;<:;:;<;::=**%::=;;=-%&-%@+",
"=<*%%%-;=:-$:$--*=--;-=-;=%-*==&$%:==*=*--=:=;&%$;=&--:=<=*=*&%&+X*:-*:*=;;**=*-=:--&:-;;***=&=**&;:=*&-*=;=::*&=*:*&;==;::&-=#+",
"*>*--;-*;*-==;;>-==;*-;*=%*;$&%=;;;;%:::==;=*%=***==:<:=*;=;%==*@+*<-:;-;:=::::=&*&&%;=*;==*;===;*;;<*;==*-*:$$-*=**=*==$%*$-=#O",
":>>>>=:=**;=;--;*=*==*==*=&$==&;*::*;:*==;;;=-=-==;:;=-;-*$;:-&&+.-<;:;*;*;;:<:;:*==*;-*%-&*:*;;*-=;:*:;;&;==$$&**:=*&===%$**$@+",
"*<->*=*-;%*==-*;-$*;;*;;%=;*=$==:;;::::*;:--***-;::;&=:-%*=&;*$=@X-<*:-::*:;=;;;=:=*-*==%:::=*:<<-=:*=====*=$*-$$$==&&=%&%-&$$@+",
"-::>==**$**==%$*&&-*=&=*;*<::***:;=;*:;>:=:--==;<===;&=**=&*=**&@.-:=****:-**:;&;;&&&&=*=$&=;;;==&-&;=*===$&$$%$$**$%%&*%==$$=#+",
"%::-%=$;=***=&$==&%-==$%=;=><=;==*=**><;*=--=*==&::==&&=-=*===*%@+*<;=***;-:-;;&&===*=-==;:=::=;==%=;==&=&&*-$$%=%%=**=$$$$$%*#O",
"*:=*$$====***&=%$&$%;-:-*<->-;;:*&%==***--=-<:=:;=::*==:===&&=%$++;;*;=*&=&&;$====%;=;*=**:;=;==*====&=*&$$$=$==$%*&*&$==$%=$=$@",
"%:=*$;*=%=*-$&**$&*$%*;=%=>;:;>=->$*=;;*=%%-:;;;:=*===*==**==&$*#O;<=;-**-*-&==&=:%;;;=:==;$&;=&==*;-:=%$%$%%%=%=&==$%$$$-*&=$+@",
"#:***-$;%**&%*--*&&$==%*&*=::>&->*===*-&*->%;*&=**:;***:=:&*=;-&#O:::-=:::==:&=;;=;=;==;<:===;***$==;==-=$$$&*;=*&%=%*$$=*$$&&+O",
"*:-:::-*=*;==*=;=--*==;%*=$*=>::--;=-=>==:**;;*=-=&==;=:*:=*;;;;#o->;;=;**;:=-;::====;&;;*=$==%%$$*&%$%*$$=%=*=;;**%&$=$$=$$-$@+",
"%>:;&&*$%=*=*=-=-=;;=;&=&=$$;$-=>;:;>;**&*$%==&;**;*=======;-:*=$X;>;-;::=*>=:-:=-====*$;**;==%*%&=*&=%*-=%=**%;;%*%*%$&*-$&$&#@",
"-:=-*&*%=-$*-*;=;-;;;==:-%=;*-*;>;;=*;-&=*=%;%&*=;:::--=::=::>;=#X;>;=*-=::;=::;-*===;===;====&*$*%$=;%$===$$===-=*==$%$$$$;%;%@",
"->-=---**-;=-$-::*===;:-;--*&$==>%>>>===-&&$&&*==*=:>:=;;*>:*:==$X;>:>:-;=:::::::%;;*;=;=;$&*$$&%$&*$*&*%*=&-;*;%;**=$$&*-===>#+",
"-<=;&%-$&-*===%*:-=:;==>-;=*;;=--;==**$$$$&*&*=&**;&:=;&;=:=*:==@o:<:=:-=;:;;:*::;=;;;=;==$%=%$@*&&$=*=;-%==&&-*%*;*$=%#&-=:>;$+",
"=>=;-;=;;===:*;::=;>->>=*=*==;=&$$;$=&=&-*--&:::*-:*-&=*==;;=*$=@o::::-:-=-::>;:=;=&**;*=*&$$$=*;=*$$*=**=*;&*;-**=**%$%$*-*=*$+",
":>;:*=*->;;=;;&::=>>==*;;&=>$**$$$=*%=**=-*$$=&--;***-=*$***=**$$O:<-=:=*;:::;=:-=;=&=&=%**=&$=$$=*$-%===*=*====$=-%-=*-%$&*=*@+",
"-:><*=;<<::*::<=>==>**;===:;=*-=*&&$*&**$*%*;=:;:=;;*$*&%===&$*-#O-2::::;=;:*;-&&$***&=$=&%$*$$=$&$&==&$&*=$&=&=*&-==;==$%$=*$@+",
"&:=;;;=:-===;:::;=*=>=>;*=;==-$===*$$*$$=$$$==*:--*-&**=*$$$*=&*++*2**;--;-*;-;=$$$=$;;*&%-:=$&$$$$-==&$-**=;*:&**%%*$=*$$$=**++",
"&>;;::=::===;:;;&;;=-;>>;;=$;*-===$$-%****=$$&:*===-&*;==*%$=&=$@+%<=;-::;=*&&=;&&&-&=*%;===*&&*&=$=&=$$&*=&%;**==&=*%**$&*>&*@+",
"*:=:=:::=;=::;-;*=-&;;=;;;;&$;$*&=--*;-$%*;$$&&&;=*&;====-%%*:;=@+*:==::;;*;&=;*;&%*==&$$%=&==$&&$$$%&&**%&**%==;&=&==--$&*-=$@+",
"=>*:==;-==-;>=:=%=$%*-*--;==&;*;;->=;=-*&*%***=&-=-%$==*=%-;*;:=@+*:=;:;&==&&&*=&**%&=;%==;;**$*$$*%&$=$%&$&%%**&*$&&*=*-&=%**@+",
"*>;;::*;;=;&;=-:%-&$--=&;;;>--%-==-;&;;>>----:$=-==;%=&*;-===:::#+=:=::=*=*&:=*==*=%-*=*==**$$=%==@$&$&$$=$$%*&*&=;=***=;--%-*#+",
"%:;;$;;=*;-;=;==*--**=-=;=;>=%-*=-=&$;**=$-&=-;==**;;=::&;:=;;;:@+=1-&==**%*;*&$&$%*%;&*=*&*$$@@=-$**$*%=$*-=%%$=;&%&*;=-=$*:=@@",
"-:==*&;;;=$==&:;=*-*--=*===;=*->::;**;$-%*-%>*;>*&:=;;;;:=;:=-;;$@=1;;;==***;;==*;$-*&$%*=$=&*$*=*$**$*$$&%%;%%=$*;&%%-=**=;==@@",
"-::>;=--=-*:;;-----#-=;*=**=;;=:*==;%=*---1%=-==%=;*:;;:;:==<:*-@+*:-&%**$*$%$@$&**&$=-=$%$;=**%=&$*%&$$%=%%$=%$&&&%&*==&&&$%*@@",
"*:===*---&--;-*-=;>:%-*-=--&;=;;===:;;;-%11=:-*::::-=*=*;=;::*%=+@*:==*-&$&=*&***&$*%$**$%**===;&$=$**&$%:$&$$=%===--$$=&=&**%#+",
"*:===-=;==--=;=*&-$=::>>=--$;-:::=>=:&&%%::;;-:*::=:=*-*;*-***;$@O;:&*==&*&-=*%$*==&*$&=$&&*-*=*;;--==%%*=&&$@$$**;=&$*&$===%%@+",
"%:%=*=-**=-*-%==-==$&*%=;==>>==;<::=:&*-=::=;-;-:-:;&;%*-=**&&=*OO&::**&$&$*=$&*$***$$$$$=%%*;***=&&=&#%&=&&*@@*%%==%*$$&=$$%=++",
"#:=*&%##&%:$*=:=;=:=&--&*=;;==:&=:=::;=:=;:;==*=-*=*=;:=&&&%=&*$++&:$*%&%%&&&&&*==$**=%%&*&$&:**=&$=$=*&&$@@*@$$$%==#%==&&$$$%++",
"-:;=$&*-&=&*-=---*%-===-=-;*:;::*%-==;;-=*%=:;&=%*;=;*=&:%;*;*;=@+&;**%-=$=&%&==&$&$*=&-$*&==&===%**$%$*%&$$*@%$$%*%%%=::*$*$%@+",
"=:%*&$$***%=**-%-$$**$*=--===*=*=$==;====;=:;=**;*%**&&&*&;;**&$#+*:;*%&$$$*&$*%$%*=&=;&%*%=-==;*%**=$$$%&$$$$%&$---*%&;&$****$+",
"*:=%%==$*$*=;:*=*$&$=*==*=*%==%%&&*=;*;&=;*=*=*=$===$=%%;=**%*%$#O*:**%%&%%$$%%*$*%%&=;&%%*%=%%%*%%=$&*=====;*$=-:>:=%=**$*$$%++",
":>;==&%*$$%*=&&=*=-*=&==*%&;=*$*%$*&*=*===&%*=%*-&=%=&==&=&%-=##++;:%*%%&$=%$;&**;==&;&&&-**=$$**$&$=&=%&$=-;:::-&*-%%====&&&=@+",
"#:<:-:;*&*;-==$**;=*&&*=*;&=&*$*-&%$&*%#$====*%=*$&=:&*%-==*==$%+O=:=*-&%*&%$$;;=&$&&&*$=&&&*$&$$$=$$=%%%*:>:*;=$==*;**$$$&$&*@@",
"&:-*-;*&$&;;--;;=><=-&==-;==*$&$@*##$%=%$%%$*%*$%$$=&*&*=%$%=&*#@O=:&=&&=%=*-=*==*&$*%$%$*$$#%%&%%$**=*;==-:;;*=*%*-**=&*%&=*;#+",
"#::%*$**$*=-:*;=--;==;&&-;&=$*$-=$=#*=%%**=%=%$&@$$=;=;**=**=:&$@+::&;;=*==%;&=*-**&%%&$&*$$%%%%%=&=-;;>:;==;;*$*%&%%=$&=%**=*@+",
"&:**&%$&*&%==***=;**&**%$;%**$&%**=#**=%==*%%$$&&=%*=*%;&===$%=$#+*:====*%**&$*$&*$$&&*$$%$=%=*==%=--%;%=;;;&=$*&*&&>&=%&;;=%=#+",
"&::&$-*-&:==*=%&*=*=$*%$=&$%%%-$%;-&%&*=$=$*=$%&=$==**===&=*$==$++-:;*;;**;&=$&**==$$%*%$@$$**=-;;*$$-*$=;=&=*$&#&**&$=*;**-==#+",
"*:*=$$*&*&**-=*;**==$$$$$$$#&#*%-==$*&&&&&&**$=%%*-:$=&==%$&$%&#$+*:;;-%$%@&&*%%*;;*$%%;;=&--=>>=-;==;=&;$===$$*%%*$=%*--=*=&&+O",
"*<=&*=:-;;=;:&*=;=*$%$@$$$$%**$$%-;$%$*=%&$*=&%;=*=*=*&&&*%&%%###+*:&=*%$$&&*%=%=*;&=*-;==;=*-==-%*;**=--&;*$*=*&**&--=-:=:=&=@@",
";1*=:;*;;=::****-*%$&$#$&##%##$;$*=*%:=&=-*$$**&&=$$&@&*$&&;=$###O&:$**&@$=%*=**==*;*-*=;*-=$=*=-&&=&==;*=;=*;=&*=#=*:=:*:->==$+",
"=1;;=;*;-=>:<-*=*&%*&&*-=&#*#&#=;-%%*=;;=**;*&*-*$$&$&&&&$=$=&**@o=:*=$&*%&;;;*;=>-;&$$;;%&*==$&=&=*&-&-=*&*==;&**>-=>;::;=%=*#+",
"*1;=&=;::<%=;-=&%**==*-*=*=&*%*&;*==;;;;;;:;;::-:=$$*=*=&--*===$@o=:%&=$$=%;**=>-=&&%$==%**=*=%*$$%&;;-*-===;&:->:-*-;:=&:;*:%$+",
"*<;%;=:=**=**;=$:%*;;&*%==*#&=*$%$*:===--;:--;=:<;=*;;;;=*::;:-*$o;:%&=;**;>*-*==;$***$*$=*&*==*--=-=;&&--==;:-<==&*=*;======$$@",
"*:%===***;-*$=$**=&=;==%*-**==&-*=*=&=;=*&==**=;;:=:*;-=:;=:=:$%$o;:-;>>;>;$;*&*-*=$*$$$&*$*=%=;;;;;=&=*:-=:::;:%&*=;*-==$--::*+",
"&<**&&=*=*-=$***%==;;=>%:-:-==-=;==;:&::;:=&:-:;:&=;:=:::=::=;;-#X&-&>;;=>;$*=&-*;*;%;*=%$$&=:::>>>:>=;===;;;*;=*-=;>=:-:===:;$+",
"&<=;%=&-&*=-%%%%=;**-;;-**=*&:*:>=:;-=;>;=*===;>:-;:-:-:;;;**&-*$X-;%:==;;=:;*==&;;-=-%$=$:-><<>>:<<;==;;;=-;:->=--=::=:--&=-*@+",
"#:;-:*&=;-=-==-**-;&*-=&=;-&==;-;;-->=$*=;:=;:*=;=---::;-=;;;=*$@X=>==;;*%;=;=>*$;*&*;=-=;=-;;:::;:;:=;&===*==*;-**;:;*:=*&%%%$+",
"=>;;:-=;-::&;;=**===&-=-*;*-*%-*;;:-:;&;:=;==-;-=;&*-:**==-$*-**$X::==$*&&;=;*==*=;=:;=-;-=-;*=;:;=;;=;;:&*&===:&*:%**;**=**$$++",
"$>;-:*-:=-:*-=*=-=*-;%=;-;==-%*:&$-==*:*;=:-:=>:>;;::::***=--$*-#X;:%;*==:;:;=;;===:==;<&==:&=&;=$;-==*-==*=$=$*$**=*%*&*-%%$*#+",
";>:::::*-*;====*=*;&;=:=;-;;-=:-:==:--==;;&::%*;;=:-;<<:>-:*==&-%X=;-=&:-<;==-=;;;&=&=;::*====&&=;*;==;==:==;=;$=&&%&=**&=**%&@+",
"$>;::;;*-=*;=*=;&=*:;*--;=;%-::;;&;==-=====;-*;**<=->;;=;;;;;;-*#X=:;>>-;*=::;=*=$$=-*:=*==$&=&===:=&==*;&;&%%%%%*&%&*%-*=%-$=$+",
"&:;:===*$;;=****---=*;;=*=:*==;;;=*&=-=;;&;=-=;%$:;=;;;->;;;&=*%# ;>;=*&=-*=;-;*===;=&=&&&=*;=&:==;;*&=;*==&==$&$=$$=$*$%=****$+",
"&:>-:=-==%**-=-*-%%*=;**--;:*=;-:=**:==;;%=;*=::;=&=-**->>===*&&$ =:$===;*=*;;=*;$;$:*====&=:=;:;;=**=&*=%*&$$=$&=**$=$%=%%%&%@+",
";:==$==-*-**%&=$$&*#-&;$$;=;*=$==&-&*=*$#*;;**=:--*=&-=-;=$$$=&&$ &:&&&$**&;*=;==*-***=$*=%$-$%=$$$*$*=$$$$$$$$$%*&#$$##%*&&*&#O",
"&:::==:*****-*--*=#-**&=$=$=*==;=*=*=;;=;:::*&==**%$$$=--$$=%&&*@ $=-*=*&-%&=$=%*#*&&$&==%*-*$%=$=$$*%$=@*$$&=$$-*$*&&#-&*#*%#+O",
"$$$$$$$$$%#+@$$@@$&@#$$@#$$#+OO+$#$$@+@%$##@+##@$###+####@@+#@##O O@#+##$@+@#++#+@#$+$$@$@@#@++#++@++@++@##@@@#+@+@@+#+@#@+@+@+o",
"....OOXX+O@++@@+o+++O+@@@+@+O++@@@+O+oooooo+OO+OOOO+ooXXXXXXXXXX      XXXXXXXXXXXXXXXXXXXXXXXXXXXXXoXoXoooOoOoOoXOOO++@+XX XX XX",
"->;:;:**=;=:;;>:<<:<11<:<:=-====-:><:=*&=-&$$&===**=*-==;;=:;==&& &::-=-;;;;-;-;;;;--=:;;-;***=-----;--;::::::;::-::-;---;:-*-$@",
"=43<<<::>:>;;;:::::::::;:>;>;;>:;:::;::;>>:>:>>>:>:;:::::>:::>>;&.;22<22211<<1,:::<::>,,><>:;-;<<1:<,>113311>,1<,,,>:>,,::,>>=$@",
"-3*&=$**$;==**=***;=*&::::==::*:;=$*;==*;-;::==;;==&*-=;:==$*&--&.;2=$-*:==&=*=*-*-&*&&&&&@$%*%&-*;--:;=:=:;;=*==;=***=&&=$=-*+O",
"&<=*$*$=*&*%&=*$;*=*====;::=&:=&=%**===:=::===***==:=;%;:-:;-;=*$.;<=-*-=;===&*=;-=*&&$=**&&*%%=:*=-*-;;**;*--:=&***:*%=*-&=-;#@",
"&<%%&**%-&$=$=$%$-%-**;*;*=%===$=-*=-===-=:;==;=-;=;:*-=&=*==%*=#o:>***-**=====*===*=&&&&&&;*;;=-*;::=-=:-*;*=*===&;=;%&&=&==$@@",
"$<==$&&$&$$=%*$$$*==***;=*&%&$$%$=&$&:*%=;=;::=-&;=:;=**===$-=$*%o:>&$=%*-&&**$*&&&&&=;;*=*%===;&*-;;-**=*:---=%$=*-*=-*=&=**&@O",
"#<*%*&%$**$%%*&$=%$=****=&$$$$$&$*&=&*&**&*==;%*-==*;&&%**=&-;==#o;>**=*-:;*&&%%$*%**%=:=;:=====:&;;:;*-;;*;-=%=*=-;--;%=*=;*=#+",
"=<=*&%====*=---=%:=:-**=;=$=$*&=&=$%$$$***%=---$===;;=%*-*:-*=$=@o;:;$*&*-*&&*=%&=*;;;===*;:=&=;;;&=:;:;=*-:=**=*:;;;*:**=**&=$+",
"=>*=&%-===*=;=:===&;:=&=%$=*===$=$*%$$$*&***%***-;====;;**=&**&#@O=:%*=$**&=;*%*-;;;&==-*=;=**;*&;*=;=*-:=;=%%;=;=:-;=;-=&$&=*@+",
"*:;;&*;--=*$;:=&*=*:;&=&$*=;*%&$$%#*&*=$%%$&$&&&&&=&--*=&$%%**##+O*,%*%%&%%$=%-===;=::;&;:;=:>;==:==:<:=<--=;*-;**=**-**======@+",
"*::-&*=*=;;;--==%:*$--;-**=:*&$;$=&&***===*&&$@*$*%===$-%&=$@%$#@O*,$$$%$*=%*;;:==&=;&;==%;=;;;=*-:=;-:;:->:*;*%=;==&===*&=-=&@+",
"&:=;-==%=====&--%==&%=**&$:$-=$%=*===;;;;=--=**%==$&$$&&@*%$@$@&++$:*$@=-%=*;;:;**%$==%=-=*==;%==;=:&%*;;->=:-;----*-=*=====*=$O",
"->:;--::;==**===%**-*&-*&&=$&*$*-*;;:>:;;;*;;--==*%$$$-$*%$*$$#@@+=:$=;===$;*--=$*=$=%%=**=$$&&:&&*=;&***;=:>:-***;=-*=;*===&=@@",
"-:;;-&:*-=;;=;;=-==*&-=$$;*&*----:>::<:-:**->=;;-&==&$$&&@%$$*@$@O&:$=$;=**&%$*=%&$$;;***=&*=$;;=;=::-=$=$;;;:;;:=-=*====%%%*;$@",
"::;:-;::;>===*--%$&=$$$%**%----*---;;;=---;;-*;>;&&;&&---&&&*$&#@O=:**;;=;>*-%&-$%%***%%=&===*%%*;;:;-&:=;=;:->--:;;=;-**;;*;-&@",
"-:-:::<-::<:=;===*&&-*&;&=;>:;=%-&==%;-&:=-&*=;;=;:-:;;=&-;-*=&*#@=1$;=;>=*=*%:&$$%***%*=;;==&;;*=;:&&:*;;**;*-*;=*;=;-*&=*&*=+@",
"%:;;:==;-->>>=;==-*-=*--*;;*=;==-;*=$;*&-**=-:--*:--:;==;-;=*--&#@=<=;==$*=*$$$&$%&*%*;;;>>;;&=&&*;-=**&=-=*==*=-=;$$=$%=*=*%=@@",
"-:::====*>;;>>;;;--;>-*=:;-===%=*==-*&=%-**-:;:-:-:==&;:=;=;-;*&&+=>=*&==$$@==&**%&=*;=;*;-&=%&*;*;=&-=;*=;*&**-*;=;*-*=$=&*$*#@",
"-:*;:&;=;;=>;>>>:;>>==::--*;=-=;**==-&=**-;;=-=-=---==:*=*;=&;=$#+*,*&*=&&&=%&==-=*;;;;;;*%==;=;*$&%*==***%====-=**=*=**==*=$*@+",
"*:*-=:==&&=;;=;>>*;-*:>>:-*$;*&--=*=;*;=-$==**===-:--;;:=&*=:;-$@+;,$$&&&&&&==;*-;::;;=;;;%--*==%=%&&$&&%%**%%===*&*%*&&;$=$$*++",
"#;=&&;;===:=*$=-*-=::>::=-=$*;$&;=&=;:-**&*$&=;&;&=**--;=$=&&=*-#+*:*&*$&=*;&&=:::;=:&=*=*&=--=*&&&*&=&$$=$-*%&=-*=-&=*$====%%@+",
"$;;-$=-*&**;;;:;:$$$;;;=&*-$=$&;=*&=*$*$*$*=*&=*;&=;*;=*==&==**&#O=:=&*=&&=-*:::;=&=**:=*=;==-=;&&==&;=$&$=*%*&&;*-=:=&%;**=;%$+",
"*;==$=$-;*;==-=$=----=====-=*$%=;&*&*%$$$&**=*%$*=;=$*$&$$*&=$##++&:&=&;*=*;;;:;-==*&***=***==*&*%**&**%%-*=&=*&*&*-=:=;*%-**-@+",
"&:==;=**;;==;=;=&-*==$;;;-*=;-*$%&%%&**;=$*%%%%$$$%$*%==&$@$=;&%@o=<=;*-;;;:;;*&***==**;-*;***-=*&%%**=*==$***%**%%%*=****$%=$@+",
"&>&:;*=%;=;>>%-;-%&&*=-=;=;:&*$;;&=*&=$@$*@$&$=%%&%$$*$%%#$**&-&@o=,-;=====*=**==$=%&==&**&&&*&========****%;=&$$**&&&%$*$*$=$++",
"-::=;>>>;>=-*****=$=*$%%*==&;&$*&*=$$=%*%*$-%%$-$%**-%**#&=*=&*%$o=,=*:*;****%*=$=*=*==;:;=&*==&*;;*==%**%;%$$$&*&*$&$*%%$*%=&$+",
"->>:===;-*:&&&==*$&&$&=*%=&&=&%=$%&$$$=%*-#%**%%*$&&&$$$&$#%$%%&#o=,=*:*===;*$=$$======*&=;&&=*=&$*%&=&**&****===%$$$&$&$$%&%&#+",
"*>;=;*$=*=&&=*%%&*=$&$&&=&;$%%$*&&=&$*;%$-#&&&&-$$*&$&$=$$-=$&*%#o;:=-=;=&;&&;-=*&&=**==;*==*=-*&&%&&=&;$*&&$*&&&$=&*&$=$*%**=@+",
"%:*%$=&=:&=:=*:==&$-;$%&*&$&*$*$*&;===&=#-&#&*&&%#&#&*#&&&&===--#o;,=====**;%%;;;-=&;=*&&=$**-*&%$-=$=&$-%**$%=&&*$&&%$%*&*=*=@@",
"#:*=$$:==&$&&&&&$=**&*=*&=&*&--*%&===$*#-*&=**&&*&#***$-#=$$*;*-#+&:==&;;*&==%=$%&====&$==*=$***=%**%$@%$$$$$$$&%$=$@%*%$&*=&*$+",
"#-=&=$$$$$@@$$%%*==**-==-$$*$-=**-&***&&*#&=#&&&#$&*=****->-==-*$+;1;;=:===%*;=;&=:=*-==%*%=$*$%=$&==*&*===#*%$%-$%%$$==*&*&&=@+",
"&;==*;&=$$&==&%%==&-%===$$=$*&$;$=%&&-#$$$$&&=--*#*&=*--:**;$;*-#+=<:=*=*$=*%===;;=*=*;;*$$**$$=$=*&*$=$$&==%%==&===$$&&$&&=&;@@",
"#--;**&&%%*-;%:=&=;*-$*%=*&=*$=*$%$-%$%%#&$&#*&**%*-;;:&;;*=-==&$X=<::*=;;=-&==&&===*==;;%*==*&=*$=;*=%*=*>=&-====%%==$$$$=*;;#+",
"#:*&=&&$%**==*;&&-;*&$$==&*=$***&&*&$&****-%=&-*%-;;;&>=*;;$=*$=@X-2=:&==--%=*==&***$*-&;***=&&*=$;==*%=&===$$;=--==*&&*;-;;;;@+",
"%;==&*=*-*====&=*=;=-*=%$&$$$$%%&$%%-#&$*-###&&&=-;:::=*-==-==$=$+:2*;=**-%&$=:=:*&=&**;=&*==;&&&*=&&%==--;&=&*&-*&$*-;*>>-:%=@+",
"->*&&=*-=-;=>*---&=&%*==&$$**&&%$*##$#$**#*###@#-::;;==*-===*-;=$.>2=:=;***-**=:-*=;;====*%***=*&%%=**==*&&*$**%**;;:=:=*;=;=*$O",
"$:=**=;*;::=-=:*:=;=*=*$$$*$&*-&&&&&#&&&*#*%$$#*=%**=**:-;;;=;=;#X:<;*%&=&-$&==:::*:;:***==%%**====&%%=*&=$&-=%=*=-::===**-&&#@O",
"$>==**>*&;;:=-=;*=:*-*$@=*$=&;&&&&=&***&%*&%=$=%%$**:*;;-;**=>--+.;1%***=-=&===&=;:=:;*=**=*-=%*=&&&*&*==*$=*%*;=;-;;==$*=-*#*+O",
"*>:=;*=;:=*-*=;*-;;*;*$-*-=*--&&&==&--*-**&-*%;=**;-****;**&=:*%# -,=$&&%*%*-****-*-;*&*%%;*=*-=;&*=**&&=$=*==;=--;-&***=-*#&$@+",
"%>:-:=*:=&;;;;=:=:=:*;;=*=*%&&#&&*&*:&:-;=:***=:%:=:-*=;=*%&==$&$ *1===*;;*=**&&*;%=--*%*=*&*-%*;====:=&;;&;;==**===*=*--***#*#+",
"=:*;;:==;;=;-*:=:&*;===-====$&-#*;&&&-==;==:;***:;;==**=&=*&&=%@+.*>&****%-%*%*&*-*=:=$-====&$=&*&%=;:==::=:>=**---=;=;;$$&&==@O",
"#:;-:=:;;*%;;=>-*====;**$$*$=$*=*=&$$-=&$=&:;**=&&*%::;;=**&*$$$@.*,*&*%%%%%$=&--*===&=*==*;*=%-==;-;::>:::::;*%*-*-;=-%=$-&*=#+",
"$;:*%&%&&*-===*:*&=&%*%*=%=;==$=>;>*=&===>**-=;=*&=*=;*=*:*=;==%@X=:=&%$$$$$&&;***:==$-==%*=**==:=-%*;;;:<:;;*;&=&=*=&$&$*&=&&++",
"$>-;=&%$$$%$%&*=*&&**%$$=%*--;=;$;&%%*;==*=&==*;=***=*==*=;====*#X:<&=*%*%$;;&;---=*&;=*$&$*$*=%;==*;<<::=&*==;:*%&$&%$**&$=**@O",
"&>:;&=*%&&=&=;:=;=;*=*$====-->>=;*==&==:=***%=*=&$=$;*===*====*&+X=<$;&&*=$*=;=;-:;***%=*;;-&*;;;;*:;:-;&&-;==;&&$=$;**&=*&=-*@+",
"*>*;;::*=*:;;=:<:*;>%;$=>>=;>$*=%=&:=*&=*===%=%;**==$*&*=$&:==$*+X;<:&=&&$**=&;;::=--*$=;*$==--;*=:>;;&=&%$&$;==$$=$$*&;&*&%*%+O",
";;*:=:=>**=;>;;*=:::%%*=:;;=&*==**-===*;%%&&$*=*&$**&-;&&=*%*$&&@o*<;:;*%$===;:;-:-=-*-==*-;;;**=::;;*==**;*&====%==*%==>=&=*$@O",
"=>:<::==*$=*-;-;*;;>=$=;=*&==:&*;$%-;&%%=%==$=%;--=%%$$**&-*->-;$X=,*;-****=;;;-:*--:-*-&%-$==;::;**&$=$$=&=*&**;==*=*=*;&&&$*@+",
"*>>*=-====-=&=-;>==&*;;:=;;;===**==%&===$$*&*=*=*%%*&$$&;===&-*#@X=<&&*;=*;::==-*=***=$=%&&=*$---*$@$$&$$==$&&*==&=*$==%&**%*&@O",
":;:;$*-$--==*-$-;:=::;=%*=&*===$$*&&=&$==***$*;=$&;&$&=$;$=;=&&#+X-<*-=;*;:=;$*$&%#$&$@*%*$$$=*$*$$@%$&$$$$=@=%*$@$==@$=&&*$*$+o",
";-=%==;=*;**-*=&*;=:>*=*;===$$$*&$*$$%%%=$=$$=&$%==*&==;;=>==;#*#o>:&*;=;==*&*$#&#$$&@@*##@@$$$$=&$$$$##&@$@$&**%@$$%$%%&$$$=&+O",
"=>*-;==;=*=-%*:===--;;-==%&$$$&$$%$$$@=*$$$$&%$$$=-%*=>;;&&$&=#&@o<1*===;*%&##$#$#&&=%&&#@@@&$*%&@=$*$$$@$=%&=*$=@*$%$%=&==&&&@+",
"#>;-*-::=::-;%=-;*-&==;$=*$*$=$$$$$$$$*&$$%%&*$$*$-$=%=*%==&&$#*$+-:=%==**$-&&#&*$*&&-=%##%%@$$&%$$$-&*$*$=%*&&$=*&$*%%=*%=&&$$+",
"&>*:;;*:--::-;*==*=&=*&$&**-=$$*$$$$$$=@$%%&%@@=$@$$*=*$*%$$$*%#$ &,-=***==%*&&#&$$$$%@*&$$%$&%$&$&=;;$$=*=&*&*&&$*-**-*&%*$$=@@",
"&:;;*-=;-:-:&**$%&%=%-*%=*=%$$&*$$=$&@$$@=$$=$$$$%&&=$*&$*;:;;*#+ *1=-**=&&%*=*%*&=%=&$*$&&&&==%;$$==*%;*$-$$=$$&%*$-=%*-%$$@&@O",
"->*;=&:=&-=*&:***=****%*;$$$&@$*%$$==;**=**%$$$&&$&&=-;>*:*;=*%%@o=<=&*;*==&*-$*#%$=-&==*$*%$*=$$$*$=$&$=*%*$-$&&=$=%%%#%%$@*@@+",
"*:;;%=$&%===:*==*-&$-&%$;$$&&=%=%**$&$=$%$&*$&===*==::&:=*&-=**%@o*<=%$$=*%;*-**=&=**&&**=$**&%%=%&$%%&$$$$%*$@&$$=#$&&*$$*@&=++",
"$:=*=**$*=*%**=*%$$=&*&$%&$&%&;*%%%*&$$$$$$$&$***=-*===*&&&***&$+ =<-;$$***%===**&&*$;=***%%#%$*%%$=%$$%$&$$$$$$@@@@*$$$*$$%&&#@",
"&;&;&=&*$%==%$=$-&*=$$*=$$*&=&*=%*=*$$$@$$==$****;;;*=*&&&&**&*&@.=>=*&$&*&%-*-=&%=**;*$&*$*&&$-===$$$$@&=$$%&$$%@$$$*$*&=*;==#+",
"#;=-;%$==*;*$=$**%&&&$$***$=$$*-***%*%$&&===*==***;=-==*&%&&=$#%@ *1==&&=****=%*==&*&$&***&-%&*%%&$$$$&=$%=$$$&$=@@%#*&=;&=;$-++",
"$##%+$@#+##@@+#@@+++++@@+@##+@#@@#$$$#@@@&&&##$##$@$$#@@@###$@#$@ $$#$@@@@@##$@$#@@@#$@@#@#+@@@$@@##+++@@@#+@+#+++@@#$$#@@$$@++o",
"+@#$$@+++@+#@@@+##+@@++@@@##@#@@+$$@$$@@$$&#@@@@@@@@#+++++O+++OXX  XoOo++++OOO+++++@++++OO++OO++OO+O+O+O+OOOOOOOO@+OO++O+OO+O+o+"
};
