/* XPM */
static char *fa651679bd9f407ef13d04d2efd5e1e4cfnXtZPtrgpDwuPJ[] = {
/* columns rows colors chars-per-pixel */
"32 32 2 1 ",
"  c None",
". c #CFD3E2",
/* pixels */
"                                ",
"                                ",
"                                ",
"                                ",
"                                ",
"                                ",
"                                ",
"                                ",
"                                ",
"                                ",
"              ....              ",
"              ....              ",
"              ....              ",
"              ....              ",
"          ............          ",
"          ............          ",
"          ..  ....  ..          ",
"          ..  ....  ..          ",
"          ............          ",
"          ............          ",
"            ........            ",
"            ........            ",
"                                ",
"                                ",
"                                ",
"                                ",
"                                ",
"                                ",
"                                ",
"                                ",
"                                ",
"                                "
};
